<svg xmlns="http://www.w3.org/2000/svg" xmlns:xlink="http://www.w3.org/1999/xlink" width="305.867" height="353.354" viewBox="0 0 305.867 353.354">
  <defs>
    <clipPath id="clip-path">
      <rect id="Rectángulo_29369" data-name="Rectángulo 29369" width="245.968" height="350.504" fill="none"/>
    </clipPath>
  </defs>
  <g id="Grupo_28681" data-name="Grupo 28681" transform="translate(-922.194 -11093.456)">
    <ellipse id="Elipse_965" data-name="Elipse 965" cx="104.356" cy="18.251" rx="104.356" ry="18.251" transform="translate(1019.349 11410.31)" fill="#aed3f2"/>
    <g id="Grupo_27345" data-name="Grupo 27345" transform="translate(922.194 11093.456)">
      <g id="Grupo_27344" data-name="Grupo 27344" clip-path="url(#clip-path)">
        <path id="Trazado_69837" data-name="Trazado 69837" d="M105.9,118.022c-2.869-2.593-8.593-3.19-10.52-2.527-3.507,1.2-11.2,3.373-11.412,5.167-.073.633,3.643,5.042,7.142,5.585,2.377.369,12.971-.577,15.479-3.2,1.293-1.35.316-4.121-.689-5.03" transform="translate(5.376 7.378)" fill="#f7a17a"/>
        <path id="Trazado_69838" data-name="Trazado 69838" d="M92.413,112.99c-.331.014-8.632.969-9.32,2.523s3.408,1.262,5.781,1.22c5.067-.087,5.117,3.03,10.609,4.621s8.856,1.47,8.241-.586c-2.293-7.666-9.653-8.012-15.311-7.778" transform="translate(5.315 7.231)" fill="#f7a17a"/>
        <path id="Trazado_69839" data-name="Trazado 69839" d="M107.381,120.356a3.694,3.694,0,0,0-3.546-2.72c-2.887-.03-8.569,3.338-9.723,4.169s-5.375-.033-5.868,2.015.229,1.99,2.8,2.3,17.425-.013,16.335-5.765" transform="translate(5.64 7.531)" fill="#fab992"/>
        <path id="Trazado_69840" data-name="Trazado 69840" d="M92.093,126s-4.274.045-4.977-1.041,1.617-4.023,2.641-4.178,3.383-.508,3.568.461-1.225,1.323-1.887,1.777-.965,1.439.655,2.981" transform="translate(5.569 7.72)" fill="#fab992"/>
        <path id="Trazado_69841" data-name="Trazado 69841" d="M84.072,120.64c-.354.481-1.479.442-1.742-.941s3.341-3.985,4.482-4.048c1.195-.066,3.436-.178,3.207.805s-1.14.6-2.142,1.242a18.077,18.077,0,0,0-3.8,2.941" transform="translate(5.27 7.402)" fill="#fab992"/>
        <path id="Trazado_69842" data-name="Trazado 69842" d="M85.5,122.641c-.294.52-1.416.616-1.841-.726s2.839-4.356,3.965-4.554c1.179-.209,3.121-.582,3.28.415.118.736-.382.857-1.978,1.49a11.474,11.474,0,0,0-3.426,3.375" transform="translate(5.354 7.498)" fill="#fab992"/>
        <path id="Trazado_69843" data-name="Trazado 69843" d="M87.3,124.635a1.4,1.4,0,0,1-2.158-.8c-.426-1.342,2.713-4.218,3.791-4.594,1.7-.594,3.563-.548,3.454.455s-1.061.73-1.978,1.49c-.631.522-2.177,2.906-3.109,3.454" transform="translate(5.448 7.609)" fill="#fab992"/>
        <path id="Trazado_69844" data-name="Trazado 69844" d="M78.245,116.953S-.491,77.225,0,76.242c.717-1.432,79.319,38.563,79.319,38.563Z" transform="translate(0 4.879)" fill="#6a4854"/>
        <path id="Trazado_69845" data-name="Trazado 69845" d="M73.291,112.357l-.565,1.127a2.044,2.044,0,0,0,.909,2.736l23.854,11.957a2.044,2.044,0,0,0,2.736-.909l.565-1.128a2.045,2.045,0,0,0-.909-2.736L76.027,111.448a2.044,2.044,0,0,0-2.736.909" transform="translate(4.642 7.121)" fill="#a56d6d"/>
        <path id="Trazado_69846" data-name="Trazado 69846" d="M99.214,124.4l-1.323,2.638a.863.863,0,0,0,.384,1.154l.192.1a.862.862,0,0,0,1.154-.383l1.323-2.638a.863.863,0,0,0-.383-1.154l-.193-.1a.862.862,0,0,0-1.154.383" transform="translate(6.261 7.934)" fill="#6a4854"/>
        <path id="Trazado_69847" data-name="Trazado 69847" d="M226.5,176.879c-.425,1.678.524,6-.14,8.481-1.016,3.8-.754,6.206.32,5.606.7-.392,1.307-2.615,2.1-6.153s.938-7.3.406-8.583-2.206-1.229-2.681.649" transform="translate(14.451 11.226)" fill="#f7a17a"/>
        <path id="Trazado_69848" data-name="Trazado 69848" d="M222.256,173.423s2.279,7.033,2.16,8.274a53.177,53.177,0,0,0-.41,6.423c.157,1,.93,1.591,1.673.374s2.31-7.732,1.262-11.405-1.619-4.774-3.19-4.838-1.642.714-1.495,1.173" transform="translate(14.226 11.027)" fill="#f7a17a"/>
        <path id="Trazado_69849" data-name="Trazado 69849" d="M220.729,170.28s2.28,7.033,2.161,8.274a53.174,53.174,0,0,0-.41,6.423c.156,1,.93,1.591,1.673.373a15.754,15.754,0,0,0,.95-9.752c-1.049-3.674-1.308-6.428-2.88-6.492s-1.641.714-1.494,1.173" transform="translate(14.128 10.826)" fill="#f7a17a"/>
        <path id="Trazado_69850" data-name="Trazado 69850" d="M219.373,162.135a6.213,6.213,0,0,0-.227,4.575c.677,2.8,5.729,5.764,7.476,10.381,1.544,4.078,4.877,3.006,4-1.525a79.91,79.91,0,0,0-4.334-13.475c-1.513-3.34-6.173-2.343-6.919.044" transform="translate(14.01 10.24)" fill="#fab992"/>
        <path id="Trazado_69851" data-name="Trazado 69851" d="M226.331,175.94a54.247,54.247,0,0,1,1.822,9.589c.08,2.571.209,4.962.99,4.768s1.276-2.006,1.4-5.628.134-7.751-.612-9.857c-.462-1.306-4.112-.738-3.6,1.128" transform="translate(14.487 11.146)" fill="#fab992"/>
        <path id="Trazado_69852" data-name="Trazado 69852" d="M219.05,162.97c-.591,1.411-.62,7.008,1.623,13.58.953,2.8.614,6.05,1.486,5.784,1.851-.566,1.631-2.971,1.334-4.9s-.295-2.836.448-6.2-3.015-12.742-4.891-8.266" transform="translate(14.002 10.358)" fill="#fab992"/>
        <path id="Trazado_69853" data-name="Trazado 69853" d="M162.017,297.384s-13.159,9.086-16.91,10.466-11.1,3.119-11.572,4.154-.434,2.079,5.287,2.976,20.446-1.6,22.6-1.817,14.055.093,14.253-.862c.988-4.748-1.635-14.52-2.332-15.6s-7.65-2.055-11.321.684" transform="translate(8.537 18.925)" fill="#fab992"/>
        <path id="Trazado_69854" data-name="Trazado 69854" d="M165.325,54.932c-6.9,2.4-15.034,6.668-15.4,7.726-.5,1.435-2.338,20.57,2.671,43.856,1.555,7.229,4.053,21.346,4.119,33.067.019,3.686.043,14.772.395,16.946,1.187,7.319,46.763,3.933,49.509,3.651s-1.011-21.746,2.745-53.443c1.234-10.416,8.9-42.279,7.727-43.463-5.647-5.688-25.456-11.328-25.456-11.328-11.375-2.176-19.88.758-26.306,2.989" transform="translate(9.551 3.276)" fill="#fab992"/>
        <path id="Trazado_69855" data-name="Trazado 69855" d="M210.545,300.807s3.347,10.6,3.849,13.609,1.292,11.231,4.492,11.384c3.477.167,5.971-1.5,8.5-4.074,2.939-2.985,4.708-4.149,1.837-7.536a109.414,109.414,0,0,1-10.684-16.868c-1.547-3.453-9.314-2.5-8,3.486" transform="translate(13.47 18.907)" fill="#fab992"/>
        <path id="Trazado_69856" data-name="Trazado 69856" d="M155.484,166.976c-1.131,3.322,2.549,63.054,2.4,68.238s.422,10.8,4.54,12.778,11.927-.7,13.757-7.717,6.295-59.778,6.412-62.52c.442-10.21-24.812-17.52-27.1-10.779" transform="translate(9.94 10.523)" fill="#fab992"/>
        <path id="Trazado_69857" data-name="Trazado 69857" d="M157.869,236.367c.189,7.457.826,10.483,1.815,17.84.531,3.952,1.531,38.24,1.769,46.631a6.349,6.349,0,0,0,2.261,4.8,4.853,4.853,0,0,0,5.652.387,6.508,6.508,0,0,0,3.4-4.755c1.3-7.857,5.207-31.612,5.572-34.888.749-6.7-2.145-28.078-2.328-30.212-1.064-12.395-18.347-7.845-18.143.2" transform="translate(10.107 14.629)" fill="#fab992"/>
        <path id="Trazado_69858" data-name="Trazado 69858" d="M181.5,177.876c.328,3.5,11.961,57.761,12.8,62.879a9.194,9.194,0,0,0,9.741,7.73c6.942-.247,9.143-3.988,9.121-9.844-.029-7.248-5.619-70.034-5.863-72.767-1.026-11.438-27.227-3.284-25.8,12" transform="translate(11.616 10.276)" fill="#fab992"/>
        <path id="Trazado_69859" data-name="Trazado 69859" d="M194.479,230.99c-3.014,6.687,3.489,13.23,6.232,30.889.7,4.494,9.64,35.638,11.66,41.847.685,2.107,5.971,3.806,8.585-2.2,0,0-.844-30.525-.8-34.484.106-9.907-7.149-33.645-7.781-35.689-1.913-6.179-14.478-7.946-17.894-.367" transform="translate(12.401 14.468)" fill="#fab992"/>
        <path id="Trazado_69860" data-name="Trazado 69860" d="M206.461,148.124s1.566,12.038,2.42,18.79c.666,5.278-18.769,13.884-31.214,12.576-5.853-.616-22.4-1.6-22.392-12.586.015-18.259,1.436-28.688,11.587-32.586,8.034-3.085,34.708,1.674,36.82,3.723s2.779,10.084,2.779,10.084" transform="translate(9.941 8.534)" fill="#fab992"/>
        <path id="Trazado_69861" data-name="Trazado 69861" d="M156.421,147.418s40.3.671,50.8-1.15l1.762,20.516s-22.951,3.159-25.8,12h-1.4s-19.675-12.372-26.507-11.523c0,0-1.05-11.543,1.137-19.846" transform="translate(9.925 9.364)" fill="#c36875"/>
        <path id="Trazado_69862" data-name="Trazado 69862" d="M148.166,64.286c-4.194,5.306-3.374,13.6-4.321,28.61s-1.1,21.74-1.319,27.65c-.1,2.758,9.877,17.256,14.67,5.508,3.143-7.7,7.261-34.568,7.5-37.668s-3.8-40.2-16.528-24.1" transform="translate(9.125 3.858)" fill="#fab992"/>
        <path id="Trazado_69863" data-name="Trazado 69863" d="M153.441,111.758a106.327,106.327,0,0,0-27.368-.368c-10.322,1.344-22.5,3.466-22.5,3.466s-6.646,5.78.438,9.117c1.128.53,33.706,2.935,35.459,3.326s20.827,2.7,21.681-5.147c.985-9.064-5.2-10.064-7.708-10.393" transform="translate(6.45 7.085)" fill="#fab992"/>
        <path id="Trazado_69864" data-name="Trazado 69864" d="M216.08,64.613c4.733,5.471,4.024,13.418,5.69,28.37s2.144,21.661,2.646,27.553c.236,2.75-9.037,17.712-14.388,6.209-3.509-7.545-8.912-34.178-9.3-37.265s1.928-40.386,15.352-24.866" transform="translate(12.848 3.896)" fill="#fab992"/>
        <path id="Trazado_69865" data-name="Trazado 69865" d="M224.194,117.246a106.312,106.312,0,0,1,4.325,27.026c.164,10.408-.172,22.767-.172,22.767s-4.757,7.413-9.084.885c-.688-1.04-7.782-32.926-8.424-34.6s-5.685-20.219,1.956-22.2c8.826-2.287,10.709,3.686,11.4,6.122" transform="translate(13.356 7.082)" fill="#fab992"/>
        <path id="Trazado_69866" data-name="Trazado 69866" d="M170.788,41.847c.072.266-.75,14.017-.75,14.017s11.661,5.286,20.493-.1l-1.726-20.437Z" transform="translate(10.886 2.261)" fill="#f7a079"/>
        <path id="Trazado_69867" data-name="Trazado 69867" d="M167.686,23.874s-2.678-1.335-3.691-.709-.79,10.055.233,11.233c2.189,2.521,5.166.344,5.166.344a40.324,40.324,0,0,1-1.708-10.868" transform="translate(10.457 1.472)" fill="#f7a079"/>
        <path id="Trazado_69868" data-name="Trazado 69868" d="M190.086,10.576s-8.062.115-17.943,0c-6.349-.072-7.33,1.524-7.427,1.947-.918,4.029.986,22.34,1.577,24.607s6.661,10.116,7.386,10.557,7.1.621,8.52.214,8.846-8.429,9.625-10.108S193.411,24.882,193.4,22.3s-2.025-10.152-3.313-11.726" transform="translate(10.53 0.677)" fill="#fab993"/>
        <path id="Trazado_69869" data-name="Trazado 69869" d="M178.391,22.156l.23,2.074s4.946-1.7,7.743-.554l.322-1.535s-3.431-2.736-8.3.016" transform="translate(11.421 1.34)" fill="#5f3d35"/>
        <path id="Trazado_69870" data-name="Trazado 69870" d="M172.93,22.059l-.194,2.077s-4.655-1.58-7.267-.373l-.317-1.528s3.189-2.813,7.778-.176" transform="translate(10.573 1.34)" fill="#5f3d35"/>
        <path id="Trazado_69871" data-name="Trazado 69871" d="M171.22,26.527a2.643,2.643,0,0,0-3.976-.034l-1.06-1.2a4.033,4.033,0,0,1,6.1.035Z" transform="translate(10.639 1.531)" fill="#2a3447"/>
        <path id="Trazado_69872" data-name="Trazado 69872" d="M167.862,25.419l.073,1.552,1.861-.1-.071-1.555Z" transform="translate(10.747 1.621)" fill="#2a3447"/>
        <path id="Trazado_69873" data-name="Trazado 69873" d="M184.132,26.365a2.642,2.642,0,0,0-3.975-.034l-1.061-1.2a4.035,4.035,0,0,1,6.1.035Z" transform="translate(11.466 1.52)" fill="#2a3447"/>
        <path id="Trazado_69874" data-name="Trazado 69874" d="M180.775,25.256l.071,1.553,1.863-.1-.071-1.555Z" transform="translate(11.573 1.61)" fill="#2a3447"/>
        <path id="Trazado_69875" data-name="Trazado 69875" d="M191.413,22.868s2.679-1.335,3.691-.709.79,10.054-.233,11.233c-2.188,2.521-4.192,1.217-4.192,1.217s.685-5.941.734-11.741" transform="translate(12.208 1.408)" fill="#f7a079"/>
        <path id="Trazado_69876" data-name="Trazado 69876" d="M188.83,11.615s-10.65,1.2-13.665,1.084c-5.977-.222-6.071-.908-6.7-.929-3.554-.115-3.554,12.907-3.554,12.907s-3.234-10.252,1.42-18.792c.864-1.585,2.762-3.512,7.68-4.008,8.31-.837,17.943.429,19.426,5.163a36.837,36.837,0,0,1,.668,17.771,32.1,32.1,0,0,1-1.293,3.735s-.918-16.659-3.986-16.931" transform="translate(10.488 0.105)" fill="#8b5f56"/>
        <path id="Trazado_69877" data-name="Trazado 69877" d="M172.2,36.606c2.759,2.264,6.957.03,7.064-.066l.717,1.5a6.418,6.418,0,0,1-8.374.095Z" transform="translate(10.986 2.339)" fill="#e26160"/>
        <path id="Trazado_69878" data-name="Trazado 69878" d="M186.7,34.4c-.74.851-4.1,2.029-5.217,1.379a27.544,27.544,0,0,0-5.237-1.379h-1.113a27.513,27.513,0,0,0-5.235,1.379c-1.113.65-2.519-2.143-3.072-2.574-.891-.693-1.671-4.962-1.671-4.962s.659,7.5,1.1,9.331c.43,1.793,4.584,13.333,8.829,13.914,5.519.757,8.162-1.655,11.163-5.082,2.574-2.94,5.081-6.329,5.848-8.8.559-1.8,1.226-12.105,1.226-12.105s-5.88,8.048-6.619,8.9m-7.447,6.993c-.627.156-2.04-.742-3.208-.742s-2.5,1.108-3.108.615a12.015,12.015,0,0,1-1.59-2.862,8.213,8.213,0,0,1,2.164-.461,5.009,5.009,0,0,0,2.533-.985c1.686,1.416,5.154,1.354,5.154,1.354s-1.318,2.924-1.946,3.08" transform="translate(10.573 1.633)" fill="#5f3d35"/>
        <path id="Trazado_69879" data-name="Trazado 69879" d="M174.492,28.242c-.809.081-2.62,3.48-2.62,4.433s2.121,2.463,2.524,2.4,3.03-1.972,3.03-2.447-2.481-4.436-2.935-4.389" transform="translate(11.003 1.808)" fill="#f7a079"/>
        <path id="Trazado_69880" data-name="Trazado 69880" d="M190.626,3.156c.467.844.728,6.631-3.963,9.051-6.054,3.124-17.491.877-19.611,2.534s-.9,8.958-.9,8.958-2.13-7.163-2.806-10.895,2.477-8.186,5.447-11S188.6-.51,190.626,3.156" transform="translate(10.452 0)" fill="#5f3d35"/>
        <path id="Trazado_69881" data-name="Trazado 69881" d="M155.4,140s-1.932,28.93-2.107,35.416-.831,8.326,11.965,10.078,45.959,1.475,47.164-2.441c1.964-6.382-4.288-44.529-4.288-44.529S162.623,142.287,155.4,140" transform="translate(9.81 8.869)" fill="#4a2838"/>
        <path id="Trazado_69882" data-name="Trazado 69882" d="M153.458,187.294c.8,13.752,2.442,50.643,3.589,57.378s8.3,8.54,15.224,8.223,7.166-10.953,7.679-20.171,2.732-42.8,2.365-54-3.367-16.164-12.422-17.488-17.926.332-16.435,26.058" transform="translate(9.814 10.302)" fill="#4a2838"/>
        <path id="Trazado_69883" data-name="Trazado 69883" d="M179.364,236.387c.322,9.719-.759,28.75-1.6,38.862s-4.493,28.574-4.493,28.574l-5.685-1.107-9.239-1.138s-1.284-58.246-1.33-63.946,4.906-9.254,11.155-10.538,11,3.533,11.19,9.292" transform="translate(10.053 14.525)" fill="#4a2838"/>
        <path id="Trazado_69884" data-name="Trazado 69884" d="M212.387,187.763c1.412,13.7,5.687,50.382,5.633,57.215s-6.8,10.025-13.714,10.551c-7.614.58-9.49-9.919-11.471-18.935s-8.875-41.563-10.3-52.675.739-16.493,9.467-19.249,17.749-2.539,20.39,23.095" transform="translate(11.66 10.468)" fill="#4a2838"/>
        <path id="Trazado_69885" data-name="Trazado 69885" d="M217.049,237.3c1.872,9.542,3.849,28.5,4.636,38.618s1.071,26.418,1.071,26.418l-3.447,3.447-8.765.526s-14.4-58.585-15.353-64.205,3.363-9.919,9.326-12.186,11.423,1.729,12.532,7.383" transform="translate(12.488 14.678)" fill="#4a2838"/>
        <path id="Trazado_69886" data-name="Trazado 69886" d="M160.521,140.755s-2.731,7.384-3.142,9.865-3.134,20.28-3.134,20.28,3.9-13.95,5.1-18.122,1.173-12.022,1.173-12.022" transform="translate(9.875 9.011)" fill="#522c3e"/>
        <path id="Trazado_69887" data-name="Trazado 69887" d="M198.421,138.988s2.923,8.33,3.294,10.816,2.8,20.328,2.8,20.328-3.67-14.012-4.809-18.2-1.29-12.942-1.29-12.942" transform="translate(12.703 8.898)" fill="#522c3e"/>
        <path id="Trazado_69888" data-name="Trazado 69888" d="M107.358,113.72l-5.147,0s-1.085,8.627,1.469,12.605l4.729-.266Z" transform="translate(6.529 7.28)" fill="#f0e6e1"/>
        <path id="Trazado_69889" data-name="Trazado 69889" d="M146.581,61.948c-1.595.571-3.323,1.727-4.668,12.013s-1.81,43.654-1.935,47.377,16.773,8.154,18.866,3.075,4.175-26.577,5.138-33.7c1.916-14.173-12.325-30.586-17.4-28.766" transform="translate(8.962 3.957)" fill="#4a2838"/>
        <path id="Trazado_69890" data-name="Trazado 69890" d="M155.777,109.252c-5.363.2-10.924.543-19.7,1.116-8.222.538-31.055,2.978-31.055,2.978s-1.841,5.206,1.063,13.474c0,0,37.869,1.988,46.656,2.21,11.092.281,15.72-20.241,3.038-19.778" transform="translate(6.687 6.994)" fill="#4a2838"/>
        <path id="Trazado_69891" data-name="Trazado 69891" d="M229.321,158.54l.843,5.078s-8.336,2.476-12.677.6l-.508-4.708Z" transform="translate(13.891 10.15)" fill="#f0e6e1"/>
        <path id="Trazado_69892" data-name="Trazado 69892" d="M216.239,59.483c1.629.465,4.116,3.165,6.14,13.34s4.706,43.438,5.078,47.145-16.194,9.25-18.62,4.32S202.906,98.046,201.471,91c-2.853-14.013,9.58-33,14.768-31.522" transform="translate(12.872 3.803)" fill="#4a2838"/>
        <path id="Trazado_69893" data-name="Trazado 69893" d="M181.806,56.027l-12.891-.786s-5.265,65.977-4.743,79.868c.788,21.021,15.126,18.554,15.126,18.554s21.685,1.852,21.672-11.067c-.01-8.687-7.991-91.586-7.991-91.586Z" transform="translate(10.508 3.266)" fill="#f0e6e1"/>
        <path id="Trazado_69894" data-name="Trazado 69894" d="M178.011,61.415a399.09,399.09,0,0,0-3.469,50.617c0,7.6-1,33.05-1,33.05l1.492,5.681,3.666,2.288,3.673-3.769s-1.455-73.009-.587-87.891c.1-1.781-3.772.026-3.772.026" transform="translate(11.11 3.88)" fill="#262729"/>
        <path id="Trazado_69895" data-name="Trazado 69895" d="M226.7,113.157c.68,5.321,1.244,10.866,2.107,19.621.81,8.2,2.122,31.125,2.122,31.125s-4.836,2.664-13.467,1.146c0,0-8.13-37.039-9.78-45.673-2.083-10.9,17.411-18.808,19.019-6.218" transform="translate(13.286 6.832)" fill="#4a2838"/>
        <path id="Trazado_69896" data-name="Trazado 69896" d="M176.557,116.29s-2.161,12.7-1.964,14.623,6.622,26.435,7.71,31.528c3.363,15.747,15,20.2,32.014,21.561,0,0-4.226-44.723-4.089-50.334s1.163-23.854,3.123-36.848S218.4,61.435,217.59,60s-24.072-8.275-24.072-8.275-1.3,11.953-2.888,19.64a266.693,266.693,0,0,1-14.073,44.924" transform="translate(11.177 3.312)" fill="#522c3e"/>
        <path id="Trazado_69897" data-name="Trazado 69897" d="M178.412,116.272a26.978,26.978,0,0,1,.751,5.8c-.154,1.93-2.287,33.789-4.534,44.222-2.753,12.774-8.565,14.2-12.635,15.934s-11.324,2.478-11.324,2.478,3.234-44.8,2.972-50.412-1.691-23.821-3.938-36.769-4.721-33.653-3.946-35.1S169.234,52,169.234,52s-3.358,11.869-1.816,19.565,10.993,44.709,10.993,44.709" transform="translate(9.322 3.329)" fill="#522c3e"/>
        <path id="Trazado_69898" data-name="Trazado 69898" d="M177.652,55.579c-.422-.107-1.166,2.31-1.266,3.056s1.067,3.976,1.55,4.235a10.063,10.063,0,0,0,3.8-.043,8.676,8.676,0,0,0,1.437-3.779c.061-1.1-.432-3.9-1.415-3.627a6.429,6.429,0,0,1-4.1.159" transform="translate(11.292 3.547)" fill="#323336"/>
        <path id="Trazado_69899" data-name="Trazado 69899" d="M170.338,50.3s-8.7,6.031-9.509,6.975l5.215,2.639-5.455,3.843s4.048,17.69,8.1,25.592,8.763,27.029,8.763,27.029A188.275,188.275,0,0,0,172.592,82c-3.425-13.58-2.255-31.7-2.255-31.7" transform="translate(10.281 3.22)" fill="#5a3245"/>
        <path id="Trazado_69900" data-name="Trazado 69900" d="M191.9,51.01s9.013,2.688,9.842,3.613L198.1,59.317l4.173,2.935S190.358,85.326,186.48,93.314s-10.042,23.021-10.042,23.021,5.328-21.643,9.209-36.861C189.108,65.905,191.9,51.01,191.9,51.01" transform="translate(11.296 3.266)" fill="#5a3245"/>
        <path id="Trazado_69901" data-name="Trazado 69901" d="M169.8,47.819s.232,4.094,3.3,5.7a42.155,42.155,0,0,0,7.3,2.718,23.152,23.152,0,0,0-4.286,5.657c-1.614,3.173-1.424,1.651-3.106.034s-6.816-8.162-5.257-10.46a30.733,30.733,0,0,0,2.048-3.645" transform="translate(10.721 3.061)" fill="#f7f0ec"/>
        <path id="Trazado_69902" data-name="Trazado 69902" d="M190.4,48.036a7.318,7.318,0,0,1-3.392,5.3,42.07,42.07,0,0,1-7.234,2.878,23.15,23.15,0,0,1,4.411,5.562c1.683,3.136,1.459,1.619,3.1-.035s5.54-5.843,4.865-9.782a11.037,11.037,0,0,0-1.755-3.926" transform="translate(11.51 3.075)" fill="#f7f0ec"/>
        <path id="Trazado_69903" data-name="Trazado 69903" d="M176.694,116.506c-.006-.84-.51-1.512-1.125-1.5s-1.107.7-1.1,1.535.51,1.512,1.124,1.5,1.107-.7,1.1-1.535" transform="translate(11.17 7.363)" fill="#331b26"/>
        <path id="Trazado_69904" data-name="Trazado 69904" d="M175.51,135.824c-.005-.839-.45-1.512-.993-1.5s-.977.7-.97,1.535.45,1.512.992,1.5.978-.7.971-1.535" transform="translate(11.111 8.599)" fill="#331b26"/>
        <path id="Trazado_69905" data-name="Trazado 69905" d="M190.852,132.8s1.052,7.76,2.213,7.835c.917.059,11.481-1.358,15.869-1.955a1.853,1.853,0,0,0,1.691-2c-.292-2.282-.867-6.007-1.534-6.123,0,0,.119,1.544-18.238,2.244" transform="translate(12.219 8.358)" fill="#5a3245"/>
        <path id="Trazado_69906" data-name="Trazado 69906" d="M167.667,133.043s-.686,7.78-1.613,7.877c-.732.078-9.2-1.128-12.721-1.636a1.775,1.775,0,0,1-1.391-1.968c.186-2.288.572-6.023,1.1-6.152,0,0-.065,1.546,14.622,1.88" transform="translate(9.727 8.397)" fill="#5a3245"/>
        <path id="Trazado_69907" data-name="Trazado 69907" d="M214.441,322.1a13,13,0,0,0,.567,2.3c.394,1.075,2.015,3.558,6.652,5.1s7.713.36,8.914-1.45c1.842-2.775,2.268-9.5.7-10.827s-16.835,4.88-16.835,4.88" transform="translate(13.729 20.297)" fill="#1e1f21"/>
        <path id="Trazado_69908" data-name="Trazado 69908" d="M210.41,301.436s2.488,10.581,3.136,15.058.865,7.194,2.081,8.731c.918,1.16,4.021,3.291,8.852,4.51,3.452.871,6.81-1.492,7.159-6.913.3-4.69-.165-5.872-2.709-9.848-2.063-3.223-8.719-14.733-8.719-14.733s-2.76,1.239-2.645,1.932l-3,1c-1.206-.719-4.152.264-4.152.264" transform="translate(13.471 19.094)" fill="#323336"/>
        <path id="Trazado_69909" data-name="Trazado 69909" d="M211.8,301.054a10.619,10.619,0,0,1,2.4,4.286c.811,2.739,3.113,10.465,3.5,10.549s8.626-1.934,8.239-2.493c-2.459-3.535-6.944-14.592-6.944-14.592-1.8-1.7-7.194,2.25-7.194,2.25" transform="translate(13.56 19.103)" fill="#262729"/>
        <path id="Trazado_69910" data-name="Trazado 69910" d="M225.462,310.02a19.512,19.512,0,0,0-9.507,2.8c-.382.231-.087.867.3.634a18.829,18.829,0,0,1,9.14-2.739c.445-.016.517-.715.067-.7" transform="translate(13.814 19.848)" fill="#1e1f21"/>
        <path id="Trazado_69911" data-name="Trazado 69911" d="M224.168,307.428a19.519,19.519,0,0,0-9.509,2.8c-.382.231-.087.867.3.634a18.816,18.816,0,0,1,9.139-2.739c.445-.016.517-.714.068-.7" transform="translate(13.731 19.682)" fill="#1e1f21"/>
        <path id="Trazado_69912" data-name="Trazado 69912" d="M223.259,304.959a19.512,19.512,0,0,0-9.507,2.8c-.382.231-.088.867.3.634a18.826,18.826,0,0,1,9.14-2.739c.445-.016.517-.714.067-.7" transform="translate(13.673 19.524)" fill="#1e1f21"/>
        <path id="Trazado_69913" data-name="Trazado 69913" d="M217.313,302.769a4.811,4.811,0,0,0-3.721-.289c-.82.3-2,1.062-1.924,2.082.068.912.964,1.093,1.727,1,1.452-.173,2.513-1.259,3.806-1.842a.29.29,0,0,0,.148-.408.311.311,0,0,0-.036-.545m-4.274,2.1q-.686.176-.577-.718l.266-.321a3.068,3.068,0,0,1,1.375-.777,3.977,3.977,0,0,1,2.523.186c-1.044.566-2.442,1.863-3.587,1.63" transform="translate(13.551 19.349)" fill="#1e1f21"/>
        <path id="Trazado_69914" data-name="Trazado 69914" d="M217.227,303.351a.288.288,0,0,0,.323.288c1.415-.1,2.863.352,4.223-.183.716-.282,1.418-.866,1.046-1.7-.417-.934-1.814-1.043-2.68-.92a4.811,4.811,0,0,0-3.139,2.02.311.311,0,0,0,.227.5m.6-.414a3.981,3.981,0,0,1,2.133-1.36,3.053,3.053,0,0,1,1.578.031l.386.158q.52.736-.167.905c-.9.749-2.743.27-3.93.266" transform="translate(13.888 19.257)" fill="#1e1f21"/>
        <path id="Trazado_69915" data-name="Trazado 69915" d="M214.163,320.971a30.076,30.076,0,0,1,3.918-2.094,37.113,37.113,0,0,1,4.156-1.591,30.7,30.7,0,0,1,4.348-1,18.821,18.821,0,0,1,4.449-.122c-.738.1-1.469.121-2.193.268-.728.081-1.443.248-2.16.385-1.425.334-2.838.7-4.235,1.135s-2.779.921-4.161,1.417c-.692.247-1.378.511-2.06.785-.694.252-1.372.542-2.061.812" transform="translate(13.711 20.236)" fill="#1e1f21"/>
        <path id="Trazado_69916" data-name="Trazado 69916" d="M159.837,296.674s-2.322,1.478-7.029,5.133a32.6,32.6,0,0,1-13.9,6.838c-5.4,1.223-10.8,2.294-10.037,4.319s4.736,2.776,12.026,3.16,16.7-1.666,21.941-2.182,13.926-.527,14.331-1.592S176,298.7,175.055,298.221a66.114,66.114,0,0,1-6.7,1.6c-2.009.245-5.977-3.225-8.518-3.145" transform="translate(8.246 18.993)" fill="#323336"/>
        <path id="Trazado_69917" data-name="Trazado 69917" d="M128.906,312.045c-.7.053-1.083,1.818.087,2.747s9.727,2.6,16.207,2.344,14.288-2.976,14.288-2.976l.08,2.524c.8.451,18.4-.581,18.4-.581l-.161-5.08a117.2,117.2,0,0,0-16.718,1.178c-7.5,1.24-12.448,2.89-22.641,2.2-7.384-.5-9.545-2.361-9.545-2.361" transform="translate(8.21 19.912)" fill="#1e1f21"/>
        <path id="Trazado_69918" data-name="Trazado 69918" d="M135.009,308.684s6.124,3.2,7.014,6.37c0,0-.41-3.834-6.356-6.525Z" transform="translate(8.643 19.752)" fill="#1e1f21"/>
        <path id="Trazado_69919" data-name="Trazado 69919" d="M143.817,306.761a42.59,42.59,0,0,1,4.995,1.674c1.691.78,15.8-9.46,15.8-9.46s-3.462-2.46-5.738-2.3c0,0-11.82,8.9-15.058,10.087" transform="translate(9.207 18.993)" fill="#262729"/>
        <path id="Trazado_69920" data-name="Trazado 69920" d="M153,307.263a8.184,8.184,0,0,0-7.87-2.641c-.437.111-.23.781.207.669a7.54,7.54,0,0,1,7.068,2.344c.273.354.87-.015.594-.372" transform="translate(9.276 19.49)" fill="#1e1f21"/>
        <path id="Trazado_69921" data-name="Trazado 69921" d="M156.742,305.151a8.184,8.184,0,0,0-7.869-2.641c-.437.112-.23.781.206.67a7.535,7.535,0,0,1,7.069,2.344c.273.353.87-.016.594-.373" transform="translate(9.516 19.355)" fill="#1e1f21"/>
        <path id="Trazado_69922" data-name="Trazado 69922" d="M159.529,303.061a8.184,8.184,0,0,0-7.87-2.641c-.437.112-.23.781.206.67a7.538,7.538,0,0,1,7.069,2.343c.272.354.87-.015.594-.372" transform="translate(9.694 19.221)" fill="#1e1f21"/>
        <path id="Trazado_69923" data-name="Trazado 69923" d="M156.512,297.624c-1.049-.95-3.487-.583-3.834.906-.17.728.395,1.146,1.076,1.056.928-.122,1.6-.859,2.467-1.149a.428.428,0,0,0,.038-.02.288.288,0,0,0,.036.014c.861.166,1.55,1.085,2.233,1.6a7.029,7.029,0,0,0,1.733,1.092,1.456,1.456,0,0,0,2.1-1.2c.294-2.9-4.045-3.145-5.85-2.3m-1.466.6c-.352.211-.845.643-1.267.641-.521,0-.351-.417-.073-.659a1.518,1.518,0,0,1,.742-.342,2.967,2.967,0,0,1,1.2.052,5.859,5.859,0,0,0-.6.307m5.134,2.083c-1.059-.505-1.876-1.652-2.9-2.239a5.567,5.567,0,0,1,2.772-.043,2.06,2.06,0,0,1,1.464,1.139c.471,1.144-.33,1.621-1.331,1.143" transform="translate(9.773 19.021)" fill="#1e1f21"/>
        <path id="Trazado_69924" data-name="Trazado 69924" d="M92.093,126s-4.274.045-4.977-1.041,1.617-4.023,2.641-4.178,3.383-.508,3.568.461-1.225,1.323-1.887,1.777-.965,1.439.655,2.981" transform="translate(5.569 7.72)" fill="#fab992"/>
        <path id="Trazado_69925" data-name="Trazado 69925" d="M84.072,120.64c-.354.481-1.479.442-1.742-.941s3.341-3.985,4.482-4.048c1.195-.066,3.436-.178,3.207.805s-1.14.6-2.142,1.242a18.077,18.077,0,0,0-3.8,2.941" transform="translate(5.27 7.402)" fill="#fab992"/>
        <path id="Trazado_69926" data-name="Trazado 69926" d="M85.5,122.641c-.294.52-1.416.616-1.841-.726s2.839-4.356,3.965-4.554c1.179-.209,3.121-.582,3.28.415.118.736-.382.857-1.978,1.49a11.474,11.474,0,0,0-3.426,3.375" transform="translate(5.354 7.498)" fill="#fab992"/>
        <path id="Trazado_69927" data-name="Trazado 69927" d="M87.3,124.635a1.4,1.4,0,0,1-2.158-.8c-.426-1.342,2.713-4.218,3.791-4.594,1.7-.594,3.563-.548,3.454.455s-1.061.73-1.978,1.49c-.631.522-2.177,2.906-3.109,3.454" transform="translate(5.448 7.609)" fill="#fab992"/>
      </g>
    </g>
  </g>
</svg>
