<svg xmlns="http://www.w3.org/2000/svg" xmlns:xlink="http://www.w3.org/1999/xlink" width="293" height="208.403" viewBox="0 0 293 208.403">
  <defs>
    <linearGradient id="linear-gradient" y1="0.5" x2="1" y2="0.5" gradientUnits="objectBoundingBox">
      <stop offset="0" stop-color="#a5a5f3"/>
      <stop offset="1" stop-color="#e7a8f4"/>
    </linearGradient>
    <linearGradient id="linear-gradient-3" x1="0.016" y1="0.001" x2="0.994" y2="1.031" gradientUnits="objectBoundingBox">
      <stop offset="0.007" stop-color="#a68df8"/>
      <stop offset="1" stop-color="#bc8eed"/>
    </linearGradient>
    <linearGradient id="linear-gradient-4" x1="-1.564" y1="-7.016" x2="2.14" y2="6.563" xlink:href="#linear-gradient-3"/>
    <linearGradient id="linear-gradient-5" x1="-12.921" y1="-14.462" x2="12.775" y2="14.186" xlink:href="#linear-gradient-3"/>
    <linearGradient id="linear-gradient-6" x1="-15.847" y1="-17.725" x2="9.849" y2="10.923" xlink:href="#linear-gradient-3"/>
    <linearGradient id="linear-gradient-7" x1="-3.211" y1="-13.056" x2="0.492" y2="0.522" xlink:href="#linear-gradient-3"/>
    <linearGradient id="linear-gradient-8" x1="-24.352" y1="-27.207" x2="1.344" y2="1.441" xlink:href="#linear-gradient-3"/>
    <linearGradient id="linear-gradient-9" x1="-27.278" y1="-30.47" x2="-1.582" y2="-1.822" xlink:href="#linear-gradient-3"/>
    <linearGradient id="linear-gradient-10" x1="-0.21" y1="-43.797" x2="0.792" y2="18.687" xlink:href="#linear-gradient-3"/>
    <linearGradient id="linear-gradient-11" x1="0.244" y1="-32.692" x2="1.246" y2="97.182" xlink:href="#linear-gradient-3"/>
    <linearGradient id="linear-gradient-12" x1="-6.865" y1="-14.105" x2="59.542" y2="115.783" xlink:href="#linear-gradient-3"/>
    <linearGradient id="linear-gradient-13" x1="-12.663" y1="-24.055" x2="57.482" y2="105.834" xlink:href="#linear-gradient-3"/>
    <linearGradient id="linear-gradient-14" x1="-16.857" y1="-32.534" x2="51.781" y2="97.354" xlink:href="#linear-gradient-3"/>
    <linearGradient id="linear-gradient-15" x1="-21.023" y1="-41.815" x2="45.355" y2="88.073" xlink:href="#linear-gradient-3"/>
    <linearGradient id="linear-gradient-16" x1="0.786" y1="0.617" x2="1.617" y2="0.462" gradientUnits="objectBoundingBox">
      <stop offset="0" stop-color="#11112e"/>
      <stop offset="1" stop-color="#0f1642"/>
    </linearGradient>
    <linearGradient id="linear-gradient-17" x1="3.82" y1="3.097" x2="4.664" y2="2.967" xlink:href="#linear-gradient-16"/>
    <linearGradient id="linear-gradient-18" x1="0.5" y1="0.977" x2="0.5" y2="0.053" gradientUnits="objectBoundingBox">
      <stop offset="0.007" stop-color="#fff"/>
      <stop offset="1" stop-color="#fff"/>
    </linearGradient>
    <linearGradient id="linear-gradient-19" x1="5.714" y1="0.946" x2="6.772" y2="0.946" gradientUnits="objectBoundingBox">
      <stop offset="0.002" stop-color="#421f05"/>
      <stop offset="1" stop-color="#301704"/>
    </linearGradient>
  </defs>
  <g id="Grupo_37525" data-name="Grupo 37525" transform="translate(-1906.596 -564.902)">
    <g id="shadow" transform="translate(1918.032 763.074)">
      <g id="Grupo_37426" data-name="Grupo 37426" transform="translate(0 1.726)" opacity="0.3" style="mix-blend-mode: multiply;isolation: isolate">
        <ellipse id="Elipse_1013" data-name="Elipse 1013" cx="24.407" cy="3.333" rx="24.407" ry="3.333" transform="translate(0.049 0.049)" fill="url(#linear-gradient)"/>
        <path id="Trazado_100699" data-name="Trazado 100699" d="M2046.832,2595.5a134.551,134.551,0,0,1-17.265-.977c-2.686-.367-7.192-1.167-7.192-2.406s4.506-2.039,7.192-2.406a153.11,153.11,0,0,1,34.531,0c2.685.367,7.191,1.167,7.191,2.406s-4.506,2.039-7.191,2.406A134.558,134.558,0,0,1,2046.832,2595.5Zm0-6.667a134.477,134.477,0,0,0-17.252.976c-4.516.617-7.106,1.458-7.106,2.308s2.59,1.691,7.106,2.308a152.948,152.948,0,0,0,34.5,0c4.516-.616,7.106-1.458,7.106-2.308s-2.59-1.691-7.106-2.308A134.479,134.479,0,0,0,2046.832,2588.831Z" transform="translate(-2022.375 -2588.732)" fill="#dccaf8"/>
      </g>
      <g id="Grupo_37427" data-name="Grupo 37427" transform="translate(176.595 0)" opacity="0.3" style="mix-blend-mode: multiply;isolation: isolate">
        <ellipse id="Elipse_1014" data-name="Elipse 1014" cx="46.253" cy="4.196" rx="46.253" ry="4.196" transform="translate(0.049 0.049)" fill="url(#linear-gradient)"/>
        <path id="Trazado_100700" data-name="Trazado 100700" d="M3856.586,2579.752c-12.356,0-23.973-.436-32.711-1.229-5.076-.46-13.592-1.465-13.592-3.016s8.516-2.556,13.592-3.016c8.737-.793,20.354-1.229,32.711-1.229s23.973.437,32.71,1.229c5.076.46,13.592,1.465,13.592,3.016s-8.516,2.556-13.592,3.016C3880.559,2579.315,3868.942,2579.752,3856.586,2579.752Zm0-8.392c-12.354,0-23.967.436-32.7,1.229-8.581.779-13.5,1.842-13.5,2.918s4.921,2.139,13.5,2.918c8.735.792,20.348,1.229,32.7,1.229s23.967-.436,32.7-1.229c8.581-.778,13.5-1.842,13.5-2.918s-4.921-2.139-13.5-2.918C3880.553,2571.8,3868.939,2571.36,3856.586,2571.36Z" transform="translate(-3810.283 -2571.261)" fill="#dccaf8"/>
      </g>
    </g>
    <g id="clothes_and_woman" data-name="clothes and woman" transform="translate(1925.573 584.226)">
      <g id="Grupo_37438" data-name="Grupo 37438" transform="translate(5.202 0)">
        <g id="Grupo_37428" data-name="Grupo 37428" transform="translate(20.986)">
          <path id="Trazado_100701" data-name="Trazado 100701" d="M2519.779,925.6H2516V766.15a1.825,1.825,0,0,0-1.823-1.823H2369.46a1.825,1.825,0,0,0-1.823,1.823V925.6h-3.779V766.15a5.608,5.608,0,0,1,5.6-5.6h144.717a5.608,5.608,0,0,1,5.6,5.6Z" transform="translate(-2363.858 -760.548)" fill="url(#linear-gradient-3)"/>
        </g>
        <g id="Grupo_37431" data-name="Grupo 37431" transform="translate(0 165.139)">
          <g id="Grupo_37429" data-name="Grupo 37429" transform="translate(1.854 0)">
            <path id="Trazado_100702" data-name="Trazado 100702" d="M2210.221,2444.989a1.113,1.113,0,0,1-1.112-1.113v-8.246a.937.937,0,0,0-.936-.935h-34.85a.937.937,0,0,0-.936.935v8.246a1.113,1.113,0,1,1-2.225,0v-8.246a3.164,3.164,0,0,1,3.161-3.161h34.85a3.164,3.164,0,0,1,3.161,3.161v8.246A1.113,1.113,0,0,1,2210.221,2444.989Z" transform="translate(-2170.163 -2432.47)" fill="url(#linear-gradient-4)"/>
          </g>
          <g id="Grupo_37430" data-name="Grupo 37430" transform="translate(0 10.674)">
            <circle id="Elipse_1015" data-name="Elipse 1015" cx="2.967" cy="2.967" r="2.967" fill="url(#linear-gradient-5)"/>
            <circle id="Elipse_1016" data-name="Elipse 1016" cx="2.967" cy="2.967" r="2.967" transform="translate(38.946)" fill="url(#linear-gradient-6)"/>
          </g>
        </g>
        <g id="Grupo_37434" data-name="Grupo 37434" transform="translate(152.142 165.139)">
          <g id="Grupo_37432" data-name="Grupo 37432" transform="translate(1.854 0)">
            <path id="Trazado_100703" data-name="Trazado 100703" d="M3750.558,2444.989a1.112,1.112,0,0,1-1.112-1.113v-8.246a.937.937,0,0,0-.936-.935h-34.849a.937.937,0,0,0-.936.935v8.246a1.113,1.113,0,0,1-2.225,0v-8.246a3.164,3.164,0,0,1,3.161-3.161h34.849a3.164,3.164,0,0,1,3.161,3.161v8.246A1.113,1.113,0,0,1,3750.558,2444.989Z" transform="translate(-3710.5 -2432.47)" fill="url(#linear-gradient-7)"/>
          </g>
          <g id="Grupo_37433" data-name="Grupo 37433" transform="translate(0 10.674)">
            <circle id="Elipse_1017" data-name="Elipse 1017" cx="2.967" cy="2.967" r="2.967" fill="url(#linear-gradient-8)"/>
            <circle id="Elipse_1018" data-name="Elipse 1018" cx="2.967" cy="2.967" r="2.967" transform="translate(38.946)" fill="url(#linear-gradient-9)"/>
          </g>
        </g>
        <g id="Grupo_37435" data-name="Grupo 37435" transform="translate(22.44 148.975)">
          <rect id="Rectángulo_31979" data-name="Rectángulo 31979" width="152.142" height="2.721" transform="translate(0 0)" fill="url(#linear-gradient-10)"/>
        </g>
        <g id="Grupo_37436" data-name="Grupo 37436" transform="translate(23.044 10.07)">
          <rect id="Rectángulo_31980" data-name="Rectángulo 31980" width="152.142" height="1.309" fill="url(#linear-gradient-11)"/>
        </g>
        <g id="Grupo_37437" data-name="Grupo 37437" transform="translate(49.1 9.788)">
          <path id="Trazado_100704" data-name="Trazado 100704" d="M2650.794,860.955h-1.371a2.132,2.132,0,0,0-.535-.978,2.075,2.075,0,0,0-.39-.33h1.838A3.012,3.012,0,0,1,2650.794,860.955Z" transform="translate(-2648.498 -859.646)" fill="url(#linear-gradient-12)"/>
          <path id="Trazado_100705" data-name="Trazado 100705" d="M2916.735,860.955h-1.323a2.059,2.059,0,0,0-.537-1.031,2.027,2.027,0,0,0-.314-.278h1.748A2.959,2.959,0,0,1,2916.735,860.955Z" transform="translate(-2888.281 -859.646)" fill="url(#linear-gradient-13)"/>
          <path id="Trazado_100706" data-name="Trazado 100706" d="M3142.49,860.955h-1.341a2.087,2.087,0,0,0-.538-1.011,2.056,2.056,0,0,0-.342-.3h1.782A2.965,2.965,0,0,1,3142.49,860.955Z" transform="translate(-3091.696 -859.646)" fill="url(#linear-gradient-14)"/>
          <path id="Trazado_100707" data-name="Trazado 100707" d="M3388.994,859.646a3.031,3.031,0,0,1,.458,1.309h-1.371a2.147,2.147,0,0,0-.536-.978,2.07,2.07,0,0,0-.389-.33Z" transform="translate(-3314.198 -859.646)" fill="url(#linear-gradient-15)"/>
        </g>
      </g>
      <g id="Grupo_37441" data-name="Grupo 37441" transform="translate(133.067 8.578)">
        <path id="Trazado_100708" data-name="Trazado 100708" d="M3573.021,978.833h15.707s-4.789,16.753-4.981,18.151-1.061,8.964-3.181,6.8-2.073.819-5.687-7.229S3573.021,978.833,3573.021,978.833Z" transform="translate(-3560.085 -965.851)" fill="#402454"/>
        <g id="Grupo_37440" data-name="Grupo 37440" transform="translate(4.216)">
          <path id="Trazado_100709" data-name="Trazado 100709" d="M3520.451,948.31a1.375,1.375,0,0,1-.661-.171l-8.713-4.8a12.135,12.135,0,0,0-11.707,0l-8.713,4.8a1.373,1.373,0,1,1-1.325-2.406l15.229-8.385.01-.005.042-.022.024-.011.034-.016.033-.014.024-.009.043-.016.012,0,.055-.017.007,0,.058-.016.065-.014.064-.011h.006l.058-.007h.013l.05,0h.126l.05,0h.013l.058.007h.006l.061.01.064.013h.005l.055.015h.005l.053.017.016.006.042.015.026.01.032.014.035.016.023.011.044.023.011.006,15.227,8.385a1.374,1.374,0,0,1-.664,2.577Z" transform="translate(-3488.621 -928.309)" fill="#edb69c"/>
          <g id="Grupo_37439" data-name="Grupo 37439" transform="translate(13.251)">
            <path id="Trazado_100710" data-name="Trazado 100710" d="M3629.461,850.2a3.017,3.017,0,0,0-.458-1.309,3.223,3.223,0,0,0-2.923-1.492,3.23,3.23,0,0,0-2.361.874,3.071,3.071,0,0,0-.487.618h1.8a1.873,1.873,0,0,1,1.064-.307,1.9,1.9,0,0,1,1.064.307,2.078,2.078,0,0,1,.39.33,2.11,2.11,0,0,1,.593,1.478,1.845,1.845,0,0,1-.2.857,4.758,4.758,0,0,1-.879,1.053,10.223,10.223,0,0,0-.936,1.005,3.4,3.4,0,0,0-.513.937,4.41,4.41,0,0,0-.217,1.466v0c0,.2,0,.344.014.446.046.493.2-.017.373-.017h.492c.181,0,.3.459.366-.082.01-.085.019-.194.026-.334a4.722,4.722,0,0,1,.1-.833,2.168,2.168,0,0,1,.289-.681,6.867,6.867,0,0,1,.832-.921,6.571,6.571,0,0,0,1.272-1.578,3.118,3.118,0,0,0,.325-1.417A3.359,3.359,0,0,0,3629.461,850.2Zm-6.086.684a.681.681,0,0,0,.729-.535c.014-.051.028-.1.043-.149h-1.369A.725.725,0,0,0,3623.375,850.88Z" transform="translate(-3622.779 -847.396)" fill="#edb69c"/>
          </g>
        </g>
        <path id="Trazado_100711" data-name="Trazado 100711" d="M3476.9,1003.646c-.579-4.733,5.35-18.69,4.338-21.149s-6.654-3.664-6.654-3.664c-5.825,5.038-7.413,18.082-7.748,21.711q-.055.366-.105.738-.05-.372-.105-.738c-.335-3.629-1.923-16.673-7.749-21.711,0,0-5.642,1.2-6.653,3.664s4.917,16.416,4.338,21.149-11.567,40.063-10.555,49.437h41.449C3488.468,1043.709,3477.479,1008.379,3476.9,1003.646Z" transform="translate(-3445.942 -965.851)" fill="#96c9e3"/>
        <path id="Trazado_100712" data-name="Trazado 100712" d="M3476.9,1003.646c-.579-4.733,5.35-18.69,4.338-21.149s-6.654-3.664-6.654-3.664c-5.825,5.038-7.413,18.082-7.748,21.711q-.055.366-.105.738-.05-.372-.105-.738c-.335-3.629-1.923-16.673-7.749-21.711,0,0-5.642,1.2-6.653,3.664s4.917,16.416,4.338,21.149-11.567,40.063-10.555,49.437h41.449C3488.468,1043.709,3477.479,1008.379,3476.9,1003.646Z" transform="translate(-3445.942 -965.851)" fill="#8acc59"/>
      </g>
      <g id="Grupo_37444" data-name="Grupo 37444" transform="translate(105.912 8.578)">
        <path id="Trazado_100713" data-name="Trazado 100713" d="M3309.134,978.833h15.707s-4.789,16.753-4.982,18.151-1.06,8.964-3.181,6.8-2.073.819-5.687-7.229S3309.134,978.833,3309.134,978.833Z" transform="translate(-3295.107 -965.851)" fill="#5f50a1"/>
        <g id="Grupo_37443" data-name="Grupo 37443" transform="translate(5.306)">
          <path id="Trazado_100714" data-name="Trazado 100714" d="M3256.564,948.31a1.374,1.374,0,0,1-.661-.171l-8.713-4.8a12.136,12.136,0,0,0-11.707,0l-8.713,4.8a1.374,1.374,0,0,1-1.325-2.406l15.229-8.385.01-.005.042-.022.024-.011.034-.016.033-.014.024-.009.043-.016.011,0,.055-.017.007,0,.058-.016.065-.014.064-.011h.006l.058-.007h.013l.051,0h.126l.05,0h.014l.058.007h.007l.061.01.064.013h.005l.055.015h.005l.054.017.016.006.042.015.026.01.032.014.035.016.023.011.044.023.011.006,15.227,8.385a1.374,1.374,0,0,1-.664,2.577Z" transform="translate(-3224.734 -928.309)" fill="#edb69c"/>
          <g id="Grupo_37442" data-name="Grupo 37442" transform="translate(13.251)">
            <path id="Trazado_100715" data-name="Trazado 100715" d="M3358.9,850.2a.725.725,0,0,0,.6.684.681.681,0,0,0,.729-.535c.013-.051.027-.1.043-.149Zm6.683,0a3.029,3.029,0,0,0-.459-1.309,3.293,3.293,0,0,0-.444-.554,3.329,3.329,0,0,0-2.48-.937,3.232,3.232,0,0,0-2.361.874,3.132,3.132,0,0,0-.487.618h1.8a1.878,1.878,0,0,1,1.065-.307,1.9,1.9,0,0,1,1.064.307,2.073,2.073,0,0,1,.389.33,2.1,2.1,0,0,1,.593,1.478,1.842,1.842,0,0,1-.2.857,4.736,4.736,0,0,1-.878,1.053,10.141,10.141,0,0,0-.937,1.005,3.443,3.443,0,0,0-.514.937,4.435,4.435,0,0,0-.217,1.466v0c0,.2.006.345.015.447.048.491.2-.018.373-.018h.491c.181,0,.3.459.366-.082.01-.085.019-.194.026-.334a4.9,4.9,0,0,1,.1-.833,2.17,2.17,0,0,1,.29-.681,6.857,6.857,0,0,1,.831-.921,6.557,6.557,0,0,0,1.273-1.578,3.113,3.113,0,0,0,.326-1.417A3.361,3.361,0,0,0,3365.578,850.2Z" transform="translate(-3358.895 -847.396)" fill="#edb69c"/>
          </g>
        </g>
        <path id="Trazado_100716" data-name="Trazado 100716" d="M3213.684,1085.439h-14.905l-5.856-56.875-5.788,56.875h-16.122l11.494-81.656a5.682,5.682,0,0,0,.174-1.411,16.578,16.578,0,0,0-.083-1.857c-.673-7.188-5.06-21.209-4.212-23.27,1.011-2.458,7.756-4.239,7.756-4.239s6.31,18.657,6.645,22.287c.037.244.174.244.211,0l7.748-21.711s5.642,1.205,6.654,3.663c.9,2.2-3.327,16.812-3.823,23.27a10.622,10.622,0,0,0-.011,1.857c0,.022,0,.044.008.065C3204.155,1007.17,3214.305,1085.439,3213.684,1085.439Z" transform="translate(-3171.014 -960.599)" fill="#6fd8d8"/>
        <path id="Trazado_100717" data-name="Trazado 100717" d="M3309.28,1253.37h-20.886a16.582,16.582,0,0,0-.083-1.857h20.98A10.663,10.663,0,0,0,3309.28,1253.37Z" transform="translate(-3276.725 -1211.598)" fill="#5f50a1"/>
      </g>
      <g id="Grupo_37450" data-name="Grupo 37450" transform="translate(86.951 8.578)">
        <path id="Trazado_100718" data-name="Trazado 100718" d="M3012.522,1023.949a10.465,10.465,0,0,1-5.695-.007l-.033-.008c-.841-.212-1.542-.457-2.044-.605a4.065,4.065,0,0,0-.479-.118,4.225,4.225,0,0,0-1.333.16c-.139.032-.286.066-.439.1l-.1.024c-1.627.405-3.926,1.111-5.847,1.405l-.012,0c-.319.049-.629.087-.922.109-.1.008-.2.014-.295.018l-.22.006c-.075,0-.148,0-.222,0-.258,0-.508-.021-.752-.048a10.166,10.166,0,0,1-1.592-.318l-.012,0c-1.612-.447-3-1.133-4.552-1.08l-.08,0-.132.005c-.333.014-.609.031-.847.052a12.264,12.264,0,0,0-1.631.264,16.749,16.749,0,0,1-1.665.235,4.083,4.083,0,0,1-.411.02h-.057a7.853,7.853,0,0,1-4.1-1.594c-.11-9.8,8.212-38.444,8.212-38.444s14.74-1.864,15.674,0C3003.895,986.041,3013.332,1023.7,3012.522,1023.949Z" transform="translate(-2979.049 -969.877)" fill="#d268cc"/>
        <g id="Grupo_37445" data-name="Grupo 37445" transform="translate(6.237 27.476)">
          <path id="Trazado_100719" data-name="Trazado 100719" d="M3043.829,1226.115a12.253,12.253,0,0,0-1.631.264c.031-4.672.19-14.269.948-18.209.006-.032.012-.064.018-.095.043-.228.172-.105.152.145-.092,1.216-.17,2.8-.17,4.613C3043.146,1216.944,3043.539,1222.535,3043.829,1226.115Z" transform="translate(-3042.198 -1199.817)" fill="#e35b83"/>
          <path id="Trazado_100720" data-name="Trazado 100720" d="M3132.919,1153.231c-.1.008-.2.014-.295.018-.074,0-.147.005-.22.006s-.148,0-.222,0c-.258,0-.508-.021-.752-.048-.081-4.974-.077-15.276.525-21.227.8-7.91.851-7.509.763-4.1C3132.666,1129.944,3132.362,1146.75,3132.919,1153.231Z" transform="translate(-3122.584 -1125.568)" fill="#e35b83"/>
          <path id="Trazado_100721" data-name="Trazado 100721" d="M3221.915,1225.8a4.054,4.054,0,0,0-.479-.118,4.224,4.224,0,0,0-1.333.16c.035-5.864-.2-13.987-.021-17.282C3220.271,1205.1,3221.284,1217.337,3221.915,1225.8Z" transform="translate(-3202.451 -1199.819)" fill="#e35b83"/>
        </g>
        <path id="Trazado_100722" data-name="Trazado 100722" d="M3077.872,974.675H3062.2l.1-1.677a.2.2,0,0,1,.2-.188h15.1a.2.2,0,0,1,.2.188Z" transform="translate(-3053.985 -960.424)" fill="#cc6080"/>
        <g id="Grupo_37449" data-name="Grupo 37449" transform="translate(6.865)">
          <g id="Grupo_37446" data-name="Grupo 37446" transform="translate(5.835)">
            <path id="Trazado_100723" data-name="Trazado 100723" d="M3107.633,850.2a.7.7,0,0,0,.579.621.669.669,0,0,0,.716-.525c.009-.033.017-.065.027-.1Zm6.562,0a2.981,2.981,0,0,0-.439-1.309,3.167,3.167,0,0,0-2.888-1.492,3.175,3.175,0,0,0-2.318.858,3.01,3.01,0,0,0-.494.634h1.749a1.959,1.959,0,0,1,2.168,0,2.048,2.048,0,0,1,.343.3,2.089,2.089,0,0,1,.537,1.011,2.133,2.133,0,0,1,.045.44,1.806,1.806,0,0,1-.2.841,4.7,4.7,0,0,1-.863,1.034,10.121,10.121,0,0,0-.919.987,3.329,3.329,0,0,0-.5.921,4.328,4.328,0,0,0-.213,1.439v0c0,.119,0,.217,0,.3.032.709.187.123.375.123h.483c.182,0,.3.474.364-.123.007-.076.014-.17.02-.286a4.774,4.774,0,0,1,.094-.817,2.135,2.135,0,0,1,.284-.669,6.778,6.778,0,0,1,.816-.9,6.452,6.452,0,0,0,1.25-1.549,3.061,3.061,0,0,0,.32-1.392C3114.212,850.425,3114.206,850.309,3114.2,850.2Z" transform="translate(-3107.633 -847.396)" fill="#edb69c"/>
          </g>
          <rect id="Rectángulo_31981" data-name="Rectángulo 31981" width="18.24" height="1.487" rx="0.743" transform="translate(0 8.763)" fill="#edb69c"/>
          <g id="Grupo_37447" data-name="Grupo 37447" transform="translate(0.562 9.577)">
            <path id="Trazado_100724" data-name="Trazado 100724" d="M3054.249,944.549v1.432a.9.9,0,0,0,.954.826h15.206a.9.9,0,0,0,.955-.826V944.36Zm16.784,1.432a.571.571,0,0,1-.623.495H3055.2a.571.571,0,0,1-.623-.495v-1.1l16.453-.181Z" transform="translate(-3054.249 -944.36)" fill="#edb69c"/>
          </g>
          <g id="Grupo_37448" data-name="Grupo 37448" transform="translate(1.706 11.101)">
            <rect id="Rectángulo_31982" data-name="Rectángulo 31982" width="0.946" height="1.735" fill="#edb69c"/>
            <rect id="Rectángulo_31983" data-name="Rectángulo 31983" width="0.946" height="1.735" transform="translate(13.881)" fill="#edb69c"/>
          </g>
        </g>
      </g>
      <g id="Grupo_37454" data-name="Grupo 37454" transform="translate(62.085 8.578)">
        <g id="Grupo_37452" data-name="Grupo 37452" transform="translate(8.128 35.399)">
          <rect id="Rectángulo_31984" data-name="Rectángulo 31984" width="20.297" height="59.721" fill="#ffeac9"/>
          <g id="Grupo_37451" data-name="Grupo 37451" transform="translate(0.675)">
            <rect id="Rectángulo_31985" data-name="Rectángulo 31985" width="0.584" height="59.721" fill="#ffc34f"/>
            <rect id="Rectángulo_31986" data-name="Rectángulo 31986" width="0.584" height="59.721" transform="translate(2.295)" fill="#ffc34f"/>
            <rect id="Rectángulo_31987" data-name="Rectángulo 31987" width="0.584" height="59.721" transform="translate(4.591)" fill="#ffc34f"/>
            <rect id="Rectángulo_31988" data-name="Rectángulo 31988" width="0.584" height="59.721" transform="translate(6.886)" fill="#ffc34f"/>
            <rect id="Rectángulo_31989" data-name="Rectángulo 31989" width="0.584" height="59.721" transform="translate(9.181)" fill="#ffc34f"/>
            <rect id="Rectángulo_31990" data-name="Rectángulo 31990" width="0.584" height="59.721" transform="translate(11.477)" fill="#ffc34f"/>
            <rect id="Rectángulo_31991" data-name="Rectángulo 31991" width="0.584" height="59.721" transform="translate(13.772)" fill="#ffc34f"/>
            <rect id="Rectángulo_31992" data-name="Rectángulo 31992" width="0.584" height="59.721" transform="translate(16.067)" fill="#ffc34f"/>
            <rect id="Rectángulo_31993" data-name="Rectángulo 31993" width="0.584" height="59.721" transform="translate(18.363)" fill="#ffc34f"/>
          </g>
        </g>
        <g id="Grupo_37453" data-name="Grupo 37453">
          <path id="Trazado_100725" data-name="Trazado 100725" d="M2827.426,958.345a114.772,114.772,0,0,1,16.622,0s.5,5.547-.4,6.455-6.618,3.082-9.841,3.341-2.807,3.082-4.643-.552S2827.426,958.345,2827.426,958.345Z" transform="translate(-2817.535 -947.114)" fill="#db9a1b"/>
          <path id="Trazado_100726" data-name="Trazado 100726" d="M2880.006,876.333a.69.69,0,0,1-.568-.582h1.293c-.006.021-.012.042-.018.064a.639.639,0,0,1-.708.518Z" transform="translate(-2864.41 -872.95)" fill="#edb69c"/>
          <path id="Trazado_100727" data-name="Trazado 100727" d="M2781.142,866.124a1.332,1.332,0,0,1-1.811.525l-.875-.482-4.957-2.73-2.627-1.446c-.078-.043-.156-.085-.235-.125a11.781,11.781,0,0,0-10.986.047l-.145.079-2.331,1.284-2.573,1.416h0l-1.081.6-1.767.972-.706.389a1.334,1.334,0,0,1-1.924-1.539,1.357,1.357,0,0,1,.1-.246,1.325,1.325,0,0,1,.54-.551l2.076-1.143.632-.348,4.393-2.419.966-.532,2.635-1.45h0l4.031-2.221c-.009-.1-.015-.239-.015-.434v0a4.3,4.3,0,0,1,.211-1.423,3.321,3.321,0,0,1,.5-.91,10,10,0,0,1,.91-.976,4.652,4.652,0,0,0,.853-1.022,1.8,1.8,0,0,0,.2-.832,2.137,2.137,0,0,0-.038-.4,2.18,2.18,0,0,0-.851-1.309,1.842,1.842,0,0,0-1.1-.34,1.81,1.81,0,0,0-1.1.34h-1.716a3.039,3.039,0,0,1,.5-.644,3.139,3.139,0,0,1,2.292-.848,3.137,3.137,0,0,1,2.866,1.492,2.956,2.956,0,0,1,.426,1.309,3.07,3.07,0,0,1,.014.31,3.035,3.035,0,0,1-.315,1.376,6.391,6.391,0,0,1-1.236,1.532,6.561,6.561,0,0,0-.807.895,2.078,2.078,0,0,0-.281.661,4.7,4.7,0,0,0-.093.808c-.007.136-.016.242-.025.324l0,0,.032.014.034.015.022.011.043.022.011.006,4.079,2.246,2.544,1.4,1.085.6,5.647,3.11,1.428.786a1.335,1.335,0,0,1,.525,1.811Z" transform="translate(-2746.919 -847.396)" fill="#edb69c"/>
          <path id="Trazado_100728" data-name="Trazado 100728" d="M2757.075,977.625l-.02.008.253,4.6.624,11.358h-24.191l.6-14.954.058-1.445h-.007l0,0-.9-.361c-1.554-.621-4.681-1.875-6.193-2.513.144-.588.291-1.163.438-1.717.205-.77.41-1.5.607-2.161.338-1.141.653-2.088.9-2.715,1.178-2.992,6.311-5.668,7.947-6.617l.22.273c.771.956,1.625,1.975,2.545,2.934a7.575,7.575,0,0,0,4.426,2.235l1.138,2.521,1.23-2.541a7.561,7.561,0,0,0,4.3-2.216c.92-.96,1.774-1.979,2.545-2.934l.22-.273c1.636.949,6.769,3.625,7.947,6.617a54.6,54.6,0,0,1,1.682,5.548c.139.54.277,1.094.41,1.657h0c-1.7.7-4.821,1.931-6.161,2.458l-.574.226Z" transform="translate(-2727.291 -949.874)" fill="#ffc74a"/>
          <path id="Trazado_100729" data-name="Trazado 100729" d="M3034.742,1085.923h0c-1.7.7-4.82,1.931-6.161,2.458l-.277.109-.048.019-.249.1-.033.013q-.031-.692-.061-1.362-.017-.4-.034-.783l.452-.145c1.313-.424,3.994-1.306,6-2.065C3034.471,1084.806,3034.608,1085.36,3034.742,1085.923Z" transform="translate(-2998.189 -1060.87)" fill="#ffc34f"/>
          <path id="Trazado_100730" data-name="Trazado 100730" d="M2734.538,1079.838c-.044.712-.092,1.459-.142,2.228h0l0,0-.9-.361c-1.554-.621-4.681-1.875-6.193-2.513.144-.588.291-1.163.438-1.717l6.138,2.133Z" transform="translate(-2727.291 -1054.747)" fill="#ffc34f"/>
          <path id="Trazado_100731" data-name="Trazado 100731" d="M3026.147,1043.6l-.277.109-.048.019-.249.1-.033.013q-.031-.692-.061-1.361-.017-.4-.034-.783c-.143-3.361-.234-6.111-.267-7.118.073,1.432.449,4.721.719,6.973l.021.184C3026.02,1042.579,3026.1,1043.256,3026.147,1043.6Z" transform="translate(-2995.756 -1016.092)" fill="#db9a1b"/>
          <path id="Trazado_100732" data-name="Trazado 100732" d="M2791.421,1035.1c0,.429-.155,3.075-.374,6.551-.044.712-.092,1.459-.142,2.228h0l0,0-.9-.361c.078-.425.219-1.192.383-2.1C2790.806,1039.048,2791.392,1035.725,2791.421,1035.1Z" transform="translate(-2783.8 -1016.563)" fill="#db9a1b"/>
        </g>
      </g>
      <g id="woman" transform="translate(0 8.578)">
        <g id="Grupo_37456" data-name="Grupo 37456" transform="translate(11.866 84.327)">
          <path id="Trazado_100733" data-name="Trazado 100733" d="M2223.663,1732.25a23.881,23.881,0,0,1,.719,9.715c-2.745,20.292,1.965,43.311,1.965,43.311l3.524.3s3.508-39.7,3.519-41.038c.014-1.763.1-32.3-1.245-39.723s-11.684-1.3-11.684-1.3a40.958,40.958,0,0,0-1.577,8.188C2218.533,1715.507,2223.517,1731.627,2223.663,1732.25Z" transform="translate(-2218.866 -1701.147)" fill="#ffb08c"/>
          <g id="Grupo_37455" data-name="Grupo 37455" transform="translate(7.237 83.447)">
            <path id="Trazado_100734" data-name="Trazado 100734" d="M2292.348,2564.438s-.95,4.445,1.181,4.734c1.63.221,11.8,1.409,13.09.04.836-.884-.582-1.8-2.275-2.141a31.954,31.954,0,0,1-6.685-2.208S2297.285,2566.16,2292.348,2564.438Z" transform="translate(-2292.137 -2562.616)" fill="url(#linear-gradient-16)"/>
            <path id="Trazado_100735" data-name="Trazado 100735" d="M2294.315,2546.556s.025.451-.005,1.163a.833.833,0,0,0,.467.785,12.109,12.109,0,0,0,3.24,1.108c1.642.221,5.511,1.017,5.769.448.128-.283-1.507-.847-1.835-.974s-3.652-1.312-4.076-2.539C2297.44,2545.29,2294.315,2546.556,2294.315,2546.556Z" transform="translate(-2294.095 -2545.99)" fill="#ffb08c"/>
          </g>
        </g>
        <g id="Grupo_37459" data-name="Grupo 37459" transform="translate(0 85.96)">
          <g id="Grupo_37457" data-name="Grupo 37457" transform="translate(0.505)">
            <path id="Trazado_100736" data-name="Trazado 100736" d="M2103.881,1800.211a11.943,11.943,0,0,0,3.523.295c1.475-8.8,10.166-37.153,10.962-39.743a1.772,1.772,0,0,0,.074-.389c.719-9.079,2.481-28.2,1.734-38.139-.572-7.611-10.364-3.456-10.65-3.112-3.574,4.292-2.616,4.4-3.583,9.2-1.043,5.177,2.118,14.761,2.391,19.938s1.718,2.1.664,6.753C2105.95,1768.468,2103.468,1792.237,2103.881,1800.211Z" transform="translate(-2103.836 -1717.684)" fill="#ffb08c"/>
          </g>
          <g id="Grupo_37458" data-name="Grupo 37458" transform="translate(0 82.011)">
            <path id="Trazado_100737" data-name="Trazado 100737" d="M2099.152,2564.264s-1.346,4.341.751,4.821c1.6.367,11.621,2.464,13.033,1.217.912-.805-.418-1.844-2.073-2.336a31.958,31.958,0,0,1-6.459-2.8S2103.914,2566.423,2099.152,2564.264Z" transform="translate(-2098.727 -2562.657)" fill="url(#linear-gradient-17)"/>
            <path id="Trazado_100738" data-name="Trazado 100738" d="M2103.2,2548.35s-.016.452-.109,1.158a.832.832,0,0,0,.394.823,12.106,12.106,0,0,0,3.127,1.4c1.615.368,5.4,1.509,5.706.965.153-.27-1.424-.979-1.74-1.135s-3.519-1.635-3.832-2.9C2106.429,2547.37,2103.2,2548.35,2103.2,2548.35Z" transform="translate(-2102.656 -2547.994)" fill="#ffb08c"/>
          </g>
        </g>
        <g id="Grupo_37461" data-name="Grupo 37461" transform="translate(2.23 18.484)">
          <path id="Trazado_100739" data-name="Trazado 100739" d="M2141.13,1085.527c1.842-10.16-14.731-4.46-12.921-10.1s.643-11.344-2.022-13.093-4.628-7.718-4.86-11.509c-.224-3.658,1.677-11.828,5.86-14.372l.005,0c.151-.092.3-.177.459-.254a13.87,13.87,0,0,1,3.526-1.3,12.089,12.089,0,0,1,9.3,1.422c3.786,2.377,5.432,7.59,4.35,11s4.7,6.546,6.55,10.362,2.25,5.889.808,9.541,1.177,6.384.985,10.606C2152.909,1083.661,2139.39,1095.123,2141.13,1085.527Z" transform="translate(-2121.309 -1034.536)" fill="#1f2047"/>
          <g id="Grupo_37460" data-name="Grupo 37460" transform="translate(9.227 3.561)">
            <path id="Trazado_100740" data-name="Trazado 100740" d="M2220.094,1070.59a9.429,9.429,0,0,0-1.747.963,9.573,9.573,0,0,0-1.5,1.285,8.192,8.192,0,0,0-.644.75,9.831,9.831,0,0,0-.566.813,12.962,12.962,0,0,0-.905,1.782,7.529,7.529,0,0,1,1.9-3.549,8.1,8.1,0,0,1,.753-.691,7.729,7.729,0,0,1,.838-.582A6.172,6.172,0,0,1,2220.094,1070.59Z" transform="translate(-2214.73 -1070.59)" fill="#1a0c02"/>
          </g>
        </g>
        <g id="Grupo_37462" data-name="Grupo 37462" transform="translate(19.771 43.983)">
          <path id="Trazado_100741" data-name="Trazado 100741" d="M2306.238,1303.352c-.026.558-.762,6.628-.711,9.547a22.44,22.44,0,0,0-1.592,9.138,67.21,67.21,0,0,0,1.058,9.506c-2.48-6-5.276-13.5-5.754-16.4-.75-4.552-.2-15.812,1.112-21.572.252-1.1,1.471-1.6,3.625,1.17C2305.106,1296.186,2306.361,1300.665,2306.238,1303.352Z" transform="translate(-2298.9 -1292.691)" opacity="0.1"/>
        </g>
        <path id="Trazado_100742" data-name="Trazado 100742" d="M2219.017,1149.112s-2.638,1.354-2.774.641c-.13-.685,2.211-3.419,3.632-4.311,2.9-1.82,15.022-2.641,17.255-3.387s11.466-10.888,12.552-12.216,4.357.557,3.53,1.432c-.971,1.028-11,13.116-13.081,14.815S2224.226,1151.93,2219.017,1149.112Z" transform="translate(-2204.631 -1101.526)" fill="#ffb08c"/>
        <path id="Trazado_100743" data-name="Trazado 100743" d="M2557.9,1089.032a11.49,11.49,0,0,1,1.868-1.879c1.235-.946,1.188-1.088,1.163-1.969s-1.01-3.9-2.2-3.448c-1.331.5-1.76,2.187-1.82,2.117s.178-1.725-.3-1.847-.778,2.547-.789,3.055a2.629,2.629,0,0,1-.735,1.724C2554.609,1087.37,2557.9,1089.032,2557.9,1089.032Z" transform="translate(-2509.969 -1058.549)" fill="#ffb08c"/>
        <g id="Grupo_37463" data-name="Grupo 37463" transform="translate(3.887 42.304)">
          <path id="Trazado_100744" data-name="Trazado 100744" d="M2139.308,1315.71c-.6,2.634-1.228,4.548-1.228,4.548a8.132,8.132,0,0,0,1.895,1.433c6.883,3.828,20.221,0,20.221,0s-2.917-2.573-1.97-8.386c1.026-6.3,2.71-18.29,3-24.444.154-3.3-.563-8.323-3.24-10.733a9.71,9.71,0,0,0-3.917-1.874c-.161-.043-.322-.083-.484-.121h0a17.2,17.2,0,0,0-2.462-.389,15.35,15.35,0,0,0-5.6.557c-.131.036-.263.075-.394.116a25.883,25.883,0,0,0-2.449.9c-1.45.608-3.01,2.468-3.935,3.91a2.338,2.338,0,0,0-.365,1.429c.3,4.169,1.782,24.954,1.7,28.978A16.447,16.447,0,0,1,2139.308,1315.71Z" transform="translate(-2138.08 -1275.694)" fill="url(#linear-gradient-18)"/>
        </g>
        <g id="Grupo_37465" data-name="Grupo 37465" transform="translate(1.729 78.248)">
          <g id="Grupo_37464" data-name="Grupo 37464">
            <path id="Trazado_100745" data-name="Trazado 100745" d="M2120.171,1684.639c5.989,1.061,20.522,1.068,20.731.529,0,0,1.5-23.7.8-28.508-1.689-11.609-2.769-12.949-3.161-15.387l-18.146-1.672s-2.4,8.169-3.744,14.027a16.186,16.186,0,0,0-.313,5.433C2117.111,1666,2119.259,1684.477,2120.171,1684.639Z" transform="translate(-2116.235 -1639.601)" fill="#15579f"/>
          </g>
        </g>
        <g id="Grupo_37466" data-name="Grupo 37466" transform="translate(4.84 18.786)">
          <path id="Trazado_100746" data-name="Trazado 100746" d="M2224.605,1227.081c-1.727.308-5.447-1.094-5.555-2.154a18.4,18.4,0,0,1,.335-2.995c.306-1.884.7-3.912.7-3.912s4.916.992,5.015,1.812c.058.475.3,2.118.574,3.5a8.079,8.079,0,0,0,.557,2.069C2226.6,1225.851,2226.332,1226.773,2224.605,1227.081Z" transform="translate(-2211.999 -1200.199)" fill="#ffb08c"/>
          <path id="Trazado_100747" data-name="Trazado 100747" d="M2228.8,1223.337a2.065,2.065,0,0,1-.751.317c-1.4.273-3.483-.35-5.541-1.722.305-1.884.7-3.912.7-3.912s4.916.992,5.015,1.812C2228.285,1220.307,2228.531,1221.95,2228.8,1223.337Z" transform="translate(-2215.122 -1200.199)" fill="#ffa780"/>
          <path id="Trazado_100748" data-name="Trazado 100748" d="M2165.757,1046.318a19.237,19.237,0,0,1,1.993,6.339c.43,3.66-.712,10.723-3.548,11.275-2.608.507-7.538-2.074-10.354-6.81-3.828-6.437-1.933-12.066.433-13.58C2156.38,1042.2,2160.766,1039.048,2165.757,1046.318Z" transform="translate(-2151.274 -1041.293)" fill="#ffb08c"/>
          <path id="Trazado_100749" data-name="Trazado 100749" d="M2164.564,1048.272a9.308,9.308,0,0,0-2.629-5.027,3.777,3.777,0,0,0-4.654-.359,10.551,10.551,0,0,0-4.389,7.888s-.949-1.626-2.085-1.118c-1.207.54-.653,1.967.309,3.36a24.8,24.8,0,0,1,2,5.144c-6.814-6.6-6.758-15.381-2.121-18.953l.005,0c.151-.093.3-.177.459-.254a13.862,13.862,0,0,1,3.526-1.3q.38-.042.779-.052C2164.628,1037.37,2164.564,1048.272,2164.564,1048.272Z" transform="translate(-2147.724 -1037.595)" fill="#1f2047"/>
          <path id="Trazado_100750" data-name="Trazado 100750" d="M2210.132,1281.03c1.617,1.694,5.536,2.368,7.509.773,1.8-1.456.6-3.066.019-3.672-.161-.043-.322-.083-.484-.121h0a16.561,16.561,0,0,0-2.5-.208c-2.022-.166-3.677.39-5.561.376,0,0-.262.075-.394.116C2208.495,1278.882,2208.706,1279.537,2210.132,1281.03Z" transform="translate(-2202.626 -1254.047)" fill="#fff"/>
          <path id="Trazado_100751" data-name="Trazado 100751" d="M2216.053,1280.238c1.522,1.593,3.37,1.642,5.048-.056,1.5-1.521.375-4.043.375-4.043h0a17.2,17.2,0,0,0-2.462-.389,15.352,15.352,0,0,0-5.6.557A10.606,10.606,0,0,0,2216.053,1280.238Z" transform="translate(-2206.925 -1252.177)" fill="#ffb08c"/>
          <circle id="Elipse_1019" data-name="Elipse 1019" cx="0.732" cy="0.732" r="0.732" transform="translate(3.254 16.323) rotate(-45)" fill="#fff"/>
        </g>
        <g id="Grupo_37470" data-name="Grupo 37470" transform="translate(27.403)">
          <path id="Trazado_100752" data-name="Trazado 100752" d="M2450.271,1452.328c.371.17,35.246,0,35.246,0s-10.156-11.027-10.446-11.245-4.928-3.914-5.109-3.95a11.516,11.516,0,0,0-6.015,2.1c-2.863,1.993-3.515,1.739-5.146,4.675S2450.271,1452.328,2450.271,1452.328Z" transform="translate(-2442.952 -1378.88)" fill="#291e5c"/>
          <path id="Trazado_100753" data-name="Trazado 100753" d="M2524.19,942.8a71.275,71.275,0,0,1,12.392,0l4.4,9.457-8.4,35.863s-7.012-2.1-7.012-2.635-7.011-29.07-6.522-31.027S2524.19,942.8,2524.19,942.8Z" transform="translate(-2504.919 -933.114)" fill="#291e5c"/>
          <path id="Trazado_100754" data-name="Trazado 100754" d="M2596.317,876.333a.691.691,0,0,1-.568-.582h1.293c-.006.021-.011.042-.017.064a.639.639,0,0,1-.708.518Z" transform="translate(-2574.06 -872.95)" fill="#edb69c"/>
          <path id="Trazado_100755" data-name="Trazado 100755" d="M2497.458,866.124a1.331,1.331,0,0,1-1.811.525l-3.975-2.189-.781-.43-3.028-1.668-.674-.371a11.783,11.783,0,0,0-11.076-.154c-.1.05-.194.1-.291.154l-2.578,1.419-.458.253-2.44,1.343-1.589.876-1.22.672-.174.1a1.332,1.332,0,0,1-1.924-1.539,1.321,1.321,0,0,1,.637-.8l1.544-.85.49-.27,5.217-2.872,1.334-.735,1.236-.68,3.722-2.05,1.191-.656c-.01-.1-.015-.239-.015-.434v0a4.307,4.307,0,0,1,.21-1.423,3.345,3.345,0,0,1,.5-.91,10,10,0,0,1,.909-.976,4.585,4.585,0,0,0,.853-1.022,1.784,1.784,0,0,0,.2-.832,2.137,2.137,0,0,0-.038-.4,2.059,2.059,0,0,0-.539-1.031,2.035,2.035,0,0,0-.313-.278,1.842,1.842,0,0,0-1.1-.34,1.809,1.809,0,0,0-1.1.34h-1.716a3.031,3.031,0,0,1,.5-.644,3.135,3.135,0,0,1,2.292-.848,3.138,3.138,0,0,1,2.866,1.492,2.962,2.962,0,0,1,.426,1.309c.01.1.014.2.014.31a3.023,3.023,0,0,1-.316,1.376,6.339,6.339,0,0,1-1.235,1.532,6.565,6.565,0,0,0-.807.895,2.083,2.083,0,0,0-.281.661,4.571,4.571,0,0,0-.094.808c-.007.136-.015.242-.025.324l.005,0,.031.014.035.015.022.011.042.022.011.006,1.127.62,4.862,2.677,1.629.9,1.071.59,6.095,3.356a1.333,1.333,0,0,1,.526,1.811Z" transform="translate(-2456.573 -847.396)" fill="#edb69c"/>
          <path id="Trazado_100756" data-name="Trazado 100756" d="M2401.215,990.32c-.334,8.826-1.014,18.963-1.014,18.963l-16.716-.075,3.84-39.49c-.674,5.923-4.451,23-4.451,23l-6.708.409,7.841-40.064,9.064-6.044,2.366-1.578c0,9.622,5.66,40.181,5.66,40.181.008.229.027.56.048.96C2401.2,987.578,2401.265,988.993,2401.215,990.32Z" transform="translate(-2376.166 -935.76)" fill="#d268cc"/>
          <path id="Trazado_100757" data-name="Trazado 100757" d="M2641.162,993.473s-3.917-17.808-4.6-23.772l3.841,39.507-16.638.075s-1.7-17.817-1.631-23.251c0-.131.652-.3.656-.407l.019-.088c.392-1.793,6.623-30.452,6.691-39.937q0-.079,0-.157l2.419,1.354,7.893,4.419,7.887,41.892Z" transform="translate(-2597.842 -935.76)" fill="#d268cc"/>
          <path id="Trazado_100758" data-name="Trazado 100758" d="M2633.463,964.866c-.366,1.382-9.008,24.93-9.008,24.93l-.353-2.432-.154-.806c.006-.1.5-.376.471-.574q0-.2.008-.358l.019-.088c.392-1.793,6.623-30.452,6.692-39.937q0-.079,0-.157l2.419,1.354C2633.948,948.252,2633.824,963.5,2633.463,964.866Z" transform="translate(-2599.474 -935.76)" fill="#403185"/>
          <path id="Trazado_100759" data-name="Trazado 100759" d="M2553.017,986.586V988.4l-.31,1.784s-7.438-23.868-7.765-25.254-.367-16.792,0-17.907l2.366-1.578c0,9.622,5.66,40.181,5.66,40.181C2552.977,985.854,2553,986.186,2553.017,986.586Z" transform="translate(-2528.037 -935.76)" fill="#403185"/>
          <g id="Grupo_37467" data-name="Grupo 37467" transform="translate(11.864 55.181)">
            <rect id="Rectángulo_31994" data-name="Rectángulo 31994" width="6.849" height="0.889" fill="#403185"/>
          </g>
          <g id="Grupo_37468" data-name="Grupo 37468" transform="translate(30.231 55.181)">
            <rect id="Rectángulo_31995" data-name="Rectángulo 31995" width="6.849" height="0.889" fill="#403185"/>
          </g>
          <g id="Grupo_37469" data-name="Grupo 37469" transform="translate(23.44 51.594)">
            <path id="Trazado_100760" data-name="Trazado 100760" d="M2614.174,1391.709l-.689-.056c.56-6.952,1.188-21.752,1.195-21.9l.691.029C2615.364,1369.931,2614.735,1384.744,2614.174,1391.709Z" transform="translate(-2613.485 -1369.753)" fill="#403185"/>
          </g>
        </g>
        <g id="Grupo_37471" data-name="Grupo 37471" transform="translate(3.917 45.666)">
          <path id="Trazado_100761" data-name="Trazado 100761" d="M2138.461,1313.888c-.416-1.276.755-5.619,4.162-3.644,3.915,2.268,9.687,11.44,12.65,12.66,2.791,1.15,12.608-3.9,14.758-5.433s6.056-.14,2.8,2.263c-3.823,2.824-13.254,10.467-17.838,9.491C2151.5,1328.48,2140.279,1319.469,2138.461,1313.888Z" transform="translate(-2138.381 -1309.736)" fill="#ffb08c"/>
          <path id="Trazado_100762" data-name="Trazado 100762" d="M2461.348,1351.629a10.78,10.78,0,0,1,2.384-1.29,4.082,4.082,0,0,0,2.246-2.422,2.6,2.6,0,0,0-1.771-2.95c-1.334-.191-2.62-.044-3.73,2.272a3.977,3.977,0,0,1-1.168,1.571c-.056.047-.491.357-.491.357C2458.819,1349.922,2460.861,1351.213,2461.348,1351.629Z" transform="translate(-2427.166 -1341.433)" fill="#ffb08c"/>
        </g>
      </g>
      <g id="Grupo_37478" data-name="Grupo 37478" transform="translate(138.82 18.591)">
        <path id="Trazado_100763" data-name="Trazado 100763" d="M3513.192,971.868h-5.674a.506.506,0,0,0-.378.169l-2.822,3.168a.507.507,0,0,0-.128.337v19.572a.506.506,0,0,0,.506.506h11.317a.506.506,0,0,0,.506-.506V975.542a.507.507,0,0,0-.128-.337l-2.822-3.168A.505.505,0,0,0,3513.192,971.868Zm-2.753,3.169a1.025,1.025,0,1,1,.938-.939A1.025,1.025,0,0,1,3510.439,975.037Z" transform="translate(-3504.191 -969.586)" fill="#fff"/>
        <path id="Trazado_100764" data-name="Trazado 100764" d="M3560.526,975.037h.042A.247.247,0,0,1,3560.526,975.037ZM3560,971.99a4.914,4.914,0,0,0-.139,1c0,.081,0,.164,0,.245h0a1.008,1.008,0,0,1,.383-.206h0c0-.067,0-.135.008-.2a4.769,4.769,0,0,1,.157-.96h-.374Z" transform="translate(-3554.361 -969.583)" fill="#fff"/>
        <path id="Trazado_100765" data-name="Trazado 100765" d="M3519.493,978.829l-2.822-3.167a.136.136,0,0,0-.1-.046H3510.9a.136.136,0,0,0-.1.046l-2.822,3.168a.136.136,0,0,0-.034.09v19.572a.136.136,0,0,0,.136.136h11.316a.136.136,0,0,0,.136-.136V978.92A.136.136,0,0,0,3519.493,978.829Zm-6.785-1.436a1.025,1.025,0,1,1,1.025,1.025A1.025,1.025,0,0,1,3512.708,977.393Z" transform="translate(-3507.569 -972.964)" fill="#ffd178"/>
        <path id="Trazado_100766" data-name="Trazado 100766" d="M3555.476,981.26a1.219,1.219,0,1,0,1.219,1.219A1.219,1.219,0,0,0,3555.476,981.26Zm0,2.245a1.025,1.025,0,1,1,1.025-1.025A1.025,1.025,0,0,1,3555.476,983.5Z" transform="translate(-3549.311 -978.05)" fill="#fff"/>
        <path id="Trazado_100767" data-name="Trazado 100767" d="M3559.864,981.749c0,.081,0,.164,0,.245a1.023,1.023,0,0,1,.383-.206c0-.067,0-.135.008-.2A1.208,1.208,0,0,0,3559.864,981.749Z" transform="translate(-3554.361 -978.344)" fill="#fff"/>
        <g id="Grupo_37476" data-name="Grupo 37476" transform="translate(1.737 6.704)">
          <g id="Grupo_37473" data-name="Grupo 37473" transform="translate(0 10.548)">
            <path id="Trazado_100768" data-name="Trazado 100768" d="M3527.025,1126.834c.311-1.158-.961-2.351-1.673-2.816a4.139,4.139,0,0,0-3.573-.312,8.983,8.983,0,0,0,.983,2.1c.652,1.021,1.5,2.344,2.641,2.291A1.837,1.837,0,0,0,3527.025,1126.834Z" transform="translate(-3521.779 -1123.436)" fill="#fff"/>
            <path id="Trazado_100769" data-name="Trazado 100769" d="M3586.5,1123.5c.082,1.714-.457,3.01-1.21,3.216a1.219,1.219,0,0,1-1.144-.31,1.44,1.44,0,0,1-.364-1.083C3583.857,1124.479,3584.947,1123.714,3586.5,1123.5Z" transform="translate(-3577.652 -1123.495)" fill="#fff"/>
            <path id="Trazado_100770" data-name="Trazado 100770" d="M3580.629,1145.893a4.042,4.042,0,0,1-.678,1.518,3.727,3.727,0,0,1-.649.685l-.09-.057a6.755,6.755,0,0,0,1.217-2.181C3580.575,1145,3580.629,1145.893,3580.629,1145.893Z" transform="translate(-3573.539 -1143.307)" fill="#fff"/>
            <g id="Grupo_37472" data-name="Grupo 37472" transform="translate(4.322 3.389)">
              <path id="Trazado_100771" data-name="Trazado 100771" d="M3567.789,1161.6h.009a.193.193,0,0,0,.165-.214,4.942,4.942,0,0,0-.691-2.13,4.5,4.5,0,0,0-1.463-1.486.175.175,0,0,0-.249.073.208.208,0,0,0,.069.27,4.1,4.1,0,0,1,1.338,1.359,4.508,4.508,0,0,1,.632,1.948A.19.19,0,0,0,3567.789,1161.6Z" transform="translate(-3565.535 -1157.747)" fill="#fff"/>
            </g>
          </g>
          <g id="Grupo_37475" data-name="Grupo 37475" transform="translate(0.508)">
            <g id="Grupo_37474" data-name="Grupo 37474">
              <path id="Trazado_100772" data-name="Trazado 100772" d="M3572.827,1057.115l-1.434-2.484a.238.238,0,0,0-.437.057.236.236,0,0,0,.024.181l1.333,2.309h-2.86a.238.238,0,0,0,0,.477h3.062a.36.36,0,0,0,.312-.54Z" transform="translate(-3565.038 -1050.772)" fill="#fff"/>
              <path id="Trazado_100773" data-name="Trazado 100773" d="M3530.335,1057.178h-2.848l1.333-2.309a.238.238,0,0,0-.413-.238l-1.434,2.484a.36.36,0,0,0,.312.54h3.05a.238.238,0,0,0,0-.477Z" transform="translate(-3526.925 -1050.772)" fill="#fff"/>
              <path id="Trazado_100774" data-name="Trazado 100774" d="M3549.965,1020.081a.238.238,0,0,0,.135-.042.243.243,0,0,0,.067-.321l-1.672-2.895a.36.36,0,0,0-.623,0l-1.675,2.9a.239.239,0,0,0,.1.332.243.243,0,0,0,.319-.1l1.569-2.72,1.574,2.726A.239.239,0,0,0,3549.965,1020.081Z" transform="translate(-3544.266 -1016.642)" fill="#fff"/>
            </g>
            <path id="Trazado_100775" data-name="Trazado 100775" d="M3579.279,1044.219l.053-.841a.064.064,0,0,0-.093-.062l-.755.375a.064.064,0,0,0-.007.111l.7.466A.065.065,0,0,0,3579.279,1044.219Z" transform="translate(-3573.359 -1040.676)" fill="#fff"/>
            <path id="Trazado_100776" data-name="Trazado 100776" d="M3538.815,1052.845l-.74.4a.064.064,0,0,0,0,.111l.719.438a.064.064,0,0,0,.1-.053l.02-.842A.064.064,0,0,0,3538.815,1052.845Z" transform="translate(-3536.944 -1049.262)" fill="#fff"/>
            <path id="Trazado_100777" data-name="Trazado 100777" d="M3566.03,1079.289l.729.421a.064.064,0,0,0,.1-.056v-.842a.064.064,0,0,0-.1-.056l-.729.421A.065.065,0,0,0,3566.03,1079.289Z" transform="translate(-3562.139 -1072.614)" fill="#fff"/>
          </g>
        </g>
        <g id="Grupo_37477" data-name="Grupo 37477" transform="translate(5.499)">
          <path id="Trazado_100778" data-name="Trazado 100778" d="M3562.837,951.046h-.376a.154.154,0,0,1,.015-.061c.261-.575,1.023-1.923-.152-1.847a1.919,1.919,0,0,0-1.585,1.074,4.012,4.012,0,0,0-.332.834,4.77,4.77,0,0,0-.157.96c0,.067-.007.135-.008.2h0a5.5,5.5,0,0,0,.326,2.006h-.045l-.072,0-.033,0h-.01a.407.407,0,0,1-.054-.007l-.038-.007-.056-.013c-.028-.007-.055-.016-.082-.026a5.342,5.342,0,0,1-.319-1.743h0c0-.081,0-.164,0-.245a4.916,4.916,0,0,1,.139-1l.031-.125a3.152,3.152,0,0,1,1.289-1.984c.5-.284,1.389-.5,1.824,0C3563.683,949.674,3563.149,950.416,3562.837,951.046Z" transform="translate(-3559.86 -948.765)" fill="#c28365"/>
        </g>
      </g>
      <g id="Grupo_37485" data-name="Grupo 37485" transform="translate(103.487 20.668)">
        <path id="Trazado_100779" data-name="Trazado 100779" d="M3150.285,979.737l-2.78.928a.263.263,0,0,0-.158.145l-.864,2.014a.261.261,0,0,0-.008.186l3.2,9.59a.261.261,0,0,0,.331.165l5.545-1.851a.262.262,0,0,0,.165-.331l-3.2-9.59a.261.261,0,0,0-.118-.144l-1.9-1.091A.262.262,0,0,0,3150.285,979.737Zm-.831,2a.53.53,0,1,1,.306-.613A.53.53,0,0,1,3149.454,981.74Z" transform="translate(-3146.462 -978.743)" fill="#fff"/>
        <path id="Trazado_100780" data-name="Trazado 100780" d="M3169.418,986.285l.021-.008h0Zm-.755-1.408a2.548,2.548,0,0,0,.1.512c.011.04.024.081.038.121h0a.516.516,0,0,1,.154-.163h0c-.01-.033-.02-.067-.029-.1a2.45,2.45,0,0,1-.08-.5l-.183.061C3168.66,984.833,3168.661,984.856,3168.663,984.878Z" transform="translate(-3166.466 -983.273)" fill="#fff"/>
        <path id="Trazado_100781" data-name="Trazado 100781" d="M3154.048,982.76l-1.9-1.091a.069.069,0,0,0-.057-.006l-2.78.928a.071.071,0,0,0-.042.039l-.865,2.014a.07.07,0,0,0,0,.05l3.2,9.59a.07.07,0,0,0,.089.044l5.545-1.851a.07.07,0,0,0,.044-.089l-3.2-9.59A.068.068,0,0,0,3154.048,982.76Zm-3.56.406a.53.53,0,1,1,.67.335A.53.53,0,0,1,3150.489,983.166Z" transform="translate(-3148.207 -980.488)" fill="#ffd178"/>
        <path id="Trazado_100782" data-name="Trazado 100782" d="M3168.7,988.862a.63.63,0,1,0,.8.4A.63.63,0,0,0,3168.7,988.862Zm.367,1.1a.53.53,0,1,1,.334-.67A.53.53,0,0,1,3169.07,989.962Z" transform="translate(-3166.118 -986.949)" fill="#fff"/>
        <path id="Trazado_100783" data-name="Trazado 100783" d="M3169.672,989.917c.012.04.024.081.038.12a.533.533,0,0,1,.154-.163c-.01-.033-.021-.067-.029-.1A.621.621,0,0,0,3169.672,989.917Z" transform="translate(-3167.38 -987.8)" fill="#fff"/>
        <g id="Grupo_37483" data-name="Grupo 37483" transform="translate(2.908 4.774)">
          <g id="Grupo_37480" data-name="Grupo 37480" transform="translate(0.34 3.276)">
            <path id="Trazado_100784" data-name="Trazado 100784" d="M3181.612,1060.228c-.027-.454-.628-.731-.941-.813a1.572,1.572,0,0,0-1.324.317,3.422,3.422,0,0,0,.607.64c.357.289.821.664,1.226.508A.7.7,0,0,0,3181.612,1060.228Z" transform="translate(-3179.347 -1058.574)" fill="#fff"/>
            <path id="Trazado_100785" data-name="Trazado 100785" d="M3204.244,1051.3c.235.607.2,1.139-.049,1.3a.463.463,0,0,1-.449.026.547.547,0,0,1-.261-.346C3203.41,1051.969,3203.711,1051.562,3204.244,1051.3Z" transform="translate(-3201.09 -1051.299)" fill="#fff"/>
            <path id="Trazado_100786" data-name="Trazado 100786" d="M3205.709,1061.59a1.527,1.527,0,0,1-.062.628,1.393,1.393,0,0,1-.151.325l-.039-.01a2.563,2.563,0,0,0,.176-.932C3205.582,1061.275,3205.709,1061.59,3205.709,1061.59Z" transform="translate(-3202.878 -1060.45)" fill="#fff"/>
            <g id="Grupo_37479" data-name="Grupo 37479" transform="translate(1.951 1.736)">
              <path id="Trazado_100787" data-name="Trazado 100787" d="M3200.35,1070.023h0a.073.073,0,0,0,.034-.1,1.875,1.875,0,0,0-.505-.684,1.709,1.709,0,0,0-.705-.359.066.066,0,0,0-.081.056.079.079,0,0,0,.057.089,1.556,1.556,0,0,1,.645.328,1.714,1.714,0,0,1,.462.625A.072.072,0,0,0,3200.35,1070.023Z" transform="translate(-3199.095 -1068.879)" fill="#fff"/>
            </g>
          </g>
          <g id="Grupo_37482" data-name="Grupo 37482">
            <g id="Grupo_37481" data-name="Grupo 37481">
              <path id="Trazado_100788" data-name="Trazado 100788" d="M3192.572,1029.821l-.815-.722a.09.09,0,0,0-.127.008.09.09,0,0,0,.008.128l.757.671-1.029.344a.091.091,0,0,0,.057.172l1.1-.368a.136.136,0,0,0,.047-.232Z" transform="translate(-3189.782 -1027.995)" fill="#fff"/>
              <path id="Trazado_100789" data-name="Trazado 100789" d="M3177.126,1035.259l-1.026.342.2-.991a.091.091,0,0,0-.177-.036l-.218,1.067a.136.136,0,0,0,.177.157l1.1-.366a.09.09,0,0,0-.057-.172Z" transform="translate(-3175.906 -1032.884)" fill="#fff"/>
              <path id="Trazado_100790" data-name="Trazado 100790" d="M3180.214,1019.16a.091.091,0,0,0,.044-.031.093.093,0,0,0-.014-.124l-.95-.842a.137.137,0,0,0-.225.075l-.254,1.246a.091.091,0,0,0,.014.07.089.089,0,0,0,.061.038.092.092,0,0,0,.1-.074l.238-1.168.894.792A.09.09,0,0,0,3180.214,1019.16Z" transform="translate(-3178.526 -1018.129)" fill="#fff"/>
            </g>
            <path id="Trazado_100791" data-name="Trazado 100791" d="M3190.994,1025.969l-.046-.175a.064.064,0,0,0-.108-.029l-.128.128a.064.064,0,0,0,.028.108l.175.047A.064.064,0,0,0,3190.994,1025.969Z" transform="translate(-3189.232 -1024.993)" fill="#fff"/>
            <path id="Trazado_100792" data-name="Trazado 100792" d="M3177.457,1034.078l-.124.133a.064.064,0,0,0,.033.107l.177.041a.064.064,0,0,0,.076-.082l-.054-.173A.064.064,0,0,0,3177.457,1034.078Z" transform="translate(-3177.177 -1032.485)" fill="#fff"/>
            <path id="Trazado_100793" data-name="Trazado 100793" d="M3190.562,1040.307l.178.036a.064.064,0,0,0,.074-.083l-.058-.172a.064.064,0,0,0-.109-.022l-.121.136A.064.064,0,0,0,3190.562,1040.307Z" transform="translate(-3189.068 -1037.879)" fill="#fff"/>
          </g>
        </g>
        <g id="Grupo_37484" data-name="Grupo 37484" transform="translate(2.185)">
          <path id="Trazado_100794" data-name="Trazado 100794" d="M3169.958,970.873l-.184.061a.088.088,0,0,1,0-.033c.034-.325.187-1.109-.376-.88a.991.991,0,0,0-.6.786,2.065,2.065,0,0,0-.026.463,2.449,2.449,0,0,0,.08.5c.008.034.019.067.029.1h0a2.834,2.834,0,0,0,.488.93h0l-.02.007h0l-.035.011-.017,0h0l-.028.005-.02,0-.03,0h-.045a2.753,2.753,0,0,1-.441-.8h0c-.014-.04-.027-.08-.038-.12a2.548,2.548,0,0,1-.1-.512l0-.066a1.627,1.627,0,0,1,.307-1.183c.2-.221.6-.471.894-.3C3170.148,970.063,3170.008,970.513,3169.958,970.873Z" transform="translate(-3168.58 -969.793)" fill="#c28365"/>
        </g>
      </g>
      <g id="Grupo_37492" data-name="Grupo 37492" transform="translate(33.882 18.162)">
        <g id="Grupo_37486" data-name="Grupo 37486" transform="translate(0 2.705)">
          <path id="Trazado_100795" data-name="Trazado 100795" d="M2454.684,972.946l-5.224-1.128a.476.476,0,0,0-.382.081l-3.228,2.355a.476.476,0,0,0-.185.284l-3.891,18.02a.477.477,0,0,0,.365.566l10.419,2.25a.476.476,0,0,0,.566-.365l3.891-18.02a.476.476,0,0,0-.051-.335L2455,973.177A.476.476,0,0,0,2454.684,972.946Zm-3.165,2.37a.966.966,0,1,1,1.051-.677A.966.966,0,0,1,2451.518,975.316Z" transform="translate(-2441.764 -971.807)" fill="#fff"/>
          <path id="Trazado_100796" data-name="Trazado 100796" d="M2536.5,976.36l-.346-.075c-.006.112-.012.225-.019.336-.018.285-.043.569-.078.851a.932.932,0,0,1,.348-.041l.062.006a.951.951,0,0,1,.445.18c.213-.342.432-.681.65-1.028Zm-.74,2.8c0,.018-.007.035-.011.053a.173.173,0,0,0,.146.214.155.155,0,0,0,.188-.108.807.807,0,0,1-.118-.041A.89.89,0,0,1,2535.761,979.164Z" transform="translate(-2526.461 -975.843)" fill="#fff"/>
          <path id="Trazado_100797" data-name="Trazado 100797" d="M2459.845,980.007l-1.968-3.477a.127.127,0,0,0-.084-.062l-5.224-1.128a.129.129,0,0,0-.1.022l-3.228,2.356a.124.124,0,0,0-.049.076l-3.891,18.02a.129.129,0,0,0,.1.152l10.419,2.25a.128.128,0,0,0,.152-.1l3.891-18.019A.127.127,0,0,0,2459.845,980.007Zm-5.961-2.671a.966.966,0,1,1,.74,1.148A.966.966,0,0,1,2453.883,977.336Z" transform="translate(-2444.947 -974.988)" fill="#ffd178"/>
          <path id="Trazado_100798" data-name="Trazado 100798" d="M2531.557,986.034a1.149,1.149,0,1,0,.88,1.365A1.149,1.149,0,0,0,2531.557,986.034Zm-.447,2.066a.965.965,0,1,1,1.148-.74A.965.965,0,0,1,2531.111,988.1Z" transform="translate(-2521.434 -984.605)" fill="#fff"/>
          <path id="Trazado_100799" data-name="Trazado 100799" d="M2538.952,986.038c-.006.066-.014.13-.022.2a.957.957,0,0,1,.348-.041c.007-.06.014-.121.02-.181A1.1,1.1,0,0,0,2538.952,986.038Z" transform="translate(-2529.333 -984.605)" fill="#fff"/>
        </g>
        <g id="Grupo_37490" data-name="Grupo 37490" transform="translate(3.402 9.536)">
          <g id="Grupo_37488" data-name="Grupo 37488" transform="translate(0 6.195)">
            <path id="Trazado_100800" data-name="Trazado 100800" d="M2480.238,1107.471c.494-.961-.4-2.254-.938-2.8a3.73,3.73,0,0,0-3.088-.954,8.086,8.086,0,0,0,.466,2.041c.38,1.023.874,2.35,1.891,2.521A1.655,1.655,0,0,0,2480.238,1107.471Z" transform="translate(-2476.212 -1103.683)" fill="#fff"/>
            <path id="Trazado_100801" data-name="Trazado 100801" d="M2530.1,1118.572c-.254,1.525-.975,2.564-1.678,2.6a1.1,1.1,0,0,1-.949-.491,1.3,1.3,0,0,1-.114-1.023C2527.584,1118.932,2528.69,1118.465,2530.1,1118.572Z" transform="translate(-2522.254 -1117.088)" fill="#fff"/>
            <path id="Trazado_100802" data-name="Trazado 100802" d="M2519.868,1134.9a3.64,3.64,0,0,1-.886,1.208,3.354,3.354,0,0,1-.7.48l-.068-.067a6.09,6.09,0,0,0,1.487-1.69C2519.991,1134.107,2519.868,1134.9,2519.868,1134.9Z" transform="translate(-2514.063 -1131.482)" fill="#fff"/>
            <g id="Grupo_37487" data-name="Grupo 37487" transform="translate(3.172 3.635)">
              <path id="Trazado_100803" data-name="Trazado 100803" d="M2509.622,1144.28h.008a.174.174,0,0,0,.186-.158,4.448,4.448,0,0,0-.2-2.008,4.051,4.051,0,0,0-1.006-1.587.158.158,0,0,0-.233.017.187.187,0,0,0,.01.251,3.7,3.7,0,0,1,.92,1.451,4.067,4.067,0,0,1,.186,1.836A.172.172,0,0,0,2509.622,1144.28Z" transform="translate(-2508.329 -1140.484)" fill="#fff"/>
            </g>
          </g>
          <g id="Grupo_37489" data-name="Grupo 37489" transform="translate(0.525)">
            <path id="Trazado_100804" data-name="Trazado 100804" d="M2482.438,1043.7l-.342-.074-.34-.075a.637.637,0,0,1-.165-.052.128.128,0,0,1-.06-.15q.037-.173.307-.115l.082.02.07.019q.018-.082.038-.247t.038-.245q.047-.218.183-.655t.18-.657a.818.818,0,0,1-.333.115.165.165,0,0,1-.108-.077.169.169,0,0,1-.025-.13c.012-.054.075-.109.19-.164q.107-.045.308-.153a.434.434,0,0,1,.322-.09q.115.025.087.157a1.12,1.12,0,0,1-.036.115.927.927,0,0,0-.036.115c-.008.038-.018.1-.031.173s-.023.135-.031.173q-.042.2-.167.575t-.167.573c-.014.067-.027.148-.039.245s-.023.176-.035.237l.181.036a.164.164,0,0,1,.109.073.175.175,0,0,1-.051.236A.167.167,0,0,1,2482.438,1043.7Z" transform="translate(-2481.527 -1040.967)" fill="#fff"/>
            <path id="Trazado_100805" data-name="Trazado 100805" d="M2498.589,1047.359a.82.82,0,0,1-.66-.643,2.213,2.213,0,0,1,.025-1,1.618,1.618,0,0,1,.425-.818.884.884,0,0,1,.855-.27.817.817,0,0,1,.622.537,1.49,1.49,0,0,1,.043.86,2.248,2.248,0,0,1-.494,1.1A.827.827,0,0,1,2498.589,1047.359Zm.571-2.4a.58.58,0,0,0-.577.215,1.248,1.248,0,0,0-.29.587,1.885,1.885,0,0,0-.031.882.5.5,0,0,0,.4.383.559.559,0,0,0,.612-.3,2.135,2.135,0,0,0,.268-.708,1.367,1.367,0,0,0,0-.729A.49.49,0,0,0,2499.16,1044.963Z" transform="translate(-2496.268 -1044.249)" fill="#fff"/>
            <path id="Trazado_100806" data-name="Trazado 100806" d="M2520.334,1052.054a.818.818,0,0,1-.66-.642,2.213,2.213,0,0,1,.024-1,1.619,1.619,0,0,1,.425-.818.885.885,0,0,1,.855-.27.817.817,0,0,1,.622.537,1.485,1.485,0,0,1,.042.86,2.244,2.244,0,0,1-.493,1.1A.828.828,0,0,1,2520.334,1052.054Zm.571-2.4a.581.581,0,0,0-.577.215,1.247,1.247,0,0,0-.29.587,1.88,1.88,0,0,0-.03.882.5.5,0,0,0,.4.383.558.558,0,0,0,.612-.3,2.122,2.122,0,0,0,.268-.708,1.365,1.365,0,0,0,.006-.729A.492.492,0,0,0,2520.906,1049.657Z" transform="translate(-2515.865 -1048.48)" fill="#fff"/>
            <path id="Trazado_100807" data-name="Trazado 100807" d="M2545.6,1052.925a.479.479,0,0,1-.344-.249.621.621,0,0,1-.043-.426.442.442,0,0,1,.244-.283.53.53,0,0,1,.37-.073.518.518,0,0,1,.361.251.612.612,0,0,1,.052.441.41.41,0,0,1-.248.3A.6.6,0,0,1,2545.6,1052.925Zm.161-.744a.248.248,0,0,0-.159.02.164.164,0,0,0-.1.111.332.332,0,0,0,.011.219.2.2,0,0,0,.151.105.352.352,0,0,0,.177,0,.147.147,0,0,0,.114-.109.323.323,0,0,0-.017-.229A.248.248,0,0,0,2545.761,1052.181Zm1.357.3a2.116,2.116,0,0,0-.195.244l-.182.252-.5.657-.56.728q-.082.121-.258.353a.148.148,0,0,1-.148.063.153.153,0,0,1-.094-.062.131.131,0,0,1-.024-.11.188.188,0,0,1,.023-.054,6.2,6.2,0,0,1,.4-.548q.317-.394.418-.537l.687-.931a1.137,1.137,0,0,1,.238-.276.154.154,0,0,1,.122-.035.149.149,0,0,1,.095.066.141.141,0,0,1,.023.112A.166.166,0,0,1,2547.118,1052.485Zm-.507,2.565a.571.571,0,0,1-.358-.223.5.5,0,0,1-.08-.415.633.633,0,0,1,.235-.39.512.512,0,0,1,.44-.092.681.681,0,0,1,.381.219.459.459,0,0,1,.113.417.622.622,0,0,1-.263.4A.586.586,0,0,1,2546.611,1055.05Zm.176-.831a.237.237,0,0,0-.214.051.366.366,0,0,0-.11.2.211.211,0,0,0,.037.19.371.371,0,0,0,.212.107.257.257,0,0,0,.223-.037.383.383,0,0,0,.121-.23.192.192,0,0,0-.071-.186A.42.42,0,0,0,2546.787,1054.219Z" transform="translate(-2538.872 -1050.806)" fill="#fff"/>
          </g>
        </g>
        <g id="Grupo_37491" data-name="Grupo 37491" transform="translate(9.3)">
          <path id="Trazado_100808" data-name="Trazado 100808" d="M2539.554,945.1a2.984,2.984,0,0,1-.4.885c-.179.345-.356.692-.539,1.038-.167.317-.346.628-.531.933l-.36-.077.032-.05c.273-.436.509-.892.747-1.348.174-.335.976-1.491.378-1.675a2.106,2.106,0,0,0-1.845.674,4.241,4.241,0,0,0-.363,1.981c0,.063-.008.126-.012.189-.02.3-.043.595-.075.889-.006.061-.013.122-.02.181h0c-.053.475-.123.947-.218,1.419-.032.152-.065.306-.1.458a.1.1,0,0,1,0,.014.917.917,0,0,1-.322-.157v0a15.446,15.446,0,0,0,.3-1.691h0c.009-.066.016-.13.022-.2.024-.218.042-.436.056-.655.007-.111.013-.224.019-.336a7.888,7.888,0,0,1,.228-1.808,1.5,1.5,0,0,1,.9-1.033,2.888,2.888,0,0,1,1.706-.256A.533.533,0,0,1,2539.554,945.1Z" transform="translate(-2535.918 -944.426)" fill="#c28365"/>
        </g>
      </g>
    </g>
    <g id="couple" transform="translate(2079.43 605.593)">
      <g id="man" transform="translate(0 0)">
        <g id="Grupo_37494" data-name="Grupo 37494" transform="translate(0 27.934)">
          <g id="Grupo_37493" data-name="Grupo 37493" transform="translate(0 26.215)">
            <path id="Trazado_100809" data-name="Trazado 100809" d="M3668.195,1532.846s-4.172-.7-4.928-.469-3.677.679-5.44-.857a4.355,4.355,0,0,1-1.378-3.75,4.924,4.924,0,0,1,.3-1.342c.444-1.127,1.094-1.559,1.972-1.207.811.327,4.922,1.292,5.753,1.782.946.558,3.609.125,3.609.125Z" transform="translate(-3656.428 -1525.101)" fill="#58a5f8"/>
          </g>
          <path id="Trazado_100810" data-name="Trazado 100810" d="M3786.137,1275.422c-.117.36-.294.856-.521,1.458-.137.363-.293.762-.466,1.194A62.232,62.232,0,0,1,3779,1289.9q-.24.339-.484.663a17.347,17.347,0,0,1-2.359,2.613c-4.2,3.675-24.806,1.183-24.806,1.183a4.548,4.548,0,0,1-.183-.669c-.026-.128-.046-.259-.061-.39a11.427,11.427,0,0,1,.982-5.234c.045-.107.085-.2.122-.285.095-.217.156-.338.156-.338,1.292-.392,10.548-1.36,15.369-1.858a11.3,11.3,0,0,0,2.521-.188c1.74-1.062,3.64-7.777,3.982-9.256a37,37,0,0,1,3.951-10.586c.051-.086.1-.169.153-.252l.009-.014c.231-.377.463-.727.694-1.055l.154-.215a12.671,12.671,0,0,1,6.812-4.333,4.217,4.217,0,0,1,.841.112,3.92,3.92,0,0,1,1.5.707,3.778,3.778,0,0,1,1.321,1.942C3791.112,1267.379,3787.364,1271.665,3786.137,1275.422Z" transform="translate(-3741.714 -1259.69)" fill="#58a5f8"/>
        </g>
        <g id="Grupo_37495" data-name="Grupo 37495" transform="translate(34.71 29.072)">
          <path id="Trazado_100811" data-name="Trazado 100811" d="M4016.819,1275.916c-1.27,4.6-.46,6.99-.246,12.541a62.254,62.254,0,0,1-6.152,11.831q-.24.339-.485.663c-.009-.253-.023-.5-.044-.73-.294-3.39-1.371-6.853-2.045-10.545.012-1.668.014-3.644.013-6.017a15.548,15.548,0,0,1,1.9-7.969l.009-.014a11.476,11.476,0,0,1,.694-1.055,9.626,9.626,0,0,1,4.363-3.409,3.839,3.839,0,0,1,2.9,2.115A17.92,17.92,0,0,0,4016.819,1275.916Z" transform="translate(-4007.847 -1271.211)" fill="#edb69c"/>
        </g>
        <g id="Grupo_37496" data-name="Grupo 37496" transform="translate(23.285 148.899)">
          <path id="Trazado_100812" data-name="Trazado 100812" d="M4026.049,2484.38l-.039,3.684s-.485,2.361-2.068,1.769-2.449-2.826-3.305-3.163l.387-2.29Z" transform="translate(-4007.948 -2484.38)" fill="#d37b4f"/>
          <path id="Trazado_100813" data-name="Trazado 100813" d="M3910.257,2577.981s.19,1.656-.96,1.854-3.729-.155-5.319.548a17.322,17.322,0,0,1-8.406.648c-2.356-.627-4.1-1.239-3.133-2.606l15.117-.791Z" transform="translate(-3892.168 -2568.423)" fill="#fff"/>
          <path id="Trazado_100814" data-name="Trazado 100814" d="M3894.889,2504.861c1.682,2.225,6.812,1.847,8.648,1.413s4.1-1.417,6.229-1.208,3.091-.273,3.283-1.48-.555-2.684-.194-3.589a1.511,1.511,0,0,0-.163-1.511c-.575.1-.454,1.5-1.419,1.417a5.517,5.517,0,0,1-2.762-1.774,1.168,1.168,0,0,1-.086-.126c-.291-.512-.264-1.156-1.049-1.755s-1.4-.028-2.117,1.154-6.067,5.636-8.29,5.719a3.284,3.284,0,0,0-.857.135h0A1.6,1.6,0,0,0,3894.889,2504.861Z" transform="translate(-3894.618 -2494.859)" fill="#302217"/>
          <path id="Trazado_100815" data-name="Trazado 100815" d="M3907.28,2503.254c2.081,1.184,6.152.825,6.166.568a12.963,12.963,0,0,1,.719-2.526c.309-.656,2.636-2.422,3.294-3.028s2.22-.14,2.22-.14a1.174,1.174,0,0,1-.086-.126c-.291-.512-.264-1.156-1.049-1.755s-1.4-.028-2.116,1.154-6.067,5.636-8.29,5.719A3.281,3.281,0,0,0,3907.28,2503.254Z" transform="translate(-3905.788 -2494.859)" fill="#2b100f"/>
          <path id="Trazado_100816" data-name="Trazado 100816" d="M3993,2512.575l1.079,1a.2.2,0,0,0,.306-.043l.1-.135a.272.272,0,0,0-.026-.35l-1.079-1a.2.2,0,0,0-.306.043l-.1.136A.273.273,0,0,0,3993,2512.575Z" transform="translate(-3982.971 -2509.267)" fill="#fff"/>
          <path id="Trazado_100817" data-name="Trazado 100817" d="M3984.608,2520.355l1.079,1a.2.2,0,0,0,.306-.042l.1-.136a.273.273,0,0,0-.026-.35l-1.079-1a.2.2,0,0,0-.306.042l-.1.136A.273.273,0,0,0,3984.608,2520.355Z" transform="translate(-3975.407 -2516.278)" fill="#fff"/>
          <path id="Trazado_100818" data-name="Trazado 100818" d="M3975.733,2528.638l1.079,1a.2.2,0,0,0,.306-.043l.1-.135a.272.272,0,0,0-.026-.35l-1.079-1a.2.2,0,0,0-.306.042l-.1.136A.273.273,0,0,0,3975.733,2528.638Z" transform="translate(-3967.41 -2523.743)" fill="#fff"/>
        </g>
        <g id="Grupo_37497" data-name="Grupo 37497" transform="translate(47.079 149.933)">
          <path id="Trazado_100819" data-name="Trazado 100819" d="M4268.209,2494.847l.125,4.975s-.533,1.864-2.1,1.244-2.4-2.867-3.251-3.218l.426-2.283Z" transform="translate(-4250.147 -2494.847)" fill="#d37b4f"/>
          <path id="Trazado_100820" data-name="Trazado 100820" d="M4151.178,2596.146s.162,1.659-.992,1.837-3.726-.219-5.328.457a17.323,17.323,0,0,1-8.417.5c-2.345-.667-4.074-1.309-3.088-2.659l15.128-.533Z" transform="translate(-4133.071 -2585.786)" fill="#fff"/>
          <path id="Trazado_100821" data-name="Trazado 100821" d="M4135.924,2522.226c1.644,2.254,6.779,1.963,8.622,1.561s4.124-1.347,6.249-1.1,3.1-.22,3.308-1.423-.509-2.693-.133-3.592a1.512,1.512,0,0,0-.136-1.514c-.577.09-.48,1.489-1.444,1.393a5.516,5.516,0,0,1-2.731-1.821,1.087,1.087,0,0,1-.084-.128c-.283-.517-.245-1.161-1.02-1.773s-1.4-.052-2.136,1.118-6.162,5.532-8.386,5.576a3.28,3.28,0,0,0-.86.12h0A1.6,1.6,0,0,0,4135.924,2522.226Z" transform="translate(-4135.641 -2511.726)" fill="#302217"/>
          <path id="Trazado_100822" data-name="Trazado 100822" d="M4148.582,2520.641c2.062,1.219,6.137.93,6.156.673a12.9,12.9,0,0,1,.761-2.513c.32-.651,2.677-2.376,3.345-2.971s2.223-.1,2.223-.1a1.227,1.227,0,0,1-.084-.128c-.282-.517-.245-1.161-1.019-1.773s-1.4-.052-2.136,1.118-6.162,5.532-8.386,5.576A3.28,3.28,0,0,0,4148.582,2520.641Z" transform="translate(-4147.05 -2511.726)" fill="#2b100f"/>
          <path id="Trazado_100823" data-name="Trazado 100823" d="M4235.2,2529.816l1.062,1.015a.2.2,0,0,0,.307-.037l.1-.134a.273.273,0,0,0-.021-.35l-1.062-1.015a.2.2,0,0,0-.306.037l-.1.134A.273.273,0,0,0,4235.2,2529.816Z" transform="translate(-4225.044 -2525.842)" fill="#fff"/>
          <path id="Trazado_100824" data-name="Trazado 100824" d="M4226.675,2537.451l1.062,1.015a.2.2,0,0,0,.306-.037l.1-.134a.272.272,0,0,0-.02-.35l-1.062-1.016a.2.2,0,0,0-.307.037l-.1.134A.271.271,0,0,0,4226.675,2537.451Z" transform="translate(-4217.362 -2532.723)" fill="#fff"/>
          <path id="Trazado_100825" data-name="Trazado 100825" d="M4217.66,2545.581l1.062,1.015a.2.2,0,0,0,.307-.037l.1-.134a.272.272,0,0,0-.02-.35l-1.062-1.015a.2.2,0,0,0-.307.037l-.1.134A.272.272,0,0,0,4217.66,2545.581Z" transform="translate(-4209.238 -2540.051)" fill="#fff"/>
        </g>
        <g id="Grupo_37498" data-name="Grupo 37498" transform="translate(32.614 77.567)">
          <path id="Trazado_100826" data-name="Trazado 100826" d="M3988.854,1833.747l5.609.269,1.416.09c-.026-1.1,2.046-26.229,2.722-33.862.356-4.019,11.631-38.054,11.631-38.054h-18.7c-2.382,5.436-4.509,32.88-4.876,37.064S3988.854,1833.747,3988.854,1833.747Z" transform="translate(-3986.623 -1762.189)" fill="#15579f"/>
          <path id="Trazado_100827" data-name="Trazado 100827" d="M4024.8,1780.435s1.47,1.276,2.824,2.351c0,0,1.277-.177,1.833-2.1,0,0-2.948-.447-4.162-2.43Z" transform="translate(-4021.028 -1776.67)" fill="#15579f"/>
        </g>
        <g id="Grupo_37499" data-name="Grupo 37499" transform="translate(47.823 76.264)">
          <path id="Trazado_100828" data-name="Trazado 100828" d="M4140.639,1754.26c.034.684.1,1.505.2,2.44.01.088.02.179.03.27,1.166,10.481,11.685,67.708,11.685,67.708h5.7c-.02-2.938,1.125-21.059,1.125-27.533,0-4.453.494-34.229.359-39.689a20.708,20.708,0,0,0-.926-5.121c-.394-1.318-.76-2.225-.76-2.225s-2.256-.462-5.145-.791c-4.973-.568-11.819-.743-12.245,2.5A14.832,14.832,0,0,0,4140.639,1754.26Z" transform="translate(-4140.606 -1748.993)" fill="#15579f"/>
        </g>
        <path id="Trazado_100829" data-name="Trazado 100829" d="M4016.607,1273.565c2.854,9.525.883,25.664.266,30.045-.1.724-.166,1.127-.166,1.127,7.24,7.4,28.637-1.046,28.637-1.046a8.749,8.749,0,0,1-.3-1.5c-.121-.742-.278-1.841-.479-3.466-.248-2-.562-4.8-.948-8.71,0-.017,0-.034-.006-.053-1.048-10.608,3.412-19.763,3.942-25.892.219-2.531-.233-4.545-2.019-5.934a26.432,26.432,0,0,0-6.956-3.818,23.883,23.883,0,0,0-12.994-1.072C4014.254,1255.487,4013.748,1264.03,4016.607,1273.565Z" transform="translate(-3979.709 -1225.54)" fill="#f2f3ff"/>
        <g id="Grupo_37500" data-name="Grupo 37500" transform="translate(42.384)">
          <path id="Trazado_100830" data-name="Trazado 100830" d="M4133.829,1180.334a1.863,1.863,0,0,0,.409.945,5.361,5.361,0,0,0,4.488,1.853c3.792-.261,5.922-2.9,5.637-3.562-.242-.559-.02-5.022.138-7.675.068-1.153.124-1.965.124-1.965s-1.222.123-2.806.316c-2.926.355-7.089.949-7.062,1.444.017.31.019.647.006,1.006a50.141,50.141,0,0,1-.677,5.607A16.277,16.277,0,0,0,4133.829,1180.334Z" transform="translate(-4129.057 -1150.862)" fill="#d37b4f"/>
          <path id="Trazado_100831" data-name="Trazado 100831" d="M4136.434,1178.3c2.324.06,5.538-.712,8.64-4.181a23.8,23.8,0,0,0,1.774-2.227c.067-1.153.123-1.965.123-1.965s-1.222.123-2.805.316a3.713,3.713,0,0,1-.41.572,7.832,7.832,0,0,1-3.026,1.675,8.37,8.37,0,0,1-3.62.2A50.6,50.6,0,0,1,4136.434,1178.3Z" transform="translate(-4131.406 -1150.862)" fill="#c46e45"/>
          <path id="Trazado_100832" data-name="Trazado 100832" d="M4092.724,1024.446c-.681,1.335-1.432,7.129-1.535,9.57-.1,2.314.55,5.01,2.053,6.42.691.648,2.82.926,3.729.948a9.572,9.572,0,0,0,6.827-2.884,24.9,24.9,0,0,0,3.588-5.4c2.577-6.476-2.37-10.914-5.007-11.88C4100.04,1020.362,4096.486,1017.078,4092.724,1024.446Z" transform="translate(-4090.622 -1015.513)" fill="#d37b4f"/>
          <path id="Trazado_100833" data-name="Trazado 100833" d="M4099.062,986.638s-8.323,1.719-12.066-1.941c-1.187-1.16-2.436-5.554-.317-7.188,2.177-1.679,3.013.461,6.117.773a25.711,25.711,0,0,0,4.013-.255c4.527-.063,4.558,3.01,5.669,4.548s1.9,2.574,1.976,4.415a14.07,14.07,0,0,1-5.71,11.81s.453-3.222,1.326-3.195,2.126-1.812,1.786-2.666c-.631-1.588-2.5,1.622-2.977,1.6S4100.733,989.6,4099.062,986.638Z" transform="translate(-4085.533 -976.873)" fill="url(#linear-gradient-19)"/>
        </g>
        <g id="Grupo_37501" data-name="Grupo 37501" transform="translate(34.023 27.447)">
          <path id="Trazado_100834" data-name="Trazado 100834" d="M4140.606,1323.8s19.593.472,20.106,0c0,0-.294-4.293-.643-10.006-.035-.569-.07-1.154-.105-1.749-.147-2.463-.3-5.12-.441-7.769-.383-7.164-.681-14.268-.564-17.321a9.624,9.624,0,0,1,.1-1.206l.01-.051c0-.015.006-.029.009-.044,1.4-6.208,2.96-10.877,2.221-13.684a9.2,9.2,0,0,0-.334-1.014c-1.534-3.826-5.728-5.66-10.562-7.1.021.014-.038.065.038.26.215.565-3.652,3.731-6.251,8.661-.551,1.044-1.385,15.255-2.126,28.423-.238,4.228-.466,8.348-.671,11.891C4141.051,1318.94,4140.771,1323.214,4140.606,1323.8Z" transform="translate(-4126.806 -1262.961)" fill="#58a5f8"/>
          <path id="Trazado_100835" data-name="Trazado 100835" d="M4014.276,1254.758l-.039.359-.038.34a3.008,3.008,0,0,0-.7.606,18.345,18.345,0,0,0-2.7,6.107c-.151.577-2.04,52.9-2.04,52.9l-7.872-1.659s1.86-26.609,1.858-26.631c-.539-6.211-2.309-14.054-.806-21.718a13.579,13.579,0,0,1,1.4-3.948,11.449,11.449,0,0,1,1.01-1.536,12.672,12.672,0,0,1,6.812-4.333A13.6,13.6,0,0,1,4014.276,1254.758Z" transform="translate(-4000.892 -1254.758)" fill="#58a5f8"/>
          <circle id="Elipse_1020" data-name="Elipse 1020" cx="0.985" cy="0.985" r="0.985" transform="translate(16.589 45.033) rotate(-13.283)" fill="#58a5f8" opacity="0.5"/>
        </g>
        <path id="Trazado_100836" data-name="Trazado 100836" d="M4334.188,1777.864l.015-.187C4334.154,1777.835,4334.146,1777.9,4334.188,1777.864Z" transform="translate(-4267.22 -1698.58)" fill="#202e6e"/>
        <path id="Trazado_100837" data-name="Trazado 100837" d="M4148.556,1478.675a108.442,108.442,0,0,0,14.343-5.945,19.082,19.082,0,0,0,3.788-2.87c-.383-7.164-.681-14.268-.564-17.321a5.3,5.3,0,0,1,.1-1.206c0-.017.006-.034.01-.051s.006-.029.009-.044a7.2,7.2,0,0,0-1.893-1.278c-1.448-.523-7.537-2.373-7.537-2.373s1.433,13.727-1.74,15.3a55.08,55.08,0,0,0-5.846,3.9C4148.99,1471.012,4148.761,1475.132,4148.556,1478.675Z" transform="translate(-4099.948 -1401.094)" fill="#6353c2"/>
        <path id="Trazado_100838" data-name="Trazado 100838" d="M4224.377,1556.919a10.836,10.836,0,0,0-2.263.793c-1.9.936-2.857,1.178-3.584.895s-.971-2.814-.13-3.7a2.289,2.289,0,0,1,2.188-.5c-.035-.073.751-.746,1.165-.57a3.8,3.8,0,0,0,1.974-.083C4224.421,1553.578,4224.377,1556.919,4224.377,1556.919Z" transform="translate(-4162.414 -1496.773)" fill="#f8ab88"/>
        <g id="Grupo_37502" data-name="Grupo 37502" transform="translate(30.815 31.548)">
          <path id="Trazado_100839" data-name="Trazado 100839" d="M3979.541,1701.659s-6.99,1.56-7.922,1.848c-2.472.763-3.214,1.744-3.208,2.986s.705,2.686,2.983,3.427,4.907-.848,5.542-1.374,4.9-1.535,4.9-1.535Z" transform="translate(-3968.411 -1661.619)" fill="#58a5f8"/>
          <path id="Trazado_100840" data-name="Trazado 100840" d="M4095.379,1297.706a3.855,3.855,0,0,0-3.713-1.37,5.742,5.742,0,0,0-3.393,2.158c-1.879,2.189-4.122,7.489-2.437,18.325.238,1.533.99,8.632-.271,10.333a12.054,12.054,0,0,1-2.345,1.188c-4.428,2.4-12.929,7.031-14.017,7.92,0,0-.39,4.673,1.675,6.933,0,0,20.7-5.916,23.319-11.069,2.949-5.8,2.959-17.791,2.766-20.763C4096.7,1307.325,4098.651,1301.776,4095.379,1297.706Z" transform="translate(-4059.221 -1296.276)" fill="#58a5f8"/>
        </g>
        <path id="Trazado_100841" data-name="Trazado 100841" d="M4228.338,1564.1s.467-.193.814-1.1c.4-1.033.37-3.169-.447-3.167s-1.434,1.053-1.434,1.053Z" transform="translate(-4170.888 -1502.253)" fill="#f8ab88"/>
        <g id="Grupo_37503" data-name="Grupo 37503" transform="translate(42.991 13.224)">
          <path id="Trazado_100842" data-name="Trazado 100842" d="M4104.421,1114.638a5.389,5.389,0,0,1-1,2.01,7.85,7.85,0,0,1-3.026,1.674c-2.4.974-8.717-.776-8.717-.776s.321,5.392,1.123,5.851,6.54,2.593,11.937-3.446,3.635-9.2,3.635-9.2Z" transform="translate(-4091.683 -1110.755)" fill="#2e1603"/>
          <ellipse id="Elipse_1021" data-name="Elipse 1021" cx="2.712" cy="1.679" rx="2.712" ry="1.679" transform="translate(12.61 7.045) rotate(-70.748)" fill="#d37b4f"/>
        </g>
      </g>
      <g id="woman_2" data-name="woman 2" transform="translate(62.977 7.545)">
        <path id="Trazado_100843" data-name="Trazado 100843" d="M4524.792,1061.851a14.3,14.3,0,0,1,8.857,15.884c-1.429,9.876,4.222,12.5,6.071,21.141,1,4.69-.923,12.033-5.946,14.128-5.774,2.409-5.976-.943-8.12-6.353-2.629-6.635-6.4-14.773-7.47-21.715C4516.915,1076.672,4519.748,1068.5,4524.792,1061.851Z" transform="translate(-4495.772 -1061.003)" fill="#471b19"/>
        <path id="Trazado_100844" data-name="Trazado 100844" d="M4344.166,1325.252a31.477,31.477,0,0,0,7.522-4.238,9.853,9.853,0,0,0,2.014-2.367c.235-.369.457-.755.665-1.151a30.514,30.514,0,0,0,1.362-3.016,41.425,41.425,0,0,0,1.906-6.384c.515-2.861,1.017-5.9.111-8.705-.149-.032,2.2-2.428.908-2.124a8.551,8.551,0,0,0-4.954,2.721c-2.873,3.664-3.18,12.654-5.32,16.878a9.844,9.844,0,0,1-3.7,3.492C4344.572,1321.945,4344.408,1323.616,4344.166,1325.252Z" transform="translate(-4339.214 -1273.143)" fill="#f8ab88"/>
        <g id="Grupo_37504" data-name="Grupo 37504" transform="translate(23.215 65.74)">
          <path id="Trazado_100845" data-name="Trazado 100845" d="M4543.717,1800.407v.008a.037.037,0,0,1,0,.01c0,.028-.007.057-.009.083s-.011.086-.017.142c-.015.131-.028.258-.043.381-.01.1-.021.191-.032.282-.013.112-.124.949-.125.955a2.791,2.791,0,0,1-.622,1.233l-3.47-.114s-.015-.145-.044-.414c-.336-3.159-2.578-23.542-5.055-31.683-2.688-8.836-1.8-8.332-1.929-10.993-.012-.236-.055-.644-.125-1.2-.288-2.307-1.017-7.152-1.7-12.708-1.015-8.2-1.937-17.953-1.216-23.367a4.337,4.337,0,0,1,2.167-3.456c3.162-1.768,8.732.124,10.313.738.273.1.428.172.43.177a26.4,26.4,0,0,1,1.163,3.1,47.357,47.357,0,0,1,1.4,5.395c.921,4.744-1.25,18-1.352,21.074-.071,2.159-1.248,4.684-1.632,7.427a10.115,10.115,0,0,0,.088,3.607c.9,4.135,3.012,6.694,3.285,11.282C4545.475,1777.287,4544.39,1794.405,4543.717,1800.407Z" transform="translate(-4529.07 -1718.83)" fill="#f8ab88"/>
        </g>
        <g id="Grupo_37505" data-name="Grupo 37505" transform="translate(11.254 64.792)">
          <path id="Trazado_100846" data-name="Trazado 100846" d="M4421.4,1737.745c-.063.147-.125.292-.183.434-.515,1.233-.921,2.227-1.134,2.845-.972,2.81-2.925,5.614-2.887,9.555,0,.166.006.335.015.5.221,4.21,2.219,9.086,1.739,13.656a82.94,82.94,0,0,1-1.576,8.188c-2.1,9.19-5.489,21.5-5.489,21.5l-3.918,0s.546-12.32.6-23.458h0c.028-6.029.688-11.342.261-14.539-.016-.117.116-1.733.1-1.847-.03-3.91-.443-4.954-.386-9.016,0,0-.1-2.249-.1-2.25.436-5.551,1.216-24.054,3.107-30.72,1.452-5.121,7.335-3.285,10.8-1.678a25.9,25.9,0,0,1,2.6,1.373,16.168,16.168,0,0,1,2.919,8.469C4427.975,1724.524,4423.583,1732.657,4421.4,1737.745Z" transform="translate(-4407.97 -1709.238)" fill="#f8ab88"/>
        </g>
        <g id="Grupo_37506" data-name="Grupo 37506" transform="translate(12.78 24.895)">
          <path id="Trazado_100847" data-name="Trazado 100847" d="M4424.069,1321.593c.168.6.681,2.839,1.062,4.321.235-.369.456-.755.665-1.151a45.088,45.088,0,0,1,.544-5.389,7.715,7.715,0,0,1,.949-1.8c.443-2.526.713-4.748.791-5.034.346-1.273-.006-7.241-.006-7.241s-.326.158-.874.457l-.156.084a.235.235,0,0,0-.022.019,4.116,4.116,0,0,0-.315.316c-2.29,2.609-2.737,5.665-3.262,10.317A23.415,23.415,0,0,0,4424.069,1321.593Z" transform="translate(-4423.422 -1305.304)" fill="#f89575"/>
        </g>
        <g id="Grupo_37508" data-name="Grupo 37508" transform="translate(11.342 23.953)">
          <g id="Grupo_37507" data-name="Grupo 37507">
            <path id="Trazado_100848" data-name="Trazado 100848" d="M4436.731,1399.712c-9.773,2.313-13.11,1.2-18.545.59a34.481,34.481,0,0,1-8.809-1.954h0c-.353-4.091-.51-27.341-.51-27.342.132-9.359.073-18.161,0-23.677a37,37,0,0,1,1.7-11.553l3.917-12.456s-4.061-10.873-3.662-14.807.92-8.779,3.209-11.388a2.145,2.145,0,0,1,1.629-.824.544.544,0,0,1,.046.06c2.708-1.11,6.449-.3,6.449-.3,3.536-.089,6.2.276,8.131,1.482l0,0c5.668,3.549,5.3,11.277,4.172,14.846-.284.9-1.1.98-1.393,2.555a63.369,63.369,0,0,0-1.229,8.159c1.07,2.847,2.978,9.245,4.322,13.868a36.993,36.993,0,0,1,1.469,10.7C4437.5,1361.943,4437.087,1399.627,4436.731,1399.712Z" transform="translate(-4408.867 -1295.774)" fill="#d268cc"/>
          </g>
        </g>
        <g id="Grupo_37512" data-name="Grupo 37512" transform="translate(18.066 69.163)">
          <path id="Trazado_100849" data-name="Trazado 100849" d="M4476.94,1828.384s3.2,1.181,3.554,1.355a17.884,17.884,0,0,0,2.111.318c.491.061,1.044.126,1.629.193h0c1.931.223,4.229.476,5.923.684,3.428.422,5.776.132,6.113-.167s3.025-2.876,3.025-2.876a36.789,36.789,0,0,0-5.264-.535c-.521-.024-1.082-.044-1.68-.055l-.168,0c-.505-.009-1.035-.012-1.592-.01-.516,0-5.455.2-6.064.245-.384.029-.776.06-1.175.1l-.483.042c-.384.035-.772.073-1.168.115Q4479.461,1828.016,4476.94,1828.384Z" transform="translate(-4476.94 -1820)" fill="#e69e12"/>
          <path id="Trazado_100850" data-name="Trazado 100850" d="M4479.833,1864.939l-.817-.522-2.077-26.038.615.063,3.37,10.648.792,10.318Z" transform="translate(-4476.939 -1829.995)" fill="#e69e12"/>
          <g id="Grupo_37510" data-name="Grupo 37510" transform="translate(0.615 7.91)">
            <path id="Trazado_100851" data-name="Trazado 100851" d="M4504.934,1833.573a93.15,93.15,0,0,1-21.771.538l2.279,26.5a32.69,32.69,0,0,0,20.991-1.625Q4505.684,1846.278,4504.934,1833.573Z" transform="translate(-4483.163 -1833.573)" fill="#ffc34f"/>
            <path id="Trazado_100852" data-name="Trazado 100852" d="M4560.554,1943.352c.341-1.272-1.056-2.583-1.838-3.094a4.546,4.546,0,0,0-3.924-.343,9.885,9.885,0,0,0,1.08,2.312c.717,1.121,1.646,2.575,2.9,2.517A2.017,2.017,0,0,0,4560.554,1943.352Z" transform="translate(-4547.716 -1929.145)" fill="#fff"/>
            <path id="Trazado_100853" data-name="Trazado 100853" d="M4625.883,1939.69c.09,1.882-.5,3.306-1.33,3.533a1.339,1.339,0,0,1-1.257-.341,1.582,1.582,0,0,1-.4-1.19C4622.982,1940.765,4624.179,1939.923,4625.883,1939.69Z" transform="translate(-4609.09 -1929.208)" fill="#fff"/>
            <path id="Trazado_100854" data-name="Trazado 100854" d="M4619.435,1964.287a4.437,4.437,0,0,1-.745,1.668,4.093,4.093,0,0,1-.713.753l-.1-.062a7.417,7.417,0,0,0,1.337-2.4C4619.376,1963.3,4619.435,1964.287,4619.435,1964.287Z" transform="translate(-4604.573 -1950.972)" fill="#fff"/>
            <g id="Grupo_37509" data-name="Grupo 37509" transform="translate(11.822 14.197)">
              <path id="Trazado_100855" data-name="Trazado 100855" d="M4605.331,1981.545h.01a.212.212,0,0,0,.182-.235,5.437,5.437,0,0,0-.76-2.34,4.949,4.949,0,0,0-1.606-1.632.193.193,0,0,0-.274.08.229.229,0,0,0,.076.3,4.513,4.513,0,0,1,1.47,1.492,4.962,4.962,0,0,1,.694,2.14A.209.209,0,0,0,4605.331,1981.545Z" transform="translate(-4602.856 -1977.308)" fill="#fff"/>
            </g>
          </g>
          <path id="Trazado_100856" data-name="Trazado 100856" d="M4536.932,1763.688l1.447.045h0l.662.02a11.6,11.6,0,0,1-.438-3.282c0-.2.009-.391.021-.582a7.828,7.828,0,0,1,1.186-3.918,3.622,3.622,0,0,1,1.132-1.077,2.29,2.29,0,0,1,1.241-.329,2.037,2.037,0,0,1,.731.164,2.6,2.6,0,0,1,.715.459,4.275,4.275,0,0,1,.854,1.1,6.764,6.764,0,0,1,.414.884,10.239,10.239,0,0,1,.636,3.126,11.8,11.8,0,0,1-.151,2.623c-.02.11-.04.219-.062.327-.016.079-.033.158-.051.237q.879.2,1.76.389a15.04,15.04,0,0,0-.006-3.488,10.944,10.944,0,0,0-1.732-4.96,4.208,4.208,0,0,0-2.715-1.892,3.085,3.085,0,0,0-1.43.1,2.668,2.668,0,0,0-.329.123,3.227,3.227,0,0,0-.384.2,3.918,3.918,0,0,0-.61.461,5.339,5.339,0,0,0-.673.741,9.881,9.881,0,0,0-1.485,3.065c-.139.456-.261.936-.362,1.439-.063.307-.119.625-.165.949a19.626,19.626,0,0,0-.2,2.457c0,.135,0,.271,0,.408C4536.931,1763.549,4536.932,1763.619,4536.932,1763.688Z" transform="translate(-4531.006 -1753.494)" fill="#ffc34f"/>
          <g id="Grupo_37511" data-name="Grupo 37511" transform="translate(6.062 13.821)">
            <path id="Trazado_100857" data-name="Trazado 100857" d="M4545.492,1908.859a6.843,6.843,0,0,1-4.851-2.052,8,8,0,0,1-2.318-5.362h0c-.182-4.253,2.867-7.85,6.8-8.018a6.825,6.825,0,0,1,5.141,2.046,8,8,0,0,1,2.318,5.362c.182,4.253-2.867,7.85-6.8,8.018C4545.685,1908.857,4545.588,1908.859,4545.492,1908.859Zm-6.972-7.422a7.8,7.8,0,0,0,2.26,5.23,6.631,6.631,0,0,0,4.993,1.989c3.821-.164,6.787-3.668,6.609-7.812a7.8,7.8,0,0,0-2.261-5.23,6.633,6.633,0,0,0-4.992-1.989c-3.822.164-6.787,3.668-6.609,7.812Z" transform="translate(-4538.315 -1893.422)" fill="#fff"/>
          </g>
        </g>
        <g id="Grupo_37513" data-name="Grupo 37513" transform="translate(26.643 26.446)">
          <path id="Trazado_100858" data-name="Trazado 100858" d="M4599.389,1321.163s-2.787-1.1-3.161,2.6,4.677,15.909,5.028,18.444-5.069,16.416-5.839,18.114,2.645,3.977,3.1,2.75c.533-1.441,7.466-17.032,8.115-19.88S4604.647,1324.881,4599.389,1321.163Z" transform="translate(-4592.19 -1321.01)" fill="#f8ab88"/>
          <path id="Trazado_100859" data-name="Trazado 100859" d="M4570.508,1720.415a12.441,12.441,0,0,0-.929,2.725,4.785,4.785,0,0,1-2.453,3.248c-.869.4-3.184-.274-3.325-1.651a4.223,4.223,0,0,1,.5-2.58c1.134-2.305,2.317-2.65,2.656-3.4S4570.508,1720.415,4570.508,1720.415Z" transform="translate(-4563.776 -1679.342)" fill="#f8ab88"/>
        </g>
        <g id="Grupo_37514" data-name="Grupo 37514" transform="translate(15.545)">
          <path id="Trazado_100860" data-name="Trazado 100860" d="M4481.233,1242.519s-.966,1.618-.966,1.618c-.29.479-1.925,4.4-8.027,3.913-7.512-.6-3.914-5.781-3.788-5.884,0,0,.041-.063.041-.063a10.678,10.678,0,0,1,3.2-.636c.049-.241.1-.495.147-.755.08-.432.158-.879.227-1.3.145-.872.256-1.633.292-1.935.1-.832,5.083-1.841,5.083-1.841s.129.657.3,1.573c.033.185.068.381.105.584.232,1.294.5,2.881.61,3.919C4480.3,1242.006,4481.415,1242.485,4481.233,1242.519Z" transform="translate(-4465.895 -1217.624)" fill="#f8ab88"/>
          <path id="Trazado_100861" data-name="Trazado 100861" d="M4519.56,1237.21a9.6,9.6,0,0,1-5.672,2.2c.146-.872.256-1.633.292-1.935.1-.832,5.083-1.841,5.083-1.841S4519.392,1236.295,4519.56,1237.21Z" transform="translate(-4507.718 -1217.624)" fill="#eb9a75"/>
          <path id="Trazado_100862" data-name="Trazado 100862" d="M4454.507,1058.955a9.894,9.894,0,0,0-1.692,2.591,21.153,21.153,0,0,0-1.057,3.559c-.841,3.642-.2,10.136,2.681,11.047s7.26.5,11.242-4.776c4.583-6.072,3.032-11.26.744-13.089C4464.393,1056.664,4460.462,1052.244,4454.507,1058.955Z" transform="translate(-4451.416 -1055.147)" fill="#f8ab88"/>
          <path id="Trazado_100863" data-name="Trazado 100863" d="M4459.925,1057.92c-1.217.725-1.429,1.293-2.423,4.206,0,0,.466-4.755,3.535-7.665,1.509-1.432,4.064-1.352,7.033-.934,9,1.269,10.148,11.774,1.642,17.74,0,0-.165-3.242.978-4.549s1.858-.818.692-1.508c-1.1-.651-2.254.895-2.254.895a4.794,4.794,0,0,1-3.425-2.7c-.684-1.468-.744-3.275-1.431-4.429a2.889,2.889,0,0,0-2.14-1.738A4.066,4.066,0,0,0,4459.925,1057.92Z" transform="translate(-4456.901 -1053.261)" fill="#471b19"/>
          <ellipse id="Elipse_1022" data-name="Elipse 1022" cx="2.359" cy="1.561" rx="2.359" ry="1.561" transform="matrix(0.545, -0.838, 0.838, 0.545, 11.024, 14.494)" fill="#f8ab88"/>
          <path id="Trazado_100864" data-name="Trazado 100864" d="M4576.919,1202.915a.73.73,0,1,1-.477-.917A.73.73,0,0,1,4576.919,1202.915Z" transform="translate(-4563.236 -1187.276)" fill="#fff"/>
        </g>
        <path id="Trazado_100865" data-name="Trazado 100865" d="M4575.383,1211.332l-.638,4.311a7.648,7.648,0,0,0,1.691,0c0-.125-.69-4.74-.69-4.74Z" transform="translate(-4547.019 -1195.332)" fill="#fff"/>
        <g id="Grupo_37515" data-name="Grupo 37515" transform="translate(21.331 32.74)">
          <path id="Trazado_100866" data-name="Trazado 100866" d="M4511.35,1385.405a.676.676,0,1,1-.677-.676A.676.676,0,0,1,4511.35,1385.405Z" transform="translate(-4509.997 -1384.729)" fill="#fff"/>
          <path id="Trazado_100867" data-name="Trazado 100867" d="M4511.35,1439.059a.676.676,0,1,1-.677-.676A.676.676,0,0,1,4511.35,1439.059Z" transform="translate(-4509.997 -1433.084)" fill="#fff"/>
          <path id="Trazado_100868" data-name="Trazado 100868" d="M4511.35,1492.712a.676.676,0,1,1-.677-.676A.676.676,0,0,1,4511.35,1492.712Z" transform="translate(-4509.997 -1481.437)" fill="#fff"/>
          <path id="Trazado_100869" data-name="Trazado 100869" d="M4511.35,1546.366a.676.676,0,1,1-.677-.676A.676.676,0,0,1,4511.35,1546.366Z" transform="translate(-4509.997 -1529.792)" fill="#fff"/>
          <path id="Trazado_100870" data-name="Trazado 100870" d="M4511.35,1600.019a.676.676,0,1,1-.677-.676A.676.676,0,0,1,4511.35,1600.019Z" transform="translate(-4509.997 -1578.145)" fill="#fff"/>
        </g>
        <g id="Grupo_37518" data-name="Grupo 37518" transform="translate(0 146.957)">
          <g id="Grupo_37516" data-name="Grupo 37516">
            <path id="Trazado_100871" data-name="Trazado 100871" d="M4314.1,2543.224c-.808.739-4.074,1.381-7.624,2.693s-2.586,3.195-2.586,3.195h11.651c1.561,0,2.922.151,2.516-2.531a13.634,13.634,0,0,1,.114-3.3c.318-2.234-.893-2.174-.893-2.174Z" transform="translate(-4302.811 -2541.103)" fill="#f8ab88"/>
            <path id="Trazado_100872" data-name="Trazado 100872" d="M4294.134,2611.324c1.657.073,14.225,0,15.457-.013a.09.09,0,0,1,.1.084v1.209a.091.091,0,0,1-.1.084H4294.84a.1.1,0,0,1-.086-.046l-.71-1.2C4294.01,2611.388,4294.06,2611.321,4294.134,2611.324Z" transform="translate(-4294.033 -2604.376)" fill="#2b100f"/>
            <path id="Trazado_100873" data-name="Trazado 100873" d="M4324.794,2581.132l1.291,1.905h5.2l-2.925-3.147A10.719,10.719,0,0,0,4324.794,2581.132Z" transform="translate(-4321.755 -2576.059)" fill="#2b100f"/>
          </g>
          <g id="Grupo_37517" data-name="Grupo 37517" transform="translate(22.279)">
            <path id="Trazado_100874" data-name="Trazado 100874" d="M4539.659,2543.224c-.809.739-4.075,1.381-7.625,2.693s-2.586,3.195-2.586,3.195H4541.1c1.561,0,2.923.151,2.517-2.531a13.634,13.634,0,0,1,.113-3.3c.318-2.234-.893-2.174-.893-2.174Z" transform="translate(-4528.367 -2541.103)" fill="#f8ab88"/>
            <path id="Trazado_100875" data-name="Trazado 100875" d="M4519.69,2611.324c1.658.073,14.225,0,15.457-.013a.091.091,0,0,1,.1.084v1.209a.091.091,0,0,1-.1.084H4520.4a.1.1,0,0,1-.087-.046l-.709-1.2C4519.565,2611.388,4519.616,2611.321,4519.69,2611.324Z" transform="translate(-4519.589 -2604.376)" fill="#2b100f"/>
            <path id="Trazado_100876" data-name="Trazado 100876" d="M4550.35,2581.132l1.291,1.905h5.2l-2.924-3.147A10.727,10.727,0,0,0,4550.35,2581.132Z" transform="translate(-4547.312 -2576.059)" fill="#2b100f"/>
          </g>
        </g>
      </g>
    </g>
    <g id="decor" transform="translate(1906.596 564.902)">
      <g id="Grupo_37519" data-name="Grupo 37519" transform="translate(231.899 27.007)">
        <path id="Trazado_100877" data-name="Trazado 100877" d="M4255.318,840.121a.9.9,0,1,1,.9-.9A.9.9,0,0,1,4255.318,840.121Zm0-1.492a.6.6,0,1,0,.6.6A.6.6,0,0,0,4255.318,838.629Z" transform="translate(-4254.423 -838.33)" fill="#fff"/>
      </g>
      <g id="Grupo_37520" data-name="Grupo 37520" transform="translate(105.62 0)">
        <path id="Trazado_100878" data-name="Trazado 100878" d="M2976.827,566.693a.9.9,0,1,1,.9-.9A.9.9,0,0,1,2976.827,566.693Zm0-1.492a.6.6,0,1,0,.6.6A.6.6,0,0,0,2976.827,565.2Z" transform="translate(-2975.932 -564.902)" fill="#fff"/>
      </g>
      <g id="Grupo_37521" data-name="Grupo 37521" transform="translate(110.623 206.613)">
        <path id="Trazado_100879" data-name="Trazado 100879" d="M3027.48,2658.517a.9.9,0,1,1,.9-.9A.9.9,0,0,1,3027.48,2658.517Zm0-1.492a.6.6,0,1,0,.6.6A.6.6,0,0,0,3027.48,2657.025Z" transform="translate(-3026.585 -2656.726)" fill="#fff"/>
      </g>
      <g id="Grupo_37522" data-name="Grupo 37522" transform="translate(118.565 109.842)">
        <path id="Trazado_100880" data-name="Trazado 100880" d="M3107.884,1678.767a.9.9,0,1,1,.9-.9A.9.9,0,0,1,3107.884,1678.767Zm0-1.492a.6.6,0,1,0,.6.6A.6.6,0,0,0,3107.884,1677.275Z" transform="translate(-3106.989 -1676.976)" fill="#fff"/>
      </g>
      <g id="Grupo_37523" data-name="Grupo 37523" transform="translate(291.209 134.535)">
        <path id="Trazado_100881" data-name="Trazado 100881" d="M4855.791,1928.771a.9.9,0,1,1,.9-.9A.9.9,0,0,1,4855.791,1928.771Zm0-1.492a.6.6,0,1,0,.6.6A.6.6,0,0,0,4855.791,1927.279Z" transform="translate(-4854.896 -1926.98)" fill="#fff"/>
      </g>
      <g id="Grupo_37524" data-name="Grupo 37524" transform="translate(0 110.704)">
        <path id="Trazado_100882" data-name="Trazado 100882" d="M1907.491,1687.494a.9.9,0,1,1,.9-.9A.9.9,0,0,1,1907.491,1687.494Zm0-1.492a.6.6,0,1,0,.6.6A.6.6,0,0,0,1907.491,1686Z" transform="translate(-1906.596 -1685.703)" fill="#fff"/>
      </g>
      <circle id="Elipse_1023" data-name="Elipse 1023" cx="0.722" cy="0.722" r="0.722" transform="translate(81.661 143.743) rotate(-45)" fill="#fff" opacity="0.5"/>
      <circle id="Elipse_1024" data-name="Elipse 1024" cx="0.722" cy="0.722" r="0.722" transform="translate(177.507 145.812)" fill="#fff" opacity="0.5"/>
      <circle id="Elipse_1025" data-name="Elipse 1025" cx="0.722" cy="0.722" r="0.722" transform="translate(23.338 38.451) rotate(-76.717)" fill="#fff" opacity="0.5"/>
      <circle id="Elipse_1026" data-name="Elipse 1026" cx="0.722" cy="0.722" r="0.722" transform="translate(158.46 185) rotate(-76.718)" fill="#fff" opacity="0.5"/>
      <path id="Trazado_100883" data-name="Trazado 100883" d="M3527.158,643.913a.722.722,0,1,1-.721-.722A.721.721,0,0,1,3527.158,643.913Z" transform="translate(-3365.792 -635.458)" fill="#fff" opacity="0.5"/>
    </g>
  </g>
</svg>
