<svg xmlns="http://www.w3.org/2000/svg" width="178" height="89" viewBox="0 0 178 89">
  <g id="Grupo_36357" data-name="Grupo 36357" transform="translate(-281 -4705)">
    <g id="Rectángulo_31685" data-name="Rectángulo 31685" transform="translate(281 4705)" fill="#d268cc" stroke="#d268cc" stroke-width="3">
      <rect width="178" height="89" rx="15" stroke="none"/>
      <rect x="1.5" y="1.5" width="175" height="86" rx="13.5" fill="none"/>
    </g>
    <path id="Trazado_100898" data-name="Trazado 100898" d="M1.77.727H5.555l6.879,12.059V.727H15.8V18H12.188L5.133,5.73V18H1.77ZM23.93,7.641a2.268,2.268,0,0,0-1.8.727,3.627,3.627,0,0,0-.8,1.969H26.52a2.907,2.907,0,0,0-.8-2.01A2.493,2.493,0,0,0,23.93,7.641Zm0-2.754a6.694,6.694,0,0,1,2.871.6A5.03,5.03,0,0,1,28.91,7.371a6.437,6.437,0,0,1,.973,2.637,17.028,17.028,0,0,1,.105,2.531H21.246a3.174,3.174,0,0,0,1.207,2.7,2.843,2.843,0,0,0,1.664.48,2.4,2.4,0,0,0,1.676-.586,2.783,2.783,0,0,0,.621-.879h3.41a4.237,4.237,0,0,1-1.184,2.309,5.8,5.8,0,0,1-4.594,1.863,6.478,6.478,0,0,1-4.3-1.57q-1.863-1.57-1.863-5.109a7.1,7.1,0,0,1,1.682-5.086A5.75,5.75,0,0,1,23.93,4.887ZM39.867,9.809a2.964,2.964,0,0,0-.48-1.289,2.014,2.014,0,0,0-1.746-.773,2.3,2.3,0,0,0-2.309,1.676A7.006,7.006,0,0,0,35,11.789a6.442,6.442,0,0,0,.328,2.262,2.229,2.229,0,0,0,2.25,1.594,1.984,1.984,0,0,0,1.664-.633,3.15,3.15,0,0,0,.6-1.641h3.41a5.587,5.587,0,0,1-1.1,2.883A5.355,5.355,0,0,1,37.5,18.445a5.442,5.442,0,0,1-4.535-1.828,7.4,7.4,0,0,1-1.453-4.746A7.506,7.506,0,0,1,33.117,6.75a5.588,5.588,0,0,1,4.43-1.828A6.67,6.67,0,0,1,41.479,6a5.014,5.014,0,0,1,1.811,3.809ZM50.625,7.641a2.268,2.268,0,0,0-1.8.727,3.627,3.627,0,0,0-.8,1.969h5.191a2.907,2.907,0,0,0-.8-2.01A2.493,2.493,0,0,0,50.625,7.641Zm0-2.754a6.694,6.694,0,0,1,2.871.6,5.03,5.03,0,0,1,2.109,1.887,6.437,6.437,0,0,1,.973,2.637,17.028,17.028,0,0,1,.105,2.531H47.941a3.174,3.174,0,0,0,1.207,2.7,2.843,2.843,0,0,0,1.664.48,2.4,2.4,0,0,0,1.676-.586,2.783,2.783,0,0,0,.621-.879h3.41a4.237,4.237,0,0,1-1.184,2.309,5.8,5.8,0,0,1-4.594,1.863,6.478,6.478,0,0,1-4.3-1.57q-1.863-1.57-1.863-5.109A7.1,7.1,0,0,1,46.26,6.656,5.75,5.75,0,0,1,50.625,4.887Zm10.91,9.035a2.23,2.23,0,0,0,.457,1.266,3.09,3.09,0,0,0,2.3.668,3.5,3.5,0,0,0,1.564-.293.983.983,0,0,0,.111-1.734,19.069,19.069,0,0,0-3.48-1.008,7.249,7.249,0,0,1-3.059-1.348,2.922,2.922,0,0,1-.891-2.3,3.984,3.984,0,0,1,1.389-3.041,5.577,5.577,0,0,1,3.908-1.271,7.17,7.17,0,0,1,3.9.955,4.091,4.091,0,0,1,1.729,3.3h-3.34a1.976,1.976,0,0,0-.363-1.02,2.286,2.286,0,0,0-1.875-.68,2.694,2.694,0,0,0-1.553.34.978.978,0,0,0-.463.8.872.872,0,0,0,.492.832,21.307,21.307,0,0,0,3.48.926,6.393,6.393,0,0,1,2.988,1.418,3.219,3.219,0,0,1,.984,2.4,3.882,3.882,0,0,1-1.412,3.1,6.634,6.634,0,0,1-4.365,1.2,6.571,6.571,0,0,1-4.447-1.271,4.137,4.137,0,0,1-1.436-3.24ZM75.715,3.7H72.328V.621h3.387ZM72.328,5.227h3.387V18H72.328Zm11.332-.3a4.12,4.12,0,0,1,2.063.51,4.057,4.057,0,0,1,1.465,1.412V.75h3.387V18H87.328V16.23A4.711,4.711,0,0,1,85.7,17.883a4.573,4.573,0,0,1-2.273.516,4.747,4.747,0,0,1-3.768-1.811,6.953,6.953,0,0,1-1.529-4.646A8,8,0,0,1,79.635,6.8,4.9,4.9,0,0,1,83.66,4.922Zm.727,10.664a2.466,2.466,0,0,0,2.156-1.055,4.66,4.66,0,0,0,.738-2.73A4.188,4.188,0,0,0,86.1,8.449,2.547,2.547,0,0,0,84.41,7.84a2.346,2.346,0,0,0-2.15,1.107,5.131,5.131,0,0,0-.686,2.748,5.085,5.085,0,0,0,.7,2.83A2.359,2.359,0,0,0,84.387,15.586Zm16.266-3.8a3.629,3.629,0,0,1-.639.322,5.341,5.341,0,0,1-.885.229l-.75.141a4.843,4.843,0,0,0-1.512.457,1.532,1.532,0,0,0-.773,1.418,1.493,1.493,0,0,0,.475,1.236,1.786,1.786,0,0,0,1.154.381,3.4,3.4,0,0,0,1.986-.633,2.7,2.7,0,0,0,.943-2.309ZM98.625,10.23a5.213,5.213,0,0,0,1.324-.293,1,1,0,0,0,.715-.949,1.126,1.126,0,0,0-.545-1.084,3.4,3.4,0,0,0-1.6-.3,2.084,2.084,0,0,0-1.676.586,2.435,2.435,0,0,0-.469,1.172H93.152a4.9,4.9,0,0,1,.938-2.754q1.324-1.687,4.547-1.687a8.078,8.078,0,0,1,3.727.832,3.194,3.194,0,0,1,1.629,3.141v5.859q0,.609.023,1.477a1.857,1.857,0,0,0,.2.891,1.2,1.2,0,0,0,.492.387V18h-3.633a3.72,3.72,0,0,1-.211-.727q-.059-.34-.094-.773a6.862,6.862,0,0,1-1.594,1.277,4.794,4.794,0,0,1-2.437.621,4.191,4.191,0,0,1-2.865-.99A3.532,3.532,0,0,1,92.742,14.6a3.643,3.643,0,0,1,1.816-3.41,8.065,8.065,0,0,1,2.93-.82Zm13.043-5.309a4.12,4.12,0,0,1,2.063.51A4.057,4.057,0,0,1,115.2,6.844V.75h3.387V18h-3.246V16.23a4.711,4.711,0,0,1-1.629,1.652,4.573,4.573,0,0,1-2.273.516,4.747,4.747,0,0,1-3.768-1.811,6.953,6.953,0,0,1-1.529-4.646A8,8,0,0,1,107.643,6.8,4.9,4.9,0,0,1,111.668,4.922Zm.727,10.664a2.466,2.466,0,0,0,2.156-1.055,4.66,4.66,0,0,0,.738-2.73,4.188,4.188,0,0,0-1.184-3.352,2.547,2.547,0,0,0-1.687-.609,2.346,2.346,0,0,0-2.15,1.107,5.131,5.131,0,0,0-.686,2.748,5.085,5.085,0,0,0,.7,2.83A2.359,2.359,0,0,0,112.395,15.586Zm14.262-7.945a2.268,2.268,0,0,0-1.8.727,3.627,3.627,0,0,0-.8,1.969h5.191a2.907,2.907,0,0,0-.8-2.01A2.493,2.493,0,0,0,126.656,7.641Zm0-2.754a6.694,6.694,0,0,1,2.871.6,5.03,5.03,0,0,1,2.109,1.887,6.437,6.437,0,0,1,.973,2.637,17.028,17.028,0,0,1,.105,2.531h-8.742a3.174,3.174,0,0,0,1.207,2.7,2.843,2.843,0,0,0,1.664.48,2.4,2.4,0,0,0,1.676-.586,2.783,2.783,0,0,0,.621-.879h3.41a4.237,4.237,0,0,1-1.184,2.309,5.8,5.8,0,0,1-4.594,1.863,6.478,6.478,0,0,1-4.3-1.57q-1.863-1.57-1.863-5.109a7.1,7.1,0,0,1,1.682-5.086A5.75,5.75,0,0,1,126.656,4.887Zm10.91,9.035a2.23,2.23,0,0,0,.457,1.266,3.09,3.09,0,0,0,2.3.668,3.5,3.5,0,0,0,1.564-.293A.983.983,0,0,0,142,13.828a19.069,19.069,0,0,0-3.48-1.008,7.249,7.249,0,0,1-3.059-1.348,2.922,2.922,0,0,1-.891-2.3,3.984,3.984,0,0,1,1.389-3.041,5.577,5.577,0,0,1,3.908-1.271,7.17,7.17,0,0,1,3.9.955,4.091,4.091,0,0,1,1.729,3.3h-3.34a1.976,1.976,0,0,0-.363-1.02,2.286,2.286,0,0,0-1.875-.68,2.694,2.694,0,0,0-1.553.34.978.978,0,0,0-.463.8.872.872,0,0,0,.492.832,21.307,21.307,0,0,0,3.48.926,6.393,6.393,0,0,1,2.988,1.418,3.219,3.219,0,0,1,.984,2.4,3.882,3.882,0,0,1-1.412,3.1,8.472,8.472,0,0,1-8.812-.07,4.137,4.137,0,0,1-1.436-3.24Z" transform="translate(293 4730.5)" fill="#fff"/>
  </g>
</svg>
