<svg xmlns="http://www.w3.org/2000/svg" xmlns:xlink="http://www.w3.org/1999/xlink" width="263.776" height="245.48" viewBox="0 0 263.776 245.48">
  <defs>
    <filter id="Trazado_81522" x="31.798" y="62.792" width="27.301" height="20.734" filterUnits="userSpaceOnUse">
      <feOffset dx="2" dy="2" input="SourceAlpha"/>
      <feGaussianBlur result="blur"/>
      <feFlood flood-color="#f3f4f6"/>
      <feComposite operator="in" in2="blur"/>
      <feComposite in="SourceGraphic"/>
    </filter>
    <filter id="Trazado_81527" x="31.798" y="102.152" width="27.301" height="20.734" filterUnits="userSpaceOnUse">
      <feOffset dx="2" dy="2" input="SourceAlpha"/>
      <feGaussianBlur result="blur-2"/>
      <feFlood flood-color="#f3f4f6"/>
      <feComposite operator="in" in2="blur-2"/>
      <feComposite in="SourceGraphic"/>
    </filter>
    <filter id="Trazado_81532" x="31.798" y="141.513" width="27.301" height="20.734" filterUnits="userSpaceOnUse">
      <feOffset dx="2" dy="2" input="SourceAlpha"/>
      <feGaussianBlur result="blur-3"/>
      <feFlood flood-color="#f3f4f6"/>
      <feComposite operator="in" in2="blur-3"/>
      <feComposite in="SourceGraphic"/>
    </filter>
    <filter id="Trazado_81537" x="31.798" y="180.874" width="27.301" height="20.734" filterUnits="userSpaceOnUse">
      <feOffset dx="2" dy="2" input="SourceAlpha"/>
      <feGaussianBlur result="blur-4"/>
      <feFlood flood-color="#f3f4f6"/>
      <feComposite operator="in" in2="blur-4"/>
      <feComposite in="SourceGraphic"/>
    </filter>
  </defs>
  <g id="Grupo_32980" data-name="Grupo 32980" transform="translate(-86.131 -100.861)">
    <g id="Grupo_32968" data-name="Grupo 32968" transform="translate(86.131 100.861)">
      <rect id="Rectángulo_31572" data-name="Rectángulo 31572" width="171.872" height="227.479" rx="9.449" transform="translate(0 18.001)" fill="#58a5f8"/>
      <path id="Trazado_81518" data-name="Trazado 81518" d="M86.131,189.31V353.528a7.843,7.843,0,0,0,7.843,7.843H250.16A7.843,7.843,0,0,0,258,353.528v-32.41Z" transform="translate(-86.131 -115.891)" fill="#58a5f8"/>
      <rect id="Rectángulo_31573" data-name="Rectángulo 31573" width="151.9" height="206.487" rx="3.862" transform="translate(9.986 28.497)" fill="#f3f4f6"/>
      <g id="Grupo_32967" data-name="Grupo 32967" transform="translate(53.705)">
        <path id="Trazado_81519" data-name="Trazado 81519" d="M196.09,114.566c.011-.214.032-.426.032-.643a13.062,13.062,0,1,0-26.123,0c0,.217.022.429.032.643h-19.2v19.912h64.462V114.566Z" transform="translate(-150.83 -100.861)" fill="#a744a1"/>
        <path id="Trazado_81520" data-name="Trazado 81520" d="M150.83,117.372v19.911h64.463Z" transform="translate(-150.83 -103.667)" fill="#a744a1"/>
        <circle id="Elipse_982" data-name="Elipse 982" cx="7.335" cy="7.335" r="7.335" transform="translate(22.639 9.114) rotate(-22.628)" fill="#527ee9"/>
        <path id="Trazado_81521" data-name="Trazado 81521" d="M182.972,110.349a7.334,7.334,0,1,0,10.373,10.373Z" transform="translate(-155.927 -102.473)" fill="#6aa5fe"/>
        <path id="Trazado_81573" data-name="Trazado 81573" d="M0,0H64.463V1.372H0Z" transform="translate(0 33.617)" fill="#cde1f9" style="mix-blend-mode: multiply;isolation: isolate"/>
      </g>
    </g>
    <g id="Grupo_32977" data-name="Grupo 32977" transform="translate(113.67 162.054)">
      <g id="Grupo_32970" data-name="Grupo 32970">
        <rect id="Rectángulo_31575" data-name="Rectángulo 31575" width="24.449" height="24.449" fill="none" stroke="#1a55b5" stroke-miterlimit="10" stroke-width="1"/>
        <g transform="matrix(1, 0, 0, 1, -27.54, -61.19)" filter="url(#Trazado_81522)">
          <path id="Trazado_81522-2" data-name="Trazado 81522" d="M125.926,187.018l7.477,5.87,15.2-14.646" transform="translate(-92.89 -114.01)" fill="none" stroke="#ff746f" stroke-miterlimit="10" stroke-width="4"/>
        </g>
        <g id="Grupo_32969" data-name="Grupo 32969" transform="translate(35.244 5.058)">
          <path id="Trazado_81523" data-name="Trazado 81523" d="M242.376,182.557H162.707a.941.941,0,0,1-.94-.941h0a.94.94,0,0,1,.94-.94h79.668a.94.94,0,0,1,.941.94h0A.941.941,0,0,1,242.376,182.557Z" transform="translate(-161.767 -180.675)" fill="#6aa5fe"/>
          <path id="Trazado_81524" data-name="Trazado 81524" d="M242.376,187.557H162.707a.941.941,0,0,1-.94-.941h0a.94.94,0,0,1,.94-.94h79.668a.94.94,0,0,1,.941.94h0A.941.941,0,0,1,242.376,187.557Z" transform="translate(-161.767 -181.525)" fill="#6aa5fe"/>
          <path id="Trazado_81525" data-name="Trazado 81525" d="M242.376,192.557H162.707a.94.94,0,0,1-.94-.94h0a.94.94,0,0,1,.94-.941h79.668a.941.941,0,0,1,.941.941h0A.94.94,0,0,1,242.376,192.557Z" transform="translate(-161.767 -182.374)" fill="#6aa5fe"/>
          <path id="Trazado_81526" data-name="Trazado 81526" d="M242.376,197.558H162.707a.941.941,0,0,1-.94-.941h0a.941.941,0,0,1,.94-.941h79.668a.941.941,0,0,1,.941.941h0A.941.941,0,0,1,242.376,197.558Z" transform="translate(-161.767 -183.224)" fill="#6aa5fe"/>
        </g>
      </g>
      <g id="Grupo_32972" data-name="Grupo 32972" transform="translate(0 39.36)">
        <rect id="Rectángulo_31576" data-name="Rectángulo 31576" width="24.449" height="24.449" fill="none" stroke="#1a55b5" stroke-miterlimit="10" stroke-width="1"/>
        <g transform="matrix(1, 0, 0, 1, -27.54, -100.55)" filter="url(#Trazado_81527)">
          <path id="Trazado_81527-2" data-name="Trazado 81527" d="M125.926,234.437l7.477,5.87,15.2-14.646" transform="translate(-92.89 -122.07)" fill="none" stroke="#ff746f" stroke-miterlimit="10" stroke-width="4"/>
        </g>
        <g id="Grupo_32971" data-name="Grupo 32971" transform="translate(35.244 5.058)">
          <path id="Trazado_81528" data-name="Trazado 81528" d="M242.376,229.975H162.707a.94.94,0,0,1-.94-.94h0a.941.941,0,0,1,.94-.941h79.668a.941.941,0,0,1,.941.941h0A.94.94,0,0,1,242.376,229.975Z" transform="translate(-161.767 -228.093)" fill="#6aa5fe"/>
          <path id="Trazado_81529" data-name="Trazado 81529" d="M242.376,234.976H162.707a.941.941,0,0,1-.94-.941h0a.941.941,0,0,1,.94-.941h79.668a.941.941,0,0,1,.941.941h0A.941.941,0,0,1,242.376,234.976Z" transform="translate(-161.767 -228.943)" fill="#6aa5fe"/>
          <path id="Trazado_81530" data-name="Trazado 81530" d="M242.376,239.976H162.707a.941.941,0,0,1-.94-.941h0a.941.941,0,0,1,.94-.941h79.668a.941.941,0,0,1,.941.941h0A.941.941,0,0,1,242.376,239.976Z" transform="translate(-161.767 -229.792)" fill="#6aa5fe"/>
          <path id="Trazado_81531" data-name="Trazado 81531" d="M242.376,244.976H162.707a.94.94,0,0,1-.94-.941h0a.94.94,0,0,1,.94-.94h79.668a.94.94,0,0,1,.941.94h0A.941.941,0,0,1,242.376,244.976Z" transform="translate(-161.767 -230.642)" fill="#6aa5fe"/>
        </g>
      </g>
      <g id="Grupo_32974" data-name="Grupo 32974" transform="translate(0 78.721)">
        <rect id="Rectángulo_31577" data-name="Rectángulo 31577" width="24.449" height="24.449" fill="none" stroke="#1a55b5" stroke-miterlimit="10" stroke-width="1"/>
        <g transform="matrix(1, 0, 0, 1, -27.54, -139.91)" filter="url(#Trazado_81532)">
          <path id="Trazado_81532-2" data-name="Trazado 81532" d="M125.926,281.855l7.477,5.87,15.2-14.646" transform="translate(-92.89 -130.13)" fill="none" stroke="#ff746f" stroke-miterlimit="10" stroke-width="4"/>
        </g>
        <g id="Grupo_32973" data-name="Grupo 32973" transform="translate(35.244 5.058)">
          <path id="Trazado_81533" data-name="Trazado 81533" d="M242.376,277.394H162.707a.941.941,0,0,1-.94-.941h0a.941.941,0,0,1,.94-.941h79.668a.941.941,0,0,1,.941.941h0A.941.941,0,0,1,242.376,277.394Z" transform="translate(-161.767 -275.511)" fill="#6aa5fe"/>
          <path id="Trazado_81534" data-name="Trazado 81534" d="M242.376,282.394H162.707a.941.941,0,0,1-.94-.941h0a.94.94,0,0,1,.94-.94h79.668a.94.94,0,0,1,.941.94h0A.941.941,0,0,1,242.376,282.394Z" transform="translate(-161.767 -276.361)" fill="#6aa5fe"/>
          <path id="Trazado_81535" data-name="Trazado 81535" d="M242.376,287.394H162.707a.94.94,0,0,1-.94-.94h0a.941.941,0,0,1,.94-.941h79.668a.941.941,0,0,1,.941.941h0A.94.94,0,0,1,242.376,287.394Z" transform="translate(-161.767 -277.21)" fill="#6aa5fe"/>
          <path id="Trazado_81536" data-name="Trazado 81536" d="M242.376,292.394H162.707a.94.94,0,0,1-.94-.94h0a.941.941,0,0,1,.94-.941h79.668a.941.941,0,0,1,.941.941h0A.94.94,0,0,1,242.376,292.394Z" transform="translate(-161.767 -278.06)" fill="#6aa5fe"/>
        </g>
      </g>
      <g id="Grupo_32976" data-name="Grupo 32976" transform="translate(0 118.082)">
        <rect id="Rectángulo_31578" data-name="Rectángulo 31578" width="24.449" height="24.449" fill="none" stroke="#1a55b5" stroke-miterlimit="10" stroke-width="1"/>
        <g transform="matrix(1, 0, 0, 1, -27.54, -179.27)" filter="url(#Trazado_81537)">
          <path id="Trazado_81537-2" data-name="Trazado 81537" d="M125.926,329.274l7.477,5.87,15.2-14.646" transform="translate(-92.89 -138.18)" fill="none" stroke="#ff746f" stroke-miterlimit="10" stroke-width="4"/>
        </g>
        <g id="Grupo_32975" data-name="Grupo 32975" transform="translate(35.244 5.058)">
          <path id="Trazado_81538" data-name="Trazado 81538" d="M242.376,324.812H162.707a.94.94,0,0,1-.94-.94h0a.941.941,0,0,1,.94-.941h79.668a.941.941,0,0,1,.941.941h0A.94.94,0,0,1,242.376,324.812Z" transform="translate(-161.767 -322.93)" fill="#6aa5fe"/>
          <path id="Trazado_81539" data-name="Trazado 81539" d="M242.376,329.813H162.707a.941.941,0,0,1-.94-.941h0a.941.941,0,0,1,.94-.941h79.668a.941.941,0,0,1,.941.941h0A.941.941,0,0,1,242.376,329.813Z" transform="translate(-161.767 -323.78)" fill="#6aa5fe"/>
          <path id="Trazado_81540" data-name="Trazado 81540" d="M242.376,334.813H162.707a.941.941,0,0,1-.94-.941h0a.941.941,0,0,1,.94-.941h79.668a.941.941,0,0,1,.941.941h0A.941.941,0,0,1,242.376,334.813Z" transform="translate(-161.767 -324.629)" fill="#6aa5fe"/>
          <path id="Trazado_81541" data-name="Trazado 81541" d="M242.376,339.813H162.707a.941.941,0,0,1-.94-.941h0a.94.94,0,0,1,.94-.94h79.668a.94.94,0,0,1,.941.94h0A.941.941,0,0,1,242.376,339.813Z" transform="translate(-161.767 -325.479)" fill="#6aa5fe"/>
        </g>
      </g>
    </g>
    <g id="Grupo_32979" data-name="Grupo 32979" transform="translate(199.62 168.302)">
      <rect id="Rectángulo_31579" data-name="Rectángulo 31579" width="3.786" height="4.666" transform="translate(75.215 170.621)" fill="#ff746f"/>
      <path id="Trazado_81542" data-name="Trazado 81542" d="M311.487,392.007l1.982.611,1.84-.611,1.651,3.786H301.649L307.4,393.9Z" transform="translate(-236.243 -217.776)" fill="#2a294f"/>
      <path id="Trazado_81543" data-name="Trazado 81543" d="M361.02,392.325h3.786l-1.409-4.666h-3.786Z" transform="translate(-246.093 -217.037)" fill="#ff746f"/>
      <path id="Trazado_81544" data-name="Trazado 81544" d="M364.344,392.007l-1.982.611-1.84-.611-1.651,3.786h15.311l-5.756-1.893Z" transform="translate(-245.967 -217.776)" fill="#2a294f"/>
      <path id="Trazado_81545" data-name="Trazado 81545" d="M301.488,196.386c-.513.392-5.173,3.144-5.173,3.144l-3.307-4.234.984-4.828,7.117.443,1.246,3.6C302.651,195.37,302.124,195.9,301.488,196.386Z" transform="translate(-234.775 -183.529)" fill="#fe9280"/>
      <path id="Trazado_81546" data-name="Trazado 81546" d="M301.454,190.923l1.074,3.158-3.283,1.322a3.012,3.012,0,0,1-4.189-3.128l.213-1.737Z" transform="translate(-235.119 -183.541)" fill="#e86767"/>
      <path id="Trazado_81547" data-name="Trazado 81547" d="M300.826,195.3l2.847.415,1.559-2.671a1.032,1.032,0,0,0-.323-1.424h0a1.031,1.031,0,0,0-1.424.322Z" transform="translate(-236.104 -183.697)" fill="#ff746f"/>
      <path id="Trazado_81548" data-name="Trazado 81548" d="M293.026,209.962l-5.868,1.483-2.1,16.991,6.869.28Z" transform="translate(-233.424 -186.841)" fill="#fff"/>
      <g id="Grupo_32978" data-name="Grupo 32978" transform="translate(0 2.681)">
        <path id="Trazado_81549" data-name="Trazado 81549" d="M389.071,222.377l-10.257-1.292,2.347-18.648,10.257,1.292a9.4,9.4,0,0,1,8.15,10.5h0A9.4,9.4,0,0,1,389.071,222.377Z" transform="translate(-249.356 -188.243)" fill="#fe9280"/>
        <path id="Trazado_81550" data-name="Trazado 81550" d="M389.606,220.1l-10.257-1.292-.535,4.247,10.257,1.292a9.394,9.394,0,0,0,10.519-10.3A9.4,9.4,0,0,1,389.606,220.1Z" transform="translate(-249.356 -190.216)" fill="#777470" opacity="0.2" style="mix-blend-mode: multiply;isolation: isolate"/>
        <path id="Trazado_81551" data-name="Trazado 81551" d="M355.03,218.023,246.209,203.985l2.348-18.648,108.821,14.037Z" transform="translate(-226.823 -185.338)" fill="#ffc957"/>
        <path id="Trazado_81552" data-name="Trazado 81552" d="M222.854,192.073l19.387,11.912,2.348-18.648Z" transform="translate(-222.854 -185.338)" fill="#fff4dd"/>
        <path id="Trazado_81553" data-name="Trazado 81553" d="M222.854,193.452l19.387,11.912.574-4.561Z" transform="translate(-222.854 -186.717)" fill="#777470" opacity="0.2" style="mix-blend-mode: multiply;isolation: isolate"/>
        <path id="Trazado_81554" data-name="Trazado 81554" d="M229.327,191.035l-6.473,2.006,5.774,3.548Z" transform="translate(-222.854 -186.306)" fill="#2a294f"/>
        <rect id="Rectángulo_31580" data-name="Rectángulo 31580" width="9.078" height="18.795" transform="translate(130.555 14.037) rotate(7.176)" fill="#d3eaf5"/>
        <rect id="Rectángulo_31581" data-name="Rectángulo 31581" width="3.104" height="20.404" transform="translate(136.584 13.985) rotate(7.175)" fill="#d3eaf5"/>
        <path id="Trazado_81555" data-name="Trazado 81555" d="M360.958,221.653,246.209,206.869l.574-4.561,114.749,14.784Z" transform="translate(-226.823 -188.221)" fill="#777470" opacity="0.2" style="mix-blend-mode: multiply;isolation: isolate"/>
        <path id="Trazado_81556" data-name="Trazado 81556" d="M363.095,204.682,248.346,189.9l.574-4.561,114.749,14.784Z" transform="translate(-227.186 -185.338)" fill="#777470" opacity="0.05" style="mix-blend-mode: multiply;isolation: isolate"/>
        <rect id="Rectángulo_31582" data-name="Rectángulo 31582" width="3.104" height="6.237" transform="translate(134.814 28.041) rotate(7.175)" fill="#777470" opacity="0.15" style="mix-blend-mode: multiply;isolation: isolate"/>
      </g>
      <path id="Trazado_81557" data-name="Trazado 81557" d="M342.3,279.536l1.531-3.979,5.18-.423a1.626,1.626,0,0,1,1.889,1.285h0a1.626,1.626,0,0,1-1.561,1.67Z" transform="translate(-243.151 -197.914)" fill="#e86767"/>
      <path id="Trazado_81558" data-name="Trazado 81558" d="M338.948,274.552l2.683,3.944,5.078-1.043L341.017,269l-1.095.727A3.481,3.481,0,0,0,338.948,274.552Z" transform="translate(-242.483 -196.873)" fill="#ff746f"/>
      <path id="Trazado_81559" data-name="Trazado 81559" d="M343.69,269.944l17.263-18.087-9.1-2.116-10.3,15.985Z" transform="translate(-243.026 -193.601)" fill="#fff"/>
      <path id="Trazado_81560" data-name="Trazado 81560" d="M356.815,250.2a3.944,3.944,0,1,0,1.91-5.24A3.944,3.944,0,0,0,356.815,250.2Z" transform="translate(-245.555 -192.726)" fill="#fff"/>
      <path id="Trazado_81561" data-name="Trazado 81561" d="M354.142,247.2l5.334-5.684-18.622-22.077a4.422,4.422,0,0,0-6.66-.534h0c-1.921,1.886-1.732,8.558.407,10.192Z" transform="translate(-241.548 -188.145)" fill="#fff"/>
      <rect id="Rectángulo_31583" data-name="Rectángulo 31583" width="7.665" height="12.15" transform="translate(89.748 33.576) rotate(-175.16)" fill="#ff746f"/>
      <path id="Trazado_81562" data-name="Trazado 81562" d="M288.1,229.117a3.438,3.438,0,1,0,3.659,3.2A3.438,3.438,0,0,0,288.1,229.117Z" transform="translate(-233.396 -190.095)" fill="#fff"/>
      <path id="Trazado_81563" data-name="Trazado 81563" d="M286.148,227.511l3.481,6.187,21.282-4.781c2.608-.665,4.023-7.007,3-9.5h0a4.423,4.423,0,0,0-6.338-2.119Z" transform="translate(-233.609 -187.984)" fill="#fff"/>
      <path id="Trazado_81564" data-name="Trazado 81564" d="M333.424,262.556l2.317-40.518a3.74,3.74,0,0,0-3.124-4.617l-18.984-.687a3.739,3.739,0,0,0-4.241,3.618L305.508,269.6Z" transform="translate(-236.899 -187.986)" fill="#fff"/>
      <path id="Trazado_81565" data-name="Trazado 81565" d="M315.267,271.944l4.376,13.63L317.7,370.109h-7.8l-4.389-91.119.6-7.045Z" transform="translate(-236.899 -197.374)" fill="#15579f"/>
      <path id="Trazado_81566" data-name="Trazado 81566" d="M317.265,271.944l4.27,16.738h3.074l27.507,81.426h6.391l-19.367-87.116-3.72-11.048Z" transform="translate(-238.897 -197.374)" fill="#15579f"/>
      <path id="Rectángulo_31584" data-name="Rectángulo 31584" d="M3.6,0h.179a0,0,0,0,1,0,0V7.275a0,0,0,0,1,0,0H3.6A3.6,3.6,0,0,1,0,3.671V3.6A3.6,3.6,0,0,1,3.6,0Z" transform="matrix(0.159, -0.987, 0.987, 0.159, 58.55, 9.961)" fill="#ff746f"/>
      <path id="Trazado_81567" data-name="Trazado 81567" d="M320.371,216.944l5.562.206-2.264,3.379v26.9l-3.261,6.868-3-8.277,4.18-25.716Z" transform="translate(-238.921 -188.028)" fill="#1a55b5"/>
      <path id="Trazado_81568" data-name="Trazado 81568" d="M334.745,193.65a9.369,9.369,0,0,0-2.024-5.022,8.97,8.97,0,0,0-4.115-2.779,5.469,5.469,0,0,0-2.325-.31,5.651,5.651,0,0,1-2.957-.208c-1.334-.59-2.291-1.745-3.5-2.494a4.313,4.313,0,0,0-.907-.421l0,0a4.465,4.465,0,0,0-4.135.477,4.412,4.412,0,0,0-1.4,1.623,5.527,5.527,0,0,0-.622,2.062,6.856,6.856,0,0,0,1.033,4.149,8.021,8.021,0,0,0,2.826,2.715,8.344,8.344,0,0,0-.1.907,9.146,9.146,0,0,0,17.25,4.665A9.608,9.608,0,0,0,334.745,193.65Zm-19.123-1.728a12.3,12.3,0,0,1-1.193-1.6,6.434,6.434,0,0,1-1.128-3.71,4.745,4.745,0,0,1,1.683-3.451,3.577,3.577,0,0,1,1.346-.661,2.971,2.971,0,0,0-.695.431,4.751,4.751,0,0,0-1.469,3.374,8.073,8.073,0,0,0,2.568,6.528c-.007.032-.011.065-.017.1A9.812,9.812,0,0,1,315.622,191.922Z" transform="translate(-238.129 -182.108)" fill="#1a55b5"/>
      <path id="Trazado_81569" data-name="Trazado 81569" d="M334.076,202.4a1.744,1.744,0,1,0,2.01-1.429A1.743,1.743,0,0,0,334.076,202.4Z" transform="translate(-241.75 -185.31)" fill="#ff746f"/>
      <path id="Trazado_81570" data-name="Trazado 81570" d="M323.753,190.981a6.194,6.194,0,0,0-5.618,3.344l-.225,1.2-.179,1.063c0,.049,0,.1,0,.147l-.021-.034-.5,2.967a7.686,7.686,0,0,0,5.991,8.9,7.51,7.51,0,0,0,8.774-6.133l.613-3.634v-.007S333.745,191.671,323.753,190.981Z" transform="translate(-238.869 -183.616)" fill="#ff746f"/>
      <path id="Trazado_81571" data-name="Trazado 81571" d="M325.209,202.446a10.666,10.666,0,0,0-3.761-.633,1.046,1.046,0,0,0-.439,1.147,1.8,1.8,0,0,0,.781,1.026,2.948,2.948,0,0,0,2.855.231,1.574,1.574,0,0,0,.817-.755A.836.836,0,0,0,325.209,202.446Z" transform="translate(-239.528 -185.449)" fill="#fff"/>
      <path id="Trazado_81572" data-name="Trazado 81572" d="M327.067,191.12a13.944,13.944,0,0,1,2.955.8,6.632,6.632,0,0,1,1.966,1.131c1.874,1.639.206,5.152-.44,6.983-.158.448-.342.98-.061,1.363a.985.985,0,0,0,1.375.01,4.658,4.658,0,0,0,.865-1.265,1.629,1.629,0,0,1,1.171-.906s-.3-8.309-.3-8.316c0-.061-5.223-.176-5.622-.189A6.153,6.153,0,0,0,327.067,191.12Z" transform="translate(-240.563 -183.573)" fill="#1a55b5"/>
    </g>
  </g>
</svg>
