<svg xmlns="http://www.w3.org/2000/svg" width="708.899" height="208.836" viewBox="0 0 708.899 208.836">
  <g id="Grupo_37532" data-name="Grupo 37532" transform="translate(-361.101 -9365.273)">
    <path id="Trazado_69759" data-name="Trazado 69759" d="M2842.882,394.865a3.31,3.31,0,1,0-3.31,3.31,3.314,3.314,0,0,0,3.31-3.31" transform="translate(-2265.941 9075.164)" fill="#d9a171"/>
    <g id="Grupo_27325" data-name="Grupo 27325" transform="translate(361.101 9366.137)">
      <path id="Trazado_69750" data-name="Trazado 69750" d="M3025.547,134.9a1.986,1.986,0,0,0-1.986,1.986v26.4a40.277,40.277,0,0,1-40.231,40.231H2864.576a40.277,40.277,0,0,1-40.231-40.231V136.908c0-.007,0-.014,0-.02V113.273a9.266,9.266,0,0,0,0-18.1V44.532a40.133,40.133,0,0,1,27.95-38.316l.009,0A40.078,40.078,0,0,1,2864.576,4.3H2983.33a40.08,40.08,0,0,1,12.42,1.961,1.986,1.986,0,0,0,1.229-3.777A44.039,44.039,0,0,0,2983.33.329H2864.576a44.049,44.049,0,0,0-13.478,2.1l-.008,0a44.28,44.28,0,0,0-30.717,42.1V95.171a9.266,9.266,0,0,0,0,18.1v23.594c0,.007,0,.014,0,.021v26.4a44.253,44.253,0,0,0,44.2,44.2H2983.33a44.253,44.253,0,0,0,44.2-44.2v-26.4a1.986,1.986,0,0,0-1.986-1.986m-208.484-30.68a5.3,5.3,0,1,1,5.3,5.3,5.3,5.3,0,0,1-5.3-5.3" transform="translate(-2813.091 -0.329)" fill="#15579f"/>
      <path id="Trazado_69751" data-name="Trazado 69751" d="M3632.573,310.869a2.383,2.383,0,0,0-2.383,2.383v.265a2.383,2.383,0,1,0,4.766,0v-.265a2.383,2.383,0,0,0-2.383-2.383" transform="translate(-3420.117 -231.031)" fill="#15579f"/>
      <path id="Trazado_69752" data-name="Trazado 69752" d="M3590.4,59.212a2.383,2.383,0,1,0,3.605-3.117l-.18-.207a2.383,2.383,0,1,0-3.593,3.131Z" transform="translate(-3389.998 -40.998)" fill="#15579f"/>
      <path id="Trazado_69753" data-name="Trazado 69753" d="M3634.956,224.682a2.383,2.383,0,1,0-4.766,0v.265a2.383,2.383,0,1,0,4.766,0Z" transform="translate(-3420.117 -165.232)" fill="#15579f"/>
      <path id="Trazado_69754" data-name="Trazado 69754" d="M3627.688,136.942a2.382,2.382,0,0,0,2.344,1.972,2.407,2.407,0,0,0,.415-.036,2.383,2.383,0,0,0,1.936-2.759l-.047-.268a2.383,2.383,0,1,0-4.692.838Z" transform="translate(-3418.197 -99.55)" fill="#15579f"/>
      <path id="Trazado_69755" data-name="Trazado 69755" d="M3645.581,375.664h-23.852a9.267,9.267,0,1,0,0,3.972h23.852a1.986,1.986,0,1,0,0-3.972m-32.9,7.282a5.3,5.3,0,1,1,5.3-5.3,5.3,5.3,0,0,1-5.3,5.3" transform="translate(-3400.222 -273.758)" fill="#15579f"/>
      <path id="Trazado_69756" data-name="Trazado 69756" d="M3048.364,60.763H2929.61a29.011,29.011,0,0,0-28.978,28.978V208.5a29.011,29.011,0,0,0,28.978,28.978h118.754a29.011,29.011,0,0,0,28.978-28.978V89.741a29.011,29.011,0,0,0-28.978-28.978" transform="translate(-2878.126 -45.226)" fill="#777" opacity="0.14"/>
    </g>
    <path id="Trazado_69757" data-name="Trazado 69757" d="M2842.882,394.865a3.31,3.31,0,1,0-3.31,3.31,3.314,3.314,0,0,0,3.31-3.31" transform="translate(-2469.941 9075.164)" fill="#15579f"/>
    <path id="Trazado_100907" data-name="Trazado 100907" d="M6.555,5.781a3.013,3.013,0,0,0,1.73-.437,1.781,1.781,0,0,0,.637-1.578,1.693,1.693,0,0,0-.891-1.672,2.911,2.911,0,0,0-1.273-.234h-3.8V5.781ZM1.406.523H6.719A5.3,5.3,0,0,1,8.883.906,2.71,2.71,0,0,1,10.5,3.617,3.049,3.049,0,0,1,10.074,5.3,3.077,3.077,0,0,1,8.883,6.359a2.348,2.348,0,0,1,1.012.719,2.581,2.581,0,0,1,.379,1.445l.055,1.539a4.731,4.731,0,0,0,.109.977.96.96,0,0,0,.5.7V12H9.031a1.434,1.434,0,0,1-.125-.383,7.348,7.348,0,0,1-.078-.906L8.734,8.8A1.608,1.608,0,0,0,7.9,7.289a3.458,3.458,0,0,0-1.4-.211H2.961V12H1.406ZM16.07,3.445a3.817,3.817,0,0,1,1.727.418A3.184,3.184,0,0,1,19.07,4.945a3.733,3.733,0,0,1,.563,1.477,9.661,9.661,0,0,1,.125,1.844H13.625a3.579,3.579,0,0,0,.6,2.043,2.014,2.014,0,0,0,1.742.77,2.252,2.252,0,0,0,1.758-.727,2.449,2.449,0,0,0,.531-.977h1.383a2.912,2.912,0,0,1-.363,1.027,3.654,3.654,0,0,1-.691.926A3.277,3.277,0,0,1,17,12.172a4.818,4.818,0,0,1-1.148.125A3.524,3.524,0,0,1,13.2,11.16a4.423,4.423,0,0,1-1.086-3.184A4.809,4.809,0,0,1,13.211,4.7,3.608,3.608,0,0,1,16.07,3.445Zm2.242,3.7a3.643,3.643,0,0,0-.4-1.461,2.042,2.042,0,0,0-1.93-1.016,2.139,2.139,0,0,0-1.625.7,2.641,2.641,0,0,0-.7,1.777Zm6.125-3.664a3.05,3.05,0,0,1,1.719.484,3.86,3.86,0,0,1,.813.8V3.711h1.3V11.32a5.611,5.611,0,0,1-.469,2.516,3.366,3.366,0,0,1-3.3,1.7,4.054,4.054,0,0,1-2.273-.605,2.361,2.361,0,0,1-1.031-1.895h1.43a1.591,1.591,0,0,0,.406.867,2.071,2.071,0,0,0,1.5.469,2.064,2.064,0,0,0,2.117-1.141,6.424,6.424,0,0,0,.273-2.4,2.759,2.759,0,0,1-1.016.953,3.642,3.642,0,0,1-3.949-.652,4.243,4.243,0,0,1-1.02-3.191,4.833,4.833,0,0,1,1.027-3.281A3.177,3.177,0,0,1,24.438,3.484Zm2.531,4.3a3.488,3.488,0,0,0-.641-2.3,2.052,2.052,0,0,0-1.633-.75,2.016,2.016,0,0,0-2.031,1.391,5.453,5.453,0,0,0-.289,1.945,3.453,3.453,0,0,0,.574,2.152,1.854,1.854,0,0,0,1.543.738,2.166,2.166,0,0,0,2.133-1.367A4.41,4.41,0,0,0,26.969,7.781Zm3.414-4.109h1.43V12h-1.43Zm0-3.148h1.43V2.117h-1.43Zm4.391,8.852a2.045,2.045,0,0,0,.352,1.078,2.209,2.209,0,0,0,1.844.68,2.719,2.719,0,0,0,1.375-.34,1.129,1.129,0,0,0,.594-1.051.9.9,0,0,0-.477-.82,5.666,5.666,0,0,0-1.2-.4l-1.117-.281a5.45,5.45,0,0,1-1.578-.594,1.775,1.775,0,0,1-.906-1.578,2.411,2.411,0,0,1,.855-1.922,3.413,3.413,0,0,1,2.3-.734,3.194,3.194,0,0,1,2.727,1.109,2.407,2.407,0,0,1,.508,1.516H38.719a1.627,1.627,0,0,0-.336-.867,2.143,2.143,0,0,0-1.68-.555,2.008,2.008,0,0,0-1.207.3.955.955,0,0,0-.41.8.991.991,0,0,0,.539.875,3.239,3.239,0,0,0,.922.344l.93.227a7.188,7.188,0,0,1,2.031.711,1.882,1.882,0,0,1,.82,1.7,2.584,2.584,0,0,1-.848,1.93,3.608,3.608,0,0,1-2.582.813,3.464,3.464,0,0,1-2.645-.848,3.206,3.206,0,0,1-.832-2.1ZM42.219,1.3h1.422V3.633h1.336V4.781H43.641v5.461a.591.591,0,0,0,.3.586,1.262,1.262,0,0,0,.547.086q.1,0,.219,0t.273-.02V12a3.139,3.139,0,0,1-.5.1,4.791,4.791,0,0,1-.566.031,1.527,1.527,0,0,1-1.336-.5,2.239,2.239,0,0,1-.352-1.309V4.781H41.086V3.633h1.133Zm4.2,2.336h1.336V5.078a3.193,3.193,0,0,1,.8-1.027,2.086,2.086,0,0,1,1.477-.605q.039,0,.133.008l.32.031V4.969a2.1,2.1,0,0,0-.23-.031q-.105-.008-.23-.008a2.007,2.007,0,0,0-1.633.684,2.386,2.386,0,0,0-.57,1.574V12H46.422Zm8.609,7.461a1.939,1.939,0,0,0,1.918-1.059,5.274,5.274,0,0,0,.52-2.355,4.194,4.194,0,0,0-.375-1.906,2.11,2.11,0,0,0-2.047-1.156,2.018,2.018,0,0,0-1.875.984,4.563,4.563,0,0,0-.586,2.375,3.969,3.969,0,0,0,.586,2.227A2.064,2.064,0,0,0,55.031,11.094Zm.055-7.7A3.789,3.789,0,0,1,57.82,4.469a4.21,4.21,0,0,1,1.117,3.172,5.442,5.442,0,0,1-.984,3.344A3.561,3.561,0,0,1,54.9,12.3a3.449,3.449,0,0,1-2.742-1.168A4.613,4.613,0,0,1,51.141,8a4.991,4.991,0,0,1,1.07-3.359A3.592,3.592,0,0,1,55.086,3.391Zm6.359,5.984a2.045,2.045,0,0,0,.352,1.078,2.209,2.209,0,0,0,1.844.68,2.719,2.719,0,0,0,1.375-.34,1.129,1.129,0,0,0,.594-1.051.9.9,0,0,0-.477-.82,5.666,5.666,0,0,0-1.2-.4l-1.117-.281a5.45,5.45,0,0,1-1.578-.594,1.775,1.775,0,0,1-.906-1.578,2.411,2.411,0,0,1,.855-1.922,3.413,3.413,0,0,1,2.3-.734,3.194,3.194,0,0,1,2.727,1.109,2.407,2.407,0,0,1,.508,1.516H65.391a1.627,1.627,0,0,0-.336-.867,2.143,2.143,0,0,0-1.68-.555,2.008,2.008,0,0,0-1.207.3.955.955,0,0,0-.41.8A.991.991,0,0,0,62.3,6.6a3.239,3.239,0,0,0,.922.344l.93.227a7.188,7.188,0,0,1,2.031.711,1.882,1.882,0,0,1,.82,1.7,2.584,2.584,0,0,1-.848,1.93,3.608,3.608,0,0,1-2.582.813,3.464,3.464,0,0,1-2.645-.848,3.206,3.206,0,0,1-.832-2.1Zm12.5-1.461a4.147,4.147,0,0,0,.57,2.25,2,2,0,0,0,1.828.906,1.925,1.925,0,0,0,1.605-.84,3.966,3.966,0,0,0,.629-2.41,3.564,3.564,0,0,0-.648-2.348,2.023,2.023,0,0,0-1.6-.762,2.114,2.114,0,0,0-1.723.813A3.721,3.721,0,0,0,73.945,7.914Zm2.117-4.43a2.977,2.977,0,0,1,1.609.406,3.78,3.78,0,0,1,.852.82V.484h1.352V12H78.609V10.836a3.043,3.043,0,0,1-1.164,1.117,3.332,3.332,0,0,1-1.539.344,3.117,3.117,0,0,1-2.422-1.176,4.6,4.6,0,0,1-1.023-3.129,5.4,5.4,0,0,1,.934-3.168A3.057,3.057,0,0,1,76.063,3.484Zm9.375-.039a3.817,3.817,0,0,1,1.727.418,3.184,3.184,0,0,1,1.273,1.082A3.733,3.733,0,0,1,89,6.422a9.66,9.66,0,0,1,.125,1.844H82.992a3.579,3.579,0,0,0,.6,2.043,2.014,2.014,0,0,0,1.742.77,2.252,2.252,0,0,0,1.758-.727,2.449,2.449,0,0,0,.531-.977h1.383a2.912,2.912,0,0,1-.363,1.027,3.654,3.654,0,0,1-.691.926,3.277,3.277,0,0,1-1.586.844,4.818,4.818,0,0,1-1.148.125A3.524,3.524,0,0,1,82.57,11.16a4.423,4.423,0,0,1-1.086-3.184A4.809,4.809,0,0,1,82.578,4.7,3.608,3.608,0,0,1,85.438,3.445Zm2.242,3.7a3.643,3.643,0,0,0-.4-1.461,2.042,2.042,0,0,0-1.93-1.016,2.139,2.139,0,0,0-1.625.7,2.641,2.641,0,0,0-.7,1.777ZM1.031,22.633H2.422V23.82a4.674,4.674,0,0,1,.906-.9,2.726,2.726,0,0,1,1.578-.477,2.484,2.484,0,0,1,1.609.492,2.573,2.573,0,0,1,.625.828,3.039,3.039,0,0,1,1.1-1,3.073,3.073,0,0,1,1.422-.324,2.325,2.325,0,0,1,2.3,1.219,3.984,3.984,0,0,1,.328,1.766V31H10.828V25.188a1.354,1.354,0,0,0-.418-1.148,1.654,1.654,0,0,0-1.02-.312,2.024,2.024,0,0,0-1.426.555,2.436,2.436,0,0,0-.6,1.852V31H5.938V25.539a2.837,2.837,0,0,0-.2-1.242,1.239,1.239,0,0,0-1.2-.586,2.062,2.062,0,0,0-1.449.617,3.025,3.025,0,0,0-.652,2.234V31H1.031Zm16.813-.187a3.817,3.817,0,0,1,1.727.418,3.184,3.184,0,0,1,1.273,1.082,3.733,3.733,0,0,1,.563,1.477,9.661,9.661,0,0,1,.125,1.844H15.4a3.579,3.579,0,0,0,.6,2.043,2.014,2.014,0,0,0,1.742.77,2.252,2.252,0,0,0,1.758-.727,2.449,2.449,0,0,0,.531-.977h1.383a2.912,2.912,0,0,1-.363,1.027,3.654,3.654,0,0,1-.691.926,3.277,3.277,0,0,1-1.586.844,4.818,4.818,0,0,1-1.148.125,3.524,3.524,0,0,1-2.648-1.137,4.423,4.423,0,0,1-1.086-3.184A4.809,4.809,0,0,1,14.984,23.7,3.608,3.608,0,0,1,17.844,22.445Zm2.242,3.7a3.643,3.643,0,0,0-.4-1.461,2.042,2.042,0,0,0-1.93-1.016,2.139,2.139,0,0,0-1.625.7,2.641,2.641,0,0,0-.7,1.777Zm4.063.766a4.148,4.148,0,0,0,.57,2.25,2,2,0,0,0,1.828.906,1.925,1.925,0,0,0,1.605-.84,3.966,3.966,0,0,0,.629-2.41,3.564,3.564,0,0,0-.648-2.348,2.023,2.023,0,0,0-1.6-.762,2.114,2.114,0,0,0-1.723.813A3.721,3.721,0,0,0,24.148,26.914Zm2.117-4.43a2.977,2.977,0,0,1,1.609.406,3.78,3.78,0,0,1,.852.82V19.484h1.352V31H28.813V29.836a3.043,3.043,0,0,1-1.164,1.117,3.332,3.332,0,0,1-1.539.344,3.117,3.117,0,0,1-2.422-1.176,4.6,4.6,0,0,1-1.023-3.129,5.4,5.4,0,0,1,.934-3.168A3.057,3.057,0,0,1,26.266,22.484Zm5.891.188h1.43V31h-1.43Zm0-3.148h1.43v1.594h-1.43Zm6.781,2.867a3.648,3.648,0,0,1,2.3.688A3.294,3.294,0,0,1,42.3,25.445H40.938a2.524,2.524,0,0,0-.57-1.285,1.8,1.8,0,0,0-1.43-.512,1.975,1.975,0,0,0-1.922,1.313,5.214,5.214,0,0,0-.375,2.1,3.955,3.955,0,0,0,.531,2.117,2.06,2.06,0,0,0,3.059.324,2.943,2.943,0,0,0,.707-1.465H42.3a3.306,3.306,0,0,1-3.57,3.2,3.2,3.2,0,0,1-2.617-1.2,4.59,4.59,0,0,1-.977-3,5.048,5.048,0,0,1,1.07-3.43A3.459,3.459,0,0,1,38.938,22.391Zm4.773.281h1.43V31h-1.43Zm0-3.148h1.43v1.594h-1.43Zm6.875,10.57A1.939,1.939,0,0,0,52.5,29.035a5.274,5.274,0,0,0,.52-2.355,4.194,4.194,0,0,0-.375-1.906A2.11,2.11,0,0,0,50.6,23.617a2.018,2.018,0,0,0-1.875.984,4.563,4.563,0,0,0-.586,2.375,3.969,3.969,0,0,0,.586,2.227A2.064,2.064,0,0,0,50.586,30.094Zm.055-7.7a3.789,3.789,0,0,1,2.734,1.078,4.21,4.21,0,0,1,1.117,3.172,5.442,5.442,0,0,1-.984,3.344,3.561,3.561,0,0,1-3.055,1.32,3.449,3.449,0,0,1-2.742-1.168A4.613,4.613,0,0,1,46.7,27a4.991,4.991,0,0,1,1.07-3.359A3.592,3.592,0,0,1,50.641,22.391Zm5.523.242H57.5V23.82a3.747,3.747,0,0,1,1.258-1.055,3.354,3.354,0,0,1,1.477-.32,2.435,2.435,0,0,1,2.406,1.242,4.411,4.411,0,0,1,.344,1.945V31h-1.43V25.727a2.856,2.856,0,0,0-.227-1.234,1.374,1.374,0,0,0-1.359-.781,2.768,2.768,0,0,0-.82.1,2.113,2.113,0,0,0-1.016.688,2.07,2.07,0,0,0-.457.855,5.758,5.758,0,0,0-.105,1.262V31H56.164Zm12.383-.187a3.817,3.817,0,0,1,1.727.418,3.184,3.184,0,0,1,1.273,1.082,3.733,3.733,0,0,1,.563,1.477,9.66,9.66,0,0,1,.125,1.844H66.1a3.579,3.579,0,0,0,.6,2.043,2.014,2.014,0,0,0,1.742.77,2.252,2.252,0,0,0,1.758-.727,2.449,2.449,0,0,0,.531-.977h1.383a2.912,2.912,0,0,1-.363,1.027,3.654,3.654,0,0,1-.691.926,3.277,3.277,0,0,1-1.586.844,4.818,4.818,0,0,1-1.148.125A3.524,3.524,0,0,1,65.68,30.16a4.423,4.423,0,0,1-1.086-3.184A4.809,4.809,0,0,1,65.688,23.7,3.608,3.608,0,0,1,68.547,22.445Zm2.242,3.7a3.643,3.643,0,0,0-.4-1.461,2.042,2.042,0,0,0-1.93-1.016,2.139,2.139,0,0,0-1.625.7,2.641,2.641,0,0,0-.7,1.777ZM74.8,28.375a2.045,2.045,0,0,0,.352,1.078,2.209,2.209,0,0,0,1.844.68,2.719,2.719,0,0,0,1.375-.34,1.129,1.129,0,0,0,.594-1.051.9.9,0,0,0-.477-.82,5.666,5.666,0,0,0-1.2-.4l-1.117-.281a5.45,5.45,0,0,1-1.578-.594,1.775,1.775,0,0,1-.906-1.578,2.411,2.411,0,0,1,.855-1.922,3.413,3.413,0,0,1,2.3-.734,3.194,3.194,0,0,1,2.727,1.109,2.407,2.407,0,0,1,.508,1.516H78.742a1.627,1.627,0,0,0-.336-.867,2.143,2.143,0,0,0-1.68-.555,2.008,2.008,0,0,0-1.207.3.955.955,0,0,0-.41.8.991.991,0,0,0,.539.875,3.239,3.239,0,0,0,.922.344l.93.227a7.188,7.188,0,0,1,2.031.711,1.882,1.882,0,0,1,.82,1.7,2.584,2.584,0,0,1-.848,1.93,3.608,3.608,0,0,1-2.582.813,3.464,3.464,0,0,1-2.645-.848,3.206,3.206,0,0,1-.832-2.1Zm16.836-5.742h1.555q-.3.8-1.32,3.672-.766,2.156-1.281,3.516a23.768,23.768,0,0,1-1.719,3.906,1.965,1.965,0,0,1-1.719.7,3.372,3.372,0,0,1-.457-.023,3.61,3.61,0,0,1-.395-.086V33.039a4.851,4.851,0,0,0,.531.125,2.074,2.074,0,0,0,.289.023,1.012,1.012,0,0,0,.574-.129A1.189,1.189,0,0,0,88,32.742q.039-.063.281-.641t.352-.859l-3.094-8.609h1.594l2.242,6.813ZM4.258,41.391a3.648,3.648,0,0,1,2.3.688,3.294,3.294,0,0,1,1.066,2.367H6.258a2.524,2.524,0,0,0-.57-1.285,1.8,1.8,0,0,0-1.43-.512,1.975,1.975,0,0,0-1.922,1.313,5.214,5.214,0,0,0-.375,2.1,3.955,3.955,0,0,0,.531,2.117,1.822,1.822,0,0,0,1.672.859A1.828,1.828,0,0,0,5.551,48.5a2.943,2.943,0,0,0,.707-1.465H7.625a3.67,3.67,0,0,1-1.172,2.434,3.656,3.656,0,0,1-2.4.77,3.2,3.2,0,0,1-2.617-1.2,4.59,4.59,0,0,1-.977-3,5.048,5.048,0,0,1,1.07-3.43A3.459,3.459,0,0,1,4.258,41.391Zm8.094,7.7a1.939,1.939,0,0,0,1.918-1.059,5.274,5.274,0,0,0,.52-2.355,4.194,4.194,0,0,0-.375-1.906,2.11,2.11,0,0,0-2.047-1.156,2.018,2.018,0,0,0-1.875.984,4.563,4.563,0,0,0-.586,2.375,3.969,3.969,0,0,0,.586,2.227A2.064,2.064,0,0,0,12.352,49.094Zm.055-7.7a3.789,3.789,0,0,1,2.734,1.078,4.21,4.21,0,0,1,1.117,3.172,5.442,5.442,0,0,1-.984,3.344,3.561,3.561,0,0,1-3.055,1.32,3.449,3.449,0,0,1-2.742-1.168A4.613,4.613,0,0,1,8.461,46a4.991,4.991,0,0,1,1.07-3.359A3.592,3.592,0,0,1,12.406,41.391Zm5.523.242h1.336V42.82a3.747,3.747,0,0,1,1.258-1.055A3.354,3.354,0,0,1,22,41.445a2.435,2.435,0,0,1,2.406,1.242,4.411,4.411,0,0,1,.344,1.945V50H23.32V44.727a2.856,2.856,0,0,0-.227-1.234,1.374,1.374,0,0,0-1.359-.781,2.768,2.768,0,0,0-.82.1A2.113,2.113,0,0,0,19.9,43.5a2.07,2.07,0,0,0-.457.855,5.758,5.758,0,0,0-.105,1.262V50H17.93Zm9.18-2.336h1.422v2.336h1.336v1.148H28.531v5.461a.591.591,0,0,0,.3.586,1.262,1.262,0,0,0,.547.086q.1,0,.219,0t.273-.02V50a3.139,3.139,0,0,1-.5.1,4.791,4.791,0,0,1-.566.031,1.527,1.527,0,0,1-1.336-.5,2.239,2.239,0,0,1-.352-1.309V42.781H25.977V41.633h1.133Zm4.2,2.336h1.336v1.445a3.193,3.193,0,0,1,.8-1.027,2.086,2.086,0,0,1,1.477-.605q.039,0,.133.008l.32.031v1.484a2.1,2.1,0,0,0-.23-.031q-.105-.008-.23-.008a2.007,2.007,0,0,0-1.633.684,2.386,2.386,0,0,0-.57,1.574V50H31.313Zm8.609,7.461a1.939,1.939,0,0,0,1.918-1.059,5.274,5.274,0,0,0,.52-2.355,4.194,4.194,0,0,0-.375-1.906,2.11,2.11,0,0,0-2.047-1.156,2.018,2.018,0,0,0-1.875.984,4.563,4.563,0,0,0-.586,2.375,3.969,3.969,0,0,0,.586,2.227A2.064,2.064,0,0,0,39.922,49.094Zm.055-7.7a3.789,3.789,0,0,1,2.734,1.078,4.21,4.21,0,0,1,1.117,3.172,5.442,5.442,0,0,1-.984,3.344,3.561,3.561,0,0,1-3.055,1.32,3.449,3.449,0,0,1-2.742-1.168A4.613,4.613,0,0,1,36.031,46a4.991,4.991,0,0,1,1.07-3.359A3.592,3.592,0,0,1,39.977,41.391Zm5.563-2.867h1.406V50H45.539Zm7,2.922a3.817,3.817,0,0,1,1.727.418,3.184,3.184,0,0,1,1.273,1.082,3.733,3.733,0,0,1,.563,1.477,9.661,9.661,0,0,1,.125,1.844H50.094a3.579,3.579,0,0,0,.6,2.043,2.014,2.014,0,0,0,1.742.77,2.252,2.252,0,0,0,1.758-.727,2.449,2.449,0,0,0,.531-.977h1.383a2.912,2.912,0,0,1-.363,1.027,3.654,3.654,0,0,1-.691.926,3.277,3.277,0,0,1-1.586.844,4.818,4.818,0,0,1-1.148.125,3.524,3.524,0,0,1-2.648-1.137,4.423,4.423,0,0,1-1.086-3.184A4.809,4.809,0,0,1,49.68,42.7,3.608,3.608,0,0,1,52.539,41.445Zm2.242,3.7a3.643,3.643,0,0,0-.4-1.461,2.042,2.042,0,0,0-1.93-1.016,2.139,2.139,0,0,0-1.625.7,2.641,2.641,0,0,0-.7,1.777Zm4.008,2.227a2.045,2.045,0,0,0,.352,1.078,2.209,2.209,0,0,0,1.844.68,2.719,2.719,0,0,0,1.375-.34,1.129,1.129,0,0,0,.594-1.051.9.9,0,0,0-.477-.82,5.666,5.666,0,0,0-1.2-.4l-1.117-.281a5.45,5.45,0,0,1-1.578-.594,1.775,1.775,0,0,1-.906-1.578,2.411,2.411,0,0,1,.855-1.922,3.413,3.413,0,0,1,2.3-.734,3.194,3.194,0,0,1,2.727,1.109,2.408,2.408,0,0,1,.508,1.516H62.734a1.627,1.627,0,0,0-.336-.867,2.143,2.143,0,0,0-1.68-.555,2.008,2.008,0,0,0-1.207.3.955.955,0,0,0-.41.8.991.991,0,0,0,.539.875,3.239,3.239,0,0,0,.922.344l.93.227a7.188,7.188,0,0,1,2.031.711,1.882,1.882,0,0,1,.82,1.7,2.584,2.584,0,0,1-.848,1.93,3.608,3.608,0,0,1-2.582.813,3.464,3.464,0,0,1-2.645-.848,3.206,3.206,0,0,1-.832-2.1Zm7.5.922h1.633V50H66.289Z" transform="translate(425.065 9438)" fill="#00223d"/>
    <g id="Grupo_27327" data-name="Grupo 27327" transform="translate(855.065 9366.448)">
      <path id="Trazado_69740" data-name="Trazado 69740" d="M4332.388,790.32h-.265a2.383,2.383,0,1,0,0,4.766h.265a2.383,2.383,0,0,0,0-4.766" transform="translate(-4183.188 -587.529)" fill="#ffc74a"/>
      <path id="Trazado_69741" data-name="Trazado 69741" d="M4243.817,790.32h-.267a2.383,2.383,0,0,0,0,4.766h.267a2.383,2.383,0,0,0,0-4.766" transform="translate(-4117.388 -587.529)" fill="#ffc74a"/>
      <path id="Trazado_69742" data-name="Trazado 69742" d="M4579.567,612.005a2.382,2.382,0,0,0-2.383,2.383v.265a2.383,2.383,0,0,0,4.766,0v-.265a2.383,2.383,0,0,0-2.383-2.383" transform="translate(-4367.015 -455.057)" fill="#ffc74a"/>
      <path id="Trazado_69743" data-name="Trazado 69743" d="M4563.671,698.27a2.382,2.382,0,0,0-3.187,1.095l-.108.218a2.383,2.383,0,1,0,4.263,2.132l.127-.258a2.382,2.382,0,0,0-1.095-3.187" transform="translate(-4354.34 -518.964)" fill="#ffc74a"/>
      <path id="Trazado_69744" data-name="Trazado 69744" d="M4420.866,790.2l-.251.009a2.383,2.383,0,0,0,.077,4.765h.077l.278-.01a2.383,2.383,0,0,0-.182-4.762" transform="translate(-4248.986 -587.436)" fill="#ffc74a"/>
      <path id="Trazado_69745" data-name="Trazado 69745" d="M4503.1,764l-.208.135a2.383,2.383,0,1,0,2.579,4.008l.234-.152a2.383,2.383,0,0,0-2.6-3.991" transform="translate(-4311.01 -567.685)" fill="#ffc74a"/>
      <path id="Trazado_69746" data-name="Trazado 69746" d="M3970.279,138.1a1.986,1.986,0,1,0,3.972,0V45.748a44.188,44.188,0,0,0-44.2-44.2H3811.293a44.048,44.048,0,0,0-13.47,2.1l-.015,0a44.279,44.279,0,0,0-30.717,42.1v50.3a9.268,9.268,0,0,0,0,18.147v23.885c0,.007,0,.014,0,.021v26.4a44.253,44.253,0,0,0,44.2,44.2h59.378a1.986,1.986,0,0,0,0-3.972h-59.378a40.277,40.277,0,0,1-40.231-40.231V138.124c0-.007,0-.014,0-.021v-23.95a9.265,9.265,0,0,0,0-18.057V45.748a40.133,40.133,0,0,1,27.944-38.314l.014,0a40.082,40.082,0,0,1,12.272-1.914h118.755a40.216,40.216,0,0,1,40.231,40.231Zm-196-32.979a5.3,5.3,0,1,1-5.3-5.3,5.3,5.3,0,0,1,5.3,5.3" transform="translate(-3759.713 -1.545)" fill="#ffc74a"/>
      <path id="Trazado_69748" data-name="Trazado 69748" d="M3994.987,60.763H3876.233a29.011,29.011,0,0,0-28.978,28.978V208.5a29.01,29.01,0,0,0,28.978,28.978h118.754a29.011,29.011,0,0,0,28.978-28.978V89.741a29.011,29.011,0,0,0-28.978-28.978" transform="translate(-3824.748 -45.538)" fill="#777" opacity="0.14"/>
    </g>
    <path id="Trazado_69758" data-name="Trazado 69758" d="M3782.886,394.865a3.31,3.31,0,1,0,3.31-3.31,3.313,3.313,0,0,0-3.31,3.31" transform="translate(-2921.763 9075.164)" fill="#ffc74a"/>
    <path id="Trazado_100909" data-name="Trazado 100909" d="M1.18.523H3.406l3.3,9.7L9.977.523h2.2V12H10.7V5.227q0-.352.016-1.164t.016-1.742L7.461,12H5.922l-3.3-9.68v.352q0,.422.02,1.285t.02,1.27V12H1.18ZM17.844,3.445a3.817,3.817,0,0,1,1.727.418,3.184,3.184,0,0,1,1.273,1.082,3.733,3.733,0,0,1,.563,1.477,9.661,9.661,0,0,1,.125,1.844H15.4a3.579,3.579,0,0,0,.6,2.043,2.014,2.014,0,0,0,1.742.77,2.252,2.252,0,0,0,1.758-.727,2.449,2.449,0,0,0,.531-.977h1.383a2.912,2.912,0,0,1-.363,1.027,3.654,3.654,0,0,1-.691.926,3.277,3.277,0,0,1-1.586.844,4.818,4.818,0,0,1-1.148.125,3.524,3.524,0,0,1-2.648-1.137,4.423,4.423,0,0,1-1.086-3.184A4.809,4.809,0,0,1,14.984,4.7,3.608,3.608,0,0,1,17.844,3.445Zm2.242,3.7a3.643,3.643,0,0,0-.4-1.461,2.042,2.042,0,0,0-1.93-1.016,2.139,2.139,0,0,0-1.625.7,2.641,2.641,0,0,0-.7,1.777Zm4.578-5H23.258V.523h1.406ZM21.93,14.117a2.8,2.8,0,0,0,1.137-.168q.191-.137.191-.855V3.672h1.406v9.57a2.525,2.525,0,0,1-.3,1.367,2.053,2.053,0,0,1-1.867.766q-.1,0-.215-.008t-.355-.031Zm8.2-3.023a1.939,1.939,0,0,0,1.918-1.059,5.274,5.274,0,0,0,.52-2.355A4.194,4.194,0,0,0,32.2,5.773a2.11,2.11,0,0,0-2.047-1.156,2.018,2.018,0,0,0-1.875.984,4.563,4.563,0,0,0-.586,2.375,3.969,3.969,0,0,0,.586,2.227A2.064,2.064,0,0,0,30.133,11.094Zm.055-7.7a3.789,3.789,0,0,1,2.734,1.078,4.21,4.21,0,0,1,1.117,3.172,5.442,5.442,0,0,1-.984,3.344A3.561,3.561,0,0,1,30,12.3a3.449,3.449,0,0,1-2.742-1.168A4.613,4.613,0,0,1,26.242,8a4.991,4.991,0,0,1,1.07-3.359A3.592,3.592,0,0,1,30.188,3.391Zm5.563.242h1.336V5.078a3.193,3.193,0,0,1,.8-1.027,2.086,2.086,0,0,1,1.477-.605q.039,0,.133.008l.32.031V4.969a2.1,2.1,0,0,0-.23-.031q-.105-.008-.23-.008a2.007,2.007,0,0,0-1.633.684,2.386,2.386,0,0,0-.57,1.574V12H35.75Zm6.367,6.141a1.158,1.158,0,0,0,.445.961,1.651,1.651,0,0,0,1.055.352,3.207,3.207,0,0,0,1.438-.344,1.935,1.935,0,0,0,1.172-1.867V7.742a2.406,2.406,0,0,1-.664.273,5.659,5.659,0,0,1-.8.156l-.852.109a3.257,3.257,0,0,0-1.148.32A1.248,1.248,0,0,0,42.117,9.773ZM45.523,6.93a.764.764,0,0,0,.648-.406,1.236,1.236,0,0,0,.094-.539,1.142,1.142,0,0,0-.512-1.043,2.745,2.745,0,0,0-1.465-.324,1.861,1.861,0,0,0-1.562.594,1.953,1.953,0,0,0-.336.977H41.078a2.416,2.416,0,0,1,1-2.152A4.122,4.122,0,0,1,44.32,3.43a4.554,4.554,0,0,1,2.4.563,1.908,1.908,0,0,1,.914,1.75v4.82a.617.617,0,0,0,.09.352.433.433,0,0,0,.379.133q.094,0,.211-.012t.25-.035v1.039a3.917,3.917,0,0,1-.5.117,3.654,3.654,0,0,1-.469.023,1.157,1.157,0,0,1-1.055-.516,1.99,1.99,0,0,1-.242-.773,3.578,3.578,0,0,1-1.234.977,3.818,3.818,0,0,1-1.773.414,2.637,2.637,0,0,1-1.9-.707,2.349,2.349,0,0,1-.738-1.77A2.279,2.279,0,0,1,41.375,8a3.457,3.457,0,0,1,1.906-.789ZM57.609,3.391a3.648,3.648,0,0,1,2.3.688,3.294,3.294,0,0,1,1.066,2.367H59.609a2.524,2.524,0,0,0-.57-1.285,1.8,1.8,0,0,0-1.43-.512,1.975,1.975,0,0,0-1.922,1.313,5.214,5.214,0,0,0-.375,2.1,3.955,3.955,0,0,0,.531,2.117A2.06,2.06,0,0,0,58.9,10.5a2.943,2.943,0,0,0,.707-1.465h1.367A3.67,3.67,0,0,1,59.8,11.473a3.656,3.656,0,0,1-2.4.77,3.2,3.2,0,0,1-2.617-1.2,4.59,4.59,0,0,1-.977-3,5.048,5.048,0,0,1,1.07-3.43A3.459,3.459,0,0,1,57.609,3.391Zm8.094,7.7a1.939,1.939,0,0,0,1.918-1.059,5.274,5.274,0,0,0,.52-2.355,4.194,4.194,0,0,0-.375-1.906,2.11,2.11,0,0,0-2.047-1.156,2.018,2.018,0,0,0-1.875.984,4.563,4.563,0,0,0-.586,2.375,3.969,3.969,0,0,0,.586,2.227A2.064,2.064,0,0,0,65.7,11.094Zm.055-7.7a3.789,3.789,0,0,1,2.734,1.078,4.21,4.21,0,0,1,1.117,3.172,5.442,5.442,0,0,1-.984,3.344A3.561,3.561,0,0,1,65.57,12.3a3.449,3.449,0,0,1-2.742-1.168A4.613,4.613,0,0,1,61.813,8a4.991,4.991,0,0,1,1.07-3.359A3.592,3.592,0,0,1,65.758,3.391Zm5.523.242h1.336V4.82a3.747,3.747,0,0,1,1.258-1.055,3.354,3.354,0,0,1,1.477-.32,2.435,2.435,0,0,1,2.406,1.242A4.411,4.411,0,0,1,78.1,6.633V12h-1.43V6.727a2.856,2.856,0,0,0-.227-1.234,1.374,1.374,0,0,0-1.359-.781,2.768,2.768,0,0,0-.82.1A2.113,2.113,0,0,0,73.25,5.5a2.07,2.07,0,0,0-.457.855,5.758,5.758,0,0,0-.105,1.262V12H71.281ZM80.461,1.3h1.422V3.633h1.336V4.781H81.883v5.461a.591.591,0,0,0,.3.586,1.262,1.262,0,0,0,.547.086q.1,0,.219,0t.273-.02V12a3.139,3.139,0,0,1-.5.1,4.791,4.791,0,0,1-.566.031,1.527,1.527,0,0,1-1.336-.5,2.239,2.239,0,0,1-.352-1.309V4.781H79.328V3.633h1.133Zm4.164,2.375h1.43V12h-1.43Zm0-3.148h1.43V2.117h-1.43ZM88.18,3.633h1.336V4.82a3.747,3.747,0,0,1,1.258-1.055,3.354,3.354,0,0,1,1.477-.32,2.435,2.435,0,0,1,2.406,1.242A4.411,4.411,0,0,1,95,6.633V12H93.57V6.727a2.856,2.856,0,0,0-.227-1.234,1.374,1.374,0,0,0-1.359-.781,2.768,2.768,0,0,0-.82.1,2.113,2.113,0,0,0-1.016.688,2.07,2.07,0,0,0-.457.855,5.758,5.758,0,0,0-.105,1.262V12H88.18Zm10.3,0V9.188a2.342,2.342,0,0,0,.2,1.047,1.417,1.417,0,0,0,1.4.75,1.977,1.977,0,0,0,2-1.312,5.207,5.207,0,0,0,.289-1.93V3.633h1.406V12h-1.328l.016-1.234a2.837,2.837,0,0,1-.68.8,2.991,2.991,0,0,1-1.953.656,2.519,2.519,0,0,1-2.437-1.2,3.56,3.56,0,0,1-.352-1.711V3.633Zm8.57,6.141a1.158,1.158,0,0,0,.445.961,1.651,1.651,0,0,0,1.055.352,3.207,3.207,0,0,0,1.438-.344,1.935,1.935,0,0,0,1.172-1.867V7.742a2.406,2.406,0,0,1-.664.273,5.659,5.659,0,0,1-.8.156l-.852.109a3.257,3.257,0,0,0-1.148.32A1.248,1.248,0,0,0,107.055,9.773Zm3.406-2.844a.764.764,0,0,0,.648-.406,1.236,1.236,0,0,0,.094-.539,1.142,1.142,0,0,0-.512-1.043,2.745,2.745,0,0,0-1.465-.324,1.861,1.861,0,0,0-1.562.594,1.953,1.953,0,0,0-.336.977h-1.312a2.416,2.416,0,0,1,1-2.152,4.122,4.122,0,0,1,2.238-.605,4.554,4.554,0,0,1,2.4.563,1.908,1.908,0,0,1,.914,1.75v4.82a.617.617,0,0,0,.09.352.433.433,0,0,0,.379.133q.094,0,.211-.012T113.5,11v1.039a3.916,3.916,0,0,1-.5.117,3.654,3.654,0,0,1-.469.023,1.157,1.157,0,0,1-1.055-.516,1.99,1.99,0,0,1-.242-.773,3.578,3.578,0,0,1-1.234.977,3.818,3.818,0,0,1-1.773.414,2.637,2.637,0,0,1-1.9-.707,2.349,2.349,0,0,1-.738-1.77,2.279,2.279,0,0,1,.727-1.8,3.457,3.457,0,0,1,1.906-.789Zm12.086-3.539a3.648,3.648,0,0,1,2.3.688,3.294,3.294,0,0,1,1.066,2.367h-1.367a2.524,2.524,0,0,0-.57-1.285,1.8,1.8,0,0,0-1.43-.512,1.975,1.975,0,0,0-1.922,1.313,5.214,5.214,0,0,0-.375,2.1,3.955,3.955,0,0,0,.531,2.117,2.06,2.06,0,0,0,3.059.324,2.943,2.943,0,0,0,.707-1.465h1.367a3.67,3.67,0,0,1-1.172,2.434,3.656,3.656,0,0,1-2.4.77,3.2,3.2,0,0,1-2.617-1.2,4.59,4.59,0,0,1-.977-3,5.048,5.048,0,0,1,1.07-3.43A3.459,3.459,0,0,1,122.547,3.391Zm8.094,7.7a1.939,1.939,0,0,0,1.918-1.059,5.274,5.274,0,0,0,.52-2.355,4.194,4.194,0,0,0-.375-1.906,2.11,2.11,0,0,0-2.047-1.156,2.018,2.018,0,0,0-1.875.984,4.563,4.563,0,0,0-.586,2.375,3.969,3.969,0,0,0,.586,2.227A2.064,2.064,0,0,0,130.641,11.094Zm.055-7.7a3.789,3.789,0,0,1,2.734,1.078,4.21,4.21,0,0,1,1.117,3.172,5.442,5.442,0,0,1-.984,3.344,3.561,3.561,0,0,1-3.055,1.32,3.449,3.449,0,0,1-2.742-1.168A4.613,4.613,0,0,1,126.75,8a4.991,4.991,0,0,1,1.07-3.359A3.592,3.592,0,0,1,130.7,3.391Zm5.523.242h1.336V4.82a3.747,3.747,0,0,1,1.258-1.055,3.354,3.354,0,0,1,1.477-.32A2.435,2.435,0,0,1,142.7,4.688a4.411,4.411,0,0,1,.344,1.945V12h-1.43V6.727a2.855,2.855,0,0,0-.227-1.234,1.374,1.374,0,0,0-1.359-.781,2.768,2.768,0,0,0-.82.1,2.113,2.113,0,0,0-1.016.688,2.07,2.07,0,0,0-.457.855,5.758,5.758,0,0,0-.105,1.262V12h-1.406ZM4.516,22.445a3.817,3.817,0,0,1,1.727.418,3.184,3.184,0,0,1,1.273,1.082,3.733,3.733,0,0,1,.563,1.477A9.661,9.661,0,0,1,8.2,27.266H2.07a3.579,3.579,0,0,0,.6,2.043,2.014,2.014,0,0,0,1.742.77,2.252,2.252,0,0,0,1.758-.727,2.449,2.449,0,0,0,.531-.977H8.086A2.912,2.912,0,0,1,7.723,29.4a3.654,3.654,0,0,1-.691.926,3.277,3.277,0,0,1-1.586.844A4.818,4.818,0,0,1,4.3,31.3,3.524,3.524,0,0,1,1.648,30.16,4.423,4.423,0,0,1,.563,26.977,4.809,4.809,0,0,1,1.656,23.7,3.608,3.608,0,0,1,4.516,22.445Zm2.242,3.7a3.643,3.643,0,0,0-.4-1.461,2.042,2.042,0,0,0-1.93-1.016,2.139,2.139,0,0,0-1.625.7,2.641,2.641,0,0,0-.7,1.777Zm3.211-6.625h1.406V31H9.969Zm8.313,1.836a2.507,2.507,0,0,1,.3-1.281,2.153,2.153,0,0,1,1.9-.719q.133,0,.273.008t.32.023v1.281q-.219-.016-.316-.02t-.184,0q-.641,0-.766.332a6.564,6.564,0,0,0-.125,1.691h1.391v1.109H19.672V31H18.281V23.781H17.117V22.672h1.164Zm4.148-.242V19.523h1.406v1.594Zm0,1.555h1.406V31H22.43Zm3.5-.039h1.336V23.82a3.747,3.747,0,0,1,1.258-1.055A3.354,3.354,0,0,1,30,22.445a2.435,2.435,0,0,1,2.406,1.242,4.411,4.411,0,0,1,.344,1.945V31H31.32V25.727a2.856,2.856,0,0,0-.227-1.234,1.374,1.374,0,0,0-1.359-.781,2.768,2.768,0,0,0-.82.1A2.113,2.113,0,0,0,27.9,24.5a2.07,2.07,0,0,0-.457.855,5.758,5.758,0,0,0-.105,1.262V31H25.93Zm14.234,4.281a4.148,4.148,0,0,0,.57,2.25,2,2,0,0,0,1.828.906,1.925,1.925,0,0,0,1.605-.84,3.966,3.966,0,0,0,.629-2.41,3.564,3.564,0,0,0-.648-2.348,2.023,2.023,0,0,0-1.6-.762,2.114,2.114,0,0,0-1.723.813A3.721,3.721,0,0,0,40.164,26.914Zm2.117-4.43a2.977,2.977,0,0,1,1.609.406,3.78,3.78,0,0,1,.852.82V19.484h1.352V31H44.828V29.836a3.042,3.042,0,0,1-1.164,1.117,3.332,3.332,0,0,1-1.539.344A3.117,3.117,0,0,1,39.7,30.121a4.6,4.6,0,0,1-1.023-3.129,5.4,5.4,0,0,1,.934-3.168A3.057,3.057,0,0,1,42.281,22.484Zm9.375-.039a3.817,3.817,0,0,1,1.727.418,3.184,3.184,0,0,1,1.273,1.082,3.733,3.733,0,0,1,.563,1.477,9.661,9.661,0,0,1,.125,1.844H49.211a3.579,3.579,0,0,0,.6,2.043,2.014,2.014,0,0,0,1.742.77,2.252,2.252,0,0,0,1.758-.727,2.449,2.449,0,0,0,.531-.977h1.383a2.912,2.912,0,0,1-.363,1.027,3.654,3.654,0,0,1-.691.926,3.277,3.277,0,0,1-1.586.844,4.818,4.818,0,0,1-1.148.125,3.524,3.524,0,0,1-2.648-1.137A4.423,4.423,0,0,1,47.7,26.977,4.809,4.809,0,0,1,48.8,23.7,3.608,3.608,0,0,1,51.656,22.445Zm2.242,3.7a3.643,3.643,0,0,0-.4-1.461,2.042,2.042,0,0,0-1.93-1.016,2.139,2.139,0,0,0-1.625.7,2.641,2.641,0,0,0-.7,1.777Zm11.148,3.906a2.006,2.006,0,0,0,1.637-.824,3.922,3.922,0,0,0,.652-2.465,4.6,4.6,0,0,0-.289-1.719,2.118,2.118,0,0,0-4,.078,5.79,5.79,0,0,0-.289,1.984,4.207,4.207,0,0,0,.289,1.648A1.994,1.994,0,0,0,65.047,30.055Zm-3.641-7.383h1.367v1.109A3.413,3.413,0,0,1,63.7,22.9a2.967,2.967,0,0,1,1.672-.469,3.144,3.144,0,0,1,2.414,1.09,4.465,4.465,0,0,1,.992,3.113,4.781,4.781,0,0,1-1.43,3.906,3.23,3.23,0,0,1-2.109.742,2.863,2.863,0,0,1-1.586-.414,3.654,3.654,0,0,1-.836-.8v4.273H61.406Zm9.047-.039h1.336v1.445a3.193,3.193,0,0,1,.8-1.027,2.086,2.086,0,0,1,1.477-.605q.039,0,.133.008l.32.031v1.484a2.1,2.1,0,0,0-.23-.031q-.105-.008-.23-.008a2.007,2.007,0,0,0-1.633.684,2.386,2.386,0,0,0-.57,1.574V31H70.453Zm8.773-.187a3.817,3.817,0,0,1,1.727.418,3.184,3.184,0,0,1,1.273,1.082,3.733,3.733,0,0,1,.563,1.477,9.66,9.66,0,0,1,.125,1.844H76.781a3.579,3.579,0,0,0,.6,2.043,2.014,2.014,0,0,0,1.742.77,2.252,2.252,0,0,0,1.758-.727,2.449,2.449,0,0,0,.531-.977H82.8a2.912,2.912,0,0,1-.363,1.027,3.654,3.654,0,0,1-.691.926,3.277,3.277,0,0,1-1.586.844,4.818,4.818,0,0,1-1.148.125,3.524,3.524,0,0,1-2.648-1.137,4.423,4.423,0,0,1-1.086-3.184A4.809,4.809,0,0,1,76.367,23.7,3.608,3.608,0,0,1,79.227,22.445Zm2.242,3.7a3.643,3.643,0,0,0-.4-1.461,2.042,2.042,0,0,0-1.93-1.016,2.139,2.139,0,0,0-1.625.7,2.641,2.641,0,0,0-.7,1.777Zm3.859-3.516,2.234,6.813L89.9,22.633h1.539L88.281,31h-1.5L83.7,22.633Zm10.8-.187a3.817,3.817,0,0,1,1.727.418,3.184,3.184,0,0,1,1.273,1.082,3.733,3.733,0,0,1,.563,1.477,9.66,9.66,0,0,1,.125,1.844H93.68a3.579,3.579,0,0,0,.6,2.043,2.014,2.014,0,0,0,1.742.77,2.252,2.252,0,0,0,1.758-.727,2.449,2.449,0,0,0,.531-.977H99.7a2.912,2.912,0,0,1-.363,1.027,3.654,3.654,0,0,1-.691.926,3.277,3.277,0,0,1-1.586.844,4.818,4.818,0,0,1-1.148.125,3.524,3.524,0,0,1-2.648-1.137,4.423,4.423,0,0,1-1.086-3.184A4.809,4.809,0,0,1,93.266,23.7,3.608,3.608,0,0,1,96.125,22.445Zm2.242,3.7a3.643,3.643,0,0,0-.4-1.461,2.042,2.042,0,0,0-1.93-1.016,2.139,2.139,0,0,0-1.625.7,2.641,2.641,0,0,0-.7,1.777Zm3.211-3.516h1.336v1.445a3.193,3.193,0,0,1,.8-1.027,2.086,2.086,0,0,1,1.477-.605q.039,0,.133.008l.32.031v1.484a2.1,2.1,0,0,0-.23-.031q-.105-.008-.23-.008a2.007,2.007,0,0,0-1.633.684,2.386,2.386,0,0,0-.57,1.574V31h-1.406ZM4.352,49.094A1.939,1.939,0,0,0,6.27,48.035a5.274,5.274,0,0,0,.52-2.355,4.194,4.194,0,0,0-.375-1.906,2.11,2.11,0,0,0-2.047-1.156,2.018,2.018,0,0,0-1.875.984,4.563,4.563,0,0,0-.586,2.375A3.969,3.969,0,0,0,2.492,48.2,2.064,2.064,0,0,0,4.352,49.094Zm.055-7.7a3.789,3.789,0,0,1,2.734,1.078,4.21,4.21,0,0,1,1.117,3.172,5.442,5.442,0,0,1-.984,3.344A3.561,3.561,0,0,1,4.219,50.3a3.449,3.449,0,0,1-2.742-1.168A4.613,4.613,0,0,1,.461,46a4.991,4.991,0,0,1,1.07-3.359A3.592,3.592,0,0,1,4.406,41.391Zm8.75,0a3.648,3.648,0,0,1,2.3.688,3.294,3.294,0,0,1,1.066,2.367H15.156a2.524,2.524,0,0,0-.57-1.285,1.8,1.8,0,0,0-1.43-.512,1.975,1.975,0,0,0-1.922,1.313,5.214,5.214,0,0,0-.375,2.1,3.955,3.955,0,0,0,.531,2.117,1.822,1.822,0,0,0,1.672.859,1.828,1.828,0,0,0,1.387-.535,2.943,2.943,0,0,0,.707-1.465h1.367a3.67,3.67,0,0,1-1.172,2.434,3.656,3.656,0,0,1-2.4.77,3.2,3.2,0,0,1-2.617-1.2,4.59,4.59,0,0,1-.977-3,5.048,5.048,0,0,1,1.07-3.43A3.459,3.459,0,0,1,13.156,41.391Zm6.18.242v5.555a2.342,2.342,0,0,0,.2,1.047,1.417,1.417,0,0,0,1.4.75,1.977,1.977,0,0,0,2-1.312,5.207,5.207,0,0,0,.289-1.93V41.633h1.406V50H23.3l.016-1.234a2.837,2.837,0,0,1-.68.8,2.991,2.991,0,0,1-1.953.656,2.519,2.519,0,0,1-2.437-1.2A3.56,3.56,0,0,1,17.9,47.32V41.633Zm7.531,0H28.2v1.445a3.193,3.193,0,0,1,.8-1.027,2.086,2.086,0,0,1,1.477-.605q.039,0,.133.008l.32.031v1.484a2.1,2.1,0,0,0-.23-.031q-.105-.008-.23-.008a2.007,2.007,0,0,0-1.633.684,2.386,2.386,0,0,0-.57,1.574V50H26.867Zm5.328,0h1.336v1.445a3.193,3.193,0,0,1,.8-1.027,2.086,2.086,0,0,1,1.477-.605q.039,0,.133.008l.32.031v1.484a2.1,2.1,0,0,0-.23-.031q-.105-.008-.23-.008a2.007,2.007,0,0,0-1.633.684,2.386,2.386,0,0,0-.57,1.574V50H32.2Zm8.773-.187a3.817,3.817,0,0,1,1.727.418,3.184,3.184,0,0,1,1.273,1.082,3.733,3.733,0,0,1,.563,1.477,9.661,9.661,0,0,1,.125,1.844H38.523a3.579,3.579,0,0,0,.6,2.043,2.014,2.014,0,0,0,1.742.77,2.252,2.252,0,0,0,1.758-.727,2.449,2.449,0,0,0,.531-.977h1.383a2.912,2.912,0,0,1-.363,1.027,3.654,3.654,0,0,1-.691.926,3.277,3.277,0,0,1-1.586.844,4.818,4.818,0,0,1-1.148.125A3.524,3.524,0,0,1,38.1,49.16a4.423,4.423,0,0,1-1.086-3.184A4.809,4.809,0,0,1,38.109,42.7,3.608,3.608,0,0,1,40.969,41.445Zm2.242,3.7a3.643,3.643,0,0,0-.4-1.461,2.042,2.042,0,0,0-1.93-1.016,2.139,2.139,0,0,0-1.625.7,2.641,2.641,0,0,0-.7,1.777Zm3.172-3.516h1.336V42.82a3.747,3.747,0,0,1,1.258-1.055,3.354,3.354,0,0,1,1.477-.32,2.435,2.435,0,0,1,2.406,1.242,4.411,4.411,0,0,1,.344,1.945V50h-1.43V44.727a2.856,2.856,0,0,0-.227-1.234,1.374,1.374,0,0,0-1.359-.781,2.768,2.768,0,0,0-.82.1,2.113,2.113,0,0,0-1.016.688,2.07,2.07,0,0,0-.457.855,5.758,5.758,0,0,0-.105,1.262V50H46.383Zm12.125-.242a3.648,3.648,0,0,1,2.3.688,3.294,3.294,0,0,1,1.066,2.367H60.508a2.524,2.524,0,0,0-.57-1.285,1.8,1.8,0,0,0-1.43-.512,1.975,1.975,0,0,0-1.922,1.313,5.214,5.214,0,0,0-.375,2.1,3.955,3.955,0,0,0,.531,2.117A2.06,2.06,0,0,0,59.8,48.5a2.943,2.943,0,0,0,.707-1.465h1.367a3.306,3.306,0,0,1-3.57,3.2,3.2,3.2,0,0,1-2.617-1.2,4.59,4.59,0,0,1-.977-3,5.048,5.048,0,0,1,1.07-3.43A3.459,3.459,0,0,1,58.508,41.391Zm4.773.281h1.43V50h-1.43Zm0-3.148h1.43v1.594h-1.43Zm4.633,9.25a1.158,1.158,0,0,0,.445.961,1.651,1.651,0,0,0,1.055.352,3.207,3.207,0,0,0,1.438-.344,1.935,1.935,0,0,0,1.172-1.867V45.742a2.406,2.406,0,0,1-.664.273,5.659,5.659,0,0,1-.8.156l-.852.109a3.257,3.257,0,0,0-1.148.32A1.248,1.248,0,0,0,67.914,47.773ZM71.32,44.93a.764.764,0,0,0,.648-.406,1.236,1.236,0,0,0,.094-.539,1.142,1.142,0,0,0-.512-1.043,2.745,2.745,0,0,0-1.465-.324,1.861,1.861,0,0,0-1.562.594,1.953,1.953,0,0,0-.336.977H66.875a2.416,2.416,0,0,1,1-2.152,4.122,4.122,0,0,1,2.238-.605,4.554,4.554,0,0,1,2.4.563,1.908,1.908,0,0,1,.914,1.75v4.82a.617.617,0,0,0,.09.352.433.433,0,0,0,.379.133q.094,0,.211-.012t.25-.035v1.039a3.916,3.916,0,0,1-.5.117,3.654,3.654,0,0,1-.469.023,1.157,1.157,0,0,1-1.055-.516,1.99,1.99,0,0,1-.242-.773,3.578,3.578,0,0,1-1.234.977,3.818,3.818,0,0,1-1.773.414,2.637,2.637,0,0,1-1.9-.707,2.349,2.349,0,0,1-.738-1.77,2.279,2.279,0,0,1,.727-1.8,3.457,3.457,0,0,1,1.906-.789Zm5.25,2.445a2.045,2.045,0,0,0,.352,1.078,2.209,2.209,0,0,0,1.844.68,2.719,2.719,0,0,0,1.375-.34,1.129,1.129,0,0,0,.594-1.051.9.9,0,0,0-.477-.82,5.666,5.666,0,0,0-1.2-.4l-1.117-.281a5.45,5.45,0,0,1-1.578-.594,1.775,1.775,0,0,1-.906-1.578,2.411,2.411,0,0,1,.855-1.922,3.413,3.413,0,0,1,2.3-.734,3.194,3.194,0,0,1,2.727,1.109,2.407,2.407,0,0,1,.508,1.516H80.516a1.627,1.627,0,0,0-.336-.867,2.142,2.142,0,0,0-1.68-.555,2.008,2.008,0,0,0-1.207.3.955.955,0,0,0-.41.8.991.991,0,0,0,.539.875,3.239,3.239,0,0,0,.922.344l.93.227a7.188,7.188,0,0,1,2.031.711,1.882,1.882,0,0,1,.82,1.7,2.584,2.584,0,0,1-.848,1.93,3.608,3.608,0,0,1-2.582.813,3.464,3.464,0,0,1-2.645-.848,3.206,3.206,0,0,1-.832-2.1Zm12.5-1.461a4.147,4.147,0,0,0,.57,2.25,2,2,0,0,0,1.828.906,1.925,1.925,0,0,0,1.605-.84,3.966,3.966,0,0,0,.629-2.41,3.564,3.564,0,0,0-.648-2.348,2.023,2.023,0,0,0-1.6-.762,2.114,2.114,0,0,0-1.723.813A3.721,3.721,0,0,0,89.07,45.914Zm2.117-4.43a2.977,2.977,0,0,1,1.609.406,3.78,3.78,0,0,1,.852.82V38.484H95V50H93.734V48.836a3.043,3.043,0,0,1-1.164,1.117,3.332,3.332,0,0,1-1.539.344,3.117,3.117,0,0,1-2.422-1.176,4.6,4.6,0,0,1-1.023-3.129,5.4,5.4,0,0,1,.934-3.168A3.057,3.057,0,0,1,91.188,41.484Zm9.375-.039a3.817,3.817,0,0,1,1.727.418,3.184,3.184,0,0,1,1.273,1.082,3.733,3.733,0,0,1,.563,1.477,9.66,9.66,0,0,1,.125,1.844H98.117a3.579,3.579,0,0,0,.6,2.043,2.014,2.014,0,0,0,1.742.77,2.252,2.252,0,0,0,1.758-.727,2.449,2.449,0,0,0,.531-.977h1.383a2.912,2.912,0,0,1-.363,1.027,3.654,3.654,0,0,1-.691.926,3.277,3.277,0,0,1-1.586.844,4.818,4.818,0,0,1-1.148.125A3.524,3.524,0,0,1,97.7,49.16a4.423,4.423,0,0,1-1.086-3.184A4.809,4.809,0,0,1,97.7,42.7,3.608,3.608,0,0,1,100.563,41.445Zm2.242,3.7a3.643,3.643,0,0,0-.4-1.461,2.042,2.042,0,0,0-1.93-1.016,2.139,2.139,0,0,0-1.625.7,2.641,2.641,0,0,0-.7,1.777Zm7.656-6.625h1.406V50h-1.406Zm4.594,9.25a1.158,1.158,0,0,0,.445.961,1.651,1.651,0,0,0,1.055.352,3.207,3.207,0,0,0,1.438-.344,1.935,1.935,0,0,0,1.172-1.867V45.742a2.406,2.406,0,0,1-.664.273,5.659,5.659,0,0,1-.8.156l-.852.109a3.257,3.257,0,0,0-1.148.32A1.248,1.248,0,0,0,115.055,47.773Zm3.406-2.844a.764.764,0,0,0,.648-.406,1.236,1.236,0,0,0,.094-.539,1.142,1.142,0,0,0-.512-1.043,2.745,2.745,0,0,0-1.465-.324,1.861,1.861,0,0,0-1.562.594,1.953,1.953,0,0,0-.336.977h-1.312a2.416,2.416,0,0,1,1-2.152,4.122,4.122,0,0,1,2.238-.605,4.554,4.554,0,0,1,2.4.563,1.908,1.908,0,0,1,.914,1.75v4.82a.617.617,0,0,0,.09.352.433.433,0,0,0,.379.133q.094,0,.211-.012T121.5,49v1.039a3.916,3.916,0,0,1-.5.117,3.654,3.654,0,0,1-.469.023,1.157,1.157,0,0,1-1.055-.516,1.99,1.99,0,0,1-.242-.773,3.578,3.578,0,0,1-1.234.977,3.818,3.818,0,0,1-1.773.414,2.637,2.637,0,0,1-1.9-.707,2.349,2.349,0,0,1-.738-1.77,2.279,2.279,0,0,1,.727-1.8,3.457,3.457,0,0,1,1.906-.789Zm8.859-3.3h1.336V42.82a3.747,3.747,0,0,1,1.258-1.055,3.354,3.354,0,0,1,1.477-.32,2.435,2.435,0,0,1,2.406,1.242,4.411,4.411,0,0,1,.344,1.945V50h-1.43V44.727a2.855,2.855,0,0,0-.227-1.234,1.374,1.374,0,0,0-1.359-.781,2.768,2.768,0,0,0-.82.1,2.113,2.113,0,0,0-1.016.688,2.07,2.07,0,0,0-.457.855,5.758,5.758,0,0,0-.105,1.262V50H127.32Zm12.219,7.461a1.939,1.939,0,0,0,1.918-1.059,5.274,5.274,0,0,0,.52-2.355,4.194,4.194,0,0,0-.375-1.906,2.11,2.11,0,0,0-2.047-1.156,2.018,2.018,0,0,0-1.875.984,4.563,4.563,0,0,0-.586,2.375,3.969,3.969,0,0,0,.586,2.227A2.064,2.064,0,0,0,139.539,49.094Zm.055-7.7a3.789,3.789,0,0,1,2.734,1.078,4.21,4.21,0,0,1,1.117,3.172,5.442,5.442,0,0,1-.984,3.344,3.561,3.561,0,0,1-3.055,1.32,3.449,3.449,0,0,1-2.742-1.168A4.613,4.613,0,0,1,135.648,46a4.991,4.991,0,0,1,1.07-3.359A3.592,3.592,0,0,1,139.594,41.391Zm-135.336,19a3.648,3.648,0,0,1,2.3.688,3.294,3.294,0,0,1,1.066,2.367H6.258a2.524,2.524,0,0,0-.57-1.285,1.8,1.8,0,0,0-1.43-.512,1.975,1.975,0,0,0-1.922,1.313,5.214,5.214,0,0,0-.375,2.1,3.955,3.955,0,0,0,.531,2.117,1.822,1.822,0,0,0,1.672.859A1.828,1.828,0,0,0,5.551,67.5a2.943,2.943,0,0,0,.707-1.465H7.625a3.67,3.67,0,0,1-1.172,2.434,3.656,3.656,0,0,1-2.4.77,3.2,3.2,0,0,1-2.617-1.2,4.59,4.59,0,0,1-.977-3,5.048,5.048,0,0,1,1.07-3.43A3.459,3.459,0,0,1,4.258,60.391Zm8.094,7.7a1.939,1.939,0,0,0,1.918-1.059,5.274,5.274,0,0,0,.52-2.355,4.194,4.194,0,0,0-.375-1.906,2.11,2.11,0,0,0-2.047-1.156,2.018,2.018,0,0,0-1.875.984,4.563,4.563,0,0,0-.586,2.375,3.969,3.969,0,0,0,.586,2.227A2.064,2.064,0,0,0,12.352,68.094Zm.055-7.7a3.789,3.789,0,0,1,2.734,1.078,4.21,4.21,0,0,1,1.117,3.172,5.442,5.442,0,0,1-.984,3.344,3.561,3.561,0,0,1-3.055,1.32,3.449,3.449,0,0,1-2.742-1.168A4.613,4.613,0,0,1,8.461,65a4.991,4.991,0,0,1,1.07-3.359A3.592,3.592,0,0,1,12.406,60.391Zm5.523.242h1.336V61.82a3.747,3.747,0,0,1,1.258-1.055A3.354,3.354,0,0,1,22,60.445a2.435,2.435,0,0,1,2.406,1.242,4.411,4.411,0,0,1,.344,1.945V69H23.32V63.727a2.856,2.856,0,0,0-.227-1.234,1.374,1.374,0,0,0-1.359-.781,2.768,2.768,0,0,0-.82.1A2.113,2.113,0,0,0,19.9,62.5a2.07,2.07,0,0,0-.457.855,5.758,5.758,0,0,0-.105,1.262V69H17.93Zm9.25-1.273a2.507,2.507,0,0,1,.3-1.281,2.153,2.153,0,0,1,1.9-.719q.133,0,.273.008t.32.023v1.281q-.219-.016-.316-.02t-.184,0q-.641,0-.766.332a6.564,6.564,0,0,0-.125,1.691h1.391v1.109H28.57V69H27.18V61.781H26.016V60.672H27.18Zm7.414,8.734a1.939,1.939,0,0,0,1.918-1.059,5.274,5.274,0,0,0,.52-2.355,4.194,4.194,0,0,0-.375-1.906,2.11,2.11,0,0,0-2.047-1.156,2.018,2.018,0,0,0-1.875.984,4.563,4.563,0,0,0-.586,2.375,3.969,3.969,0,0,0,.586,2.227A2.064,2.064,0,0,0,34.594,68.094Zm.055-7.7a3.789,3.789,0,0,1,2.734,1.078A4.21,4.21,0,0,1,38.5,64.641a5.442,5.442,0,0,1-.984,3.344,3.561,3.561,0,0,1-3.055,1.32,3.449,3.449,0,0,1-2.742-1.168A4.613,4.613,0,0,1,30.7,65a4.991,4.991,0,0,1,1.07-3.359A3.592,3.592,0,0,1,34.648,60.391Zm5.563.242h1.336v1.445a3.193,3.193,0,0,1,.8-1.027,2.086,2.086,0,0,1,1.477-.605q.039,0,.133.008l.32.031v1.484a2.1,2.1,0,0,0-.23-.031q-.105-.008-.23-.008a2.007,2.007,0,0,0-1.633.684,2.386,2.386,0,0,0-.57,1.574V69H40.211Zm5.289,0h1.391V61.82a4.674,4.674,0,0,1,.906-.9,2.726,2.726,0,0,1,1.578-.477,2.484,2.484,0,0,1,1.609.492,2.573,2.573,0,0,1,.625.828,3.039,3.039,0,0,1,1.1-1,3.073,3.073,0,0,1,1.422-.324,2.325,2.325,0,0,1,2.3,1.219,3.984,3.984,0,0,1,.328,1.766V69H55.3V63.188a1.354,1.354,0,0,0-.418-1.148,1.654,1.654,0,0,0-1.02-.312,2.024,2.024,0,0,0-1.426.555,2.436,2.436,0,0,0-.6,1.852V69h-1.43V63.539a2.837,2.837,0,0,0-.2-1.242,1.239,1.239,0,0,0-1.2-.586,2.062,2.062,0,0,0-1.449.617,3.025,3.025,0,0,0-.652,2.234V69H45.5Zm13.328.039h1.43V69h-1.43Zm0-3.148h1.43v1.594h-1.43Zm4.445,7.391a4.148,4.148,0,0,0,.57,2.25,2,2,0,0,0,1.828.906,1.925,1.925,0,0,0,1.605-.84,3.966,3.966,0,0,0,.629-2.41,3.564,3.564,0,0,0-.648-2.348,2.023,2.023,0,0,0-1.6-.762,2.114,2.114,0,0,0-1.723.813A3.721,3.721,0,0,0,63.273,64.914Zm2.117-4.43A2.977,2.977,0,0,1,67,60.891a3.78,3.78,0,0,1,.852.82V57.484H69.2V69H67.938V67.836a3.043,3.043,0,0,1-1.164,1.117,3.332,3.332,0,0,1-1.539.344,3.117,3.117,0,0,1-2.422-1.176,4.6,4.6,0,0,1-1.023-3.129,5.4,5.4,0,0,1,.934-3.168A3.057,3.057,0,0,1,65.391,60.484Zm6.969,6.289a1.158,1.158,0,0,0,.445.961,1.651,1.651,0,0,0,1.055.352,3.207,3.207,0,0,0,1.438-.344,1.935,1.935,0,0,0,1.172-1.867V64.742a2.406,2.406,0,0,1-.664.273,5.659,5.659,0,0,1-.8.156l-.852.109a3.257,3.257,0,0,0-1.148.32A1.248,1.248,0,0,0,72.359,66.773Zm3.406-2.844a.764.764,0,0,0,.648-.406,1.236,1.236,0,0,0,.094-.539A1.142,1.142,0,0,0,76,61.941a2.745,2.745,0,0,0-1.465-.324,1.861,1.861,0,0,0-1.562.594,1.953,1.953,0,0,0-.336.977H71.32a2.416,2.416,0,0,1,1-2.152,4.122,4.122,0,0,1,2.238-.605,4.554,4.554,0,0,1,2.4.563,1.908,1.908,0,0,1,.914,1.75v4.82a.617.617,0,0,0,.09.352.433.433,0,0,0,.379.133q.094,0,.211-.012T78.8,68v1.039a3.916,3.916,0,0,1-.5.117,3.654,3.654,0,0,1-.469.023,1.157,1.157,0,0,1-1.055-.516,1.99,1.99,0,0,1-.242-.773,3.578,3.578,0,0,1-1.234.977,3.818,3.818,0,0,1-1.773.414,2.637,2.637,0,0,1-1.9-.707,2.348,2.348,0,0,1-.738-1.77,2.279,2.279,0,0,1,.727-1.8,3.457,3.457,0,0,1,1.906-.789Zm5.3.984a4.147,4.147,0,0,0,.57,2.25,2,2,0,0,0,1.828.906,1.925,1.925,0,0,0,1.605-.84,3.966,3.966,0,0,0,.629-2.41,3.564,3.564,0,0,0-.648-2.348,2.023,2.023,0,0,0-1.6-.762,2.114,2.114,0,0,0-1.723.813A3.721,3.721,0,0,0,81.07,64.914Zm2.117-4.43a2.977,2.977,0,0,1,1.609.406,3.78,3.78,0,0,1,.852.82V57.484H87V69H85.734V67.836a3.043,3.043,0,0,1-1.164,1.117,3.332,3.332,0,0,1-1.539.344,3.117,3.117,0,0,1-2.422-1.176,4.6,4.6,0,0,1-1.023-3.129,5.4,5.4,0,0,1,.934-3.168A3.057,3.057,0,0,1,83.188,60.484Zm6.188,10.148a.985.985,0,0,0,.758-.758,2.145,2.145,0,0,0,.117-.68q0-.055,0-.1a.538.538,0,0,0-.02-.1h-.852V67.3h1.672v1.578a3.418,3.418,0,0,1-.375,1.633,1.709,1.709,0,0,1-1.3.867ZM98.25,58.3h1.422v2.336h1.336v1.148H99.672v5.461a.591.591,0,0,0,.3.586,1.262,1.262,0,0,0,.547.086q.1,0,.219,0t.273-.02V69a3.14,3.14,0,0,1-.5.1,4.79,4.79,0,0,1-.566.031,1.527,1.527,0,0,1-1.336-.5,2.239,2.239,0,0,1-.352-1.309V61.781H97.117V60.633H98.25Zm7.484,9.8a1.939,1.939,0,0,0,1.918-1.059,5.274,5.274,0,0,0,.52-2.355,4.194,4.194,0,0,0-.375-1.906,2.11,2.11,0,0,0-2.047-1.156,2.018,2.018,0,0,0-1.875.984,4.563,4.563,0,0,0-.586,2.375,3.969,3.969,0,0,0,.586,2.227A2.064,2.064,0,0,0,105.734,68.094Zm.055-7.7a3.789,3.789,0,0,1,2.734,1.078,4.21,4.21,0,0,1,1.117,3.172,5.442,5.442,0,0,1-.984,3.344A3.561,3.561,0,0,1,105.6,69.3a3.449,3.449,0,0,1-2.742-1.168A4.613,4.613,0,0,1,101.844,65a4.991,4.991,0,0,1,1.07-3.359A3.592,3.592,0,0,1,105.789,60.391Zm5.523.242H112.7V61.82a4.674,4.674,0,0,1,.906-.9,2.726,2.726,0,0,1,1.578-.477,2.484,2.484,0,0,1,1.609.492,2.573,2.573,0,0,1,.625.828,3.039,3.039,0,0,1,1.1-1,3.073,3.073,0,0,1,1.422-.324,2.325,2.325,0,0,1,2.3,1.219,3.984,3.984,0,0,1,.328,1.766V69h-1.461V63.188a1.354,1.354,0,0,0-.418-1.148,1.654,1.654,0,0,0-1.02-.312,2.024,2.024,0,0,0-1.426.555,2.436,2.436,0,0,0-.6,1.852V69h-1.43V63.539a2.837,2.837,0,0,0-.2-1.242,1.239,1.239,0,0,0-1.2-.586,2.062,2.062,0,0,0-1.449.617,3.025,3.025,0,0,0-.652,2.234V69h-1.406Zm14.406,6.141a1.158,1.158,0,0,0,.445.961,1.651,1.651,0,0,0,1.055.352,3.207,3.207,0,0,0,1.438-.344,1.935,1.935,0,0,0,1.172-1.867V64.742a2.406,2.406,0,0,1-.664.273,5.659,5.659,0,0,1-.8.156l-.852.109a3.257,3.257,0,0,0-1.148.32A1.248,1.248,0,0,0,125.719,66.773Zm3.406-2.844a.764.764,0,0,0,.648-.406,1.236,1.236,0,0,0,.094-.539,1.142,1.142,0,0,0-.512-1.043,2.745,2.745,0,0,0-1.465-.324,1.861,1.861,0,0,0-1.562.594,1.953,1.953,0,0,0-.336.977H124.68a2.416,2.416,0,0,1,1-2.152,4.122,4.122,0,0,1,2.238-.605,4.554,4.554,0,0,1,2.4.563,1.908,1.908,0,0,1,.914,1.75v4.82a.617.617,0,0,0,.09.352.433.433,0,0,0,.379.133q.094,0,.211-.012t.25-.035v1.039a3.917,3.917,0,0,1-.5.117,3.654,3.654,0,0,1-.469.023,1.157,1.157,0,0,1-1.055-.516,1.99,1.99,0,0,1-.242-.773,3.578,3.578,0,0,1-1.234.977,3.818,3.818,0,0,1-1.773.414,2.637,2.637,0,0,1-1.9-.707,2.348,2.348,0,0,1-.738-1.77,2.279,2.279,0,0,1,.727-1.8,3.457,3.457,0,0,1,1.906-.789Zm9.75.984a4.148,4.148,0,0,0,.57,2.25,2,2,0,0,0,1.828.906,1.925,1.925,0,0,0,1.605-.84,3.966,3.966,0,0,0,.629-2.41,3.564,3.564,0,0,0-.648-2.348,2.023,2.023,0,0,0-1.6-.762,2.114,2.114,0,0,0-1.723.813A3.721,3.721,0,0,0,138.875,64.914Zm2.117-4.43a2.977,2.977,0,0,1,1.609.406,3.78,3.78,0,0,1,.852.82V57.484H144.8V69h-1.266V67.836a3.042,3.042,0,0,1-1.164,1.117,3.332,3.332,0,0,1-1.539.344,3.117,3.117,0,0,1-2.422-1.176,4.6,4.6,0,0,1-1.023-3.129,5.4,5.4,0,0,1,.934-3.168A3.056,3.056,0,0,1,140.992,60.484Zm9.375-.039a3.817,3.817,0,0,1,1.727.418,3.184,3.184,0,0,1,1.273,1.082,3.733,3.733,0,0,1,.563,1.477,9.661,9.661,0,0,1,.125,1.844h-6.133a3.579,3.579,0,0,0,.6,2.043,2.014,2.014,0,0,0,1.742.77,2.252,2.252,0,0,0,1.758-.727,2.449,2.449,0,0,0,.531-.977h1.383a2.912,2.912,0,0,1-.363,1.027,3.654,3.654,0,0,1-.691.926,3.277,3.277,0,0,1-1.586.844,4.818,4.818,0,0,1-1.148.125A3.524,3.524,0,0,1,147.5,68.16a4.423,4.423,0,0,1-1.086-3.184,4.809,4.809,0,0,1,1.094-3.273A3.608,3.608,0,0,1,150.367,60.445Zm2.242,3.7a3.643,3.643,0,0,0-.4-1.461,2.042,2.042,0,0,0-1.93-1.016,2.139,2.139,0,0,0-1.625.7,2.641,2.641,0,0,0-.7,1.777ZM1.922,83.914a4.148,4.148,0,0,0,.57,2.25,2,2,0,0,0,1.828.906,1.925,1.925,0,0,0,1.605-.84,3.966,3.966,0,0,0,.629-2.41,3.564,3.564,0,0,0-.648-2.348,2.023,2.023,0,0,0-1.6-.762,2.114,2.114,0,0,0-1.723.813A3.721,3.721,0,0,0,1.922,83.914Zm2.117-4.43a2.977,2.977,0,0,1,1.609.406,3.78,3.78,0,0,1,.852.82V76.484H7.852V88H6.586V86.836a3.042,3.042,0,0,1-1.164,1.117,3.332,3.332,0,0,1-1.539.344,3.117,3.117,0,0,1-2.422-1.176A4.6,4.6,0,0,1,.438,83.992a5.4,5.4,0,0,1,.934-3.168A3.057,3.057,0,0,1,4.039,79.484Zm9.375-.039a3.817,3.817,0,0,1,1.727.418,3.184,3.184,0,0,1,1.273,1.082,3.733,3.733,0,0,1,.563,1.477,9.661,9.661,0,0,1,.125,1.844H10.969a3.579,3.579,0,0,0,.6,2.043,2.014,2.014,0,0,0,1.742.77,2.252,2.252,0,0,0,1.758-.727,2.449,2.449,0,0,0,.531-.977h1.383a2.912,2.912,0,0,1-.363,1.027,3.654,3.654,0,0,1-.691.926,3.277,3.277,0,0,1-1.586.844A4.818,4.818,0,0,1,13.2,88.3a3.524,3.524,0,0,1-2.648-1.137,4.423,4.423,0,0,1-1.086-3.184A4.809,4.809,0,0,1,10.555,80.7,3.608,3.608,0,0,1,13.414,79.445Zm2.242,3.7a3.643,3.643,0,0,0-.4-1.461,2.042,2.042,0,0,0-1.93-1.016,2.139,2.139,0,0,0-1.625.7,2.641,2.641,0,0,0-.7,1.777Zm6.4-3.758a3.648,3.648,0,0,1,2.3.688,3.294,3.294,0,0,1,1.066,2.367H24.055a2.524,2.524,0,0,0-.57-1.285,1.8,1.8,0,0,0-1.43-.512,1.975,1.975,0,0,0-1.922,1.313,5.214,5.214,0,0,0-.375,2.1,3.955,3.955,0,0,0,.531,2.117,2.06,2.06,0,0,0,3.059.324,2.943,2.943,0,0,0,.707-1.465h1.367a3.67,3.67,0,0,1-1.172,2.434,3.656,3.656,0,0,1-2.4.77,3.2,3.2,0,0,1-2.617-1.2,4.59,4.59,0,0,1-.977-3,5.048,5.048,0,0,1,1.07-3.43A3.459,3.459,0,0,1,22.055,79.391Zm4.773.281h1.43V88h-1.43Zm0-3.148h1.43v1.594h-1.43Zm4.391,8.852a2.045,2.045,0,0,0,.352,1.078,2.209,2.209,0,0,0,1.844.68,2.719,2.719,0,0,0,1.375-.34,1.129,1.129,0,0,0,.594-1.051.9.9,0,0,0-.477-.82,5.666,5.666,0,0,0-1.2-.4l-1.117-.281a5.45,5.45,0,0,1-1.578-.594A1.775,1.775,0,0,1,30.1,82.07a2.411,2.411,0,0,1,.855-1.922,3.413,3.413,0,0,1,2.3-.734,3.194,3.194,0,0,1,2.727,1.109,2.407,2.407,0,0,1,.508,1.516H35.164a1.627,1.627,0,0,0-.336-.867,2.143,2.143,0,0,0-1.68-.555,2.008,2.008,0,0,0-1.207.3.955.955,0,0,0-.41.8.991.991,0,0,0,.539.875,3.239,3.239,0,0,0,.922.344l.93.227a7.188,7.188,0,0,1,2.031.711,1.882,1.882,0,0,1,.82,1.7,2.584,2.584,0,0,1-.848,1.93,3.608,3.608,0,0,1-2.582.813,3.464,3.464,0,0,1-2.645-.848,3.206,3.206,0,0,1-.832-2.1Zm7.164-5.7h1.43V88h-1.43Zm0-3.148h1.43v1.594h-1.43Zm6.875,10.57a1.939,1.939,0,0,0,1.918-1.059,5.274,5.274,0,0,0,.52-2.355,4.194,4.194,0,0,0-.375-1.906,2.11,2.11,0,0,0-2.047-1.156A2.018,2.018,0,0,0,43.4,81.6a4.563,4.563,0,0,0-.586,2.375A3.969,3.969,0,0,0,43.4,86.2,2.064,2.064,0,0,0,45.258,87.094Zm.055-7.7a3.789,3.789,0,0,1,2.734,1.078,4.21,4.21,0,0,1,1.117,3.172,5.442,5.442,0,0,1-.984,3.344,3.561,3.561,0,0,1-3.055,1.32,3.449,3.449,0,0,1-2.742-1.168A4.613,4.613,0,0,1,41.367,84a4.991,4.991,0,0,1,1.07-3.359A3.592,3.592,0,0,1,45.313,79.391Zm5.523.242h1.336V80.82a3.747,3.747,0,0,1,1.258-1.055,3.354,3.354,0,0,1,1.477-.32,2.435,2.435,0,0,1,2.406,1.242,4.411,4.411,0,0,1,.344,1.945V88h-1.43V82.727A2.856,2.856,0,0,0,56,81.492a1.374,1.374,0,0,0-1.359-.781,2.768,2.768,0,0,0-.82.1A2.113,2.113,0,0,0,52.8,81.5a2.07,2.07,0,0,0-.457.855,5.758,5.758,0,0,0-.105,1.262V88H50.836Zm12.383-.187a3.817,3.817,0,0,1,1.727.418,3.184,3.184,0,0,1,1.273,1.082,3.733,3.733,0,0,1,.563,1.477,9.66,9.66,0,0,1,.125,1.844H60.773a3.579,3.579,0,0,0,.6,2.043,2.014,2.014,0,0,0,1.742.77,2.252,2.252,0,0,0,1.758-.727,2.449,2.449,0,0,0,.531-.977h1.383a2.912,2.912,0,0,1-.363,1.027,3.654,3.654,0,0,1-.691.926,3.277,3.277,0,0,1-1.586.844A4.818,4.818,0,0,1,63,88.3a3.524,3.524,0,0,1-2.648-1.137,4.423,4.423,0,0,1-1.086-3.184A4.809,4.809,0,0,1,60.359,80.7,3.608,3.608,0,0,1,63.219,79.445Zm2.242,3.7a3.643,3.643,0,0,0-.4-1.461,2.042,2.042,0,0,0-1.93-1.016,2.139,2.139,0,0,0-1.625.7,2.641,2.641,0,0,0-.7,1.777Zm4.008,2.227a2.045,2.045,0,0,0,.352,1.078,2.209,2.209,0,0,0,1.844.68,2.719,2.719,0,0,0,1.375-.34,1.129,1.129,0,0,0,.594-1.051.9.9,0,0,0-.477-.82,5.666,5.666,0,0,0-1.2-.4l-1.117-.281a5.45,5.45,0,0,1-1.578-.594,1.775,1.775,0,0,1-.906-1.578,2.411,2.411,0,0,1,.855-1.922,3.413,3.413,0,0,1,2.3-.734,3.194,3.194,0,0,1,2.727,1.109,2.407,2.407,0,0,1,.508,1.516H73.414a1.627,1.627,0,0,0-.336-.867,2.143,2.143,0,0,0-1.68-.555,2.008,2.008,0,0,0-1.207.3.955.955,0,0,0-.41.8.991.991,0,0,0,.539.875,3.239,3.239,0,0,0,.922.344l.93.227a7.188,7.188,0,0,1,2.031.711,1.882,1.882,0,0,1,.82,1.7,2.584,2.584,0,0,1-.848,1.93,3.608,3.608,0,0,1-2.582.813,3.464,3.464,0,0,1-2.645-.848,3.206,3.206,0,0,1-.832-2.1Zm7.5.922H78.6V88H76.969Z" transform="translate(893.706 9413)" fill="#00223d"/>
    <path id="Trazado_69720" data-name="Trazado 69720" d="M2335.418,4.8h.267a2.4,2.4,0,0,0,0-4.8h-.267a2.4,2.4,0,0,0,0,4.8" transform="translate(-1611.135 9365.273)" fill="#8acc59"/>
    <path id="Trazado_69721" data-name="Trazado 69721" d="M2246.849,4.8h.266a2.4,2.4,0,1,0,0-4.8h-.266a2.4,2.4,0,1,0,0,4.8" transform="translate(-1545.477 9365.273)" fill="#8acc59"/>
    <path id="Trazado_69722" data-name="Trazado 69722" d="M2512.251,5.823l.25.029a2.454,2.454,0,0,0,.287.017,2.4,2.4,0,0,0,.281-4.779l-.279-.033a2.4,2.4,0,1,0-.54,4.765" transform="translate(-1742.424 9364.501)" fill="#8acc59"/>
    <path id="Trazado_69723" data-name="Trazado 69723" d="M2423.989,4.8h.266a2.4,2.4,0,1,0,0-4.8h-.266a2.4,2.4,0,1,0,0,4.8" transform="translate(-1676.794 9365.273)" fill="#8acc59"/>
    <path id="Trazado_69724" data-name="Trazado 69724" d="M2158.279,4.8h.266a2.4,2.4,0,1,0,0-4.8h-.266a2.4,2.4,0,1,0,0,4.8" transform="translate(-1479.818 9365.273)" fill="#8acc59"/>
    <path id="Trazado_69725" data-name="Trazado 69725" d="M2069.708,4.8h.266a2.4,2.4,0,1,0,0-4.8h-.266a2.4,2.4,0,1,0,0,4.8" transform="translate(-1414.159 9365.273)" fill="#8acc59"/>
    <path id="Trazado_69727" data-name="Trazado 69727" d="M2683.292,391.555a3.33,3.33,0,1,0,3.33,3.33,3.334,3.334,0,0,0-3.33-3.33" transform="translate(-1868.33 9075.006)" fill="#8acc59"/>
    <g id="Grupo_27331" data-name="Grupo 27331" transform="translate(601.198 9367.693)">
      <g id="Grupo_27330" data-name="Grupo 27330">
        <g id="Grupo_27329" data-name="Grupo 27329" transform="translate(5.994 98.868)">
          <path id="Trazado_69726" data-name="Trazado 69726" d="M1896.3,394.885a3.33,3.33,0,1,0-3.33,3.33,3.334,3.334,0,0,0,3.33-3.33" transform="translate(-1889.641 -391.555)" fill="#8acc59"/>
        </g>
        <path id="Trazado_69728" data-name="Trazado 69728" d="M2113.338,109.552h-24a9.352,9.352,0,0,0-7.109-7.108V51.807A44.551,44.551,0,0,0,2051.49,9.5a2,2,0,1,0-1.237,3.8,40.4,40.4,0,0,1,27.981,38.507v50.636a9.323,9.323,0,0,0,0,18.213v24.075h0v26.56a40.524,40.524,0,0,1-40.479,40.479H1918.27a40.525,40.525,0,0,1-40.479-40.479V144.747c0-.005,0-.01,0-.015V120.656a9.323,9.323,0,0,0,0-18.213V51.807a40.38,40.38,0,0,1,28.131-38.555,2,2,0,1,0-1.222-3.8,44.552,44.552,0,0,0-30.905,42.36v50.636a9.323,9.323,0,0,0,0,18.214v24.06c0,.005,0,.01,0,.016v26.56a44.525,44.525,0,0,0,44.475,44.475h119.486a44.526,44.526,0,0,0,44.475-44.475v-26.56h0V120.656a9.352,9.352,0,0,0,7.109-7.109h24a2,2,0,0,0,0-4m-242.874,2a5.328,5.328,0,1,1,5.329,5.328,5.334,5.334,0,0,1-5.329-5.328m209.768,5.328a5.328,5.328,0,1,1,5.328-5.328,5.335,5.335,0,0,1-5.328,5.328" transform="translate(-1866.468 -9.351)" fill="#8acc59"/>
      </g>
      <path id="Trazado_69729" data-name="Trazado 69729" d="M2102.651,60.763H1983.165a29.19,29.19,0,0,0-29.156,29.157V209.4a29.189,29.189,0,0,0,29.156,29.157h119.486a29.19,29.19,0,0,0,29.157-29.157V89.92a29.19,29.19,0,0,0-29.157-29.157" transform="translate(-1930.141 -46.464)" fill="#777" opacity="0.14"/>
    </g>
    <path id="Trazado_100908" data-name="Trazado 100908" d="M7.109,7.3,5.367,2.227,3.516,7.3ZM4.555.523H6.313L10.477,12h-1.7L7.609,8.563H3.07L1.828,12H.234ZM11.7,3.633h1.336V4.82A3.747,3.747,0,0,1,14.3,3.766a3.354,3.354,0,0,1,1.477-.32A2.435,2.435,0,0,1,18.18,4.688a4.411,4.411,0,0,1,.344,1.945V12h-1.43V6.727a2.856,2.856,0,0,0-.227-1.234,1.374,1.374,0,0,0-1.359-.781,2.768,2.768,0,0,0-.82.1,2.113,2.113,0,0,0-1.016.688,2.07,2.07,0,0,0-.457.855,5.758,5.758,0,0,0-.105,1.262V12H11.7ZM21.68,9.773a1.158,1.158,0,0,0,.445.961,1.651,1.651,0,0,0,1.055.352,3.207,3.207,0,0,0,1.438-.344,1.935,1.935,0,0,0,1.172-1.867V7.742a2.406,2.406,0,0,1-.664.273,5.659,5.659,0,0,1-.8.156l-.852.109a3.257,3.257,0,0,0-1.148.32A1.248,1.248,0,0,0,21.68,9.773ZM25.086,6.93a.764.764,0,0,0,.648-.406,1.236,1.236,0,0,0,.094-.539,1.142,1.142,0,0,0-.512-1.043,2.745,2.745,0,0,0-1.465-.324,1.861,1.861,0,0,0-1.562.594,1.953,1.953,0,0,0-.336.977H20.641a2.416,2.416,0,0,1,1-2.152,4.122,4.122,0,0,1,2.238-.605,4.554,4.554,0,0,1,2.4.563,1.908,1.908,0,0,1,.914,1.75v4.82a.617.617,0,0,0,.09.352.433.433,0,0,0,.379.133q.094,0,.211-.012t.25-.035v1.039a3.917,3.917,0,0,1-.5.117,3.654,3.654,0,0,1-.469.023,1.157,1.157,0,0,1-1.055-.516,1.99,1.99,0,0,1-.242-.773,3.578,3.578,0,0,1-1.234.977,3.818,3.818,0,0,1-1.773.414,2.637,2.637,0,0,1-1.9-.707,2.349,2.349,0,0,1-.738-1.77A2.279,2.279,0,0,1,20.938,8a3.457,3.457,0,0,1,1.906-.789ZM25.68.266,23.594,2.523H22.516L23.945.266Zm3.859.258h1.406V12H29.539Zm3.516,3.148h1.43V12h-1.43Zm0-3.148h1.43V2.117h-1.43Zm4.391,8.852a2.045,2.045,0,0,0,.352,1.078,2.209,2.209,0,0,0,1.844.68,2.719,2.719,0,0,0,1.375-.34,1.129,1.129,0,0,0,.594-1.051.9.9,0,0,0-.477-.82,5.666,5.666,0,0,0-1.2-.4l-1.117-.281a5.45,5.45,0,0,1-1.578-.594,1.775,1.775,0,0,1-.906-1.578,2.411,2.411,0,0,1,.855-1.922,3.413,3.413,0,0,1,2.3-.734,3.194,3.194,0,0,1,2.727,1.109,2.407,2.407,0,0,1,.508,1.516H41.391a1.627,1.627,0,0,0-.336-.867,2.143,2.143,0,0,0-1.68-.555,2.008,2.008,0,0,0-1.207.3.955.955,0,0,0-.41.8A.991.991,0,0,0,38.3,6.6a3.239,3.239,0,0,0,.922.344l.93.227a7.188,7.188,0,0,1,2.031.711,1.882,1.882,0,0,1,.82,1.7,2.584,2.584,0,0,1-.848,1.93,3.608,3.608,0,0,1-2.582.813,3.464,3.464,0,0,1-2.645-.848,3.206,3.206,0,0,1-.832-2.1Zm7.164-5.7h1.43V12h-1.43Zm0-3.148h1.43V2.117h-1.43ZM49,9.375a2.045,2.045,0,0,0,.352,1.078,2.209,2.209,0,0,0,1.844.68,2.719,2.719,0,0,0,1.375-.34,1.129,1.129,0,0,0,.594-1.051.9.9,0,0,0-.477-.82,5.666,5.666,0,0,0-1.2-.4l-1.117-.281a5.45,5.45,0,0,1-1.578-.594,1.775,1.775,0,0,1-.906-1.578,2.411,2.411,0,0,1,.855-1.922,3.413,3.413,0,0,1,2.3-.734,3.194,3.194,0,0,1,2.727,1.109,2.407,2.407,0,0,1,.508,1.516H52.945a1.627,1.627,0,0,0-.336-.867,2.143,2.143,0,0,0-1.68-.555,2.008,2.008,0,0,0-1.207.3.955.955,0,0,0-.41.8.991.991,0,0,0,.539.875,3.239,3.239,0,0,0,.922.344l.93.227a7.188,7.188,0,0,1,2.031.711,1.882,1.882,0,0,1,.82,1.7,2.584,2.584,0,0,1-.848,1.93,3.608,3.608,0,0,1-2.582.813,3.464,3.464,0,0,1-2.645-.848,3.206,3.206,0,0,1-.832-2.1ZM65.836,3.633h1.555q-.3.8-1.32,3.672Q65.3,9.461,64.789,10.82a23.768,23.768,0,0,1-1.719,3.906,1.965,1.965,0,0,1-1.719.7,3.372,3.372,0,0,1-.457-.023,3.61,3.61,0,0,1-.395-.086V14.039a4.851,4.851,0,0,0,.531.125,2.074,2.074,0,0,0,.289.023,1.012,1.012,0,0,0,.574-.129,1.189,1.189,0,0,0,.309-.316q.039-.063.281-.641t.352-.859L59.742,3.633h1.594l2.242,6.813Zm8.109,4.281a4.147,4.147,0,0,0,.57,2.25,2,2,0,0,0,1.828.906,1.925,1.925,0,0,0,1.605-.84,3.966,3.966,0,0,0,.629-2.41,3.564,3.564,0,0,0-.648-2.348,2.023,2.023,0,0,0-1.6-.762,2.114,2.114,0,0,0-1.723.813A3.721,3.721,0,0,0,73.945,7.914Zm2.117-4.43a2.977,2.977,0,0,1,1.609.406,3.78,3.78,0,0,1,.852.82V.484h1.352V12H78.609V10.836a3.043,3.043,0,0,1-1.164,1.117,3.332,3.332,0,0,1-1.539.344,3.117,3.117,0,0,1-2.422-1.176,4.6,4.6,0,0,1-1.023-3.129,5.4,5.4,0,0,1,.934-3.168A3.057,3.057,0,0,1,76.063,3.484Zm9.375-.039a3.817,3.817,0,0,1,1.727.418,3.184,3.184,0,0,1,1.273,1.082A3.733,3.733,0,0,1,89,6.422a9.66,9.66,0,0,1,.125,1.844H82.992a3.579,3.579,0,0,0,.6,2.043,2.014,2.014,0,0,0,1.742.77,2.252,2.252,0,0,0,1.758-.727,2.449,2.449,0,0,0,.531-.977h1.383a2.912,2.912,0,0,1-.363,1.027,3.654,3.654,0,0,1-.691.926,3.277,3.277,0,0,1-1.586.844,4.818,4.818,0,0,1-1.148.125A3.524,3.524,0,0,1,82.57,11.16a4.423,4.423,0,0,1-1.086-3.184A4.809,4.809,0,0,1,82.578,4.7,3.608,3.608,0,0,1,85.438,3.445Zm2.242,3.7a3.643,3.643,0,0,0-.4-1.461,2.042,2.042,0,0,0-1.93-1.016,2.139,2.139,0,0,0-1.625.7,2.641,2.641,0,0,0-.7,1.777ZM91.2,2.359a2.507,2.507,0,0,1,.3-1.281,2.153,2.153,0,0,1,1.9-.719q.133,0,.273.008T94,.391V1.672q-.219-.016-.316-.02t-.184,0q-.641,0-.766.332a6.564,6.564,0,0,0-.125,1.691H94V4.781H92.594V12H91.2V4.781H90.039V3.672H91.2Zm4.148-.242V.523h1.406V2.117Zm0,1.555h1.406V12H95.352Zm3.5-.039h1.336V4.82a3.747,3.747,0,0,1,1.258-1.055,3.354,3.354,0,0,1,1.477-.32,2.435,2.435,0,0,1,2.406,1.242,4.411,4.411,0,0,1,.344,1.945V12h-1.43V6.727a2.856,2.856,0,0,0-.227-1.234,1.374,1.374,0,0,0-1.359-.781,2.768,2.768,0,0,0-.82.1,2.113,2.113,0,0,0-1.016.688,2.07,2.07,0,0,0-.457.855,5.758,5.758,0,0,0-.105,1.262V12H98.852Zm8.9.039h1.43V12h-1.43Zm0-3.148h1.43V2.117h-1.43Zm6.781,2.867a3.648,3.648,0,0,1,2.3.688A3.294,3.294,0,0,1,117.9,6.445h-1.367a2.524,2.524,0,0,0-.57-1.285,1.8,1.8,0,0,0-1.43-.512,1.975,1.975,0,0,0-1.922,1.313,5.214,5.214,0,0,0-.375,2.1,3.955,3.955,0,0,0,.531,2.117,2.06,2.06,0,0,0,3.059.324,2.943,2.943,0,0,0,.707-1.465H117.9a3.67,3.67,0,0,1-1.172,2.434,3.656,3.656,0,0,1-2.4.77,3.2,3.2,0,0,1-2.617-1.2,4.59,4.59,0,0,1-.977-3,5.048,5.048,0,0,1,1.07-3.43A3.459,3.459,0,0,1,114.531,3.391Zm4.773.281h1.43V12H119.3Zm0-3.148h1.43V2.117H119.3Zm6.875,10.57a1.939,1.939,0,0,0,1.918-1.059,5.274,5.274,0,0,0,.52-2.355,4.194,4.194,0,0,0-.375-1.906A2.11,2.11,0,0,0,126.2,4.617a2.018,2.018,0,0,0-1.875.984,4.563,4.563,0,0,0-.586,2.375,3.969,3.969,0,0,0,.586,2.227A2.064,2.064,0,0,0,126.18,11.094Zm.055-7.7a3.789,3.789,0,0,1,2.734,1.078,4.21,4.21,0,0,1,1.117,3.172,5.442,5.442,0,0,1-.984,3.344,3.561,3.561,0,0,1-3.055,1.32,3.449,3.449,0,0,1-2.742-1.168A4.613,4.613,0,0,1,122.289,8a4.991,4.991,0,0,1,1.07-3.359A3.592,3.592,0,0,1,126.234,3.391ZM127.867.266l-2.086,2.258H124.7l1.43-2.258Zm3.891,3.367h1.336V4.82a3.747,3.747,0,0,1,1.258-1.055,3.354,3.354,0,0,1,1.477-.32,2.435,2.435,0,0,1,2.406,1.242,4.411,4.411,0,0,1,.344,1.945V12h-1.43V6.727a2.855,2.855,0,0,0-.227-1.234,1.374,1.374,0,0,0-1.359-.781,2.768,2.768,0,0,0-.82.1,2.113,2.113,0,0,0-1.016.688,2.07,2.07,0,0,0-.457.855,5.758,5.758,0,0,0-.105,1.262V12h-1.406ZM1.922,26.914a4.148,4.148,0,0,0,.57,2.25,2,2,0,0,0,1.828.906,1.925,1.925,0,0,0,1.605-.84,3.966,3.966,0,0,0,.629-2.41,3.564,3.564,0,0,0-.648-2.348,2.023,2.023,0,0,0-1.6-.762,2.114,2.114,0,0,0-1.723.813A3.721,3.721,0,0,0,1.922,26.914Zm2.117-4.43a2.977,2.977,0,0,1,1.609.406,3.78,3.78,0,0,1,.852.82V19.484H7.852V31H6.586V29.836a3.043,3.043,0,0,1-1.164,1.117,3.332,3.332,0,0,1-1.539.344,3.117,3.117,0,0,1-2.422-1.176A4.6,4.6,0,0,1,.438,26.992a5.4,5.4,0,0,1,.934-3.168A3.057,3.057,0,0,1,4.039,22.484Zm9.375-.039a3.817,3.817,0,0,1,1.727.418,3.184,3.184,0,0,1,1.273,1.082,3.733,3.733,0,0,1,.563,1.477,9.661,9.661,0,0,1,.125,1.844H10.969a3.579,3.579,0,0,0,.6,2.043,2.014,2.014,0,0,0,1.742.77,2.252,2.252,0,0,0,1.758-.727,2.449,2.449,0,0,0,.531-.977h1.383a2.912,2.912,0,0,1-.363,1.027,3.654,3.654,0,0,1-.691.926,3.277,3.277,0,0,1-1.586.844A4.818,4.818,0,0,1,13.2,31.3a3.524,3.524,0,0,1-2.648-1.137,4.423,4.423,0,0,1-1.086-3.184A4.809,4.809,0,0,1,10.555,23.7,3.608,3.608,0,0,1,13.414,22.445Zm2.242,3.7a3.643,3.643,0,0,0-.4-1.461,2.042,2.042,0,0,0-1.93-1.016,2.139,2.139,0,0,0-1.625.7,2.641,2.641,0,0,0-.7,1.777Zm8.7,2.625a1.158,1.158,0,0,0,.445.961,1.651,1.651,0,0,0,1.055.352,3.207,3.207,0,0,0,1.438-.344,1.935,1.935,0,0,0,1.172-1.867V26.742a2.406,2.406,0,0,1-.664.273,5.659,5.659,0,0,1-.8.156l-.852.109A3.257,3.257,0,0,0,25,27.6,1.248,1.248,0,0,0,24.352,28.773Zm3.406-2.844a.764.764,0,0,0,.648-.406,1.236,1.236,0,0,0,.094-.539,1.142,1.142,0,0,0-.512-1.043,2.745,2.745,0,0,0-1.465-.324,1.861,1.861,0,0,0-1.562.594,1.953,1.953,0,0,0-.336.977H23.313a2.416,2.416,0,0,1,1-2.152,4.122,4.122,0,0,1,2.238-.605,4.554,4.554,0,0,1,2.4.563,1.908,1.908,0,0,1,.914,1.75v4.82a.617.617,0,0,0,.09.352.433.433,0,0,0,.379.133q.094,0,.211-.012T30.8,30v1.039a3.917,3.917,0,0,1-.5.117,3.654,3.654,0,0,1-.469.023,1.157,1.157,0,0,1-1.055-.516,1.99,1.99,0,0,1-.242-.773,3.578,3.578,0,0,1-1.234.977,3.818,3.818,0,0,1-1.773.414,2.637,2.637,0,0,1-1.9-.707,2.349,2.349,0,0,1-.738-1.77,2.279,2.279,0,0,1,.727-1.8,3.457,3.457,0,0,1,1.906-.789ZM35.4,22.391a3.648,3.648,0,0,1,2.3.688,3.294,3.294,0,0,1,1.066,2.367H37.4a2.524,2.524,0,0,0-.57-1.285,1.8,1.8,0,0,0-1.43-.512,1.975,1.975,0,0,0-1.922,1.313,5.214,5.214,0,0,0-.375,2.1,3.955,3.955,0,0,0,.531,2.117,2.06,2.06,0,0,0,3.059.324,2.943,2.943,0,0,0,.707-1.465h1.367a3.306,3.306,0,0,1-3.57,3.2,3.2,3.2,0,0,1-2.617-1.2,4.59,4.59,0,0,1-.977-3,5.048,5.048,0,0,1,1.07-3.43A3.459,3.459,0,0,1,35.4,22.391Zm8,0a3.648,3.648,0,0,1,2.3.688,3.294,3.294,0,0,1,1.066,2.367H45.4a2.524,2.524,0,0,0-.57-1.285,1.8,1.8,0,0,0-1.43-.512,1.975,1.975,0,0,0-1.922,1.313,5.214,5.214,0,0,0-.375,2.1,3.955,3.955,0,0,0,.531,2.117,2.06,2.06,0,0,0,3.059.324,2.943,2.943,0,0,0,.707-1.465h1.367a3.306,3.306,0,0,1-3.57,3.2,3.2,3.2,0,0,1-2.617-1.2,4.59,4.59,0,0,1-.977-3,5.048,5.048,0,0,1,1.07-3.43A3.459,3.459,0,0,1,43.4,22.391Zm4.773.281H49.6V31h-1.43Zm0-3.148H49.6v1.594h-1.43Zm6.875,10.57a1.939,1.939,0,0,0,1.918-1.059,5.274,5.274,0,0,0,.52-2.355,4.194,4.194,0,0,0-.375-1.906,2.11,2.11,0,0,0-2.047-1.156,2.018,2.018,0,0,0-1.875.984,4.563,4.563,0,0,0-.586,2.375,3.969,3.969,0,0,0,.586,2.227A2.064,2.064,0,0,0,55.047,30.094Zm.055-7.7a3.789,3.789,0,0,1,2.734,1.078,4.21,4.21,0,0,1,1.117,3.172,5.442,5.442,0,0,1-.984,3.344,3.561,3.561,0,0,1-3.055,1.32,3.449,3.449,0,0,1-2.742-1.168A4.613,4.613,0,0,1,51.156,27a4.991,4.991,0,0,1,1.07-3.359A3.592,3.592,0,0,1,55.1,22.391Zm5.523.242h1.336V23.82a3.747,3.747,0,0,1,1.258-1.055,3.354,3.354,0,0,1,1.477-.32A2.435,2.435,0,0,1,67.1,23.688a4.411,4.411,0,0,1,.344,1.945V31h-1.43V25.727a2.856,2.856,0,0,0-.227-1.234,1.374,1.374,0,0,0-1.359-.781,2.768,2.768,0,0,0-.82.1,2.113,2.113,0,0,0-1.016.688,2.07,2.07,0,0,0-.457.855,5.758,5.758,0,0,0-.105,1.262V31H60.625Zm12.383-.187a3.817,3.817,0,0,1,1.727.418,3.184,3.184,0,0,1,1.273,1.082,3.733,3.733,0,0,1,.563,1.477,9.66,9.66,0,0,1,.125,1.844H70.563a3.579,3.579,0,0,0,.6,2.043,2.014,2.014,0,0,0,1.742.77,2.252,2.252,0,0,0,1.758-.727,2.449,2.449,0,0,0,.531-.977h1.383a2.912,2.912,0,0,1-.363,1.027,3.654,3.654,0,0,1-.691.926,3.277,3.277,0,0,1-1.586.844,4.818,4.818,0,0,1-1.148.125,3.524,3.524,0,0,1-2.648-1.137,4.423,4.423,0,0,1-1.086-3.184A4.809,4.809,0,0,1,70.148,23.7,3.608,3.608,0,0,1,73.008,22.445Zm2.242,3.7a3.643,3.643,0,0,0-.4-1.461,2.042,2.042,0,0,0-1.93-1.016,2.139,2.139,0,0,0-1.625.7,2.641,2.641,0,0,0-.7,1.777Zm4.008,2.227a2.045,2.045,0,0,0,.352,1.078,2.209,2.209,0,0,0,1.844.68,2.719,2.719,0,0,0,1.375-.34,1.129,1.129,0,0,0,.594-1.051.9.9,0,0,0-.477-.82,5.666,5.666,0,0,0-1.2-.4l-1.117-.281a5.45,5.45,0,0,1-1.578-.594,1.775,1.775,0,0,1-.906-1.578A2.411,2.411,0,0,1,79,23.148a3.413,3.413,0,0,1,2.3-.734,3.194,3.194,0,0,1,2.727,1.109,2.407,2.407,0,0,1,.508,1.516H83.2a1.627,1.627,0,0,0-.336-.867,2.143,2.143,0,0,0-1.68-.555,2.008,2.008,0,0,0-1.207.3.955.955,0,0,0-.41.8.991.991,0,0,0,.539.875,3.239,3.239,0,0,0,.922.344l.93.227a7.188,7.188,0,0,1,2.031.711,1.882,1.882,0,0,1,.82,1.7,2.584,2.584,0,0,1-.848,1.93,3.608,3.608,0,0,1-2.582.813,3.464,3.464,0,0,1-2.645-.848,3.206,3.206,0,0,1-.832-2.1Zm-75,13.016a3.648,3.648,0,0,1,2.3.688,3.294,3.294,0,0,1,1.066,2.367H6.258a2.524,2.524,0,0,0-.57-1.285,1.8,1.8,0,0,0-1.43-.512,1.975,1.975,0,0,0-1.922,1.313,5.214,5.214,0,0,0-.375,2.1,3.955,3.955,0,0,0,.531,2.117,1.822,1.822,0,0,0,1.672.859A1.828,1.828,0,0,0,5.551,48.5a2.943,2.943,0,0,0,.707-1.465H7.625a3.67,3.67,0,0,1-1.172,2.434,3.656,3.656,0,0,1-2.4.77,3.2,3.2,0,0,1-2.617-1.2,4.59,4.59,0,0,1-.977-3,5.048,5.048,0,0,1,1.07-3.43A3.459,3.459,0,0,1,4.258,41.391Zm8.094,7.7a1.939,1.939,0,0,0,1.918-1.059,5.274,5.274,0,0,0,.52-2.355,4.194,4.194,0,0,0-.375-1.906,2.11,2.11,0,0,0-2.047-1.156,2.018,2.018,0,0,0-1.875.984,4.563,4.563,0,0,0-.586,2.375,3.969,3.969,0,0,0,.586,2.227A2.064,2.064,0,0,0,12.352,49.094Zm.055-7.7a3.789,3.789,0,0,1,2.734,1.078,4.21,4.21,0,0,1,1.117,3.172,5.442,5.442,0,0,1-.984,3.344,3.561,3.561,0,0,1-3.055,1.32,3.449,3.449,0,0,1-2.742-1.168A4.613,4.613,0,0,1,8.461,46a4.991,4.991,0,0,1,1.07-3.359A3.592,3.592,0,0,1,12.406,41.391Zm5.563.242H19.3v1.445a3.193,3.193,0,0,1,.8-1.027,2.086,2.086,0,0,1,1.477-.605q.039,0,.133.008l.32.031v1.484a2.1,2.1,0,0,0-.23-.031q-.105-.008-.23-.008a2.007,2.007,0,0,0-1.633.684,2.386,2.386,0,0,0-.57,1.574V50H17.969Zm5.328,0h1.336v1.445a3.193,3.193,0,0,1,.8-1.027,2.086,2.086,0,0,1,1.477-.605q.039,0,.133.008l.32.031v1.484a2.1,2.1,0,0,0-.23-.031q-.105-.008-.23-.008a2.007,2.007,0,0,0-1.633.684,2.386,2.386,0,0,0-.57,1.574V50H23.3Zm8.773-.187a3.817,3.817,0,0,1,1.727.418,3.184,3.184,0,0,1,1.273,1.082,3.733,3.733,0,0,1,.563,1.477,9.661,9.661,0,0,1,.125,1.844H29.625a3.579,3.579,0,0,0,.6,2.043,2.014,2.014,0,0,0,1.742.77,2.252,2.252,0,0,0,1.758-.727,2.449,2.449,0,0,0,.531-.977h1.383a2.912,2.912,0,0,1-.363,1.027,3.654,3.654,0,0,1-.691.926A3.277,3.277,0,0,1,33,50.172a4.818,4.818,0,0,1-1.148.125A3.524,3.524,0,0,1,29.2,49.16a4.423,4.423,0,0,1-1.086-3.184A4.809,4.809,0,0,1,29.211,42.7,3.608,3.608,0,0,1,32.07,41.445Zm2.242,3.7a3.643,3.643,0,0,0-.4-1.461,2.042,2.042,0,0,0-1.93-1.016,2.139,2.139,0,0,0-1.625.7,2.641,2.641,0,0,0-.7,1.777Zm6.4-3.758a3.648,3.648,0,0,1,2.3.688,3.294,3.294,0,0,1,1.066,2.367H42.711a2.524,2.524,0,0,0-.57-1.285,1.8,1.8,0,0,0-1.43-.512,1.975,1.975,0,0,0-1.922,1.313,5.214,5.214,0,0,0-.375,2.1,3.955,3.955,0,0,0,.531,2.117A2.06,2.06,0,0,0,42,48.5a2.943,2.943,0,0,0,.707-1.465h1.367a3.306,3.306,0,0,1-3.57,3.2,3.2,3.2,0,0,1-2.617-1.2,4.59,4.59,0,0,1-.977-3,5.048,5.048,0,0,1,1.07-3.43A3.459,3.459,0,0,1,40.711,41.391ZM45.766,39.3h1.422v2.336h1.336v1.148H47.188v5.461a.591.591,0,0,0,.3.586,1.262,1.262,0,0,0,.547.086q.1,0,.219,0t.273-.02V50a3.139,3.139,0,0,1-.5.1,4.791,4.791,0,0,1-.566.031,1.527,1.527,0,0,1-1.336-.5,2.239,2.239,0,0,1-.352-1.309V42.781H44.633V41.633h1.133Zm4.164,2.375h1.43V50H49.93Zm0-3.148h1.43v1.594H49.93Zm4.242,3.109,2.234,6.813,2.336-6.812h1.539L57.125,50h-1.5l-3.086-8.367Zm8.391,6.141a1.158,1.158,0,0,0,.445.961,1.651,1.651,0,0,0,1.055.352,3.207,3.207,0,0,0,1.438-.344,1.935,1.935,0,0,0,1.172-1.867V45.742a2.406,2.406,0,0,1-.664.273,5.659,5.659,0,0,1-.8.156l-.852.109a3.257,3.257,0,0,0-1.148.32A1.248,1.248,0,0,0,62.563,47.773Zm3.406-2.844a.764.764,0,0,0,.648-.406,1.236,1.236,0,0,0,.094-.539,1.142,1.142,0,0,0-.512-1.043,2.745,2.745,0,0,0-1.465-.324,1.861,1.861,0,0,0-1.562.594,1.953,1.953,0,0,0-.336.977H61.523a2.416,2.416,0,0,1,1-2.152,4.122,4.122,0,0,1,2.238-.605,4.554,4.554,0,0,1,2.4.563,1.908,1.908,0,0,1,.914,1.75v4.82a.617.617,0,0,0,.09.352.433.433,0,0,0,.379.133q.094,0,.211-.012t.25-.035v1.039a3.916,3.916,0,0,1-.5.117,3.654,3.654,0,0,1-.469.023,1.157,1.157,0,0,1-1.055-.516,1.99,1.99,0,0,1-.242-.773,3.578,3.578,0,0,1-1.234.977,3.818,3.818,0,0,1-1.773.414,2.637,2.637,0,0,1-1.9-.707,2.349,2.349,0,0,1-.738-1.77A2.279,2.279,0,0,1,61.82,46a3.457,3.457,0,0,1,1.906-.789Zm5.25,2.445a2.045,2.045,0,0,0,.352,1.078,2.209,2.209,0,0,0,1.844.68,2.719,2.719,0,0,0,1.375-.34,1.129,1.129,0,0,0,.594-1.051.9.9,0,0,0-.477-.82,5.666,5.666,0,0,0-1.2-.4l-1.117-.281a5.45,5.45,0,0,1-1.578-.594A1.775,1.775,0,0,1,70.1,44.07a2.411,2.411,0,0,1,.855-1.922,3.413,3.413,0,0,1,2.3-.734,3.194,3.194,0,0,1,2.727,1.109,2.407,2.407,0,0,1,.508,1.516H75.164a1.627,1.627,0,0,0-.336-.867,2.142,2.142,0,0,0-1.68-.555,2.008,2.008,0,0,0-1.207.3.955.955,0,0,0-.41.8.991.991,0,0,0,.539.875,3.239,3.239,0,0,0,.922.344l.93.227a7.188,7.188,0,0,1,2.031.711,1.882,1.882,0,0,1,.82,1.7,2.584,2.584,0,0,1-.848,1.93,3.608,3.608,0,0,1-2.582.813,3.464,3.464,0,0,1-2.645-.848,3.206,3.206,0,0,1-.832-2.1Zm7.461,4.258a.985.985,0,0,0,.758-.758,2.145,2.145,0,0,0,.117-.68q0-.055,0-.1a.538.538,0,0,0-.02-.1H78.68V48.3h1.672v1.578a3.418,3.418,0,0,1-.375,1.633,1.709,1.709,0,0,1-1.3.867Zm9.672-3.859a1.158,1.158,0,0,0,.445.961,1.651,1.651,0,0,0,1.055.352,3.207,3.207,0,0,0,1.438-.344,1.935,1.935,0,0,0,1.172-1.867V45.742a2.406,2.406,0,0,1-.664.273,5.659,5.659,0,0,1-.8.156l-.852.109A3.257,3.257,0,0,0,89,46.6,1.248,1.248,0,0,0,88.352,47.773Zm3.406-2.844a.764.764,0,0,0,.648-.406,1.236,1.236,0,0,0,.094-.539,1.142,1.142,0,0,0-.512-1.043,2.745,2.745,0,0,0-1.465-.324,1.861,1.861,0,0,0-1.562.594,1.953,1.953,0,0,0-.336.977H87.313a2.416,2.416,0,0,1,1-2.152,4.122,4.122,0,0,1,2.238-.605,4.554,4.554,0,0,1,2.4.563,1.908,1.908,0,0,1,.914,1.75v4.82a.617.617,0,0,0,.09.352.433.433,0,0,0,.379.133q.094,0,.211-.012T94.8,49v1.039a3.916,3.916,0,0,1-.5.117,3.654,3.654,0,0,1-.469.023,1.157,1.157,0,0,1-1.055-.516,1.99,1.99,0,0,1-.242-.773,3.578,3.578,0,0,1-1.234.977,3.818,3.818,0,0,1-1.773.414,2.637,2.637,0,0,1-1.9-.707,2.349,2.349,0,0,1-.738-1.77,2.279,2.279,0,0,1,.727-1.8,3.457,3.457,0,0,1,1.906-.789Zm4.414-3.3h1.336V42.82a3.747,3.747,0,0,1,1.258-1.055,3.354,3.354,0,0,1,1.477-.32,2.435,2.435,0,0,1,2.406,1.242,4.411,4.411,0,0,1,.344,1.945V50h-1.43V44.727a2.856,2.856,0,0,0-.227-1.234,1.374,1.374,0,0,0-1.359-.781,2.768,2.768,0,0,0-.82.1,2.113,2.113,0,0,0-1.016.688,2.07,2.07,0,0,0-.457.855,5.758,5.758,0,0,0-.105,1.262V50H96.172Zm9.977,6.141a1.158,1.158,0,0,0,.445.961,1.651,1.651,0,0,0,1.055.352,3.207,3.207,0,0,0,1.438-.344,1.935,1.935,0,0,0,1.172-1.867V45.742a2.406,2.406,0,0,1-.664.273,5.659,5.659,0,0,1-.8.156l-.852.109a3.257,3.257,0,0,0-1.148.32A1.248,1.248,0,0,0,106.148,47.773Zm3.406-2.844a.764.764,0,0,0,.648-.406,1.236,1.236,0,0,0,.094-.539,1.142,1.142,0,0,0-.512-1.043,2.745,2.745,0,0,0-1.465-.324,1.861,1.861,0,0,0-1.562.594,1.953,1.953,0,0,0-.336.977h-1.312a2.416,2.416,0,0,1,1-2.152,4.122,4.122,0,0,1,2.238-.605,4.554,4.554,0,0,1,2.4.563,1.908,1.908,0,0,1,.914,1.75v4.82a.617.617,0,0,0,.09.352.433.433,0,0,0,.379.133q.094,0,.211-.012t.25-.035v1.039a3.916,3.916,0,0,1-.5.117,3.654,3.654,0,0,1-.469.023,1.157,1.157,0,0,1-1.055-.516,1.99,1.99,0,0,1-.242-.773,3.578,3.578,0,0,1-1.234.977,3.818,3.818,0,0,1-1.773.414,2.637,2.637,0,0,1-1.9-.707,2.349,2.349,0,0,1-.738-1.77,2.279,2.279,0,0,1,.727-1.8,3.457,3.457,0,0,1,1.906-.789Zm.594-6.664-2.086,2.258h-1.078l1.43-2.258Zm3.859.258h1.406V50h-1.406Zm3.516,3.148h1.43V50h-1.43Zm0-3.148h1.43v1.594h-1.43Zm4.391,8.852a2.045,2.045,0,0,0,.352,1.078,2.209,2.209,0,0,0,1.844.68,2.719,2.719,0,0,0,1.375-.34,1.129,1.129,0,0,0,.594-1.051.9.9,0,0,0-.477-.82,5.666,5.666,0,0,0-1.2-.4l-1.117-.281a5.45,5.45,0,0,1-1.578-.594,1.775,1.775,0,0,1-.906-1.578,2.411,2.411,0,0,1,.855-1.922,3.413,3.413,0,0,1,2.3-.734,3.194,3.194,0,0,1,2.727,1.109,2.407,2.407,0,0,1,.508,1.516h-1.328a1.627,1.627,0,0,0-.336-.867,2.142,2.142,0,0,0-1.68-.555,2.008,2.008,0,0,0-1.207.3.955.955,0,0,0-.41.8.991.991,0,0,0,.539.875,3.239,3.239,0,0,0,.922.344l.93.227a7.188,7.188,0,0,1,2.031.711,1.882,1.882,0,0,1,.82,1.7,2.584,2.584,0,0,1-.848,1.93,3.608,3.608,0,0,1-2.582.813,3.464,3.464,0,0,1-2.645-.848,3.206,3.206,0,0,1-.832-2.1Zm7.164-5.7h1.43V50h-1.43Zm0-3.148h1.43v1.594h-1.43Zm4.391,8.852a2.045,2.045,0,0,0,.352,1.078,2.209,2.209,0,0,0,1.844.68,2.719,2.719,0,0,0,1.375-.34,1.129,1.129,0,0,0,.594-1.051.9.9,0,0,0-.477-.82,5.666,5.666,0,0,0-1.2-.4l-1.117-.281a5.45,5.45,0,0,1-1.578-.594,1.775,1.775,0,0,1-.906-1.578,2.411,2.411,0,0,1,.855-1.922,3.413,3.413,0,0,1,2.3-.734,3.194,3.194,0,0,1,2.727,1.109,2.407,2.407,0,0,1,.508,1.516h-1.328a1.627,1.627,0,0,0-.336-.867,2.143,2.143,0,0,0-1.68-.555,2.008,2.008,0,0,0-1.207.3.955.955,0,0,0-.41.8.991.991,0,0,0,.539.875,3.239,3.239,0,0,0,.922.344l.93.227a7.188,7.188,0,0,1,2.031.711,1.882,1.882,0,0,1,.82,1.7,2.584,2.584,0,0,1-.848,1.93,3.608,3.608,0,0,1-2.582.813,3.464,3.464,0,0,1-2.645-.848,3.206,3.206,0,0,1-.832-2.1ZM1.922,64.914a4.148,4.148,0,0,0,.57,2.25,2,2,0,0,0,1.828.906,1.925,1.925,0,0,0,1.605-.84,3.966,3.966,0,0,0,.629-2.41,3.564,3.564,0,0,0-.648-2.348,2.023,2.023,0,0,0-1.6-.762,2.114,2.114,0,0,0-1.723.813A3.721,3.721,0,0,0,1.922,64.914Zm2.117-4.43a2.977,2.977,0,0,1,1.609.406,3.78,3.78,0,0,1,.852.82V57.484H7.852V69H6.586V67.836a3.042,3.042,0,0,1-1.164,1.117,3.332,3.332,0,0,1-1.539.344,3.117,3.117,0,0,1-2.422-1.176A4.6,4.6,0,0,1,.438,64.992a5.4,5.4,0,0,1,.934-3.168A3.057,3.057,0,0,1,4.039,60.484Zm9.375-.039a3.817,3.817,0,0,1,1.727.418,3.184,3.184,0,0,1,1.273,1.082,3.733,3.733,0,0,1,.563,1.477,9.661,9.661,0,0,1,.125,1.844H10.969a3.579,3.579,0,0,0,.6,2.043,2.014,2.014,0,0,0,1.742.77,2.252,2.252,0,0,0,1.758-.727,2.449,2.449,0,0,0,.531-.977h1.383a2.912,2.912,0,0,1-.363,1.027,3.654,3.654,0,0,1-.691.926,3.277,3.277,0,0,1-1.586.844A4.818,4.818,0,0,1,13.2,69.3a3.524,3.524,0,0,1-2.648-1.137,4.423,4.423,0,0,1-1.086-3.184A4.809,4.809,0,0,1,10.555,61.7,3.608,3.608,0,0,1,13.414,60.445Zm2.242,3.7a3.643,3.643,0,0,0-.4-1.461,2.042,2.042,0,0,0-1.93-1.016,2.139,2.139,0,0,0-1.625.7,2.641,2.641,0,0,0-.7,1.777ZM26.5,60.391a3.648,3.648,0,0,1,2.3.688,3.294,3.294,0,0,1,1.066,2.367H28.5a2.524,2.524,0,0,0-.57-1.285,1.8,1.8,0,0,0-1.43-.512,1.975,1.975,0,0,0-1.922,1.313,5.214,5.214,0,0,0-.375,2.1,3.955,3.955,0,0,0,.531,2.117,2.06,2.06,0,0,0,3.059.324,2.943,2.943,0,0,0,.707-1.465h1.367a3.306,3.306,0,0,1-3.57,3.2,3.2,3.2,0,0,1-2.617-1.2,4.59,4.59,0,0,1-.977-3,5.048,5.048,0,0,1,1.07-3.43A3.459,3.459,0,0,1,26.5,60.391Zm5.852,6.383a1.158,1.158,0,0,0,.445.961,1.651,1.651,0,0,0,1.055.352,3.207,3.207,0,0,0,1.438-.344,1.935,1.935,0,0,0,1.172-1.867V64.742a2.406,2.406,0,0,1-.664.273,5.659,5.659,0,0,1-.8.156l-.852.109A3.257,3.257,0,0,0,33,65.6,1.248,1.248,0,0,0,32.352,66.773Zm3.406-2.844a.764.764,0,0,0,.648-.406,1.236,1.236,0,0,0,.094-.539,1.142,1.142,0,0,0-.512-1.043,2.745,2.745,0,0,0-1.465-.324,1.861,1.861,0,0,0-1.562.594,1.953,1.953,0,0,0-.336.977H31.313a2.416,2.416,0,0,1,1-2.152,4.122,4.122,0,0,1,2.238-.605,4.554,4.554,0,0,1,2.4.563,1.908,1.908,0,0,1,.914,1.75v4.82a.617.617,0,0,0,.09.352.433.433,0,0,0,.379.133q.094,0,.211-.012T38.8,68v1.039a3.917,3.917,0,0,1-.5.117,3.654,3.654,0,0,1-.469.023,1.157,1.157,0,0,1-1.055-.516,1.99,1.99,0,0,1-.242-.773,3.578,3.578,0,0,1-1.234.977,3.818,3.818,0,0,1-1.773.414,2.637,2.637,0,0,1-1.9-.707,2.348,2.348,0,0,1-.738-1.77,2.279,2.279,0,0,1,.727-1.8,3.457,3.457,0,0,1,1.906-.789Zm5.82-3.3v5.555a2.342,2.342,0,0,0,.2,1.047,1.417,1.417,0,0,0,1.4.75,1.977,1.977,0,0,0,2-1.312,5.207,5.207,0,0,0,.289-1.93V60.633h1.406V69H45.547l.016-1.234a2.837,2.837,0,0,1-.68.8,2.991,2.991,0,0,1-1.953.656,2.519,2.519,0,0,1-2.437-1.2,3.56,3.56,0,0,1-.352-1.711V60.633Zm8.328,5.742a2.045,2.045,0,0,0,.352,1.078,2.209,2.209,0,0,0,1.844.68,2.719,2.719,0,0,0,1.375-.34,1.129,1.129,0,0,0,.594-1.051.9.9,0,0,0-.477-.82,5.666,5.666,0,0,0-1.2-.4l-1.117-.281a5.45,5.45,0,0,1-1.578-.594,1.775,1.775,0,0,1-.906-1.578,2.411,2.411,0,0,1,.855-1.922,3.413,3.413,0,0,1,2.3-.734,3.194,3.194,0,0,1,2.727,1.109,2.407,2.407,0,0,1,.508,1.516H53.852a1.627,1.627,0,0,0-.336-.867,2.143,2.143,0,0,0-1.68-.555,2.008,2.008,0,0,0-1.207.3.955.955,0,0,0-.41.8.991.991,0,0,0,.539.875,3.239,3.239,0,0,0,.922.344l.93.227a7.188,7.188,0,0,1,2.031.711,1.882,1.882,0,0,1,.82,1.7,2.584,2.584,0,0,1-.848,1.93,3.608,3.608,0,0,1-2.582.813,3.464,3.464,0,0,1-2.645-.848,3.206,3.206,0,0,1-.832-2.1Zm8.242.4a1.158,1.158,0,0,0,.445.961,1.651,1.651,0,0,0,1.055.352,3.207,3.207,0,0,0,1.438-.344,1.935,1.935,0,0,0,1.172-1.867V64.742a2.406,2.406,0,0,1-.664.273,5.659,5.659,0,0,1-.8.156l-.852.109a3.257,3.257,0,0,0-1.148.32A1.248,1.248,0,0,0,58.148,66.773Zm3.406-2.844a.764.764,0,0,0,.648-.406,1.236,1.236,0,0,0,.094-.539,1.142,1.142,0,0,0-.512-1.043,2.745,2.745,0,0,0-1.465-.324,1.861,1.861,0,0,0-1.562.594,1.953,1.953,0,0,0-.336.977H57.109a2.416,2.416,0,0,1,1-2.152,4.122,4.122,0,0,1,2.238-.605,4.554,4.554,0,0,1,2.4.563,1.908,1.908,0,0,1,.914,1.75v4.82a.617.617,0,0,0,.09.352.433.433,0,0,0,.379.133q.094,0,.211-.012t.25-.035v1.039a3.916,3.916,0,0,1-.5.117,3.654,3.654,0,0,1-.469.023,1.157,1.157,0,0,1-1.055-.516,1.99,1.99,0,0,1-.242-.773,3.578,3.578,0,0,1-1.234.977,3.818,3.818,0,0,1-1.773.414,2.637,2.637,0,0,1-1.9-.707,2.348,2.348,0,0,1-.738-1.77,2.279,2.279,0,0,1,.727-1.8,3.457,3.457,0,0,1,1.906-.789Zm5.25,2.445a2.045,2.045,0,0,0,.352,1.078,2.209,2.209,0,0,0,1.844.68,2.719,2.719,0,0,0,1.375-.34,1.129,1.129,0,0,0,.594-1.051.9.9,0,0,0-.477-.82,5.666,5.666,0,0,0-1.2-.4l-1.117-.281a5.45,5.45,0,0,1-1.578-.594,1.775,1.775,0,0,1-.906-1.578,2.411,2.411,0,0,1,.855-1.922,3.413,3.413,0,0,1,2.3-.734,3.194,3.194,0,0,1,2.727,1.109,2.407,2.407,0,0,1,.508,1.516H70.75a1.627,1.627,0,0,0-.336-.867,2.142,2.142,0,0,0-1.68-.555,2.008,2.008,0,0,0-1.207.3.955.955,0,0,0-.41.8.991.991,0,0,0,.539.875,3.239,3.239,0,0,0,.922.344l.93.227a7.188,7.188,0,0,1,2.031.711,1.882,1.882,0,0,1,.82,1.7,2.584,2.584,0,0,1-.848,1.93,3.608,3.608,0,0,1-2.582.813,3.464,3.464,0,0,1-2.645-.848,3.206,3.206,0,0,1-.832-2.1Zm12.5-1.461a4.147,4.147,0,0,0,.57,2.25,2,2,0,0,0,1.828.906,1.925,1.925,0,0,0,1.605-.84,3.966,3.966,0,0,0,.629-2.41,3.564,3.564,0,0,0-.648-2.348,2.023,2.023,0,0,0-1.6-.762,2.114,2.114,0,0,0-1.723.813A3.721,3.721,0,0,0,79.3,64.914Zm2.117-4.43a2.977,2.977,0,0,1,1.609.406,3.78,3.78,0,0,1,.852.82V57.484h1.352V69H83.969V67.836A3.043,3.043,0,0,1,82.8,68.953a3.332,3.332,0,0,1-1.539.344,3.117,3.117,0,0,1-2.422-1.176,4.6,4.6,0,0,1-1.023-3.129,5.4,5.4,0,0,1,.934-3.168A3.057,3.057,0,0,1,81.422,60.484Zm9.375-.039a3.817,3.817,0,0,1,1.727.418A3.184,3.184,0,0,1,93.8,61.945a3.733,3.733,0,0,1,.563,1.477,9.66,9.66,0,0,1,.125,1.844H88.352a3.579,3.579,0,0,0,.6,2.043,2.014,2.014,0,0,0,1.742.77,2.252,2.252,0,0,0,1.758-.727,2.449,2.449,0,0,0,.531-.977h1.383A2.912,2.912,0,0,1,94,67.4a3.654,3.654,0,0,1-.691.926,3.277,3.277,0,0,1-1.586.844,4.818,4.818,0,0,1-1.148.125A3.524,3.524,0,0,1,87.93,68.16a4.423,4.423,0,0,1-1.086-3.184A4.809,4.809,0,0,1,87.938,61.7,3.608,3.608,0,0,1,90.8,60.445Zm2.242,3.7a3.643,3.643,0,0,0-.4-1.461,2.042,2.042,0,0,0-1.93-1.016,2.139,2.139,0,0,0-1.625.7,2.641,2.641,0,0,0-.7,1.777ZM1.922,83.914a4.148,4.148,0,0,0,.57,2.25,2,2,0,0,0,1.828.906,1.925,1.925,0,0,0,1.605-.84,3.966,3.966,0,0,0,.629-2.41,3.564,3.564,0,0,0-.648-2.348,2.023,2.023,0,0,0-1.6-.762,2.114,2.114,0,0,0-1.723.813A3.721,3.721,0,0,0,1.922,83.914Zm2.117-4.43a2.977,2.977,0,0,1,1.609.406,3.78,3.78,0,0,1,.852.82V76.484H7.852V88H6.586V86.836a3.042,3.042,0,0,1-1.164,1.117,3.332,3.332,0,0,1-1.539.344,3.117,3.117,0,0,1-2.422-1.176A4.6,4.6,0,0,1,.438,83.992a5.4,5.4,0,0,1,.934-3.168A3.057,3.057,0,0,1,4.039,79.484Zm9.375-.039a3.817,3.817,0,0,1,1.727.418,3.184,3.184,0,0,1,1.273,1.082,3.733,3.733,0,0,1,.563,1.477,9.661,9.661,0,0,1,.125,1.844H10.969a3.579,3.579,0,0,0,.6,2.043,2.014,2.014,0,0,0,1.742.77,2.252,2.252,0,0,0,1.758-.727,2.449,2.449,0,0,0,.531-.977h1.383a2.912,2.912,0,0,1-.363,1.027,3.654,3.654,0,0,1-.691.926,3.277,3.277,0,0,1-1.586.844A4.818,4.818,0,0,1,13.2,88.3a3.524,3.524,0,0,1-2.648-1.137,4.423,4.423,0,0,1-1.086-3.184A4.809,4.809,0,0,1,10.555,80.7,3.608,3.608,0,0,1,13.414,79.445Zm2.242,3.7a3.643,3.643,0,0,0-.4-1.461,2.042,2.042,0,0,0-1.93-1.016,2.139,2.139,0,0,0-1.625.7,2.641,2.641,0,0,0-.7,1.777Zm3.523-4.789a2.507,2.507,0,0,1,.3-1.281,2.153,2.153,0,0,1,1.9-.719q.133,0,.273.008t.32.023v1.281q-.219-.016-.316-.02t-.184,0q-.641,0-.766.332a6.564,6.564,0,0,0-.125,1.691h1.391v1.109H20.57V88H19.18V80.781H18.016V79.672H19.18Zm7.578,1.086a3.817,3.817,0,0,1,1.727.418,3.184,3.184,0,0,1,1.273,1.082,3.733,3.733,0,0,1,.563,1.477,9.661,9.661,0,0,1,.125,1.844H24.313a3.579,3.579,0,0,0,.6,2.043,2.014,2.014,0,0,0,1.742.77,2.252,2.252,0,0,0,1.758-.727,2.449,2.449,0,0,0,.531-.977h1.383a2.912,2.912,0,0,1-.363,1.027,3.654,3.654,0,0,1-.691.926,3.277,3.277,0,0,1-1.586.844,4.818,4.818,0,0,1-1.148.125,3.524,3.524,0,0,1-2.648-1.137A4.423,4.423,0,0,1,22.8,83.977,4.809,4.809,0,0,1,23.9,80.7,3.608,3.608,0,0,1,26.758,79.445ZM29,83.148a3.643,3.643,0,0,0-.4-1.461,2.042,2.042,0,0,0-1.93-1.016,2.139,2.139,0,0,0-1.625.7,2.641,2.641,0,0,0-.7,1.777Zm6.4-3.758a3.648,3.648,0,0,1,2.3.688,3.294,3.294,0,0,1,1.066,2.367H37.4a2.524,2.524,0,0,0-.57-1.285,1.8,1.8,0,0,0-1.43-.512,1.975,1.975,0,0,0-1.922,1.313,5.214,5.214,0,0,0-.375,2.1,3.955,3.955,0,0,0,.531,2.117,2.06,2.06,0,0,0,3.059.324,2.943,2.943,0,0,0,.707-1.465h1.367a3.306,3.306,0,0,1-3.57,3.2,3.2,3.2,0,0,1-2.617-1.2,4.59,4.59,0,0,1-.977-3,5.048,5.048,0,0,1,1.07-3.43A3.459,3.459,0,0,1,35.4,79.391ZM40.453,77.3h1.422v2.336h1.336v1.148H41.875v5.461a.591.591,0,0,0,.3.586,1.262,1.262,0,0,0,.547.086q.1,0,.219,0t.273-.02V88a3.139,3.139,0,0,1-.5.1,4.79,4.79,0,0,1-.566.031,1.527,1.527,0,0,1-1.336-.5,2.239,2.239,0,0,1-.352-1.309V80.781H39.32V79.633h1.133Zm7.484,9.8a1.939,1.939,0,0,0,1.918-1.059,5.274,5.274,0,0,0,.52-2.355A4.194,4.194,0,0,0,50,81.773a2.11,2.11,0,0,0-2.047-1.156,2.018,2.018,0,0,0-1.875.984,4.563,4.563,0,0,0-.586,2.375,3.969,3.969,0,0,0,.586,2.227A2.064,2.064,0,0,0,47.938,87.094Zm.055-7.7a3.789,3.789,0,0,1,2.734,1.078,4.21,4.21,0,0,1,1.117,3.172,5.442,5.442,0,0,1-.984,3.344A3.561,3.561,0,0,1,47.8,88.3a3.449,3.449,0,0,1-2.742-1.168A4.613,4.613,0,0,1,44.047,84a4.991,4.991,0,0,1,1.07-3.359A3.592,3.592,0,0,1,47.992,79.391Zm6.359,5.984a2.045,2.045,0,0,0,.352,1.078,2.209,2.209,0,0,0,1.844.68,2.719,2.719,0,0,0,1.375-.34,1.129,1.129,0,0,0,.594-1.051.9.9,0,0,0-.477-.82,5.666,5.666,0,0,0-1.2-.4l-1.117-.281a5.45,5.45,0,0,1-1.578-.594,1.775,1.775,0,0,1-.906-1.578,2.411,2.411,0,0,1,.855-1.922,3.413,3.413,0,0,1,2.3-.734,3.194,3.194,0,0,1,2.727,1.109,2.407,2.407,0,0,1,.508,1.516H58.3a1.627,1.627,0,0,0-.336-.867,2.143,2.143,0,0,0-1.68-.555,2.008,2.008,0,0,0-1.207.3.955.955,0,0,0-.41.8.991.991,0,0,0,.539.875,3.239,3.239,0,0,0,.922.344l.93.227a7.188,7.188,0,0,1,2.031.711,1.882,1.882,0,0,1,.82,1.7,2.584,2.584,0,0,1-.848,1.93,3.608,3.608,0,0,1-2.582.813,3.464,3.464,0,0,1-2.645-.848,3.206,3.206,0,0,1-.832-2.1Zm7.5.922h1.633V88H61.852Z" transform="translate(637.318 9419)" fill="#00223d"/>
  </g>
</svg>
