<svg xmlns="http://www.w3.org/2000/svg" xmlns:xlink="http://www.w3.org/1999/xlink" viewBox="0 0 691.44 461"><defs><style>.cls-1{fill:url(#Degradado_sin_nombre_10);}.cls-2{fill:none;stroke:#707070;}.cls-3{fill:#eef0f2;}.cls-4{fill:url(#Degradado_sin_nombre_9);}.cls-5{fill:url(#Degradado_sin_nombre_8);}.cls-6{fill:url(#Degradado_sin_nombre_7);}.cls-7{fill:url(#Degradado_sin_nombre_7-2);}.cls-8{fill:url(#Degradado_sin_nombre_6);}.cls-9{isolation:isolate;}.cls-10{fill:#15579f;}.cls-11{fill:#00223d;}</style><linearGradient id="Degradado_sin_nombre_10" x1="-961.7" y1="1030.97" x2="-961.7" y2="1029.97" gradientTransform="matrix(239, 0, 0, -232, 230170.92, 239304.01)" gradientUnits="userSpaceOnUse"><stop offset="0" stop-color="#58a5f8"/><stop offset="1" stop-color="#6fd8d8"/></linearGradient><linearGradient id="Degradado_sin_nombre_9" x1="-961.35" y1="1031.45" x2="-961.35" y2="1032.69" gradientTransform="matrix(198, 0, 0, -75, 190673.11, 77447.05)" gradientUnits="userSpaceOnUse"><stop offset="0" stop-color="#6fd8d8"/><stop offset="0.97" stop-color="#60d3d3" stop-opacity="0"/><stop offset="1" stop-color="#386c6c" stop-opacity="0.02"/></linearGradient><linearGradient id="Degradado_sin_nombre_8" x1="-961.7" y1="1031.67" x2="-961.7" y2="1032.72" gradientTransform="matrix(230, 0, 0, -74, 221757.06, 76570.88)" gradientUnits="userSpaceOnUse"><stop offset="0" stop-color="#c95dc3"/><stop offset="0.96" stop-color="#f8f8f8" stop-opacity="0.05"/><stop offset="1" stop-color="#87d9d9" stop-opacity="0"/></linearGradient><linearGradient id="Degradado_sin_nombre_7" x1="-962.1" y1="1030.97" x2="-962.1" y2="1032.02" gradientTransform="matrix(285, 0, 0, -103, 274748.11, 106649.86)" gradientUnits="userSpaceOnUse"><stop offset="0" stop-color="#ffc74a"/><stop offset="1" stop-color="#fff" stop-opacity="0"/></linearGradient><linearGradient id="Degradado_sin_nombre_7-2" x1="-961.35" y1="1030.97" x2="-961.35" y2="1032.02" gradientTransform="matrix(198, 0, 0, -103, 190491.11, 106649.86)" xlink:href="#Degradado_sin_nombre_7"/><linearGradient id="Degradado_sin_nombre_6" x1="-961.35" y1="1031.42" x2="-961.35" y2="1032.48" gradientTransform="matrix(198, 0, 0, -82, 190447.11, 84812.25)" gradientUnits="userSpaceOnUse"><stop offset="0" stop-color="#8acc59"/><stop offset="1" stop-color="#fff" stop-opacity="0"/></linearGradient></defs><g id="Capa_2" data-name="Capa 2"><g id="Capa_1-2" data-name="Capa 1"><g id="Elipse_989" data-name="Elipse 989"><ellipse class="cls-1" cx="324.5" cy="236" rx="119.5" ry="116"/><ellipse class="cls-2" cx="324.5" cy="236" rx="119" ry="115.5"/></g><ellipse id="Elipse_990" data-name="Elipse 990" class="cls-3" cx="324.5" cy="235.5" rx="109.5" ry="106.5"/><rect id="Rectángulo_31845" data-name="Rectángulo 31845" class="cls-4" x="226" width="198" height="75" rx="15"/><rect id="Rectángulo_31846" data-name="Rectángulo 31846" class="cls-5" x="451" y="154" width="230" height="74" rx="15"/><rect id="Rectángulo_31847" data-name="Rectángulo 31847" class="cls-6" x="406.44" y="358" width="285" height="103" rx="15"/><rect id="Rectángulo_31848" data-name="Rectángulo 31848" class="cls-7" x="44" y="358" width="198" height="103" rx="15"/><rect id="Rectángulo_31849" data-name="Rectángulo 31849" class="cls-8" y="154" width="198" height="82" rx="15"/><g id="Círculos_de_calidad" data-name="Círculos de calidad" class="cls-9"><g class="cls-9"><path class="cls-10" d="M255.3,226.29a10.93,10.93,0,0,1-4-.73,9.33,9.33,0,0,1-3.2-2,9.11,9.11,0,0,1-2.11-3.21,11.25,11.25,0,0,1-.76-4.2,10.68,10.68,0,0,1,1.31-5.37,8.89,8.89,0,0,1,3.6-3.54A10.81,10.81,0,0,1,255.3,206a10.46,10.46,0,0,1,5.8,1.6,8.75,8.75,0,0,1,3.54,4.4l-3.83,1.39a5.35,5.35,0,0,0-2.12-2.66,6.06,6.06,0,0,0-3.39-1,5.79,5.79,0,0,0-4.32,1.72,7.21,7.21,0,0,0,0,9.31,5.79,5.79,0,0,0,4.31,1.73,6,6,0,0,0,3.38-1,5.44,5.44,0,0,0,2.13-2.67l3.83,1.39a8.82,8.82,0,0,1-3.54,4.41A10.46,10.46,0,0,1,255.3,226.29Z"/><path class="cls-10" d="M267.48,226V212h4V226Zm.78-16,3.58-5,1.94,1.37-3.1,3.66Z"/><path class="cls-10" d="M279.29,214.19a4.58,4.58,0,0,1,1.85-1.69,5.62,5.62,0,0,1,2.75-.7v3.51a5.33,5.33,0,0,0-3.37.85,3.71,3.71,0,0,0-1,3V226h-4V212h3.77Z"/><path class="cls-10" d="M292.47,226.28a7.49,7.49,0,0,1-5.42-2,7.66,7.66,0,0,1,0-10.55,8.36,8.36,0,0,1,10-.66,6,6,0,0,1,2.35,3.82l-3.64.39a3.08,3.08,0,0,0-1.18-1.84,3.56,3.56,0,0,0-2.13-.62,3.21,3.21,0,0,0-2.57,1.15,5.17,5.17,0,0,0,0,6.06,3.22,3.22,0,0,0,2.57,1.16,3.56,3.56,0,0,0,2.13-.62,3.18,3.18,0,0,0,1.18-1.84l3.64.39a6.07,6.07,0,0,1-2.37,3.82A7.5,7.5,0,0,1,292.47,226.28Z"/><path class="cls-10" d="M311.49,212h3.94V226H311.7l-.1-1.7a5.38,5.38,0,0,1-4.47,2,5.43,5.43,0,0,1-3.88-1.27,4.65,4.65,0,0,1-1.36-3.6V212h3.95v8.61a2.43,2.43,0,0,0,.71,1.93,2.68,2.68,0,0,0,1.82.62,3.2,3.2,0,0,0,2.24-.8,3.45,3.45,0,0,0,.88-2.61Z"/><path class="cls-10" d="M319.5,226V205h4v21Z"/><path class="cls-10" d="M334.1,226.29a8.85,8.85,0,0,1-4-.86,6.47,6.47,0,0,1-2.73-2.53,7.55,7.55,0,0,1-1-3.93,6.89,6.89,0,0,1,2.13-5.33,8.93,8.93,0,0,1,11.14,0,7.77,7.77,0,0,1,0,10.69A8,8,0,0,1,334.1,226.29Zm0-3.13a3.61,3.61,0,0,0,2.79-1.15,4.91,4.91,0,0,0,0-6.07,3.61,3.61,0,0,0-2.79-1.15,3.49,3.49,0,0,0-2.7,1.16,4.92,4.92,0,0,0,0,6.05A3.49,3.49,0,0,0,334.06,223.16Z"/><path class="cls-10" d="M349.69,226.29a7.81,7.81,0,0,1-4.1-1,4.11,4.11,0,0,1-2-2.92l3.29-.93a2.66,2.66,0,0,0,2.82,2.09,3,3,0,0,0,1.44-.32,1.14,1.14,0,0,0,.56-1.09,1.12,1.12,0,0,0-.24-.72,1.75,1.75,0,0,0-.71-.52,8.94,8.94,0,0,0-1-.37l-1.25-.36c-.52-.14-.95-.28-1.3-.41a9.27,9.27,0,0,1-1.24-.52,5.2,5.2,0,0,1-1-.73,2.81,2.81,0,0,1-.77-1.1,3.93,3.93,0,0,1-.27-1.5,3.59,3.59,0,0,1,1.53-3.15,6.79,6.79,0,0,1,4-1.06,7,7,0,0,1,3.68.9,4.11,4.11,0,0,1,1.89,2.82l-3.05.68a2.39,2.39,0,0,0-2.5-1.78,2.71,2.71,0,0,0-1.38.32,1,1,0,0,0-.55.93,1.16,1.16,0,0,0,.08.42.84.84,0,0,0,.29.34,3.85,3.85,0,0,0,.4.26,2.43,2.43,0,0,0,.56.23l.61.18.72.18.73.19c.5.14.94.27,1.32.41a7.73,7.73,0,0,1,1.21.58,4.32,4.32,0,0,1,1.06.82,3.76,3.76,0,0,1,.69,1.16,4.38,4.38,0,0,1,.27,1.57,4.21,4.21,0,0,1-.47,2,3.47,3.47,0,0,1-1.29,1.37,6.45,6.45,0,0,1-1.83.74A9.42,9.42,0,0,1,349.69,226.29Z"/><path class="cls-10" d="M375.54,205h3.94v21h-3.73l-.1-1.84a4,4,0,0,1-1.78,1.6,6.14,6.14,0,0,1-2.63.56,7,7,0,0,1-2.63-.5,6.35,6.35,0,0,1-3.61-3.75,8.64,8.64,0,0,1-.53-3.07,8,8,0,0,1,.93-3.92,6.35,6.35,0,0,1,2.45-2.55,6.73,6.73,0,0,1,3.39-.86,6.18,6.18,0,0,1,2.55.51,4,4,0,0,1,1.75,1.46Zm-3.4,18.06A3.51,3.51,0,0,0,374.8,222a4.59,4.59,0,0,0,0-5.88,3.72,3.72,0,0,0-5.32,0,4.66,4.66,0,0,0,0,5.92A3.52,3.52,0,0,0,372.14,223.08Z"/><path class="cls-10" d="M396.78,218.78l0,.95H386.32a3.63,3.63,0,0,0,1.12,2.57,3.58,3.58,0,0,0,2.47.89,3.53,3.53,0,0,0,1.86-.49,3,3,0,0,0,1.18-1.42l3.61.54a6.17,6.17,0,0,1-2.46,3.29,7.31,7.31,0,0,1-4.16,1.18,7.63,7.63,0,0,1-5.48-1.94,8.09,8.09,0,0,1,0-10.73,7.38,7.38,0,0,1,5.35-2,6.44,6.44,0,0,1,7,7.12Zm-6.94-4.33a3.1,3.1,0,0,0-3.41,2.71h6.45a2.92,2.92,0,0,0-1-2A3.07,3.07,0,0,0,389.84,214.45Z"/></g><g class="cls-9"><path class="cls-10" d="M280,261.28a7.49,7.49,0,0,1-5.42-2,7.66,7.66,0,0,1,0-10.55,8.36,8.36,0,0,1,10-.66,6,6,0,0,1,2.35,3.82l-3.64.39a3.12,3.12,0,0,0-1.17-1.84,3.61,3.61,0,0,0-2.14-.62,3.23,3.23,0,0,0-2.57,1.15,5.17,5.17,0,0,0,0,6.06,3.23,3.23,0,0,0,2.57,1.16,3.56,3.56,0,0,0,2.13-.62,3.18,3.18,0,0,0,1.18-1.84l3.64.39a6.07,6.07,0,0,1-2.37,3.82A7.5,7.5,0,0,1,280,261.28Z"/><path class="cls-10" d="M301.24,257.2a13,13,0,0,0,.34,3.43V261H297.9l-.31-1.54a4.51,4.51,0,0,1-2,1.36,7.28,7.28,0,0,1-2.55.45,6.86,6.86,0,0,1-1.31-.12,4.62,4.62,0,0,1-1.18-.42,3.8,3.8,0,0,1-1-.73,3.21,3.21,0,0,1-.65-1.12,4.29,4.29,0,0,1-.25-1.52,4.34,4.34,0,0,1,.26-1.53,3.56,3.56,0,0,1,.68-1.14,4.08,4.08,0,0,1,1.11-.83,8,8,0,0,1,1.39-.6,17.22,17.22,0,0,1,1.67-.44l2.31-.52a2.69,2.69,0,0,0,1.05-.44.92.92,0,0,0,.31-.71,1.44,1.44,0,0,0-.69-1.35,3.17,3.17,0,0,0-1.68-.41c-1.61,0-2.53.71-2.75,2.14l-3.48-.62a4.74,4.74,0,0,1,2-3.21,8.1,8.1,0,0,1,4.42-1q5.91,0,5.91,5.07Zm-6.93,1.42a3.16,3.16,0,0,0,2.43-1,4.26,4.26,0,0,0,.94-3l-3.33.94a4.07,4.07,0,0,0-1.41.58,1.17,1.17,0,0,0-.48,1,1.3,1.3,0,0,0,.52,1.11A2.16,2.16,0,0,0,294.31,258.62Z"/><path class="cls-10" d="M305.06,261V240h4v21Z"/><path class="cls-10" d="M315.13,244.86a2.24,2.24,0,0,1-1.62-.67,2.23,2.23,0,0,1,0-3.2,2.23,2.23,0,0,1,1.61-.66,2.27,2.27,0,0,1,0,4.53Zm-2,16.16V247h4V261Z"/><path class="cls-10" d="M331.12,240h3.94v21h-3.73l-.1-1.84a4,4,0,0,1-1.78,1.6,6.14,6.14,0,0,1-2.63.56,7,7,0,0,1-2.63-.5,6.35,6.35,0,0,1-3.61-3.75,8.64,8.64,0,0,1-.53-3.07,8,8,0,0,1,.93-3.92,6.35,6.35,0,0,1,2.45-2.55,6.73,6.73,0,0,1,3.39-.86,6.18,6.18,0,0,1,2.55.51,4,4,0,0,1,1.75,1.46Zm-3.4,18.06a3.51,3.51,0,0,0,2.66-1.13,4.59,4.59,0,0,0,0-5.88,3.72,3.72,0,0,0-5.32,0,4.66,4.66,0,0,0,0,5.92A3.52,3.52,0,0,0,327.72,258.08Z"/><path class="cls-10" d="M350.66,257.2a13,13,0,0,0,.34,3.43V261h-3.68l-.31-1.54a4.51,4.51,0,0,1-2,1.36,7.27,7.27,0,0,1-2.54.45,6.79,6.79,0,0,1-1.31-.12,4.69,4.69,0,0,1-1.19-.42,3.74,3.74,0,0,1-1-.73,3.08,3.08,0,0,1-.66-1.12,4.53,4.53,0,0,1-.25-1.52,4.34,4.34,0,0,1,.26-1.53,3.58,3.58,0,0,1,.69-1.14,4,4,0,0,1,1.1-.83,8.08,8.08,0,0,1,1.4-.6,15.8,15.8,0,0,1,1.67-.44l2.31-.52a2.63,2.63,0,0,0,1-.44.89.89,0,0,0,.31-.71,1.44,1.44,0,0,0-.69-1.35,3.16,3.16,0,0,0-1.67-.41c-1.62,0-2.53.71-2.75,2.14l-3.49-.62a4.72,4.72,0,0,1,2-3.21,8.06,8.06,0,0,1,4.41-1q5.91,0,5.91,5.07Zm-6.93,1.42a3.16,3.16,0,0,0,2.43-1,4.26,4.26,0,0,0,.95-3l-3.34.94a3.93,3.93,0,0,0-1.4.58,1.18,1.18,0,0,0-.49,1,1.32,1.32,0,0,0,.52,1.11A2.16,2.16,0,0,0,343.73,258.62Z"/><path class="cls-10" d="M364.14,240h3.94v21h-3.73l-.1-1.84a4,4,0,0,1-1.78,1.6,6.15,6.15,0,0,1-2.64.56,6.94,6.94,0,0,1-2.62-.5,6.35,6.35,0,0,1-3.61-3.75,8.42,8.42,0,0,1-.53-3.07,8,8,0,0,1,.93-3.92,6.28,6.28,0,0,1,2.45-2.55,6.72,6.72,0,0,1,3.38-.86,6.18,6.18,0,0,1,2.55.51,4,4,0,0,1,1.76,1.46Zm-3.4,18.06A3.52,3.52,0,0,0,363.4,257a4.59,4.59,0,0,0,0-5.88,3.51,3.51,0,0,0-2.65-1.13,3.55,3.55,0,0,0-2.68,1.11,4.66,4.66,0,0,0,0,5.92A3.55,3.55,0,0,0,360.74,258.08Z"/></g></g><g id="Mejora_continua_de_producto." data-name="Mejora continua de producto." class="cls-9"><g class="cls-9"><path class="cls-11" d="M254.46,31.5h-2.62L251,21.93l-3.22,9.57h-1.7l-3.22-9.57L242,31.5h-2.64l1.06-12.7h3.77l2.7,8,2.75-8h3.76Z"/><path class="cls-11" d="M265.34,26.85l0,.61h-6.7a2.2,2.2,0,0,0,2.31,2.22,2.18,2.18,0,0,0,1.19-.31,1.9,1.9,0,0,0,.76-.91l2.32.34a3.86,3.86,0,0,1-1.58,2.12,4.71,4.71,0,0,1-2.67.76,4.89,4.89,0,0,1-3.52-1.25,4.54,4.54,0,0,1-1.3-3.45,4.54,4.54,0,0,1,1.31-3.45,4.72,4.72,0,0,1,3.43-1.26,4.55,4.55,0,0,1,3.24,1.15A4.52,4.52,0,0,1,265.34,26.85Zm-4.46-2.79a2,2,0,0,0-2.2,1.74h4.15a1.89,1.89,0,0,0-.62-1.29A2,2,0,0,0,260.88,24.06Z"/><path class="cls-11" d="M265.41,35.74v-2a2.75,2.75,0,0,0,.95-.13,1.06,1.06,0,0,0,.57-.45,2.05,2.05,0,0,0,.26-.78,7.77,7.77,0,0,0,.07-1.21V22.46h2.57v8.73a5,5,0,0,1-1,3.46A4.54,4.54,0,0,1,265.41,35.74Zm3.15-14.63a1.45,1.45,0,0,1-1.47-1.46,1.37,1.37,0,0,1,.44-1,1.44,1.44,0,0,1,2.05,0,1.36,1.36,0,0,1,.43,1,1.4,1.4,0,0,1-.43,1A1.42,1.42,0,0,1,268.56,21.11Z"/><path class="cls-11" d="M276.66,31.68a5.63,5.63,0,0,1-2.55-.56,4.17,4.17,0,0,1-1.76-1.62,4.92,4.92,0,0,1-.63-2.53,4.38,4.38,0,0,1,1.37-3.42,5.72,5.72,0,0,1,7.16,0A4.41,4.41,0,0,1,281.62,27a4.44,4.44,0,0,1-1.37,3.44A5.05,5.05,0,0,1,276.66,31.68Zm0-2a2.3,2.3,0,0,0,1.79-.74,3.14,3.14,0,0,0,0-3.9,2.34,2.34,0,0,0-1.79-.74,2.23,2.23,0,0,0-1.74.75,2.76,2.76,0,0,0-.67,1.94,2.77,2.77,0,0,0,.67,2A2.23,2.23,0,0,0,276.64,29.66Z"/><path class="cls-11" d="M285.93,23.9a2.92,2.92,0,0,1,1.18-1.09,3.67,3.67,0,0,1,1.77-.45v2.26a3.44,3.44,0,0,0-2.16.54,2.38,2.38,0,0,0-.67,1.94v4.4H283.5v-9h2.43Z"/><path class="cls-11" d="M297.72,29.05a8.7,8.7,0,0,0,.22,2.2v.25h-2.36l-.2-1a3.13,3.13,0,0,1-1.27.87,4.74,4.74,0,0,1-1.63.29,4.63,4.63,0,0,1-.85-.08,3.63,3.63,0,0,1-.76-.27,2.47,2.47,0,0,1-.63-.47,2.28,2.28,0,0,1-.42-.72,3,3,0,0,1-.16-1,2.76,2.76,0,0,1,.17-1,2.29,2.29,0,0,1,.44-.73,2.71,2.71,0,0,1,.71-.54,4.42,4.42,0,0,1,.9-.38,10.62,10.62,0,0,1,1.07-.29l1.49-.33a1.62,1.62,0,0,0,.67-.29.56.56,0,0,0,.2-.45.94.94,0,0,0-.45-.87,2.09,2.09,0,0,0-1.07-.26A1.55,1.55,0,0,0,292,25.42L289.78,25A3,3,0,0,1,291.09,23a5.21,5.21,0,0,1,2.84-.66q3.79,0,3.79,3.26Zm-4.45.91a2,2,0,0,0,1.56-.65,2.75,2.75,0,0,0,.61-1.94l-2.15.61a2.55,2.55,0,0,0-.9.36.76.76,0,0,0-.31.65.84.84,0,0,0,.33.72A1.39,1.39,0,0,0,293.27,30Z"/><path class="cls-11" d="M309,31.67a4.84,4.84,0,0,1-3.49-1.3A4.52,4.52,0,0,1,304.1,27a4.47,4.47,0,0,1,1.35-3.39,4.86,4.86,0,0,1,3.5-1.29,4.79,4.79,0,0,1,2.92.87,3.92,3.92,0,0,1,1.52,2.45l-2.34.26a2,2,0,0,0-.76-1.19,2.31,2.31,0,0,0-1.37-.4,2.07,2.07,0,0,0-1.65.74,2.89,2.89,0,0,0-.63,1.95,2.89,2.89,0,0,0,.63,2,2,2,0,0,0,1.65.74,2.31,2.31,0,0,0,1.37-.39,2.1,2.1,0,0,0,.76-1.19l2.34.26a3.94,3.94,0,0,1-1.53,2.45A4.83,4.83,0,0,1,309,31.67Z"/><path class="cls-11" d="M319.4,31.68a5.67,5.67,0,0,1-2.56-.56,4.15,4.15,0,0,1-1.75-1.62,4.83,4.83,0,0,1-.64-2.53,4.41,4.41,0,0,1,1.37-3.42,5.72,5.72,0,0,1,7.16,0A4.38,4.38,0,0,1,324.35,27,4.41,4.41,0,0,1,323,30.41,5,5,0,0,1,319.4,31.68Zm0-2a2.29,2.29,0,0,0,1.79-.74,3.14,3.14,0,0,0,0-3.9,2.32,2.32,0,0,0-1.79-.74,2.2,2.2,0,0,0-1.73.75,3.12,3.12,0,0,0,0,3.89A2.19,2.19,0,0,0,319.37,29.66Z"/><path class="cls-11" d="M331.57,22.29a3.55,3.55,0,0,1,2.5.81,3,3,0,0,1,.87,2.32V31.5H332.4V26a1.56,1.56,0,0,0-.46-1.25,1.71,1.71,0,0,0-1.16-.39,2.58,2.58,0,0,0-.76.11,2,2,0,0,0-.63.36,1.62,1.62,0,0,0-.45.68,3,3,0,0,0-.17,1.05v5h-2.54v-9h2.54v1A3.45,3.45,0,0,1,331.57,22.29Z"/><path class="cls-11" d="M340.75,31.5a2.72,2.72,0,0,1-2-.73,2.83,2.83,0,0,1-.73-2.09V24.41h-1.77V22.46h.57a1.51,1.51,0,0,0,1.13-.37,2,2,0,0,0,.36-1.35V19.55h2.28v2.91h1.86v1.95h-1.86v4q0,1.17,1.05,1.17h.81V31.5Z"/><path class="cls-11" d="M345.68,21.11a1.43,1.43,0,0,1-1-.42,1.4,1.4,0,0,1-.43-1,1.36,1.36,0,0,1,.43-1,1.42,1.42,0,0,1,1-.43,1.47,1.47,0,0,1,1.45,1.45,1.44,1.44,0,0,1-.43,1A1.42,1.42,0,0,1,345.68,21.11Zm-1.3,10.39v-9h2.55v9Z"/><path class="cls-11" d="M354.89,22.29a3.52,3.52,0,0,1,2.49.81,3,3,0,0,1,.87,2.32V31.5h-2.54V26a1.59,1.59,0,0,0-.45-1.25,1.71,1.71,0,0,0-1.16-.39,2.58,2.58,0,0,0-.76.11,2,2,0,0,0-.63.36,1.45,1.45,0,0,0-.45.68,3.19,3.19,0,0,0-.18,1.05v5h-2.53v-9h2.53v1A3.49,3.49,0,0,1,354.89,22.29Z"/><path class="cls-11" d="M366.69,22.46h2.53v9h-2.4l-.06-1.09a4,4,0,0,1-5.37.45,3,3,0,0,1-.87-2.31V22.46h2.54V28a1.57,1.57,0,0,0,.45,1.24,1.77,1.77,0,0,0,1.18.4,2,2,0,0,0,1.43-.52,2.18,2.18,0,0,0,.57-1.67Z"/><path class="cls-11" d="M379.25,29.05a8.25,8.25,0,0,0,.22,2.2v.25h-2.36l-.21-1a3,3,0,0,1-1.26.87,4.76,4.76,0,0,1-1.64.29,4.44,4.44,0,0,1-.84-.08,3.44,3.44,0,0,1-.76-.27,2.47,2.47,0,0,1-.63-.47,2.11,2.11,0,0,1-.42-.72,2.72,2.72,0,0,1-.16-1,2.76,2.76,0,0,1,.17-1,2.29,2.29,0,0,1,.44-.73,2.71,2.71,0,0,1,.71-.54,4.42,4.42,0,0,1,.9-.38,10.62,10.62,0,0,1,1.07-.29l1.48-.33a1.68,1.68,0,0,0,.68-.29.55.55,0,0,0,.19-.45.93.93,0,0,0-.44-.87,2.16,2.16,0,0,0-1.08-.26,1.55,1.55,0,0,0-1.76,1.38L371.31,25a3,3,0,0,1,1.3-2.06,5.26,5.26,0,0,1,2.84-.66q3.8,0,3.8,3.26Zm-4.46.91a2.07,2.07,0,0,0,1.57-.65,2.8,2.8,0,0,0,.61-1.94l-2.15.61a2.55,2.55,0,0,0-.9.36.76.76,0,0,0-.31.65.84.84,0,0,0,.33.72A1.36,1.36,0,0,0,374.79,30Z"/><path class="cls-11" d="M392.79,18h2.54V31.5h-2.4l-.07-1.18a2.61,2.61,0,0,1-1.14,1,3.91,3.91,0,0,1-1.69.36,4.54,4.54,0,0,1-1.69-.32,4.38,4.38,0,0,1-1.39-.92A4.3,4.3,0,0,1,386,29a5.49,5.49,0,0,1-.34-2,5.13,5.13,0,0,1,.59-2.52,4.16,4.16,0,0,1,1.58-1.64,4.33,4.33,0,0,1,2.18-.55,4,4,0,0,1,1.64.33,2.58,2.58,0,0,1,1.12.93Zm-2.18,11.61a2.27,2.27,0,0,0,1.71-.72A2.65,2.65,0,0,0,393,27a2.62,2.62,0,0,0-.69-1.89,2.23,2.23,0,0,0-1.7-.73,2.28,2.28,0,0,0-1.72.71,2.63,2.63,0,0,0-.68,1.91,2.62,2.62,0,0,0,.68,1.9A2.28,2.28,0,0,0,390.61,29.61Z"/><path class="cls-11" d="M406.44,26.85l0,.61h-6.7A2.2,2.2,0,0,0,402,29.68a2.18,2.18,0,0,0,1.19-.31,1.9,1.9,0,0,0,.76-.91l2.32.34a3.91,3.91,0,0,1-1.58,2.12,4.73,4.73,0,0,1-2.67.76,4.89,4.89,0,0,1-3.52-1.25A4.54,4.54,0,0,1,397.22,27a4.57,4.57,0,0,1,1.31-3.45A4.77,4.77,0,0,1,402,22.27a4.55,4.55,0,0,1,3.24,1.15A4.48,4.48,0,0,1,406.44,26.85ZM402,24.06a2,2,0,0,0-2.2,1.74h4.15a1.9,1.9,0,0,0-.63-1.29A2,2,0,0,0,402,24.06Z"/></g><g class="cls-9"><path class="cls-11" d="M286.23,46.29a4.54,4.54,0,0,1,1.69.32,4.45,4.45,0,0,1,1.38.92,4.22,4.22,0,0,1,.94,1.49,5.94,5.94,0,0,1,0,4,4.22,4.22,0,0,1-.94,1.49,4.45,4.45,0,0,1-1.38.92,4.54,4.54,0,0,1-1.69.32,4,4,0,0,1-1.64-.33,2.59,2.59,0,0,1-1.13-1v5.46h-2.53V46.46h2.4l.07,1.22a2.48,2.48,0,0,1,1.13-1A3.89,3.89,0,0,1,286.23,46.29Zm-.57,7.32a2.3,2.3,0,0,0,1.71-.71,3,3,0,0,0,0-3.8,2.43,2.43,0,0,0-3.44,0,3,3,0,0,0,0,3.78A2.3,2.3,0,0,0,285.66,53.61Z"/><path class="cls-11" d="M294.91,47.9a3,3,0,0,1,1.19-1.09,3.63,3.63,0,0,1,1.76-.45v2.26a3.46,3.46,0,0,0-2.16.54A2.42,2.42,0,0,0,295,51.1v4.4h-2.54v-9h2.42Z"/><path class="cls-11" d="M303.51,55.68a5.67,5.67,0,0,1-2.56-.56,4.15,4.15,0,0,1-1.75-1.62,4.83,4.83,0,0,1-.64-2.53,4.41,4.41,0,0,1,1.37-3.42,5.72,5.72,0,0,1,7.16,0,5,5,0,0,1,0,6.86A5,5,0,0,1,303.51,55.68Zm0-2a2.3,2.3,0,0,0,1.79-.74,3.14,3.14,0,0,0,0-3.9,2.34,2.34,0,0,0-1.79-.74,2.23,2.23,0,0,0-1.74.75,3.16,3.16,0,0,0,0,3.89A2.23,2.23,0,0,0,303.48,53.66Z"/><path class="cls-11" d="M316.75,42h2.53V55.5h-2.4l-.06-1.18a2.66,2.66,0,0,1-1.14,1,4,4,0,0,1-1.7.36,4.48,4.48,0,0,1-1.68-.32,4.38,4.38,0,0,1-1.39-.92A4.15,4.15,0,0,1,310,53a5.49,5.49,0,0,1-.35-2,5.13,5.13,0,0,1,.6-2.52,4.1,4.1,0,0,1,1.58-1.64,4.32,4.32,0,0,1,2.17-.55,3.94,3.94,0,0,1,1.64.33,2.55,2.55,0,0,1,1.13.93Zm-2.19,11.61a2.24,2.24,0,0,0,1.71-.72,3,3,0,0,0,0-3.78,2.25,2.25,0,0,0-1.71-.73,2.27,2.27,0,0,0-1.71.71,3,3,0,0,0,0,3.81A2.27,2.27,0,0,0,314.56,53.61Z"/><path class="cls-11" d="M327.89,46.46h2.53v9H328L328,54.41a4,4,0,0,1-5.37.45,3,3,0,0,1-.87-2.31V46.46h2.54V52a1.57,1.57,0,0,0,.45,1.24,1.73,1.73,0,0,0,1.17.4,2.05,2.05,0,0,0,1.44-.52,2.22,2.22,0,0,0,.57-1.67Z"/><path class="cls-11" d="M337.13,55.67a4.84,4.84,0,0,1-3.49-1.3,4.93,4.93,0,0,1,0-6.79,4.86,4.86,0,0,1,3.5-1.29,4.79,4.79,0,0,1,2.92.87,3.87,3.87,0,0,1,1.51,2.45l-2.33.26a2,2,0,0,0-.76-1.19,2.34,2.34,0,0,0-1.37-.4,2.07,2.07,0,0,0-1.65.74,3.29,3.29,0,0,0,0,3.9,2,2,0,0,0,1.65.74,2.33,2.33,0,0,0,1.37-.39,2.1,2.1,0,0,0,.76-1.19l2.33.26A3.89,3.89,0,0,1,340,54.79,4.83,4.83,0,0,1,337.13,55.67Z"/><path class="cls-11" d="M346.73,55.5a2.72,2.72,0,0,1-2-.73,2.87,2.87,0,0,1-.72-2.09V48.41H342.2V46.46h.57a1.48,1.48,0,0,0,1.12-.37,2,2,0,0,0,.36-1.35V43.55h2.29v2.91h1.86v1.95h-1.86v4c0,.78.35,1.17,1,1.17h.82V55.5Z"/><path class="cls-11" d="M354.54,55.68a5.67,5.67,0,0,1-2.56-.56,4.17,4.17,0,0,1-1.76-1.62,4.92,4.92,0,0,1-.63-2.53A4.41,4.41,0,0,1,351,47.55a5.72,5.72,0,0,1,7.16,0,5,5,0,0,1,0,6.86A5,5,0,0,1,354.54,55.68Zm0-2a2.3,2.3,0,0,0,1.79-.74,3.14,3.14,0,0,0,0-3.9,2.34,2.34,0,0,0-1.79-.74,2.23,2.23,0,0,0-1.74.75,3.16,3.16,0,0,0,0,3.89A2.23,2.23,0,0,0,354.51,53.66Z"/><path class="cls-11" d="M362.8,55.68a1.43,1.43,0,0,1-1-.43,1.39,1.39,0,0,1-.42-1,1.45,1.45,0,1,1,2.47,1A1.44,1.44,0,0,1,362.8,55.68Z"/></g></g><g id="Equipos_de_3_a_15_personas." data-name="Equipos de 3 a 15 personas." class="cls-9"><g class="cls-9"><path class="cls-11" d="M42.72,179.12H38V182h4.18v2.3H38v2.87h4.71v2.33H35.36V176.8h7.36Z"/><path class="cls-11" d="M51.64,180.46H54v13.43H51.5v-5.44a2.69,2.69,0,0,1-1.13.93,3.92,3.92,0,0,1-1.63.33,4.48,4.48,0,0,1-1.68-.32,4.38,4.38,0,0,1-1.39-.92,4.07,4.07,0,0,1-.93-1.49,5.78,5.78,0,0,1,0-4,4.07,4.07,0,0,1,.93-1.49,4.38,4.38,0,0,1,1.39-.92,4.48,4.48,0,0,1,1.68-.32,4.1,4.1,0,0,1,1.7.35,2.54,2.54,0,0,1,1.13,1Zm-2.32,7.15a2.24,2.24,0,0,0,1.71-.72,3,3,0,0,0,0-3.78,2.4,2.4,0,0,0-3.42,0,3,3,0,0,0,0,3.8A2.27,2.27,0,0,0,49.32,187.61Z"/><path class="cls-11" d="M62.65,180.46h2.53v9h-2.4l-.06-1.09a4,4,0,0,1-5.37.45,3,3,0,0,1-.87-2.31v-6.09H59V186a1.57,1.57,0,0,0,.45,1.24,1.73,1.73,0,0,0,1.17.4,2.05,2.05,0,0,0,1.44-.52,2.22,2.22,0,0,0,.57-1.67Z"/><path class="cls-11" d="M69.09,179.11a1.45,1.45,0,0,1-1.47-1.46,1.37,1.37,0,0,1,.44-1,1.44,1.44,0,0,1,2,0,1.36,1.36,0,0,1,.43,1,1.4,1.4,0,0,1-.43,1A1.42,1.42,0,0,1,69.09,179.11ZM67.8,189.5v-9h2.55v9Z"/><path class="cls-11" d="M78.27,180.29a4.48,4.48,0,0,1,1.68.32,4.38,4.38,0,0,1,1.39.92,4.07,4.07,0,0,1,.93,1.49,5.78,5.78,0,0,1,0,4,4.07,4.07,0,0,1-.93,1.49,4.38,4.38,0,0,1-1.39.92,4.48,4.48,0,0,1-1.68.32,4,4,0,0,1-1.64-.33,2.59,2.59,0,0,1-1.13-.95v5.46H73V180.46h2.4l.07,1.22a2.48,2.48,0,0,1,1.13-1A3.89,3.89,0,0,1,78.27,180.29Zm-.58,7.32a2.27,2.27,0,0,0,1.71-.71,3,3,0,0,0,0-3.8,2.41,2.41,0,0,0-3.43,0,3,3,0,0,0,0,3.78A2.28,2.28,0,0,0,77.69,187.61Z"/><path class="cls-11" d="M88.73,189.68a5.63,5.63,0,0,1-2.55-.56,4.17,4.17,0,0,1-1.76-1.62,4.92,4.92,0,0,1-.63-2.53,4.38,4.38,0,0,1,1.37-3.42,5.72,5.72,0,0,1,7.16,0,5,5,0,0,1,0,6.86A5.05,5.05,0,0,1,88.73,189.68Zm0-2a2.3,2.3,0,0,0,1.79-.74,3.14,3.14,0,0,0,0-3.9,2.34,2.34,0,0,0-1.79-.74A2.23,2.23,0,0,0,87,183a3.16,3.16,0,0,0,0,3.89A2.23,2.23,0,0,0,88.71,187.66Z"/><path class="cls-11" d="M98.75,189.68a5,5,0,0,1-2.63-.64,2.63,2.63,0,0,1-1.29-1.88l2.11-.6a1.7,1.7,0,0,0,1.81,1.35,1.88,1.88,0,0,0,.93-.21.83.83,0,0,0,.21-1.16,1.31,1.31,0,0,0-.46-.34,5.92,5.92,0,0,0-.62-.23l-.8-.24a7.2,7.2,0,0,1-.84-.26,5,5,0,0,1-.79-.33,3.2,3.2,0,0,1-.66-.47,1.91,1.91,0,0,1-.5-.71,2.61,2.61,0,0,1-.17-1,2.34,2.34,0,0,1,1-2,5.15,5.15,0,0,1,4.93-.1,2.62,2.62,0,0,1,1.21,1.81l-2,.44A1.53,1.53,0,0,0,98.6,182a1.69,1.69,0,0,0-.88.2.64.64,0,0,0-.36.6.6.6,0,0,0,.06.27.6.6,0,0,0,.18.22l.26.17a2.47,2.47,0,0,0,.36.14l.39.12.46.11.47.13a7.31,7.31,0,0,1,.85.26,4.55,4.55,0,0,1,.78.37,2.92,2.92,0,0,1,.68.53,2.49,2.49,0,0,1,.45.75,2.91,2.91,0,0,1,.17,1,2.72,2.72,0,0,1-.3,1.31,2.3,2.3,0,0,1-.83.89,4,4,0,0,1-1.18.47A6.21,6.21,0,0,1,98.75,189.68Z"/><path class="cls-11" d="M115.37,176h2.54v13.5h-2.4l-.07-1.18a2.61,2.61,0,0,1-1.14,1,3.92,3.92,0,0,1-1.7.36,4.48,4.48,0,0,1-1.68-.32,4.38,4.38,0,0,1-1.39-.92,4.3,4.3,0,0,1-.93-1.49,5.49,5.49,0,0,1-.34-2,5.13,5.13,0,0,1,.59-2.52,4.16,4.16,0,0,1,1.58-1.64,4.32,4.32,0,0,1,2.17-.55,3.91,3.91,0,0,1,1.64.33,2.55,2.55,0,0,1,1.13.93Zm-2.19,11.61a2.24,2.24,0,0,0,1.71-.72,2.93,2.93,0,0,0,0-3.78,2.25,2.25,0,0,0-1.71-.73,2.27,2.27,0,0,0-1.71.71,3,3,0,0,0,0,3.81A2.27,2.27,0,0,0,113.18,187.61Z"/><path class="cls-11" d="M129,184.85l0,.61h-6.7a2.2,2.2,0,0,0,2.31,2.22,2.18,2.18,0,0,0,1.19-.31,1.9,1.9,0,0,0,.76-.91l2.32.34a3.91,3.91,0,0,1-1.58,2.12,4.75,4.75,0,0,1-2.67.76,4.89,4.89,0,0,1-3.52-1.25,5.2,5.2,0,0,1,0-6.9,4.77,4.77,0,0,1,3.44-1.26,4.55,4.55,0,0,1,3.24,1.15A4.48,4.48,0,0,1,129,184.85Zm-4.45-2.79a2,2,0,0,0-2.2,1.74h4.15a1.9,1.9,0,0,0-.63-1.29A2,2,0,0,0,124.57,182.06Z"/><path class="cls-11" d="M139.67,189.68a4.6,4.6,0,0,1-3.47-1.16,5.09,5.09,0,0,1-1.09-3.56l2.6-.11a8.15,8.15,0,0,0,0,.93,3.41,3.41,0,0,0,.15.72,1.32,1.32,0,0,0,.34.54,1.42,1.42,0,0,0,.57.32,3,3,0,0,0,.86.11,2.07,2.07,0,0,0,1.5-.51,1.82,1.82,0,0,0,.52-1.34,1.8,1.8,0,0,0-.5-1.37,1.91,1.91,0,0,0-1.35-.47h-.49v-2h.46a1.38,1.38,0,0,0,1.05-.45,1.59,1.59,0,0,0,.41-1.13,1.3,1.3,0,0,0-.45-1.06,1.92,1.92,0,0,0-1.21-.37,1.76,1.76,0,0,0-.68.12,1.2,1.2,0,0,0-.46.31,1.23,1.23,0,0,0-.28.46,2.91,2.91,0,0,0-.13.55,5.85,5.85,0,0,0,0,.62l-2.56-.12a4.11,4.11,0,0,1,1.09-3.06,4.2,4.2,0,0,1,3-1.06,4.31,4.31,0,0,1,2.9,1,3,3,0,0,1,1.14,2.41,2.69,2.69,0,0,1-.49,1.63,2.73,2.73,0,0,1-1.11,1,3,3,0,0,1,.81.36,3.34,3.34,0,0,1,.71.61,2.64,2.64,0,0,1,.52.92,3.69,3.69,0,0,1,.19,1.23A3.59,3.59,0,0,1,143,188.6,5,5,0,0,1,139.67,189.68Z"/><path class="cls-11" d="M158.46,187.05a8.25,8.25,0,0,0,.22,2.2v.25h-2.37l-.2-1a3,3,0,0,1-1.26.87,4.8,4.8,0,0,1-1.64.29,4.44,4.44,0,0,1-.84-.08,3.27,3.27,0,0,1-.76-.27,2.16,2.16,0,0,1-.63-.47,2,2,0,0,1-.42-.72,2.72,2.72,0,0,1-.16-1,2.55,2.55,0,0,1,.17-1,2.13,2.13,0,0,1,.44-.73,2.55,2.55,0,0,1,.71-.54,4.58,4.58,0,0,1,.89-.38c.31-.1.66-.2,1.07-.29l1.49-.33a1.56,1.56,0,0,0,.67-.29.56.56,0,0,0,.2-.45,1,1,0,0,0-.44-.87,2.16,2.16,0,0,0-1.08-.26,1.55,1.55,0,0,0-1.77,1.38l-2.24-.41a3.08,3.08,0,0,1,1.31-2.06,5.24,5.24,0,0,1,2.84-.66q3.79,0,3.8,3.26ZM154,188a2.07,2.07,0,0,0,1.57-.65,2.8,2.8,0,0,0,.6-1.94L154,186a2.55,2.55,0,0,0-.9.36.76.76,0,0,0-.31.65.84.84,0,0,0,.33.72A1.36,1.36,0,0,0,154,188Z"/></g><g class="cls-9"><path class="cls-11" d="M46.52,200.8h2.41v12.7H46.41V203.4l-2.92,2.72v-2.6Z"/><path class="cls-11" d="M57.37,205.26q4.88,0,4.88,4A4.26,4.26,0,0,1,61,212.48a4.45,4.45,0,0,1-3.25,1.2,5.27,5.27,0,0,1-2.27-.47,3.91,3.91,0,0,1-1.65-1.39,3.79,3.79,0,0,1-.62-2.14,4.72,4.72,0,0,1,.05-.64l2.52-.11a4.17,4.17,0,0,0-.07.56,1.71,1.71,0,0,0,.58,1.4,2.11,2.11,0,0,0,1.41.47,2,2,0,0,0,1.48-.54,2,2,0,0,0,.52-1.45,1.8,1.8,0,0,0-.64-1.49,3.42,3.42,0,0,0-2.12-.51H53.63l.52-6.57h7.5v2.26H56.43l-.17,2.2Z"/><path class="cls-11" d="M74.28,204.29a4.54,4.54,0,0,1,1.69.32,4.33,4.33,0,0,1,1.38.92,4.09,4.09,0,0,1,.94,1.49,5.94,5.94,0,0,1,0,4,4.09,4.09,0,0,1-.94,1.49,4.33,4.33,0,0,1-1.38.92,4.54,4.54,0,0,1-1.69.32,4,4,0,0,1-1.64-.33,2.59,2.59,0,0,1-1.13-.95v5.46H69V204.46h2.4l.07,1.22a2.53,2.53,0,0,1,1.13-1A3.92,3.92,0,0,1,74.28,204.29Zm-.57,7.32a2.3,2.3,0,0,0,1.71-.71,3,3,0,0,0,0-3.8,2.3,2.3,0,0,0-1.71-.71,2.26,2.26,0,0,0-1.72.72,2.93,2.93,0,0,0,0,3.78A2.26,2.26,0,0,0,73.71,211.61Z"/><path class="cls-11" d="M89,208.85l0,.61h-6.7a2.4,2.4,0,0,0,.72,1.65,2.31,2.31,0,0,0,1.59.57,2.23,2.23,0,0,0,1.2-.31,2,2,0,0,0,.76-.91l2.32.34a3.93,3.93,0,0,1-1.59,2.12,4.71,4.71,0,0,1-2.67.76,4.9,4.9,0,0,1-3.52-1.25,5.21,5.21,0,0,1,0-6.9,4.72,4.72,0,0,1,3.43-1.26A4.13,4.13,0,0,1,89,208.85Zm-4.46-2.79a2,2,0,0,0-2.2,1.74h4.15a1.89,1.89,0,0,0-.62-1.29A2,2,0,0,0,84.58,206.06Z"/><path class="cls-11" d="M93.39,205.9a2.92,2.92,0,0,1,1.18-1.09,3.64,3.64,0,0,1,1.77-.45v2.26a3.42,3.42,0,0,0-2.16.54,2.38,2.38,0,0,0-.67,1.94v4.4H91v-9h2.43Z"/><path class="cls-11" d="M101,213.68a5.06,5.06,0,0,1-2.64-.64,2.69,2.69,0,0,1-1.29-1.88l2.12-.6a1.7,1.7,0,0,0,1.81,1.35,1.84,1.84,0,0,0,.92-.21.7.7,0,0,0,.36-.7.73.73,0,0,0-.15-.46,1.23,1.23,0,0,0-.46-.34,5.19,5.19,0,0,0-.62-.23l-.8-.24a7.61,7.61,0,0,1-.83-.26,5.09,5.09,0,0,1-.8-.33,3.2,3.2,0,0,1-.66-.47,1.88,1.88,0,0,1-.49-.71,2.42,2.42,0,0,1-.17-1,2.31,2.31,0,0,1,1-2,5.13,5.13,0,0,1,4.92-.1,2.64,2.64,0,0,1,1.22,1.81l-2,.44a1.54,1.54,0,0,0-1.61-1.14,1.7,1.7,0,0,0-.89.2.65.65,0,0,0-.35.6.76.76,0,0,0,0,.27.64.64,0,0,0,.19.22l.25.17a2.47,2.47,0,0,0,.36.14l.4.12.46.11.47.13a8.75,8.75,0,0,1,.85.26,4.85,4.85,0,0,1,.77.37,3,3,0,0,1,.69.53,2.89,2.89,0,0,1,.31,3.06,2.3,2.3,0,0,1-.83.89,4,4,0,0,1-1.17.47A6.21,6.21,0,0,1,101,213.68Z"/><path class="cls-11" d="M110.75,213.68a5.63,5.63,0,0,1-2.55-.56,4.17,4.17,0,0,1-1.76-1.62,4.92,4.92,0,0,1-.63-2.53,4.38,4.38,0,0,1,1.37-3.42,5.72,5.72,0,0,1,7.16,0,5,5,0,0,1,0,6.86A5.05,5.05,0,0,1,110.75,213.68Zm0-2a2.3,2.3,0,0,0,1.79-.74,3.14,3.14,0,0,0,0-3.9,2.34,2.34,0,0,0-1.79-.74A2.23,2.23,0,0,0,109,207a3.16,3.16,0,0,0,0,3.89A2.23,2.23,0,0,0,110.73,211.66Z"/><path class="cls-11" d="M122.93,204.29a3.52,3.52,0,0,1,2.49.81,3,3,0,0,1,.87,2.32v6.08h-2.54V208a1.59,1.59,0,0,0-.45-1.25,1.71,1.71,0,0,0-1.16-.39,2.58,2.58,0,0,0-.76.11,2,2,0,0,0-.63.36,1.45,1.45,0,0,0-.45.68,3.19,3.19,0,0,0-.18,1.05v5h-2.53v-9h2.53v1A3.49,3.49,0,0,1,122.93,204.29Z"/><path class="cls-11" d="M136.15,211.05a8.7,8.7,0,0,0,.22,2.2v.25H134l-.2-1a3.07,3.07,0,0,1-1.27.87,4.7,4.7,0,0,1-1.63.29,4.63,4.63,0,0,1-.85-.08,3.63,3.63,0,0,1-.76-.27,2.26,2.26,0,0,1-.62-.47,2.12,2.12,0,0,1-.43-.72,3,3,0,0,1-.15-1,2.76,2.76,0,0,1,.16-1,2.29,2.29,0,0,1,.44-.73,2.71,2.71,0,0,1,.71-.54,4.94,4.94,0,0,1,.9-.38,10.62,10.62,0,0,1,1.07-.29l1.49-.33a1.62,1.62,0,0,0,.67-.29.56.56,0,0,0,.2-.45.94.94,0,0,0-.45-.87,2.09,2.09,0,0,0-1.07-.26,1.55,1.55,0,0,0-1.77,1.38l-2.24-.41a3,3,0,0,1,1.31-2.06,5.21,5.21,0,0,1,2.84-.66q3.79,0,3.79,3.26Zm-4.45.91a2,2,0,0,0,1.56-.65,2.75,2.75,0,0,0,.61-1.94l-2.15.61a2.55,2.55,0,0,0-.9.36.79.79,0,0,0-.31.65.83.83,0,0,0,.34.72A1.34,1.34,0,0,0,131.7,212Z"/><path class="cls-11" d="M141.8,213.68a5.06,5.06,0,0,1-2.64-.64,2.69,2.69,0,0,1-1.29-1.88l2.12-.6a1.7,1.7,0,0,0,1.81,1.35,1.84,1.84,0,0,0,.92-.21.7.7,0,0,0,.36-.7.73.73,0,0,0-.15-.46,1.23,1.23,0,0,0-.46-.34,5.19,5.19,0,0,0-.62-.23l-.8-.24a7.61,7.61,0,0,1-.83-.26,5.09,5.09,0,0,1-.8-.33,3.2,3.2,0,0,1-.66-.47,1.88,1.88,0,0,1-.49-.71,2.42,2.42,0,0,1-.17-1,2.31,2.31,0,0,1,1-2,5.13,5.13,0,0,1,4.92-.1,2.64,2.64,0,0,1,1.22,1.81l-2,.44a1.54,1.54,0,0,0-1.61-1.14,1.7,1.7,0,0,0-.89.2.65.65,0,0,0-.35.6.76.76,0,0,0,.05.27.64.64,0,0,0,.19.22l.25.17a2.47,2.47,0,0,0,.36.14l.4.12.46.11.47.13a8.75,8.75,0,0,1,.85.26,4.85,4.85,0,0,1,.77.37,3,3,0,0,1,.69.53,2.69,2.69,0,0,1,.62,1.75,2.73,2.73,0,0,1-.31,1.31,2.3,2.3,0,0,1-.83.89,4,4,0,0,1-1.17.47A6.21,6.21,0,0,1,141.8,213.68Z"/><path class="cls-11" d="M148.92,213.68a1.41,1.41,0,0,1-1-.43,1.4,1.4,0,0,1-.43-1,1.41,1.41,0,0,1,.43-1,1.44,1.44,0,1,1,2,2A1.41,1.41,0,0,1,148.92,213.68Z"/></g></g><g id="Integrantes_son_del_misma_área_funcional." data-name="Integrantes son del misma área funcional." class="cls-9"><g class="cls-9"><path class="cls-11" d="M474.49,185.5V172.8h2.64v12.7Z"/><path class="cls-11" d="M485.41,176.29a3.55,3.55,0,0,1,2.5.81,3,3,0,0,1,.87,2.32v6.08h-2.54V180a1.59,1.59,0,0,0-.46-1.25,1.71,1.71,0,0,0-1.16-.39,2.58,2.58,0,0,0-.76.11,2,2,0,0,0-.63.36,1.62,1.62,0,0,0-.45.68,3,3,0,0,0-.17,1.05v5h-2.54v-9h2.54v1A3.45,3.45,0,0,1,485.41,176.29Z"/><path class="cls-11" d="M494.59,185.5a2.72,2.72,0,0,1-2-.73,2.83,2.83,0,0,1-.73-2.09v-4.27h-1.77v-1.95h.57a1.51,1.51,0,0,0,1.13-.37,2,2,0,0,0,.36-1.35v-1.19h2.28v2.91h1.86v1.95H494.4v4q0,1.17,1.05,1.17h.81v1.92Z"/><path class="cls-11" d="M506.69,180.85l0,.61H500a2.4,2.4,0,0,0,.72,1.65,2.32,2.32,0,0,0,1.6.57,2.22,2.22,0,0,0,1.19-.31,2,2,0,0,0,.76-.91l2.32.34a4,4,0,0,1-1.58,2.12,4.76,4.76,0,0,1-2.68.76,4.9,4.9,0,0,1-3.52-1.25,5.21,5.21,0,0,1,0-6.9,4.74,4.74,0,0,1,3.43-1.26,4.13,4.13,0,0,1,4.48,4.58Zm-4.46-2.79a2,2,0,0,0-2.2,1.74h4.15a1.89,1.89,0,0,0-.62-1.29A2,2,0,0,0,502.23,178.06Z"/><path class="cls-11" d="M514.84,176.46h2.4v8.36a6.66,6.66,0,0,1-.34,2.25,3.74,3.74,0,0,1-1,1.55,4.25,4.25,0,0,1-1.51.86,6.25,6.25,0,0,1-2,.28q-3.57,0-4.65-2.8l2.1-.9a3,3,0,0,0,1,1.31,2.5,2.5,0,0,0,1.49.42c1.56,0,2.34-.92,2.34-2.78V184a2.9,2.9,0,0,1-1.14.9,3.82,3.82,0,0,1-1.6.33,3.93,3.93,0,0,1-1.59-.32,4.06,4.06,0,0,1-1.31-.89,4.34,4.34,0,0,1-.89-1.42,5,5,0,0,1-.33-1.83,5,5,0,0,1,.33-1.83,3.85,3.85,0,0,1,2.21-2.28,3.94,3.94,0,0,1,1.6-.32,3.63,3.63,0,0,1,1.67.37,2.61,2.61,0,0,1,1.12,1Zm-3.89,6a2.25,2.25,0,0,0,1.66.7,2.21,2.21,0,0,0,1.66-.71,2.52,2.52,0,0,0,0-3.43,2.23,2.23,0,0,0-1.67-.71A2.2,2.2,0,0,0,511,179a2.38,2.38,0,0,0-.67,1.74A2.41,2.41,0,0,0,511,182.44Z"/><path class="cls-11" d="M522.3,177.9a2.92,2.92,0,0,1,1.18-1.09,3.64,3.64,0,0,1,1.77-.45v2.26a3.42,3.42,0,0,0-2.16.54,2.38,2.38,0,0,0-.67,1.94v4.4h-2.55v-9h2.43Z"/><path class="cls-11" d="M534.09,183.05a8.7,8.7,0,0,0,.22,2.2v.25H532l-.2-1a3.13,3.13,0,0,1-1.27.87,4.74,4.74,0,0,1-1.63.29,4.63,4.63,0,0,1-.85-.08,3.44,3.44,0,0,1-.76-.27,2.47,2.47,0,0,1-.63-.47,2.28,2.28,0,0,1-.42-.72,3,3,0,0,1-.16-1,2.76,2.76,0,0,1,.17-1,2.29,2.29,0,0,1,.44-.73,2.71,2.71,0,0,1,.71-.54,4.42,4.42,0,0,1,.9-.38,10.62,10.62,0,0,1,1.07-.29l1.49-.33a1.62,1.62,0,0,0,.67-.29.56.56,0,0,0,.2-.45.94.94,0,0,0-.45-.87,2.13,2.13,0,0,0-1.08-.26,1.55,1.55,0,0,0-1.76,1.38l-2.24-.41a3,3,0,0,1,1.31-2.06,5.21,5.21,0,0,1,2.84-.66q3.8,0,3.79,3.26Zm-4.45.91a2.05,2.05,0,0,0,1.56-.65,2.8,2.8,0,0,0,.61-1.94l-2.15.61a2.55,2.55,0,0,0-.9.36.76.76,0,0,0-.31.65.84.84,0,0,0,.33.72A1.39,1.39,0,0,0,529.64,184Z"/><path class="cls-11" d="M541.89,176.29a3.52,3.52,0,0,1,2.49.81,3,3,0,0,1,.87,2.32v6.08h-2.54V180a1.59,1.59,0,0,0-.45-1.25,1.71,1.71,0,0,0-1.16-.39,2.58,2.58,0,0,0-.76.11,2,2,0,0,0-.63.36,1.53,1.53,0,0,0-.45.68,3.19,3.19,0,0,0-.18,1.05v5h-2.53v-9h2.53v1A3.49,3.49,0,0,1,541.89,176.29Z"/><path class="cls-11" d="M551.07,185.5a2.72,2.72,0,0,1-2-.73,2.87,2.87,0,0,1-.72-2.09v-4.27h-1.77v-1.95h.57a1.48,1.48,0,0,0,1.12-.37,2,2,0,0,0,.36-1.35v-1.19h2.29v2.91h1.86v1.95h-1.86v4q0,1.17,1,1.17h.81v1.92Z"/><path class="cls-11" d="M563.17,180.85l0,.61h-6.7a2.4,2.4,0,0,0,.72,1.65,2.31,2.31,0,0,0,1.59.57,2.18,2.18,0,0,0,1.19-.31,1.92,1.92,0,0,0,.77-.91l2.32.34a3.93,3.93,0,0,1-1.59,2.12,4.71,4.71,0,0,1-2.67.76,4.9,4.9,0,0,1-3.52-1.25,5.21,5.21,0,0,1,0-6.9,4.72,4.72,0,0,1,3.43-1.26,4.13,4.13,0,0,1,4.48,4.58Zm-4.46-2.79a2,2,0,0,0-2.2,1.74h4.15a1.89,1.89,0,0,0-.62-1.29A2,2,0,0,0,558.71,178.06Z"/><path class="cls-11" d="M568.27,185.68a5,5,0,0,1-2.63-.64,2.67,2.67,0,0,1-1.3-1.88l2.12-.6a1.7,1.7,0,0,0,1.81,1.35,1.88,1.88,0,0,0,.93-.21.83.83,0,0,0,.21-1.16,1.27,1.27,0,0,0-.47-.34,5.05,5.05,0,0,0-.61-.23l-.8-.24a7.2,7.2,0,0,1-.84-.26,5.52,5.52,0,0,1-.8-.33,3.44,3.44,0,0,1-.65-.47,1.91,1.91,0,0,1-.5-.71,2.61,2.61,0,0,1-.17-1,2.34,2.34,0,0,1,1-2,5.15,5.15,0,0,1,4.93-.1,2.62,2.62,0,0,1,1.21,1.81l-2,.44a1.53,1.53,0,0,0-1.61-1.14,1.69,1.69,0,0,0-.88.2.64.64,0,0,0-.36.6.6.6,0,0,0,.06.27.52.52,0,0,0,.18.22l.26.17a2.47,2.47,0,0,0,.36.14l.39.12.46.11.47.13a7.31,7.31,0,0,1,.85.26,5.38,5.38,0,0,1,.78.37,2.92,2.92,0,0,1,.68.53,2.29,2.29,0,0,1,.44.75,2.7,2.7,0,0,1,.18,1,2.72,2.72,0,0,1-.3,1.31,2.37,2.37,0,0,1-.83.89,4.1,4.1,0,0,1-1.18.47A6.21,6.21,0,0,1,568.27,185.68Z"/><path class="cls-11" d="M581.67,185.68A5.06,5.06,0,0,1,579,185a2.69,2.69,0,0,1-1.29-1.88l2.12-.6a1.7,1.7,0,0,0,1.81,1.35,1.84,1.84,0,0,0,.92-.21.7.7,0,0,0,.36-.7.73.73,0,0,0-.15-.46,1.23,1.23,0,0,0-.46-.34,5.19,5.19,0,0,0-.62-.23l-.8-.24a7.61,7.61,0,0,1-.83-.26,5.09,5.09,0,0,1-.8-.33,3.2,3.2,0,0,1-.66-.47,1.88,1.88,0,0,1-.49-.71,2.42,2.42,0,0,1-.17-1,2.31,2.31,0,0,1,1-2,5.13,5.13,0,0,1,4.92-.1,2.64,2.64,0,0,1,1.22,1.81l-2,.44a1.54,1.54,0,0,0-1.61-1.14,1.7,1.7,0,0,0-.89.2.65.65,0,0,0-.35.6.76.76,0,0,0,.05.27.64.64,0,0,0,.19.22l.25.17a2.47,2.47,0,0,0,.36.14l.4.12.46.11.47.13a8.75,8.75,0,0,1,.85.26,4.85,4.85,0,0,1,.77.37,3,3,0,0,1,.69.53,2.69,2.69,0,0,1,.62,1.75,2.73,2.73,0,0,1-.31,1.31,2.3,2.3,0,0,1-.83.89,4,4,0,0,1-1.17.47A6.21,6.21,0,0,1,581.67,185.68Z"/><path class="cls-11" d="M591.41,185.68a5.63,5.63,0,0,1-2.55-.56,4.17,4.17,0,0,1-1.76-1.62,4.92,4.92,0,0,1-.63-2.53,4.38,4.38,0,0,1,1.37-3.42,5.72,5.72,0,0,1,7.16,0,5,5,0,0,1,0,6.86A5.05,5.05,0,0,1,591.41,185.68Zm0-2a2.3,2.3,0,0,0,1.79-.74,3.14,3.14,0,0,0,0-3.9,2.34,2.34,0,0,0-1.79-.74,2.23,2.23,0,0,0-1.74.75,3.16,3.16,0,0,0,0,3.89A2.23,2.23,0,0,0,591.39,183.66Z"/><path class="cls-11" d="M603.59,176.29a3.52,3.52,0,0,1,2.49.81,3,3,0,0,1,.87,2.32v6.08h-2.54V180a1.59,1.59,0,0,0-.45-1.25,1.71,1.71,0,0,0-1.16-.39,2.58,2.58,0,0,0-.76.11,2,2,0,0,0-.63.36,1.55,1.55,0,0,0-.46.68,3.49,3.49,0,0,0-.17,1.05v5h-2.53v-9h2.53v1A3.49,3.49,0,0,1,603.59,176.29Z"/><path class="cls-11" d="M620.49,172H623v13.5h-2.4l-.06-1.18a2.63,2.63,0,0,1-1.15,1,3.91,3.91,0,0,1-1.69.36,4.54,4.54,0,0,1-1.69-.32,4.33,4.33,0,0,1-1.38-.92,4.17,4.17,0,0,1-.94-1.49,5.49,5.49,0,0,1-.34-2,5.13,5.13,0,0,1,.6-2.52,4.14,4.14,0,0,1,1.57-1.64,4.36,4.36,0,0,1,2.18-.55,4,4,0,0,1,1.64.33,2.61,2.61,0,0,1,1.13.93Zm-2.19,11.61a2.24,2.24,0,0,0,1.71-.72,3,3,0,0,0,0-3.78,2.25,2.25,0,0,0-1.71-.73,2.31,2.31,0,0,0-1.72.71,3,3,0,0,0,0,3.81A2.31,2.31,0,0,0,618.3,183.61Z"/><path class="cls-11" d="M634.14,180.85l0,.61h-6.7a2.36,2.36,0,0,0,.73,1.65,2.28,2.28,0,0,0,1.59.57,2.22,2.22,0,0,0,1.19-.31,2,2,0,0,0,.76-.91l2.32.34a4,4,0,0,1-1.58,2.12,4.76,4.76,0,0,1-2.68.76,4.9,4.9,0,0,1-3.52-1.25,5.21,5.21,0,0,1,0-6.9,4.74,4.74,0,0,1,3.43-1.26,4.13,4.13,0,0,1,4.48,4.58Zm-4.46-2.79a2,2,0,0,0-2.2,1.74h4.15a1.89,1.89,0,0,0-.62-1.29A2,2,0,0,0,629.68,178.06Z"/><path class="cls-11" d="M640.74,185.5V172h2.56v13.5Z"/><path class="cls-11" d="M653.32,183.05a8.7,8.7,0,0,0,.22,2.2v.25h-2.36l-.2-1a3.07,3.07,0,0,1-1.27.87,4.7,4.7,0,0,1-1.63.29,4.63,4.63,0,0,1-.85-.08,3.63,3.63,0,0,1-.76-.27,2.26,2.26,0,0,1-.62-.47,2.12,2.12,0,0,1-.43-.72,3,3,0,0,1-.15-1,2.76,2.76,0,0,1,.16-1,2.29,2.29,0,0,1,.44-.73,2.71,2.71,0,0,1,.71-.54,4.94,4.94,0,0,1,.9-.38,10.62,10.62,0,0,1,1.07-.29l1.49-.33a1.62,1.62,0,0,0,.67-.29.56.56,0,0,0,.2-.45.94.94,0,0,0-.45-.87,2.09,2.09,0,0,0-1.07-.26,1.55,1.55,0,0,0-1.77,1.38l-2.24-.41a3,3,0,0,1,1.31-2.06,5.21,5.21,0,0,1,2.84-.66q3.79,0,3.79,3.26Zm-4.45.91a2,2,0,0,0,1.56-.65,2.75,2.75,0,0,0,.61-1.94l-2.15.61a2.55,2.55,0,0,0-.9.36.79.79,0,0,0-.31.65.83.83,0,0,0,.34.72A1.34,1.34,0,0,0,648.87,184Z"/></g><g class="cls-9"><path class="cls-11" d="M482.94,200.29a3.44,3.44,0,0,1,2.33.73,2.63,2.63,0,0,1,.86,2.11v6.37h-2.54v-5.65a1.48,1.48,0,0,0-.4-1.14,1.41,1.41,0,0,0-1-.39,1.63,1.63,0,0,0-1.23.49,2.22,2.22,0,0,0-.47,1.59v5.1h-2.56v-5.63a1.55,1.55,0,0,0-.41-1.16,1.43,1.43,0,0,0-1-.39,1.55,1.55,0,0,0-1.22.52,2.44,2.44,0,0,0-.48,1.69v5h-2.52v-9h2.52v1.07a3.07,3.07,0,0,1,2.62-1.24,3.88,3.88,0,0,1,1.7.35,2.31,2.31,0,0,1,1.07,1A3.19,3.19,0,0,1,482.94,200.29Z"/><path class="cls-11" d="M489.88,199.11a1.43,1.43,0,0,1-1-.42,1.4,1.4,0,0,1-.43-1,1.37,1.37,0,0,1,.44-1,1.46,1.46,0,0,1,2.48,1,1.44,1.44,0,0,1-.43,1A1.42,1.42,0,0,1,489.88,199.11Zm-1.29,10.39v-9h2.55v9Z"/><path class="cls-11" d="M496.94,209.68a5.06,5.06,0,0,1-2.64-.64,2.69,2.69,0,0,1-1.29-1.88l2.12-.6a1.7,1.7,0,0,0,1.81,1.35,1.84,1.84,0,0,0,.92-.21.83.83,0,0,0,.21-1.16,1.23,1.23,0,0,0-.46-.34A5.92,5.92,0,0,0,497,206l-.8-.24a7.87,7.87,0,0,1-.84-.26,5,5,0,0,1-.79-.33,3.2,3.2,0,0,1-.66-.47,1.78,1.78,0,0,1-.49-.71,2.42,2.42,0,0,1-.17-1,2.31,2.31,0,0,1,1-2,5.13,5.13,0,0,1,4.92-.1,2.62,2.62,0,0,1,1.21,1.81l-2,.44a1.53,1.53,0,0,0-1.6-1.14,1.7,1.7,0,0,0-.89.2.63.63,0,0,0-.35.6.59.59,0,0,0,.05.27.73.73,0,0,0,.18.22l.26.17a2.47,2.47,0,0,0,.36.14l.4.12.46.11.47.13a7.74,7.74,0,0,1,.84.26,4.55,4.55,0,0,1,.78.37,2.92,2.92,0,0,1,.68.53,2.49,2.49,0,0,1,.45.75,2.69,2.69,0,0,1,.17,1,2.72,2.72,0,0,1-.3,1.31,2.3,2.3,0,0,1-.83.89,4,4,0,0,1-1.17.47A6.21,6.21,0,0,1,496.94,209.68Z"/><path class="cls-11" d="M513.18,200.29a3.46,3.46,0,0,1,2.33.73,2.62,2.62,0,0,1,.85,2.11v6.37h-2.53v-5.65a1.48,1.48,0,0,0-.41-1.14,1.41,1.41,0,0,0-1-.39,1.63,1.63,0,0,0-1.23.49,2.27,2.27,0,0,0-.47,1.59v5.1h-2.56v-5.63a1.54,1.54,0,0,0-.4-1.16,1.45,1.45,0,0,0-1.05-.39,1.57,1.57,0,0,0-1.22.52,2.44,2.44,0,0,0-.47,1.69v5h-2.53v-9H505v1.07a3,3,0,0,1,2.61-1.24,3.85,3.85,0,0,1,1.7.35,2.27,2.27,0,0,1,1.07,1A3.22,3.22,0,0,1,513.18,200.29Z"/><path class="cls-11" d="M526.23,207.05a8.25,8.25,0,0,0,.22,2.2v.25h-2.36l-.21-1a3,3,0,0,1-1.26.87,4.76,4.76,0,0,1-1.64.29,4.44,4.44,0,0,1-.84-.08,3.44,3.44,0,0,1-.76-.27,2.47,2.47,0,0,1-.63-.47,2,2,0,0,1-.42-.72,2.72,2.72,0,0,1-.16-1,2.76,2.76,0,0,1,.17-1,2.29,2.29,0,0,1,.44-.73,2.71,2.71,0,0,1,.71-.54,4.42,4.42,0,0,1,.9-.38,10.62,10.62,0,0,1,1.07-.29l1.48-.33a1.56,1.56,0,0,0,.67-.29.53.53,0,0,0,.2-.45,1,1,0,0,0-.44-.87,2.16,2.16,0,0,0-1.08-.26,1.55,1.55,0,0,0-1.76,1.38l-2.25-.41a3.08,3.08,0,0,1,1.31-2.06,5.26,5.26,0,0,1,2.84-.66q3.8,0,3.8,3.26Zm-4.46.91a2.07,2.07,0,0,0,1.57-.65,2.8,2.8,0,0,0,.6-1.94l-2.14.61a2.55,2.55,0,0,0-.9.36.76.76,0,0,0-.31.65.84.84,0,0,0,.33.72A1.36,1.36,0,0,0,521.77,208Z"/><path class="cls-11" d="M540.78,207.05a8.25,8.25,0,0,0,.22,2.2v.25h-2.37l-.2-1a3.07,3.07,0,0,1-1.27.87,4.7,4.7,0,0,1-1.63.29,4.63,4.63,0,0,1-.85-.08,3.63,3.63,0,0,1-.76-.27,2.26,2.26,0,0,1-.62-.47,2.12,2.12,0,0,1-.43-.72,3,3,0,0,1-.15-1,2.76,2.76,0,0,1,.16-1,2.29,2.29,0,0,1,.44-.73,2.71,2.71,0,0,1,.71-.54,4.94,4.94,0,0,1,.9-.38c.31-.1.66-.2,1.07-.29l1.49-.33a1.56,1.56,0,0,0,.67-.29.56.56,0,0,0,.2-.45.94.94,0,0,0-.45-.87,2.09,2.09,0,0,0-1.07-.26,1.55,1.55,0,0,0-1.77,1.38l-2.24-.41a3,3,0,0,1,1.31-2.06,5.24,5.24,0,0,1,2.84-.66q3.79,0,3.8,3.26Zm-4.46.91a2,2,0,0,0,1.56-.65,2.75,2.75,0,0,0,.61-1.94l-2.14.61a2.53,2.53,0,0,0-.91.36.79.79,0,0,0-.31.65.83.83,0,0,0,.34.72A1.34,1.34,0,0,0,536.32,208Zm3.47-11.09-2,2.36h-1.56l2.3-3.24Z"/><path class="cls-11" d="M545.66,201.9a3,3,0,0,1,1.19-1.09,3.64,3.64,0,0,1,1.77-.45v2.26a3.47,3.47,0,0,0-2.17.54,2.41,2.41,0,0,0-.66,1.94v4.4h-2.55v-9h2.42Z"/><path class="cls-11" d="M558.55,204.85l0,.61h-6.7a2.4,2.4,0,0,0,.72,1.65,2.32,2.32,0,0,0,1.6.57,2.22,2.22,0,0,0,1.19-.31,2,2,0,0,0,.76-.91l2.32.34a3.93,3.93,0,0,1-1.59,2.12,4.71,4.71,0,0,1-2.67.76,4.9,4.9,0,0,1-3.52-1.25,5.21,5.21,0,0,1,0-6.9,4.74,4.74,0,0,1,3.43-1.26,4.13,4.13,0,0,1,4.48,4.58Zm-4.46-2.79a2,2,0,0,0-2.2,1.74H556a1.89,1.89,0,0,0-.62-1.29A2,2,0,0,0,554.09,202.06Z"/><path class="cls-11" d="M567.88,207.05a8.25,8.25,0,0,0,.22,2.2v.25h-2.36l-.21-1a3,3,0,0,1-1.26.87,4.76,4.76,0,0,1-1.64.29,4.52,4.52,0,0,1-.84-.08,3.44,3.44,0,0,1-.76-.27,2.47,2.47,0,0,1-.63-.47,2.28,2.28,0,0,1-.42-.72,2.72,2.72,0,0,1-.16-1,2.76,2.76,0,0,1,.17-1,2.29,2.29,0,0,1,.44-.73,2.71,2.71,0,0,1,.71-.54,4.42,4.42,0,0,1,.9-.38,10.62,10.62,0,0,1,1.07-.29l1.48-.33a1.68,1.68,0,0,0,.68-.29.55.55,0,0,0,.19-.45.93.93,0,0,0-.44-.87,2.13,2.13,0,0,0-1.08-.26,1.55,1.55,0,0,0-1.76,1.38l-2.24-.41a3,3,0,0,1,1.31-2.06,5.2,5.2,0,0,1,2.83-.66c2.54,0,3.8,1.09,3.8,3.26Zm-4.45.91a2.05,2.05,0,0,0,1.56-.65,2.8,2.8,0,0,0,.61-1.94l-2.15.61a2.55,2.55,0,0,0-.9.36.76.76,0,0,0-.31.65.84.84,0,0,0,.33.72A1.39,1.39,0,0,0,563.43,208Z"/><path class="cls-11" d="M580.12,198h-.43l-.36,0a1.07,1.07,0,0,0-.37.08,1.81,1.81,0,0,0-.3.16.81.81,0,0,0-.26.26,1.43,1.43,0,0,0-.16.39,1.84,1.84,0,0,0-.07.55v1h2v1.95h-2v7.09h-2.52v-7.09h-1.77v-1.95h1.77v-1a5,5,0,0,1,.12-1.15,3.36,3.36,0,0,1,.3-.88,2.09,2.09,0,0,1,.52-.63,3.34,3.34,0,0,1,.66-.42,4,4,0,0,1,.84-.25A6.2,6.2,0,0,1,579,196q.47,0,1.08,0Z"/><path class="cls-11" d="M587.53,200.46h2.53v9h-2.39l-.07-1.09a3.44,3.44,0,0,1-2.87,1.27,3.5,3.5,0,0,1-2.5-.82,3,3,0,0,1-.87-2.31v-6.09h2.54V206a1.54,1.54,0,0,0,.46,1.24,1.73,1.73,0,0,0,1.17.4,2.07,2.07,0,0,0,1.44-.52,2.18,2.18,0,0,0,.56-1.67Z"/><path class="cls-11" d="M598,200.29a3.56,3.56,0,0,1,2.5.81,3,3,0,0,1,.87,2.32v6.08h-2.54V204a1.59,1.59,0,0,0-.46-1.25,1.71,1.71,0,0,0-1.16-.39,2.58,2.58,0,0,0-.76.11,2,2,0,0,0-.63.36,1.53,1.53,0,0,0-.45.68,3,3,0,0,0-.17,1.05v5h-2.54v-9h2.54v1A3.45,3.45,0,0,1,598,200.29Z"/><path class="cls-11" d="M607.92,209.67a4.88,4.88,0,0,1-3.49-1.3,4.94,4.94,0,0,1,0-6.79,5.37,5.37,0,0,1,6.42-.42,3.87,3.87,0,0,1,1.51,2.45l-2.34.26a2,2,0,0,0-.75-1.19,2.34,2.34,0,0,0-1.37-.4,2.07,2.07,0,0,0-1.65.74,3.29,3.29,0,0,0,0,3.9,2,2,0,0,0,1.65.74,2.28,2.28,0,0,0,1.36-.39,2,2,0,0,0,.76-1.19l2.34.26a3.89,3.89,0,0,1-1.52,2.45A4.84,4.84,0,0,1,607.92,209.67Z"/><path class="cls-11" d="M615.46,199.11a1.43,1.43,0,0,1-1-.42,1.4,1.4,0,0,1-.43-1,1.36,1.36,0,0,1,.43-1,1.42,1.42,0,0,1,1-.43,1.47,1.47,0,0,1,1.45,1.45,1.44,1.44,0,0,1-.43,1A1.42,1.42,0,0,1,615.46,199.11Zm-1.3,10.39v-9h2.55v9Z"/><path class="cls-11" d="M623.54,209.68a5.7,5.7,0,0,1-2.56-.56,4.21,4.21,0,0,1-1.75-1.62,4.93,4.93,0,0,1-.64-2.53,4.39,4.39,0,0,1,1.38-3.42,5.72,5.72,0,0,1,7.16,0,5,5,0,0,1,0,6.86A5.07,5.07,0,0,1,623.54,209.68Zm0-2a2.28,2.28,0,0,0,1.78-.74,3.1,3.1,0,0,0,0-3.9,2.32,2.32,0,0,0-1.78-.74,2.23,2.23,0,0,0-1.74.75,3.16,3.16,0,0,0,0,3.89A2.23,2.23,0,0,0,623.52,207.66Z"/><path class="cls-11" d="M635.72,200.29a3.52,3.52,0,0,1,2.49.81,3,3,0,0,1,.87,2.32v6.08h-2.54V204a1.59,1.59,0,0,0-.45-1.25,1.72,1.72,0,0,0-1.17-.39,2.56,2.56,0,0,0-.75.11,2,2,0,0,0-.63.36,1.55,1.55,0,0,0-.46.68,3.2,3.2,0,0,0-.17,1.05v5h-2.53v-9h2.53v1A3.47,3.47,0,0,1,635.72,200.29Z"/><path class="cls-11" d="M648.94,207.05a8.7,8.7,0,0,0,.22,2.2v.25H646.8l-.2-1a3.13,3.13,0,0,1-1.27.87,4.74,4.74,0,0,1-1.63.29,4.63,4.63,0,0,1-.85-.08,3.44,3.44,0,0,1-.76-.27,2.47,2.47,0,0,1-.63-.47,2.28,2.28,0,0,1-.42-.72,3,3,0,0,1-.16-1,2.76,2.76,0,0,1,.17-1,2.29,2.29,0,0,1,.44-.73,2.71,2.71,0,0,1,.71-.54,4.42,4.42,0,0,1,.9-.38,10.62,10.62,0,0,1,1.07-.29l1.49-.33a1.62,1.62,0,0,0,.67-.29.56.56,0,0,0,.2-.45.94.94,0,0,0-.45-.87A2.09,2.09,0,0,0,645,202a1.55,1.55,0,0,0-1.77,1.38L641,203a3,3,0,0,1,1.31-2.06,5.21,5.21,0,0,1,2.84-.66q3.79,0,3.79,3.26Zm-4.45.91a2,2,0,0,0,1.56-.65,2.75,2.75,0,0,0,.61-1.94l-2.15.61a2.55,2.55,0,0,0-.9.36.76.76,0,0,0-.31.65.84.84,0,0,0,.33.72A1.39,1.39,0,0,0,644.49,208Z"/><path class="cls-11" d="M651.4,209.5V196H654v13.5Z"/><path class="cls-11" d="M658.16,209.68a1.39,1.39,0,0,1-1-.43,1.36,1.36,0,0,1-.43-1,1.38,1.38,0,0,1,.43-1,1.35,1.35,0,0,1,1-.43,1.4,1.4,0,0,1,1,.43,1.38,1.38,0,0,1,.43,1,1.36,1.36,0,0,1-.43,1A1.44,1.44,0,0,1,658.16,209.68Z"/></g></g><g id="Reuniones_acordadas_en_horario_diferente_al_laboral_y_en_otro_ambiente." data-name="Reuniones acordadas en horario diferente al laboral y en otro ambiente." class="cls-9"><g class="cls-9"><path class="cls-11" d="M449.65,389.5l-3.3-5.59h-.77v5.59H443V376.8h4.6a5.48,5.48,0,0,1,1.85.29,3.25,3.25,0,0,1,1.28.82,3.5,3.5,0,0,1,.72,1.2,4.44,4.44,0,0,1,.24,1.49,3.09,3.09,0,0,1-.69,2.08,3.5,3.5,0,0,1-2,1.1l3.82,5.72ZM445.58,379v3h1.56c1.32,0,2-.5,2-1.51a1.36,1.36,0,0,0-.49-1.12,2.29,2.29,0,0,0-1.49-.4Z"/><path class="cls-11" d="M462.34,384.85l0,.61h-6.7a2.4,2.4,0,0,0,.72,1.65,2.31,2.31,0,0,0,1.59.57,2.23,2.23,0,0,0,1.2-.31,2,2,0,0,0,.76-.91l2.32.34a3.93,3.93,0,0,1-1.59,2.12,4.71,4.71,0,0,1-2.67.76,4.9,4.9,0,0,1-3.52-1.25,5.21,5.21,0,0,1,0-6.9,4.72,4.72,0,0,1,3.43-1.26,4.13,4.13,0,0,1,4.48,4.58Zm-4.46-2.79a2,2,0,0,0-2.2,1.74h4.15a1.89,1.89,0,0,0-.62-1.29A2,2,0,0,0,457.88,382.06Z"/><path class="cls-11" d="M470.25,380.46h2.53v9h-2.4l-.06-1.09a4,4,0,0,1-5.37.45,3,3,0,0,1-.87-2.31v-6.09h2.54V386a1.57,1.57,0,0,0,.45,1.24,1.73,1.73,0,0,0,1.17.4,2.05,2.05,0,0,0,1.44-.52,2.22,2.22,0,0,0,.57-1.67Z"/><path class="cls-11" d="M480.73,380.29a3.53,3.53,0,0,1,2.5.81,3,3,0,0,1,.87,2.32v6.08h-2.54V384a1.59,1.59,0,0,0-.45-1.25,1.74,1.74,0,0,0-1.17-.39,2.63,2.63,0,0,0-.76.11,2.22,2.22,0,0,0-.63.36,1.62,1.62,0,0,0-.45.68,3,3,0,0,0-.17,1v5H475.4v-9h2.53v1A3.46,3.46,0,0,1,480.73,380.29Z"/><path class="cls-11" d="M487.84,379.11a1.47,1.47,0,0,1-1.47-1.46,1.37,1.37,0,0,1,.44-1,1.44,1.44,0,0,1,2.05,0,1.36,1.36,0,0,1,.43,1,1.4,1.4,0,0,1-.43,1A1.42,1.42,0,0,1,487.84,379.11Zm-1.29,10.39v-9h2.55v9Z"/><path class="cls-11" d="M495.93,389.68a5.67,5.67,0,0,1-2.56-.56,4.15,4.15,0,0,1-1.75-1.62A4.83,4.83,0,0,1,491,385a4.41,4.41,0,0,1,1.37-3.42,5.72,5.72,0,0,1,7.16,0,5,5,0,0,1,0,6.86A5,5,0,0,1,495.93,389.68Zm0-2a2.29,2.29,0,0,0,1.79-.74,3.14,3.14,0,0,0,0-3.9,2.32,2.32,0,0,0-1.79-.74,2.2,2.2,0,0,0-1.73.75,3.12,3.12,0,0,0,0,3.89A2.19,2.19,0,0,0,495.9,387.66Z"/><path class="cls-11" d="M508.1,380.29a3.55,3.55,0,0,1,2.5.81,3,3,0,0,1,.87,2.32v6.08h-2.54V384a1.56,1.56,0,0,0-.46-1.25,1.71,1.71,0,0,0-1.16-.39,2.58,2.58,0,0,0-.76.11,2.1,2.1,0,0,0-.63.36,1.62,1.62,0,0,0-.45.68,3,3,0,0,0-.17,1v5h-2.53v-9h2.53v1A3.46,3.46,0,0,1,508.1,380.29Z"/><path class="cls-11" d="M522.42,384.85l0,.61h-6.7a2.36,2.36,0,0,0,.73,1.65,2.28,2.28,0,0,0,1.59.57,2.22,2.22,0,0,0,1.19-.31,2,2,0,0,0,.76-.91l2.32.34a4,4,0,0,1-1.58,2.12,4.76,4.76,0,0,1-2.68.76,4.9,4.9,0,0,1-3.52-1.25,5.21,5.21,0,0,1,0-6.9,4.74,4.74,0,0,1,3.43-1.26,4.13,4.13,0,0,1,4.48,4.58ZM518,382.06a2,2,0,0,0-2.19,1.74h4.14a1.89,1.89,0,0,0-.62-1.29A2,2,0,0,0,518,382.06Z"/><path class="cls-11" d="M527.52,389.68a5,5,0,0,1-2.63-.64,2.63,2.63,0,0,1-1.29-1.88l2.11-.6a1.71,1.71,0,0,0,1.81,1.35,1.88,1.88,0,0,0,.93-.21.83.83,0,0,0,.21-1.16,1.23,1.23,0,0,0-.46-.34,5.92,5.92,0,0,0-.62-.23c-.2-.07-.47-.14-.8-.24a7.87,7.87,0,0,1-.84-.26,5,5,0,0,1-.79-.33,3.2,3.2,0,0,1-.66-.47A1.78,1.78,0,0,1,524,384a2.42,2.42,0,0,1-.18-1,2.32,2.32,0,0,1,1-2,4.4,4.4,0,0,1,2.56-.68,4.46,4.46,0,0,1,2.36.58,2.62,2.62,0,0,1,1.21,1.81l-2,.44a1.53,1.53,0,0,0-1.6-1.14,1.7,1.7,0,0,0-.89.2.63.63,0,0,0-.35.6.59.59,0,0,0,.05.27.6.6,0,0,0,.18.22l.26.17a2.47,2.47,0,0,0,.36.14l.39.12.47.11.47.13a7.74,7.74,0,0,1,.84.26,4.55,4.55,0,0,1,.78.37,2.92,2.92,0,0,1,.68.53,2.49,2.49,0,0,1,.45.75,2.91,2.91,0,0,1,.17,1,2.72,2.72,0,0,1-.3,1.31,2.3,2.3,0,0,1-.83.89,4,4,0,0,1-1.17.47A6.3,6.3,0,0,1,527.52,389.68Z"/><path class="cls-11" d="M545.15,387.05a8.25,8.25,0,0,0,.22,2.2v.25H543l-.2-1a3,3,0,0,1-1.27.87,4.7,4.7,0,0,1-1.63.29,4.44,4.44,0,0,1-.84-.08,3.27,3.27,0,0,1-.76-.27,2.16,2.16,0,0,1-.63-.47,2,2,0,0,1-.42-.72,2.72,2.72,0,0,1-.16-1,2.76,2.76,0,0,1,.16-1,2.49,2.49,0,0,1,.44-.73,2.77,2.77,0,0,1,.72-.54,4.58,4.58,0,0,1,.89-.38c.31-.1.66-.2,1.07-.29l1.49-.33a1.56,1.56,0,0,0,.67-.29.56.56,0,0,0,.2-.45,1,1,0,0,0-.44-.87,2.16,2.16,0,0,0-1.08-.26,1.55,1.55,0,0,0-1.77,1.38L537.2,383a3.08,3.08,0,0,1,1.31-2.06,5.24,5.24,0,0,1,2.84-.66q3.79,0,3.8,3.26Zm-4.46.91a2.07,2.07,0,0,0,1.57-.65,2.8,2.8,0,0,0,.6-1.94l-2.14.61a2.4,2.4,0,0,0-.9.36.77.77,0,0,0-.32.65.85.85,0,0,0,.34.72A1.36,1.36,0,0,0,540.69,388Z"/><path class="cls-11" d="M551.49,389.67a4.88,4.88,0,0,1-3.49-1.3,4.94,4.94,0,0,1,0-6.79,5.37,5.37,0,0,1,6.42-.42,3.91,3.91,0,0,1,1.51,2.45l-2.34.26a2,2,0,0,0-.75-1.19,2.34,2.34,0,0,0-1.37-.4,2.11,2.11,0,0,0-1.66.74,3.33,3.33,0,0,0,0,3.9,2.08,2.08,0,0,0,1.66.74,2.28,2.28,0,0,0,1.36-.39,2,2,0,0,0,.76-1.19l2.34.26a3.93,3.93,0,0,1-1.52,2.45A4.84,4.84,0,0,1,551.49,389.67Z"/><path class="cls-11" d="M561.94,389.68a5.63,5.63,0,0,1-2.55-.56,4.17,4.17,0,0,1-1.76-1.62A4.93,4.93,0,0,1,557,385a4.39,4.39,0,0,1,1.38-3.42,5.72,5.72,0,0,1,7.16,0,5,5,0,0,1,0,6.86A5.07,5.07,0,0,1,561.94,389.68Zm0-2a2.32,2.32,0,0,0,1.79-.74,3.14,3.14,0,0,0,0-3.9,2.35,2.35,0,0,0-1.79-.74,2.23,2.23,0,0,0-1.74.75,3.16,3.16,0,0,0,0,3.89A2.23,2.23,0,0,0,561.92,387.66Z"/><path class="cls-11" d="M571.21,381.9a2.92,2.92,0,0,1,1.18-1.09,3.64,3.64,0,0,1,1.77-.45v2.26a3.42,3.42,0,0,0-2.16.54,2.38,2.38,0,0,0-.67,1.94v4.4h-2.55v-9h2.43Z"/><path class="cls-11" d="M582,376h2.53v13.5h-2.4l-.06-1.18a2.63,2.63,0,0,1-1.15,1,3.88,3.88,0,0,1-1.69.36,4.54,4.54,0,0,1-1.69-.32,4.45,4.45,0,0,1-1.38-.92,4.17,4.17,0,0,1-.94-1.49,5.49,5.49,0,0,1-.34-2,5.13,5.13,0,0,1,.6-2.52,4.1,4.1,0,0,1,1.58-1.64,4.3,4.3,0,0,1,2.17-.55,4,4,0,0,1,1.64.33,2.55,2.55,0,0,1,1.13.93Zm-2.19,11.61a2.24,2.24,0,0,0,1.71-.72,3,3,0,0,0,0-3.78,2.25,2.25,0,0,0-1.71-.73,2.31,2.31,0,0,0-1.72.71,3,3,0,0,0,0,3.81A2.31,2.31,0,0,0,579.81,387.61Z"/><path class="cls-11" d="M594.56,387.05a8.25,8.25,0,0,0,.22,2.2v.25h-2.37l-.2-1a3,3,0,0,1-1.26.87,4.76,4.76,0,0,1-1.64.29,4.44,4.44,0,0,1-.84-.08,3.27,3.27,0,0,1-.76-.27,2.47,2.47,0,0,1-.63-.47,2,2,0,0,1-.42-.72,2.72,2.72,0,0,1-.16-1,2.76,2.76,0,0,1,.17-1,2.13,2.13,0,0,1,.44-.73,2.55,2.55,0,0,1,.71-.54,4.58,4.58,0,0,1,.89-.38c.31-.1.67-.2,1.08-.29l1.48-.33a1.56,1.56,0,0,0,.67-.29.53.53,0,0,0,.2-.45,1,1,0,0,0-.44-.87,2.16,2.16,0,0,0-1.08-.26,1.56,1.56,0,0,0-1.77,1.38l-2.24-.41a3.08,3.08,0,0,1,1.31-2.06,5.26,5.26,0,0,1,2.84-.66q3.79,0,3.8,3.26Zm-4.46.91a2.07,2.07,0,0,0,1.57-.65,2.8,2.8,0,0,0,.6-1.94l-2.14.61a2.55,2.55,0,0,0-.9.36.76.76,0,0,0-.31.65.84.84,0,0,0,.33.72A1.36,1.36,0,0,0,590.1,388Z"/><path class="cls-11" d="M603.22,376h2.54v13.5h-2.4l-.06-1.18a2.63,2.63,0,0,1-1.15,1,3.91,3.91,0,0,1-1.69.36,4.54,4.54,0,0,1-1.69-.32,4.23,4.23,0,0,1-1.38-.92,4.17,4.17,0,0,1-.94-1.49,5.49,5.49,0,0,1-.34-2,5.24,5.24,0,0,1,.59-2.52,4.16,4.16,0,0,1,1.58-1.64,4.33,4.33,0,0,1,2.18-.55,4,4,0,0,1,1.64.33,2.53,2.53,0,0,1,1.12.93ZM601,387.61a2.27,2.27,0,0,0,1.71-.72,2.65,2.65,0,0,0,.68-1.89,2.62,2.62,0,0,0-.69-1.89,2.23,2.23,0,0,0-1.7-.73,2.29,2.29,0,0,0-1.72.71,3,3,0,0,0,0,3.81A2.29,2.29,0,0,0,601,387.61Z"/><path class="cls-11" d="M615.78,387.05a8.7,8.7,0,0,0,.22,2.2v.25h-2.36l-.2-1a3.07,3.07,0,0,1-1.27.87,4.7,4.7,0,0,1-1.63.29,4.63,4.63,0,0,1-.85-.08,3.63,3.63,0,0,1-.76-.27,2.26,2.26,0,0,1-.62-.47,2.12,2.12,0,0,1-.43-.72,3,3,0,0,1-.16-1,2.76,2.76,0,0,1,.17-1,2.29,2.29,0,0,1,.44-.73,2.71,2.71,0,0,1,.71-.54,4.94,4.94,0,0,1,.9-.38,10.62,10.62,0,0,1,1.07-.29l1.49-.33a1.62,1.62,0,0,0,.67-.29.56.56,0,0,0,.2-.45.94.94,0,0,0-.45-.87,2.09,2.09,0,0,0-1.07-.26,1.55,1.55,0,0,0-1.77,1.38l-2.24-.41a3,3,0,0,1,1.31-2.06,5.21,5.21,0,0,1,2.84-.66q3.79,0,3.79,3.26Zm-4.45.91a2,2,0,0,0,1.56-.65,2.75,2.75,0,0,0,.61-1.94l-2.15.61a2.55,2.55,0,0,0-.9.36.79.79,0,0,0-.31.65.83.83,0,0,0,.34.72A1.34,1.34,0,0,0,611.33,388Z"/><path class="cls-11" d="M621.43,389.68a5.06,5.06,0,0,1-2.64-.64,2.69,2.69,0,0,1-1.29-1.88l2.12-.6a1.7,1.7,0,0,0,1.81,1.35,1.84,1.84,0,0,0,.92-.21.7.7,0,0,0,.36-.7.73.73,0,0,0-.15-.46,1.23,1.23,0,0,0-.46-.34,5.19,5.19,0,0,0-.62-.23c-.2-.07-.47-.14-.8-.24a7.61,7.61,0,0,1-.83-.26,5.09,5.09,0,0,1-.8-.33,3.2,3.2,0,0,1-.66-.47,1.88,1.88,0,0,1-.49-.71,2.42,2.42,0,0,1-.17-1,2.31,2.31,0,0,1,1-2,5.13,5.13,0,0,1,4.92-.1,2.64,2.64,0,0,1,1.22,1.81l-2,.44a1.54,1.54,0,0,0-1.61-1.14,1.7,1.7,0,0,0-.89.2.65.65,0,0,0-.35.6.76.76,0,0,0,.05.27.64.64,0,0,0,.19.22l.25.17a2.47,2.47,0,0,0,.36.14l.4.12.46.11.47.13a8.75,8.75,0,0,1,.85.26,4.85,4.85,0,0,1,.77.37,3,3,0,0,1,.69.53,2.89,2.89,0,0,1,.31,3.06,2.3,2.3,0,0,1-.83.89,4,4,0,0,1-1.17.47A6.21,6.21,0,0,1,621.43,389.68Z"/><path class="cls-11" d="M640.14,384.85l0,.61h-6.69a2.31,2.31,0,0,0,.72,1.65,2.28,2.28,0,0,0,1.59.57,2.22,2.22,0,0,0,1.19-.31,1.9,1.9,0,0,0,.76-.91l2.32.34a4,4,0,0,1-1.58,2.12,4.76,4.76,0,0,1-2.68.76,4.92,4.92,0,0,1-3.52-1.25,5.21,5.21,0,0,1,0-6.9,4.75,4.75,0,0,1,3.44-1.26,4.13,4.13,0,0,1,4.47,4.58Zm-4.46-2.79a2,2,0,0,0-2.19,1.74h4.14a1.89,1.89,0,0,0-.62-1.29A2,2,0,0,0,635.68,382.06Z"/><path class="cls-11" d="M647.4,380.29a3.52,3.52,0,0,1,2.49.81,3,3,0,0,1,.88,2.32v6.08h-2.55V384a1.59,1.59,0,0,0-.45-1.25,1.71,1.71,0,0,0-1.16-.39,2.58,2.58,0,0,0-.76.11,2,2,0,0,0-.63.36,1.62,1.62,0,0,0-.45.68,3,3,0,0,0-.17,1v5h-2.54v-9h2.54v1A3.45,3.45,0,0,1,647.4,380.29Z"/></g><g class="cls-9"><path class="cls-11" d="M438.41,404.29a3.16,3.16,0,0,1,2.38.86,3.42,3.42,0,0,1,.85,2.52v5.83H439.1v-5.41a1.76,1.76,0,0,0-.45-1.35,1.65,1.65,0,0,0-1.19-.42,2.34,2.34,0,0,0-.71.1,2.15,2.15,0,0,0-.63.34,1.65,1.65,0,0,0-.47.68,3.38,3.38,0,0,0-.18,1.08v5h-2.53V400h2.53v5.55A3.59,3.59,0,0,1,438.41,404.29Z"/><path class="cls-11" d="M448.29,413.68a5.67,5.67,0,0,1-2.56-.56A4.15,4.15,0,0,1,444,411.5a4.83,4.83,0,0,1-.64-2.53,4.41,4.41,0,0,1,1.37-3.42,5.72,5.72,0,0,1,7.16,0,5,5,0,0,1,0,6.86A5,5,0,0,1,448.29,413.68Zm0-2a2.29,2.29,0,0,0,1.79-.74,3.14,3.14,0,0,0,0-3.9,2.32,2.32,0,0,0-1.79-.74,2.23,2.23,0,0,0-1.74.75,3.16,3.16,0,0,0,0,3.89A2.23,2.23,0,0,0,448.26,411.66Z"/><path class="cls-11" d="M457.55,405.9a3,3,0,0,1,1.19-1.09,3.63,3.63,0,0,1,1.76-.45v2.26a3.46,3.46,0,0,0-2.16.54,2.42,2.42,0,0,0-.67,1.94v4.4h-2.54v-9h2.42Z"/><path class="cls-11" d="M469.35,411.05a8.25,8.25,0,0,0,.22,2.2v.25H467.2l-.2-1a3,3,0,0,1-1.27.87,4.7,4.7,0,0,1-1.63.29,4.44,4.44,0,0,1-.84-.08,3.27,3.27,0,0,1-.76-.27,2.16,2.16,0,0,1-.63-.47,2.12,2.12,0,0,1-.43-.72,3,3,0,0,1-.15-1,2.76,2.76,0,0,1,.16-1,2.29,2.29,0,0,1,.44-.73,2.71,2.71,0,0,1,.71-.54,4.94,4.94,0,0,1,.9-.38c.31-.1.66-.2,1.07-.29l1.49-.33a1.56,1.56,0,0,0,.67-.29.56.56,0,0,0,.2-.45,1,1,0,0,0-.44-.87,2.16,2.16,0,0,0-1.08-.26,1.55,1.55,0,0,0-1.77,1.38L461.4,407a3,3,0,0,1,1.31-2.06,5.24,5.24,0,0,1,2.84-.66q3.79,0,3.8,3.26Zm-4.46.91a2,2,0,0,0,1.56-.65,2.75,2.75,0,0,0,.61-1.94l-2.14.61a2.4,2.4,0,0,0-.9.36.77.77,0,0,0-.32.65.83.83,0,0,0,.34.72A1.34,1.34,0,0,0,464.89,412Z"/><path class="cls-11" d="M474.23,405.9a3,3,0,0,1,1.19-1.09,3.64,3.64,0,0,1,1.77-.45v2.26a3.47,3.47,0,0,0-2.17.54,2.41,2.41,0,0,0-.66,1.94v4.4h-2.55v-9h2.42Z"/><path class="cls-11" d="M480,403.11a1.45,1.45,0,0,1-1.46-1.46,1.36,1.36,0,0,1,.43-1,1.4,1.4,0,0,1,1-.43,1.47,1.47,0,0,1,1.45,1.45,1.4,1.4,0,0,1-.43,1A1.39,1.39,0,0,1,480,403.11Zm-1.29,10.39v-9h2.55v9Z"/><path class="cls-11" d="M488.05,413.68a5.7,5.7,0,0,1-2.56-.56,4.15,4.15,0,0,1-1.75-1.62,4.83,4.83,0,0,1-.64-2.53,4.41,4.41,0,0,1,1.37-3.42,5.73,5.73,0,0,1,7.17,0,5,5,0,0,1,0,6.86A5.07,5.07,0,0,1,488.05,413.68Zm0-2a2.29,2.29,0,0,0,1.79-.74,3.14,3.14,0,0,0,0-3.9,2.32,2.32,0,0,0-1.79-.74,2.21,2.21,0,0,0-1.73.75,3.12,3.12,0,0,0,0,3.89A2.2,2.2,0,0,0,488,411.66Z"/><path class="cls-11" d="M506,400h2.53v13.5h-2.4l-.06-1.18a2.63,2.63,0,0,1-1.15,1,3.88,3.88,0,0,1-1.69.36,4.54,4.54,0,0,1-1.69-.32,4.33,4.33,0,0,1-1.38-.92,4.17,4.17,0,0,1-.94-1.49,5.71,5.71,0,0,1-.34-2,5.13,5.13,0,0,1,.6-2.52,4.1,4.1,0,0,1,1.58-1.64,4.3,4.3,0,0,1,2.17-.55,3.94,3.94,0,0,1,1.64.33,2.55,2.55,0,0,1,1.13.93Zm-2.19,11.61a2.24,2.24,0,0,0,1.71-.72,3,3,0,0,0,0-3.78,2.25,2.25,0,0,0-1.71-.73,2.31,2.31,0,0,0-1.72.71,3,3,0,0,0,0,3.81A2.31,2.31,0,0,0,503.78,411.61Z"/><path class="cls-11" d="M512.41,403.11a1.47,1.47,0,0,1-1.47-1.46,1.37,1.37,0,0,1,.44-1,1.4,1.4,0,0,1,1-.43,1.38,1.38,0,0,1,1,.43,1.36,1.36,0,0,1,.43,1,1.45,1.45,0,0,1-1.45,1.46Zm-1.29,10.39v-9h2.55v9Z"/><path class="cls-11" d="M521.39,402H521l-.36,0a1.07,1.07,0,0,0-.37.08,2.31,2.31,0,0,0-.3.16.81.81,0,0,0-.26.26,1.43,1.43,0,0,0-.16.39,2.23,2.23,0,0,0-.07.55v1h1.95v2h-1.95v7.09h-2.52v-7.09h-1.77v-2h1.77v-1a5,5,0,0,1,.12-1.15,3.36,3.36,0,0,1,.3-.88,2.09,2.09,0,0,1,.52-.63,3.34,3.34,0,0,1,.66-.42,4,4,0,0,1,.84-.25,6.37,6.37,0,0,1,.95-.13q.47,0,1.08,0Z"/><path class="cls-11" d="M531.28,408.85l0,.61h-6.7a2.2,2.2,0,0,0,2.31,2.22,2.2,2.2,0,0,0,1.19-.31,1.9,1.9,0,0,0,.76-.91l2.32.34a3.91,3.91,0,0,1-1.58,2.12,4.75,4.75,0,0,1-2.67.76,4.89,4.89,0,0,1-3.52-1.25,5.2,5.2,0,0,1,0-6.9,4.77,4.77,0,0,1,3.44-1.26,4.55,4.55,0,0,1,3.24,1.15A4.48,4.48,0,0,1,531.28,408.85Zm-4.45-2.79a2,2,0,0,0-2.2,1.74h4.15a1.9,1.9,0,0,0-.63-1.29A2,2,0,0,0,526.83,406.06Z"/><path class="cls-11" d="M535.63,405.9a3,3,0,0,1,1.19-1.09,3.64,3.64,0,0,1,1.77-.45v2.26a3.47,3.47,0,0,0-2.17.54,2.41,2.41,0,0,0-.66,1.94v4.4h-2.55v-9h2.42Z"/><path class="cls-11" d="M548.52,408.85l0,.61h-6.7a2.36,2.36,0,0,0,.73,1.65,2.28,2.28,0,0,0,1.59.57,2.22,2.22,0,0,0,1.19-.31,2,2,0,0,0,.76-.91l2.32.34a4,4,0,0,1-1.58,2.12,4.76,4.76,0,0,1-2.68.76,4.9,4.9,0,0,1-3.52-1.25,5.21,5.21,0,0,1,0-6.9,4.74,4.74,0,0,1,3.43-1.26,4.13,4.13,0,0,1,4.48,4.58Zm-4.46-2.79a2,2,0,0,0-2.2,1.74H546a1.89,1.89,0,0,0-.62-1.29A2,2,0,0,0,544.06,406.06Z"/><path class="cls-11" d="M555.78,404.29a3.52,3.52,0,0,1,2.49.81,3,3,0,0,1,.87,2.32v6.08H556.6V408a1.59,1.59,0,0,0-.45-1.25,1.71,1.71,0,0,0-1.16-.39,2.58,2.58,0,0,0-.76.11,2,2,0,0,0-.63.36,1.45,1.45,0,0,0-.45.68,3.19,3.19,0,0,0-.18,1v5h-2.53v-9H553v1A3.49,3.49,0,0,1,555.78,404.29Z"/><path class="cls-11" d="M565,413.5a2.72,2.72,0,0,1-2-.73,2.87,2.87,0,0,1-.72-2.09v-4.27h-1.77v-2H561a1.48,1.48,0,0,0,1.12-.37,2,2,0,0,0,.36-1.35v-1.19h2.29v2.91h1.86v2h-1.86v4c0,.78.35,1.17,1,1.17h.82v1.92Z"/><path class="cls-11" d="M577.06,408.85l0,.61h-6.7a2.4,2.4,0,0,0,.72,1.65,2.31,2.31,0,0,0,1.59.57,2.23,2.23,0,0,0,1.2-.31,2,2,0,0,0,.76-.91l2.32.34a3.93,3.93,0,0,1-1.59,2.12,4.71,4.71,0,0,1-2.67.76,4.89,4.89,0,0,1-3.52-1.25,5.21,5.21,0,0,1,0-6.9,4.72,4.72,0,0,1,3.43-1.26,4.13,4.13,0,0,1,4.48,4.58Zm-4.46-2.79a2,2,0,0,0-2.2,1.74h4.15a1.89,1.89,0,0,0-.62-1.29A2,2,0,0,0,572.6,406.06Z"/><path class="cls-11" d="M591.07,411.05a8.25,8.25,0,0,0,.22,2.2v.25h-2.37l-.2-1a3.07,3.07,0,0,1-1.27.87,4.7,4.7,0,0,1-1.63.29,4.63,4.63,0,0,1-.85-.08,3.63,3.63,0,0,1-.76-.27,2.26,2.26,0,0,1-.62-.47,2.12,2.12,0,0,1-.43-.72,3,3,0,0,1-.15-1,2.76,2.76,0,0,1,.16-1,2.29,2.29,0,0,1,.44-.73,2.71,2.71,0,0,1,.71-.54,4.94,4.94,0,0,1,.9-.38c.31-.1.66-.2,1.07-.29l1.49-.33a1.56,1.56,0,0,0,.67-.29.56.56,0,0,0,.2-.45.94.94,0,0,0-.45-.87,2.09,2.09,0,0,0-1.07-.26,1.55,1.55,0,0,0-1.77,1.38l-2.24-.41a3,3,0,0,1,1.31-2.06,5.24,5.24,0,0,1,2.84-.66q3.79,0,3.8,3.26Zm-4.46.91a2,2,0,0,0,1.56-.65,2.75,2.75,0,0,0,.61-1.94l-2.14.61a2.4,2.4,0,0,0-.9.36.77.77,0,0,0-.32.65.83.83,0,0,0,.34.72A1.34,1.34,0,0,0,586.61,412Z"/><path class="cls-11" d="M593.53,413.5V400h2.55v13.5Z"/><path class="cls-11" d="M603.38,413.5V400h2.56v13.5Z"/><path class="cls-11" d="M616,411.05a8.78,8.78,0,0,0,.21,2.2v.25h-2.36l-.2-1a3.07,3.07,0,0,1-1.27.87,4.7,4.7,0,0,1-1.63.29,4.63,4.63,0,0,1-.85-.08,3.63,3.63,0,0,1-.76-.27,2.26,2.26,0,0,1-.62-.47,2.12,2.12,0,0,1-.43-.72,3,3,0,0,1-.15-1,2.76,2.76,0,0,1,.16-1,2.29,2.29,0,0,1,.44-.73,2.71,2.71,0,0,1,.71-.54,4.94,4.94,0,0,1,.9-.38c.31-.1.66-.2,1.07-.29l1.49-.33a1.62,1.62,0,0,0,.67-.29.56.56,0,0,0,.2-.45.94.94,0,0,0-.45-.87A2.09,2.09,0,0,0,612,406a1.55,1.55,0,0,0-1.77,1.38L608,407a3,3,0,0,1,1.31-2.06,5.24,5.24,0,0,1,2.84-.66q3.8,0,3.8,3.26Zm-4.46.91a2,2,0,0,0,1.56-.65,2.75,2.75,0,0,0,.61-1.94l-2.14.61a2.53,2.53,0,0,0-.91.36.79.79,0,0,0-.31.65.83.83,0,0,0,.34.72A1.34,1.34,0,0,0,611.51,412Z"/><path class="cls-11" d="M623.73,404.29a4.45,4.45,0,0,1,1.68.32,4.38,4.38,0,0,1,1.39.92,4.15,4.15,0,0,1,.93,1.49,5.78,5.78,0,0,1,0,4,4.15,4.15,0,0,1-.93,1.49,4.38,4.38,0,0,1-1.39.92,4.45,4.45,0,0,1-1.68.32,4,4,0,0,1-1.71-.36,2.58,2.58,0,0,1-1.13-1l-.06,1.18h-2.4V400H621v5.56a2.58,2.58,0,0,1,1.13-.94A4,4,0,0,1,623.73,404.29Zm-.58,7.32a2.27,2.27,0,0,0,1.71-.71,3,3,0,0,0,0-3.81,2.27,2.27,0,0,0-1.71-.71,2.25,2.25,0,0,0-1.71.73,3,3,0,0,0,0,3.78A2.24,2.24,0,0,0,623.15,411.61Z"/><path class="cls-11" d="M634.19,413.68a5.63,5.63,0,0,1-2.55-.56,4.17,4.17,0,0,1-1.76-1.62,4.92,4.92,0,0,1-.63-2.53,4.38,4.38,0,0,1,1.37-3.42,5.72,5.72,0,0,1,7.16,0,5,5,0,0,1,0,6.86A5.05,5.05,0,0,1,634.19,413.68Zm0-2a2.3,2.3,0,0,0,1.79-.74,3.14,3.14,0,0,0,0-3.9,2.34,2.34,0,0,0-1.79-.74,2.23,2.23,0,0,0-1.74.75,3.16,3.16,0,0,0,0,3.89A2.23,2.23,0,0,0,634.17,411.66Z"/><path class="cls-11" d="M643.46,405.9a2.92,2.92,0,0,1,1.18-1.09,3.64,3.64,0,0,1,1.77-.45v2.26a3.42,3.42,0,0,0-2.16.54,2.38,2.38,0,0,0-.67,1.94v4.4H641v-9h2.43Z"/><path class="cls-11" d="M655.25,411.05a8.7,8.7,0,0,0,.22,2.2v.25h-2.36l-.2-1a3.13,3.13,0,0,1-1.27.87,4.74,4.74,0,0,1-1.63.29,4.63,4.63,0,0,1-.85-.08,3.44,3.44,0,0,1-.76-.27,2.47,2.47,0,0,1-.63-.47,2.28,2.28,0,0,1-.42-.72,3,3,0,0,1-.16-1,2.76,2.76,0,0,1,.17-1,2.29,2.29,0,0,1,.44-.73,2.71,2.71,0,0,1,.71-.54,4.42,4.42,0,0,1,.9-.38,10.62,10.62,0,0,1,1.07-.29l1.49-.33a1.62,1.62,0,0,0,.67-.29.56.56,0,0,0,.2-.45.94.94,0,0,0-.45-.87,2.11,2.11,0,0,0-1.08-.26,1.55,1.55,0,0,0-1.76,1.38l-2.24-.41a3,3,0,0,1,1.31-2.06,5.21,5.21,0,0,1,2.84-.66q3.79,0,3.79,3.26Zm-4.45.91a2.05,2.05,0,0,0,1.56-.65,2.75,2.75,0,0,0,.61-1.94l-2.15.61a2.55,2.55,0,0,0-.9.36.76.76,0,0,0-.31.65.84.84,0,0,0,.33.72A1.39,1.39,0,0,0,650.8,412Z"/><path class="cls-11" d="M657.71,413.5V400h2.56v13.5Z"/></g><g class="cls-9"><path class="cls-11" d="M469.38,428.46H472l-5.57,13.29h-2.56l2.06-4.62-3.72-8.67h2.76l2.16,6Z"/><path class="cls-11" d="M486.48,432.85l0,.61h-6.7a2.2,2.2,0,0,0,2.31,2.22,2.18,2.18,0,0,0,1.19-.31,1.9,1.9,0,0,0,.76-.91l2.32.34a3.86,3.86,0,0,1-1.58,2.12,4.71,4.71,0,0,1-2.67.76,4.89,4.89,0,0,1-3.52-1.25,5.23,5.23,0,0,1,0-6.9,4.77,4.77,0,0,1,3.44-1.26,4.55,4.55,0,0,1,3.24,1.15A4.48,4.48,0,0,1,486.48,432.85ZM482,430.06a2,2,0,0,0-2.2,1.74H484a1.89,1.89,0,0,0-.62-1.29A2,2,0,0,0,482,430.06Z"/><path class="cls-11" d="M493.74,428.29a3.53,3.53,0,0,1,2.5.81,3,3,0,0,1,.87,2.32v6.08h-2.54V432a1.59,1.59,0,0,0-.45-1.25,1.72,1.72,0,0,0-1.17-.39,2.56,2.56,0,0,0-.75.11,2.14,2.14,0,0,0-.64.36,1.62,1.62,0,0,0-.45.68,3.2,3.2,0,0,0-.17,1v5h-2.53v-9h2.53v1A3.46,3.46,0,0,1,493.74,428.29Z"/><path class="cls-11" d="M508.45,437.68a5.7,5.7,0,0,1-2.56-.56,4.15,4.15,0,0,1-1.75-1.62,4.83,4.83,0,0,1-.64-2.53,4.41,4.41,0,0,1,1.37-3.42,5.72,5.72,0,0,1,7.16,0,5,5,0,0,1,0,6.86A5,5,0,0,1,508.45,437.68Zm0-2a2.29,2.29,0,0,0,1.79-.74,3.14,3.14,0,0,0,0-3.9,2.32,2.32,0,0,0-1.79-.74,2.2,2.2,0,0,0-1.73.75,3.12,3.12,0,0,0,0,3.89A2.19,2.19,0,0,0,508.42,435.66Z"/><path class="cls-11" d="M518.65,437.5a2.72,2.72,0,0,1-2-.73,2.87,2.87,0,0,1-.72-2.09v-4.27h-1.77v-2h.57a1.48,1.48,0,0,0,1.12-.37,2,2,0,0,0,.36-1.35v-1.19h2.29v2.91h1.86v2h-1.86v4q0,1.17,1,1.17h.81v1.92Z"/><path class="cls-11" d="M524.71,429.9a2.92,2.92,0,0,1,1.18-1.09,3.67,3.67,0,0,1,1.77-.45v2.26a3.44,3.44,0,0,0-2.16.54,2.38,2.38,0,0,0-.67,1.94v4.4h-2.55v-9h2.43Z"/><path class="cls-11" d="M533.3,437.68a5.63,5.63,0,0,1-2.55-.56A4.17,4.17,0,0,1,529,435.5a4.92,4.92,0,0,1-.63-2.53,4.38,4.38,0,0,1,1.37-3.42,5.72,5.72,0,0,1,7.16,0,5,5,0,0,1,0,6.86A5.05,5.05,0,0,1,533.3,437.68Zm0-2a2.3,2.3,0,0,0,1.79-.74,3.14,3.14,0,0,0,0-3.9,2.34,2.34,0,0,0-1.79-.74,2.23,2.23,0,0,0-1.74.75,3.16,3.16,0,0,0,0,3.89A2.23,2.23,0,0,0,533.28,435.66Z"/><path class="cls-11" d="M552.23,435.05a8.25,8.25,0,0,0,.22,2.2v.25h-2.37l-.2-1a3,3,0,0,1-1.27.87,4.7,4.7,0,0,1-1.63.29,4.44,4.44,0,0,1-.84-.08,3.27,3.27,0,0,1-.76-.27,2.16,2.16,0,0,1-.63-.47,2,2,0,0,1-.42-.72,2.72,2.72,0,0,1-.16-1,2.76,2.76,0,0,1,.16-1,2.49,2.49,0,0,1,.44-.73,2.77,2.77,0,0,1,.72-.54,4.58,4.58,0,0,1,.89-.38c.31-.1.66-.2,1.07-.29l1.49-.33a1.56,1.56,0,0,0,.67-.29.56.56,0,0,0,.2-.45,1,1,0,0,0-.44-.87,2.16,2.16,0,0,0-1.08-.26,1.55,1.55,0,0,0-1.77,1.38l-2.24-.41a3.08,3.08,0,0,1,1.31-2.06,5.24,5.24,0,0,1,2.84-.66q3.8,0,3.8,3.26Zm-4.46.91a2.07,2.07,0,0,0,1.57-.65,2.8,2.8,0,0,0,.6-1.94l-2.14.61a2.4,2.4,0,0,0-.9.36.77.77,0,0,0-.32.65.85.85,0,0,0,.34.72A1.36,1.36,0,0,0,547.77,436Z"/><path class="cls-11" d="M565.39,428.29a3.44,3.44,0,0,1,2.33.73,2.62,2.62,0,0,1,.85,2.11v6.37H566v-5.65a1.48,1.48,0,0,0-.4-1.14,1.41,1.41,0,0,0-1-.39,1.63,1.63,0,0,0-1.23.49,2.22,2.22,0,0,0-.48,1.59v5.1h-2.55v-5.63a1.55,1.55,0,0,0-.41-1.16,1.44,1.44,0,0,0-1-.39,1.59,1.59,0,0,0-1.23.52,2.49,2.49,0,0,0-.47,1.69v5h-2.52v-9h2.52v1.07a3.07,3.07,0,0,1,2.62-1.24,3.88,3.88,0,0,1,1.7.35,2.31,2.31,0,0,1,1.07,1A3.19,3.19,0,0,1,565.39,428.29Z"/><path class="cls-11" d="M576.34,428.29a4.45,4.45,0,0,1,1.68.32,4.38,4.38,0,0,1,1.39.92,4.3,4.3,0,0,1,.93,1.49,5.78,5.78,0,0,1,0,4,4.3,4.3,0,0,1-.93,1.49,4.38,4.38,0,0,1-1.39.92,4.45,4.45,0,0,1-1.68.32,4,4,0,0,1-1.71-.36,2.58,2.58,0,0,1-1.13-1l-.07,1.18H571V424h2.53v5.56a2.53,2.53,0,0,1,1.13-.94A4,4,0,0,1,576.34,428.29Zm-.58,7.32a2.27,2.27,0,0,0,1.71-.71,3,3,0,0,0,0-3.81,2.27,2.27,0,0,0-1.71-.71,2.25,2.25,0,0,0-1.71.73,2.93,2.93,0,0,0,0,3.78A2.24,2.24,0,0,0,575.76,435.61Z"/><path class="cls-11" d="M583.89,427.11a1.43,1.43,0,0,1-1-.42,1.4,1.4,0,0,1-.43-1,1.36,1.36,0,0,1,.43-1,1.42,1.42,0,0,1,1-.43,1.35,1.35,0,0,1,1,.43,1.37,1.37,0,0,1,.44,1,1.41,1.41,0,0,1-.44,1A1.38,1.38,0,0,1,583.89,427.11Zm-1.3,10.39v-9h2.55v9Z"/><path class="cls-11" d="M596.26,432.85l0,.61h-6.69a2.2,2.2,0,0,0,2.31,2.22,2.2,2.2,0,0,0,1.19-.31,1.9,1.9,0,0,0,.76-.91l2.32.34a4,4,0,0,1-1.58,2.12,4.75,4.75,0,0,1-2.67.76,4.89,4.89,0,0,1-3.52-1.25A4.51,4.51,0,0,1,587,433a4.57,4.57,0,0,1,1.31-3.45,4.75,4.75,0,0,1,3.44-1.26,4.13,4.13,0,0,1,4.47,4.58Zm-4.46-2.79a2,2,0,0,0-2.19,1.74h4.15a1.94,1.94,0,0,0-.63-1.29A2,2,0,0,0,591.8,430.06Z"/><path class="cls-11" d="M603.52,428.29a3.55,3.55,0,0,1,2.5.81,3,3,0,0,1,.87,2.32v6.08h-2.54V432a1.59,1.59,0,0,0-.46-1.25,1.71,1.71,0,0,0-1.16-.39,2.58,2.58,0,0,0-.76.11,2,2,0,0,0-.63.36,1.62,1.62,0,0,0-.45.68,3,3,0,0,0-.17,1v5h-2.54v-9h2.54v1A3.45,3.45,0,0,1,603.52,428.29Z"/><path class="cls-11" d="M612.7,437.5a2.72,2.72,0,0,1-2-.73,2.83,2.83,0,0,1-.73-2.09v-4.27h-1.77v-2h.57a1.51,1.51,0,0,0,1.13-.37,2,2,0,0,0,.36-1.35v-1.19h2.28v2.91h1.86v2h-1.86v4q0,1.17,1,1.17h.81v1.92Z"/><path class="cls-11" d="M624.8,432.85l0,.61h-6.7a2.36,2.36,0,0,0,.73,1.65,2.28,2.28,0,0,0,1.59.57,2.22,2.22,0,0,0,1.19-.31,2,2,0,0,0,.76-.91l2.32.34a4,4,0,0,1-1.58,2.12,4.76,4.76,0,0,1-2.68.76,4.9,4.9,0,0,1-3.52-1.25,5.21,5.21,0,0,1,0-6.9,4.74,4.74,0,0,1,3.43-1.26,4.13,4.13,0,0,1,4.48,4.58Zm-4.46-2.79a2,2,0,0,0-2.2,1.74h4.15a1.89,1.89,0,0,0-.62-1.29A2,2,0,0,0,620.34,430.06Z"/><path class="cls-11" d="M628.15,437.68a1.41,1.41,0,0,1-1-.43,1.39,1.39,0,0,1-.42-1,1.4,1.4,0,0,1,.42-1,1.38,1.38,0,0,1,1-.43,1.4,1.4,0,0,1,1,.43,1.41,1.41,0,0,1,.43,1,1.4,1.4,0,0,1-.43,1A1.44,1.44,0,0,1,628.15,437.68Z"/></g></g><g id="Participación_voluntaria." data-name="Participación voluntaria." class="cls-9"><g class="cls-9"><path class="cls-11" d="M90.06,390.8A3.83,3.83,0,0,1,93,392a4.14,4.14,0,0,1,1.1,2.92,4,4,0,0,1-1.1,2.91A3.88,3.88,0,0,1,90.06,399H87.41v4.55H84.78V390.8Zm-.44,5.94a1.87,1.87,0,1,0,0-3.73H87.41v3.73Z"/><path class="cls-11" d="M103.08,401.05a8.25,8.25,0,0,0,.22,2.2v.25h-2.37l-.2-1a3.07,3.07,0,0,1-1.27.87,4.7,4.7,0,0,1-1.63.29,4.63,4.63,0,0,1-.85-.08,3.63,3.63,0,0,1-.76-.27,2.26,2.26,0,0,1-.62-.47,2.12,2.12,0,0,1-.43-.72,3,3,0,0,1-.15-1,2.76,2.76,0,0,1,.16-1,2.29,2.29,0,0,1,.44-.73,2.71,2.71,0,0,1,.71-.54,4.94,4.94,0,0,1,.9-.38c.31-.1.66-.2,1.07-.29l1.49-.33a1.62,1.62,0,0,0,.67-.29.56.56,0,0,0,.2-.45.94.94,0,0,0-.45-.87,2.09,2.09,0,0,0-1.07-.26,1.55,1.55,0,0,0-1.77,1.38L95.13,397A3,3,0,0,1,96.44,395a5.24,5.24,0,0,1,2.84-.66q3.8,0,3.8,3.26Zm-4.46.91a2,2,0,0,0,1.56-.65,2.75,2.75,0,0,0,.61-1.94l-2.14.61a2.4,2.4,0,0,0-.9.36.77.77,0,0,0-.32.65.83.83,0,0,0,.34.72A1.34,1.34,0,0,0,98.62,402Z"/><path class="cls-11" d="M108,395.9a3,3,0,0,1,1.19-1.09,3.64,3.64,0,0,1,1.77-.45v2.26a3.47,3.47,0,0,0-2.17.54,2.41,2.41,0,0,0-.66,1.94v4.4h-2.55v-9H108Z"/><path class="cls-11" d="M116.29,403.5a2.72,2.72,0,0,1-2-.73,2.87,2.87,0,0,1-.72-2.09v-4.27h-1.78v-2h.57a1.51,1.51,0,0,0,1.13-.37,2,2,0,0,0,.36-1.35v-1.19h2.28v2.91H118v2h-1.87v4q0,1.17,1,1.17H118v1.92Z"/><path class="cls-11" d="M121.21,393.11a1.43,1.43,0,0,1-1-.42,1.4,1.4,0,0,1-.43-1,1.33,1.33,0,0,1,.44-1,1.44,1.44,0,0,1,2,0,1.4,1.4,0,0,1,.43,1,1.44,1.44,0,0,1-.43,1A1.42,1.42,0,0,1,121.21,393.11Zm-1.29,10.39v-9h2.54v9Z"/><path class="cls-11" d="M129.17,403.67a4.86,4.86,0,0,1-3.49-1.3,4.94,4.94,0,0,1,0-6.79,5.37,5.37,0,0,1,6.42-.42,3.91,3.91,0,0,1,1.51,2.45l-2.34.26a2,2,0,0,0-.75-1.19,2.35,2.35,0,0,0-1.38-.4,2.07,2.07,0,0,0-1.65.74,3.33,3.33,0,0,0,0,3.9,2,2,0,0,0,1.65.74,2.31,2.31,0,0,0,1.37-.39,2,2,0,0,0,.76-1.19l2.34.26a3.94,3.94,0,0,1-1.53,2.45A4.83,4.83,0,0,1,129.17,403.67Z"/><path class="cls-11" d="M136.7,393.11a1.47,1.47,0,0,1-1.47-1.46,1.37,1.37,0,0,1,.44-1,1.4,1.4,0,0,1,1-.43,1.38,1.38,0,0,1,1,.43,1.36,1.36,0,0,1,.43,1,1.45,1.45,0,0,1-1.45,1.46Zm-1.29,10.39v-9H138v9Z"/><path class="cls-11" d="M145.88,394.29a4.54,4.54,0,0,1,1.69.32,4.45,4.45,0,0,1,1.38.92,4.09,4.09,0,0,1,.94,1.49,5.94,5.94,0,0,1,0,4,4.09,4.09,0,0,1-.94,1.49,4.45,4.45,0,0,1-1.38.92,4.54,4.54,0,0,1-1.69.32,4,4,0,0,1-1.64-.33,2.59,2.59,0,0,1-1.13-.95v5.46h-2.53V394.46H143l.07,1.22a2.48,2.48,0,0,1,1.13-1A3.89,3.89,0,0,1,145.88,394.29Zm-.57,7.32a2.3,2.3,0,0,0,1.71-.71,3,3,0,0,0,0-3.8,2.43,2.43,0,0,0-3.44,0,3,3,0,0,0,0,3.78A2.3,2.3,0,0,0,145.31,401.61Z"/><path class="cls-11" d="M159.55,401.05a8.25,8.25,0,0,0,.22,2.2v.25H157.4l-.2-1a3.07,3.07,0,0,1-1.27.87,4.7,4.7,0,0,1-1.63.29,4.63,4.63,0,0,1-.85-.08,3.63,3.63,0,0,1-.76-.27,2.26,2.26,0,0,1-.62-.47,2.12,2.12,0,0,1-.43-.72,3,3,0,0,1-.15-1,2.76,2.76,0,0,1,.16-1,2.29,2.29,0,0,1,.44-.73,2.71,2.71,0,0,1,.71-.54,4.94,4.94,0,0,1,.9-.38c.31-.1.66-.2,1.07-.29l1.49-.33a1.62,1.62,0,0,0,.67-.29.56.56,0,0,0,.2-.45.94.94,0,0,0-.45-.87,2.09,2.09,0,0,0-1.07-.26,1.55,1.55,0,0,0-1.77,1.38L151.6,397a3,3,0,0,1,1.31-2.06,5.24,5.24,0,0,1,2.84-.66q3.8,0,3.8,3.26Zm-4.46.91a2,2,0,0,0,1.56-.65,2.75,2.75,0,0,0,.61-1.94l-2.14.61a2.53,2.53,0,0,0-.91.36.79.79,0,0,0-.31.65.83.83,0,0,0,.34.72A1.34,1.34,0,0,0,155.09,402Z"/><path class="cls-11" d="M165.89,403.67a4.86,4.86,0,0,1-3.49-1.3,4.94,4.94,0,0,1,0-6.79,5.37,5.37,0,0,1,6.42-.42,3.91,3.91,0,0,1,1.51,2.45l-2.34.26a2,2,0,0,0-.75-1.19,2.35,2.35,0,0,0-1.38-.4,2.07,2.07,0,0,0-1.65.74,3.33,3.33,0,0,0,0,3.9,2,2,0,0,0,1.65.74,2.31,2.31,0,0,0,1.37-.39,2,2,0,0,0,.76-1.19l2.34.26a3.94,3.94,0,0,1-1.53,2.45A4.81,4.81,0,0,1,165.89,403.67Z"/><path class="cls-11" d="M173.42,393.11a1.45,1.45,0,0,1-1.46-1.46,1.36,1.36,0,0,1,.43-1,1.4,1.4,0,0,1,1-.43,1.47,1.47,0,0,1,1.45,1.45,1.4,1.4,0,0,1-.43,1A1.39,1.39,0,0,1,173.42,393.11Zm-1.29,10.39v-9h2.55v9Z"/><path class="cls-11" d="M181.51,403.68a5.7,5.7,0,0,1-2.56-.56,4.15,4.15,0,0,1-1.75-1.62,4.83,4.83,0,0,1-.64-2.53,4.41,4.41,0,0,1,1.37-3.42,5.73,5.73,0,0,1,7.17,0,5,5,0,0,1,0,6.86A5.07,5.07,0,0,1,181.51,403.68Zm0-2a2.29,2.29,0,0,0,1.79-.74,3.14,3.14,0,0,0,0-3.9,2.32,2.32,0,0,0-1.79-.74,2.2,2.2,0,0,0-1.73.75,3.12,3.12,0,0,0,0,3.89A2.19,2.19,0,0,0,181.48,401.66Zm-.75-8.43L183,390l1.25.88-2,2.35Z"/><path class="cls-11" d="M193.68,394.29a3.53,3.53,0,0,1,2.5.81,3,3,0,0,1,.87,2.32v6.08h-2.54V398a1.59,1.59,0,0,0-.45-1.25,1.74,1.74,0,0,0-1.17-.39,2.51,2.51,0,0,0-.75.11,2.14,2.14,0,0,0-.64.36,1.62,1.62,0,0,0-.45.68,3,3,0,0,0-.17,1v5h-2.53v-9h2.53v1A3.46,3.46,0,0,1,193.68,394.29Z"/></g><g class="cls-9"><path class="cls-11" d="M101.56,418.46h2.68l-3.85,9H98.2l-3.81-9h2.67l2.25,6.18Z"/><path class="cls-11" d="M109.42,427.68a5.7,5.7,0,0,1-2.56-.56,4.15,4.15,0,0,1-1.75-1.62,4.83,4.83,0,0,1-.64-2.53,4.41,4.41,0,0,1,1.37-3.42,5.73,5.73,0,0,1,7.17,0,5,5,0,0,1,0,6.86A5.07,5.07,0,0,1,109.42,427.68Zm0-2a2.29,2.29,0,0,0,1.79-.74,3.14,3.14,0,0,0,0-3.9,2.32,2.32,0,0,0-1.79-.74,2.23,2.23,0,0,0-1.73.75,3.16,3.16,0,0,0,0,3.89A2.22,2.22,0,0,0,109.39,425.66Z"/><path class="cls-11" d="M116.26,427.5V414h2.56v13.5Z"/><path class="cls-11" d="M127.42,418.46H130v9h-2.4l-.06-1.09a4,4,0,0,1-5.37.45,3,3,0,0,1-.87-2.31v-6.09h2.54V424a1.57,1.57,0,0,0,.45,1.24,1.77,1.77,0,0,0,1.18.4,2,2,0,0,0,1.43-.52,2.15,2.15,0,0,0,.57-1.67Z"/><path class="cls-11" d="M137.91,418.29a3.52,3.52,0,0,1,2.49.81,3,3,0,0,1,.87,2.32v6.08h-2.54V422a1.59,1.59,0,0,0-.45-1.25,1.71,1.71,0,0,0-1.16-.39,2.58,2.58,0,0,0-.76.11,2,2,0,0,0-.63.36,1.55,1.55,0,0,0-.46.68,3.49,3.49,0,0,0-.17,1v5h-2.53v-9h2.53v1A3.49,3.49,0,0,1,137.91,418.29Z"/><path class="cls-11" d="M147.09,427.5a2.72,2.72,0,0,1-2-.73,2.87,2.87,0,0,1-.72-2.09v-4.27h-1.77v-2h.57a1.48,1.48,0,0,0,1.12-.37,2,2,0,0,0,.36-1.35v-1.19h2.29v2.91h1.86v2H146.9v4c0,.78.35,1.17,1,1.17h.82v1.92Z"/><path class="cls-11" d="M158.1,425.05a8.78,8.78,0,0,0,.21,2.2v.25H156l-.2-1a3.07,3.07,0,0,1-1.27.87,4.7,4.7,0,0,1-1.63.29,4.63,4.63,0,0,1-.85-.08,3.63,3.63,0,0,1-.76-.27,2.26,2.26,0,0,1-.62-.47,2.12,2.12,0,0,1-.43-.72,3,3,0,0,1-.15-1,2.76,2.76,0,0,1,.16-1,2.29,2.29,0,0,1,.44-.73,2.71,2.71,0,0,1,.71-.54,4.94,4.94,0,0,1,.9-.38c.31-.1.66-.2,1.07-.29l1.49-.33a1.62,1.62,0,0,0,.67-.29.56.56,0,0,0,.2-.45.94.94,0,0,0-.45-.87,2.09,2.09,0,0,0-1.07-.26,1.55,1.55,0,0,0-1.77,1.38l-2.24-.41a3,3,0,0,1,1.31-2.06,5.21,5.21,0,0,1,2.84-.66q3.8,0,3.8,3.26Zm-4.46.91a2,2,0,0,0,1.56-.65,2.75,2.75,0,0,0,.61-1.94l-2.14.61a2.53,2.53,0,0,0-.91.36.79.79,0,0,0-.31.65.83.83,0,0,0,.34.72A1.34,1.34,0,0,0,153.64,426Z"/><path class="cls-11" d="M163,419.9a3,3,0,0,1,1.19-1.09,3.63,3.63,0,0,1,1.76-.45v2.26a3.46,3.46,0,0,0-2.16.54,2.42,2.42,0,0,0-.67,1.94v4.4h-2.54v-9H163Z"/><path class="cls-11" d="M168.71,417.11a1.47,1.47,0,0,1-1.47-1.46,1.37,1.37,0,0,1,.44-1,1.44,1.44,0,0,1,2,0,1.36,1.36,0,0,1,.43,1,1.4,1.4,0,0,1-.43,1A1.42,1.42,0,0,1,168.71,417.11Zm-1.29,10.39v-9H170v9Z"/><path class="cls-11" d="M180,425.05a8.25,8.25,0,0,0,.22,2.2v.25h-2.37l-.2-1a3,3,0,0,1-1.26.87,4.8,4.8,0,0,1-1.64.29,4.44,4.44,0,0,1-.84-.08,3.27,3.27,0,0,1-.76-.27,2.16,2.16,0,0,1-.63-.47,2,2,0,0,1-.42-.72,2.72,2.72,0,0,1-.16-1,2.76,2.76,0,0,1,.16-1,2.49,2.49,0,0,1,.44-.73,2.77,2.77,0,0,1,.72-.54,4.58,4.58,0,0,1,.89-.38c.31-.1.66-.2,1.07-.29l1.49-.33a1.56,1.56,0,0,0,.67-.29.56.56,0,0,0,.2-.45,1,1,0,0,0-.44-.87,2.16,2.16,0,0,0-1.08-.26,1.55,1.55,0,0,0-1.77,1.38l-2.24-.41a3.08,3.08,0,0,1,1.31-2.06,5.24,5.24,0,0,1,2.84-.66q3.8,0,3.8,3.26Zm-4.46.91a2.07,2.07,0,0,0,1.57-.65,2.8,2.8,0,0,0,.6-1.94l-2.14.61a2.47,2.47,0,0,0-.9.36.77.77,0,0,0-.32.65.85.85,0,0,0,.34.72A1.36,1.36,0,0,0,175.54,426Z"/><path class="cls-11" d="M184,427.68a1.43,1.43,0,0,1-1-.43,1.39,1.39,0,0,1-.42-1,1.44,1.44,0,0,1,2.47-1,1.38,1.38,0,0,1,.43,1,1.36,1.36,0,0,1-.43,1A1.44,1.44,0,0,1,184,427.68Z"/></g></g></g></g></svg>