<svg xmlns="http://www.w3.org/2000/svg" xmlns:xlink="http://www.w3.org/1999/xlink" viewBox="0 0 597.7 306.15"><defs><style>.cls-1{fill:url(#Degradado_sin_nombre_5);}.cls-2{fill:url(#Degradado_sin_nombre_2);}.cls-3{fill:url(#Degradado_sin_nombre_3);}.cls-4{fill:url(#Degradado_sin_nombre_4);}.cls-5{fill:#fff;}.cls-6{isolation:isolate;}.cls-7{fill:#00223d;}</style><linearGradient id="Degradado_sin_nombre_5" x1="-80.8" y1="1030.01" x2="-79.8" y2="1030.01" gradientTransform="matrix(169.89, 0, 0, -144.44, 13961.9, 149009.96)" gradientUnits="userSpaceOnUse"><stop offset="0" stop-color="#d268cc"/><stop offset="0.07" stop-color="#da79b3"/><stop offset="0.17" stop-color="#e59193"/><stop offset="0.29" stop-color="#eea578"/><stop offset="0.41" stop-color="#f6b463"/><stop offset="0.56" stop-color="#fbbe55"/><stop offset="0.72" stop-color="#fec54c"/><stop offset="0.99" stop-color="#ffc74a"/><stop offset="1" stop-color="#e7b52a"/></linearGradient><linearGradient id="Degradado_sin_nombre_2" x1="-81.39" y1="1029.92" x2="-80.42" y2="1029.7" gradientTransform="matrix(144.44, 0, 0, -169.89, 11859.06, 175169.15)" gradientUnits="userSpaceOnUse"><stop offset="0" stop-color="#6fd8d8"/><stop offset="0.81" stop-color="#d268cc"/></linearGradient><linearGradient id="Degradado_sin_nombre_3" x1="-81.42" y1="1029.8" x2="-80.42" y2="1029.8" gradientTransform="matrix(144.44, 0, 0, -169.89, 12021.01, 175033.67)" gradientUnits="userSpaceOnUse"><stop offset="0" stop-color="#8acc59"/><stop offset="1" stop-color="#ffc74a"/></linearGradient><linearGradient id="Degradado_sin_nombre_4" x1="-80.82" y1="1030.01" x2="-79.23" y2="1030.01" gradientTransform="matrix(169.88, 0, 0, -144.45, 13826.12, 148854.78)" gradientUnits="userSpaceOnUse"><stop offset="0.18" stop-color="#6fd8d8"/><stop offset="0.23" stop-color="#74d5bf"/><stop offset="0.32" stop-color="#7ad29f"/><stop offset="0.41" stop-color="#80d085"/><stop offset="0.51" stop-color="#84ce71"/><stop offset="0.62" stop-color="#87cd63"/><stop offset="0.76" stop-color="#89cc5b"/><stop offset="1" stop-color="#8acc59"/></linearGradient></defs><g id="Capa_2" data-name="Capa 2"><g id="Capa_1-2" data-name="Capa 1"><g id="Grupo_36657" data-name="Grupo 36657"><g id="Grupo_36648" data-name="Grupo 36648"><path id="Trazado_85997" data-name="Trazado 85997" class="cls-1" d="M374.71,176.21l-3.09,1.28-2.82-1.82-21.68-14a96.09,96.09,0,0,1-97,87.5L234.19,274l13.27,32.16a153.37,153.37,0,0,0,156.61-142Z"/><path id="Trazado_85998" data-name="Trazado 85998" class="cls-2" d="M228.27,276.4,227,273.31l1.81-2.82,14-21.68a96.11,96.11,0,0,1-87.5-97l-24.73-15.93L98.37,149.15a153.36,153.36,0,0,0,142,156.61Z"/><path id="Trazado_85999" data-name="Trazado 85999" class="cls-3" d="M393.61,96.64A153.41,153.41,0,0,0,262.41.4l12.11,29.36,1.28,3.1L274,35.67,260,57.36a96.09,96.09,0,0,1,87.5,97l24.74,15.93L404.42,157A152.68,152.68,0,0,0,393.61,96.64Z"/><path id="Trazado_86000" data-name="Trazado 86000" class="cls-4" d="M128.08,130l3.09-1.27,2.82,1.81,21.68,14a96.09,96.09,0,0,1,97-87.5L268.6,32.2,255.33,0a153.36,153.36,0,0,0-156.61,142Z"/></g><g id="Grupo_36650" data-name="Grupo 36650"><g id="Grupo_36649" data-name="Grupo 36649"><path id="Trazado_86002" data-name="Trazado 86002" class="cls-5" d="M151.64,240a7.81,7.81,0,0,1-1.56,5.25,5.86,5.86,0,0,1-8.29.18l-.18-.18a7.79,7.79,0,0,1-1.56-5.25v-4a7.85,7.85,0,0,1,1.55-5.25,5.83,5.83,0,0,1,8.25-.22,2.28,2.28,0,0,1,.22.22,7.8,7.8,0,0,1,1.57,5.25Zm-2.95-4.5a5.64,5.64,0,0,0-.73-3.21,2.68,2.68,0,0,0-3.75-.49,2.84,2.84,0,0,0-.49.49,5.73,5.73,0,0,0-.72,3.21v4.91a5.68,5.68,0,0,0,.73,3.23,2.42,2.42,0,0,0,2.13,1,2.38,2.38,0,0,0,2.11-1,5.81,5.81,0,0,0,.72-3.24Z"/><path id="Trazado_86003" data-name="Trazado 86003" class="cls-5" d="M164.18,240.46h2.24v2.36h-2.24v3.93h-2.93v-3.93h-7.59l-.07-1.8,7.56-11.93h3Zm-7.68,0h4.75v-7.18l-.07,0-.25.52Z"/></g></g><g id="Grupo_36652" data-name="Grupo 36652"><g id="Grupo_36651" data-name="Grupo 36651"><path id="Trazado_86004" data-name="Trazado 86004" class="cls-5" d="M168.81,62a7.88,7.88,0,0,1-1.55,5.26,5.87,5.87,0,0,1-8.29.17,1.45,1.45,0,0,1-.18-.17A7.84,7.84,0,0,1,157.22,62V58a7.91,7.91,0,0,1,1.55-5.25,5.84,5.84,0,0,1,8.26-.22l.21.22A7.8,7.8,0,0,1,168.81,58Zm-2.95-4.49a5.62,5.62,0,0,0-.73-3.21,2.68,2.68,0,0,0-3.76-.49,2.48,2.48,0,0,0-.48.49,5.69,5.69,0,0,0-.72,3.21v4.91a5.7,5.7,0,0,0,.73,3.23,2.46,2.46,0,0,0,2.13,1,2.42,2.42,0,0,0,2.12-1,5.85,5.85,0,0,0,.71-3.23Z"/><path id="Trazado_86005" data-name="Trazado 86005" class="cls-5" d="M178.8,68.85h-3V54h-3.59V51.81l6.54-.63Z"/></g></g><g id="Grupo_36654" data-name="Grupo 36654"><g id="Grupo_36653" data-name="Grupo 36653"><path id="Trazado_86006" data-name="Trazado 86006" class="cls-5" d="M340.05,63.43a7.81,7.81,0,0,1-1.56,5.25,5.86,5.86,0,0,1-8.29.18l-.18-.18a7.79,7.79,0,0,1-1.56-5.25v-4A7.85,7.85,0,0,1,330,54.13a5.83,5.83,0,0,1,8.25-.22l.22.22a7.81,7.81,0,0,1,1.57,5.25Zm-2.95-4.5a5.64,5.64,0,0,0-.73-3.21,2.68,2.68,0,0,0-3.75-.49,2.53,2.53,0,0,0-.49.49,5.71,5.71,0,0,0-.72,3.21v4.91a5.68,5.68,0,0,0,.73,3.23,2.44,2.44,0,0,0,2.13,1.05,2.38,2.38,0,0,0,2.11-1,5.81,5.81,0,0,0,.72-3.24Z"/><path id="Trazado_86007" data-name="Trazado 86007" class="cls-5" d="M354.38,70.23H342.64v-2l5.76-6.26a14.4,14.4,0,0,0,1.94-2.53,4,4,0,0,0,.53-1.94,2.92,2.92,0,0,0-.69-2,2.38,2.38,0,0,0-1.87-.8,2.91,2.91,0,0,0-2.3.88,3.57,3.57,0,0,0-.75,2.4H342.4l0-.08a5.15,5.15,0,0,1,1.54-4,5.94,5.94,0,0,1,4.39-1.61,5.62,5.62,0,0,1,4,1.41,4.89,4.89,0,0,1,1.48,3.68,5.43,5.43,0,0,1-.86,2.9,24.47,24.47,0,0,1-2.65,3.36l-3.93,4.14,0,.07h8Z"/></g></g><g id="Grupo_36656" data-name="Grupo 36656"><g id="Grupo_36655" data-name="Grupo 36655"><path id="Trazado_86008" data-name="Trazado 86008" class="cls-5" d="M337.1,240.54a7.88,7.88,0,0,1-1.55,5.26,5.87,5.87,0,0,1-8.29.17l-.18-.17a7.84,7.84,0,0,1-1.57-5.26v-4a7.91,7.91,0,0,1,1.56-5.25,5.83,5.83,0,0,1,8.25-.22c.07.07.15.14.22.22a7.84,7.84,0,0,1,1.56,5.25Zm-3-4.49a5.62,5.62,0,0,0-.73-3.21,2.67,2.67,0,0,0-3.75-.49,2.53,2.53,0,0,0-.49.49,5.69,5.69,0,0,0-.72,3.21V241a5.71,5.71,0,0,0,.74,3.23,2.45,2.45,0,0,0,2.13,1.05,2.42,2.42,0,0,0,2.11-1.05,5.77,5.77,0,0,0,.71-3.23Z"/><path id="Trazado_86009" data-name="Trazado 86009" class="cls-5" d="M343.11,237.18h2.05a2.66,2.66,0,0,0,2.06-.71,2.92,2.92,0,0,0,.63-2,2.41,2.41,0,0,0-2.68-2.67,2.81,2.81,0,0,0-2,.69,2.31,2.31,0,0,0-.76,1.8h-2.84l0-.08a4.1,4.1,0,0,1,1.51-3.4,5.93,5.93,0,0,1,4-1.37,6.16,6.16,0,0,1,4.13,1.31,4.61,4.61,0,0,1,1.54,3.72,4,4,0,0,1-.69,2.19,4.57,4.57,0,0,1-2,1.64,4.2,4.2,0,0,1,2.22,1.62,4.48,4.48,0,0,1,.71,2.49,4.72,4.72,0,0,1-1.67,3.82,7.21,7.21,0,0,1-8.39.08,4.17,4.17,0,0,1-1.6-3.61l0-.07h2.84a2.44,2.44,0,0,0,.79,1.9,3.47,3.47,0,0,0,4.26,0,2.75,2.75,0,0,0,.79-2.09,3,3,0,0,0-.73-2.2,3.06,3.06,0,0,0-2.23-.71H343.1Z"/></g></g></g><g class="cls-6"><path class="cls-7" d="M419.86,206.71h2.8L418,219.41h-2.9l-4.67-12.7h2.8l3.33,9.63Z"/><path class="cls-7" d="M431.84,214.77l0,.6h-6.69a2.31,2.31,0,0,0,.72,1.65,2.29,2.29,0,0,0,1.59.58,2.23,2.23,0,0,0,1.19-.32,1.86,1.86,0,0,0,.76-.91l2.32.35a4,4,0,0,1-1.58,2.11,4.67,4.67,0,0,1-2.67.76,4.88,4.88,0,0,1-3.52-1.24,5.2,5.2,0,0,1,0-6.9,4.75,4.75,0,0,1,3.44-1.26,4.13,4.13,0,0,1,4.47,4.58ZM427.38,212a2,2,0,0,0-2.19,1.74h4.14a1.89,1.89,0,0,0-.62-1.29A2,2,0,0,0,427.38,212Z"/><path class="cls-7" d="M436.19,211.81a2.94,2.94,0,0,1,1.19-1.08,3.64,3.64,0,0,1,1.76-.46v2.26a3.39,3.39,0,0,0-2.16.55,2.39,2.39,0,0,0-.67,1.93v4.4h-2.55v-9h2.43Z"/><path class="cls-7" d="M441.92,209a1.46,1.46,0,0,1-1-.43,1.46,1.46,0,0,1,2.06-2.06,1.4,1.4,0,0,1,.43,1,1.38,1.38,0,0,1-.43,1A1.43,1.43,0,0,1,441.92,209Zm-1.29,10.38v-9h2.55v9Z"/><path class="cls-7" d="M446.43,209.4a5.76,5.76,0,0,1,.11-1.15,3.53,3.53,0,0,1,.31-.87,2.09,2.09,0,0,1,.52-.63,2.62,2.62,0,0,1,.66-.42,4.06,4.06,0,0,1,.83-.26,8.12,8.12,0,0,1,1-.12c.31,0,.67,0,1.07,0v2h-.42l-.36,0a1.92,1.92,0,0,0-.37.08,3.1,3.1,0,0,0-.3.16.83.83,0,0,0-.26.27,1.17,1.17,0,0,0-.16.39,1.81,1.81,0,0,0-.07.54v1h1.94v1.94H449v7.09h-2.52v-7.09h-1.77v-1.94h1.77Zm7.19-.37a1.44,1.44,0,0,1-1-.43,1.38,1.38,0,0,1-.43-1,1.41,1.41,0,0,1,.44-1,1.46,1.46,0,0,1,2.05,0,1.4,1.4,0,0,1,.43,1,1.38,1.38,0,0,1-.43,1A1.43,1.43,0,0,1,453.62,209Zm-1.29,10.38v-9h2.55v9Z"/><path class="cls-7" d="M461.58,219.58a4.84,4.84,0,0,1-3.49-1.3,4.93,4.93,0,0,1,0-6.78,5.35,5.35,0,0,1,6.42-.43,3.9,3.9,0,0,1,1.51,2.46l-2.34.25a2,2,0,0,0-.75-1.19,2.33,2.33,0,0,0-1.37-.39,2.08,2.08,0,0,0-1.66.74,3.32,3.32,0,0,0,0,3.89,2.08,2.08,0,0,0,1.66.75,2.21,2.21,0,0,0,1.36-.4,2,2,0,0,0,.76-1.18l2.34.25a3.88,3.88,0,0,1-1.52,2.45A4.79,4.79,0,0,1,461.58,219.58Z"/><path class="cls-7" d="M475.23,217a8.34,8.34,0,0,0,.22,2.21v.24h-2.36l-.21-1a2.86,2.86,0,0,1-1.26.87,4.76,4.76,0,0,1-1.64.29,4.52,4.52,0,0,1-.84-.08,2.66,2.66,0,0,1-.76-.27,2.26,2.26,0,0,1-.63-.47,2.12,2.12,0,0,1-.42-.71,2.76,2.76,0,0,1-.16-1,2.72,2.72,0,0,1,.17-1,2.34,2.34,0,0,1,.44-.74,2.49,2.49,0,0,1,.71-.53,5.1,5.1,0,0,1,.9-.39,10.82,10.82,0,0,1,1.07-.28l1.48-.34a1.69,1.69,0,0,0,.68-.28.58.58,0,0,0,.19-.45.91.91,0,0,0-.44-.87,2,2,0,0,0-1.08-.27,1.55,1.55,0,0,0-1.76,1.38l-2.24-.4a3,3,0,0,1,1.31-2.06,5.19,5.19,0,0,1,2.83-.67c2.54,0,3.8,1.09,3.8,3.26Zm-4.45.92a2,2,0,0,0,1.56-.66,2.77,2.77,0,0,0,.61-1.94l-2.15.61a2.54,2.54,0,0,0-.9.37.75.75,0,0,0-.31.65.86.86,0,0,0,.33.72A1.46,1.46,0,0,0,470.78,217.88Z"/><path class="cls-7" d="M480.12,211.81a2.91,2.91,0,0,1,1.18-1.08,3.68,3.68,0,0,1,1.77-.46v2.26a3.37,3.37,0,0,0-2.16.55,2.36,2.36,0,0,0-.67,1.93v4.4h-2.55v-9h2.43Z"/><path class="cls-7" d="M425.36,241h-1.71l-.82-10.1L419,241h-1.06l-3.82-10.07L413.28,241h-1.73l1-12.42h2.37l3.57,9.39,3.6-9.39h2.36Z"/><path class="cls-7" d="M435.9,236.5l0,.44h-6.74a3,3,0,0,0,.81,2.12,2.62,2.62,0,0,0,1.91.74,2.56,2.56,0,0,0,1.39-.39,2.72,2.72,0,0,0,.95-1.11l1.53.3a4,4,0,0,1-1.49,1.89,4.16,4.16,0,0,1-2.36.69,4.27,4.27,0,0,1-3.18-1.21,4.45,4.45,0,0,1-1.21-3.31,4.5,4.5,0,0,1,1.21-3.31,4.22,4.22,0,0,1,3.12-1.21,4,4,0,0,1,3,1.11A4.48,4.48,0,0,1,435.9,236.5Zm-4.08-3.08a2.63,2.63,0,0,0-1.73.57,2.67,2.67,0,0,0-.89,1.67h5a2.48,2.48,0,0,0-.74-1.67A2.39,2.39,0,0,0,431.82,233.42Z"/><path class="cls-7" d="M444.58,227.51h1.69V241h-1.62l0-1.58a3,3,0,0,1-1.21,1.29,3.46,3.46,0,0,1-1.8.48,4.07,4.07,0,0,1-1.59-.32,4.21,4.21,0,0,1-1.3-.9,4.16,4.16,0,0,1-.88-1.44,5.19,5.19,0,0,1-.33-1.88,5,5,0,0,1,.56-2.38,3.92,3.92,0,0,1,3.54-2.14,3.47,3.47,0,0,1,1.78.46,3.06,3.06,0,0,1,1.21,1.26ZM442,239.76a2.53,2.53,0,0,0,2-.89,3.2,3.2,0,0,0,.79-2.21,3.15,3.15,0,0,0-.8-2.2,2.52,2.52,0,0,0-1.95-.88,2.59,2.59,0,0,0-2,.85,3.56,3.56,0,0,0,0,4.47A2.6,2.6,0,0,0,442,239.76Z"/><path class="cls-7" d="M450.16,230.39a1.07,1.07,0,0,1-.78-.33,1.06,1.06,0,0,1,0-1.54,1.1,1.1,0,0,1,.78-.32,1.07,1.07,0,0,1,.77.32,1.09,1.09,0,0,1,0,1.55A1.07,1.07,0,0,1,450.16,230.39ZM449.29,241v-8.7H451V241Z"/><path class="cls-7" d="M460.4,227.51h1.68V241h-1.62l0-1.58a3,3,0,0,1-1.21,1.29,3.46,3.46,0,0,1-1.8.48,4,4,0,0,1-1.58-.32,3.93,3.93,0,0,1-2.19-2.34,5.19,5.19,0,0,1-.33-1.88,5,5,0,0,1,.56-2.38,3.92,3.92,0,0,1,3.54-2.14,3.47,3.47,0,0,1,1.78.46,3.08,3.08,0,0,1,1.22,1.26Zm-2.64,12.25a2.53,2.53,0,0,0,2-.89,3.46,3.46,0,0,0,0-4.41,2.52,2.52,0,0,0-1.95-.88,2.57,2.57,0,0,0-2,.85,3.52,3.52,0,0,0,0,4.47A2.58,2.58,0,0,0,457.76,239.76Z"/><path class="cls-7" d="M467.13,241.18a3.47,3.47,0,0,1-1.33-.24,2.08,2.08,0,0,1-1-.78,2.37,2.37,0,0,1-.38-1.36,2.52,2.52,0,0,1,.25-1.14,1.89,1.89,0,0,1,.72-.79,4.68,4.68,0,0,1,1-.5,8.19,8.19,0,0,1,1.31-.31l1.37-.24c.53-.1.79-.37.79-.8a1.42,1.42,0,0,0-.53-1.23,2.14,2.14,0,0,0-1.31-.39,2.19,2.19,0,0,0-1.34.39,1.64,1.64,0,0,0-.62,1.2l-1.52-.3a2.71,2.71,0,0,1,1.12-1.9,4.2,4.2,0,0,1,2.44-.64,5.45,5.45,0,0,1,1,.09,3.33,3.33,0,0,1,.92.31,2.54,2.54,0,0,1,.76.56,2.43,2.43,0,0,1,.5.87,3.75,3.75,0,0,1,.19,1.21v3.52a1.35,1.35,0,0,0,.2.88.81.81,0,0,0,.67.24h.13V241h-.82a1.5,1.5,0,0,1-1.69-1.16H470a3.07,3.07,0,0,1-1.25,1A4.08,4.08,0,0,1,467.13,241.18Zm.38-1.34a2.33,2.33,0,0,0,1.84-.81,3.15,3.15,0,0,0,.7-2.16l-2.27.46a3.15,3.15,0,0,0-1.26.45,1.07,1.07,0,0,0-.41.89,1,1,0,0,0,.39.88A1.68,1.68,0,0,0,467.51,239.84Z"/><path class="cls-7" d="M477.46,241.18a4.33,4.33,0,0,1-2.39-.62,2.62,2.62,0,0,1-1.15-1.8l1.45-.41a1.86,1.86,0,0,0,.71,1.17,2.48,2.48,0,0,0,2.55.11,1,1,0,0,0,.47-1,1.59,1.59,0,0,0-.07-.39.74.74,0,0,0-.22-.31l-.3-.23a1.65,1.65,0,0,0-.42-.2l-.46-.16c-.12,0-.31-.1-.56-.17l-.57-.17a5.76,5.76,0,0,1-.88-.32,3,3,0,0,1-.72-.43,1.75,1.75,0,0,1-.56-.68,2.43,2.43,0,0,1-.18-1,2.13,2.13,0,0,1,.88-1.86,3.74,3.74,0,0,1,2.25-.63,3.87,3.87,0,0,1,2.15.57,2.43,2.43,0,0,1,1.07,1.71l-1.36.34a1.63,1.63,0,0,0-.65-1.06,2.28,2.28,0,0,0-2.31-.07,1,1,0,0,0-.47.88,1,1,0,0,0,.15.54,1.12,1.12,0,0,0,.45.37,4.6,4.6,0,0,0,.61.25l.75.21.19,0c.33.09.61.16.83.24a4.55,4.55,0,0,1,.75.32,2.63,2.63,0,0,1,.68.48,2.15,2.15,0,0,1,.43.68,2.59,2.59,0,0,1,.17.95,2.76,2.76,0,0,1-.17,1,2.11,2.11,0,0,1-.48.73,2.55,2.55,0,0,1-.73.5,3.84,3.84,0,0,1-.89.28A5.31,5.31,0,0,1,477.46,241.18Z"/><path class="cls-7" d="M420.07,262.61l-1-2.9h-5.55l-1,2.9h-1.82l4.58-12.42h2.11l4.58,12.42ZM414,258.18h4.47l-2.23-6.26Z"/><path class="cls-7" d="M429.36,253.91h1.69v8.7h-1.61l0-1.12a2.77,2.77,0,0,1-1.11.95,3.31,3.31,0,0,1-1.53.34,3.11,3.11,0,0,1-2.23-.78,2.94,2.94,0,0,1-.82-2.23v-5.86h1.7v5.49a2,2,0,0,0,.51,1.49,1.9,1.9,0,0,0,1.33.49,2.1,2.1,0,0,0,1.52-.58,2.37,2.37,0,0,0,.59-1.75Z"/><path class="cls-7" d="M440.45,249.11h1.69v13.5h-1.63l0-1.58a3,3,0,0,1-1.21,1.29,3.46,3.46,0,0,1-1.8.48,4,4,0,0,1-2.89-1.22,4.16,4.16,0,0,1-.88-1.44,5.19,5.19,0,0,1-.33-1.88,5,5,0,0,1,.56-2.38,3.92,3.92,0,0,1,3.54-2.14,3.47,3.47,0,0,1,1.78.46,3.06,3.06,0,0,1,1.21,1.26Zm-2.63,12.25a2.53,2.53,0,0,0,2-.89,3.2,3.2,0,0,0,.79-2.21,3.15,3.15,0,0,0-.8-2.2,2.52,2.52,0,0,0-1.95-.88,2.59,2.59,0,0,0-2,.85,3.56,3.56,0,0,0,0,4.47A2.6,2.6,0,0,0,437.82,261.36Z"/><path class="cls-7" d="M446,252a1.07,1.07,0,0,1-.78-.33,1,1,0,0,1-.33-.77,1,1,0,0,1,.33-.77,1.1,1.1,0,0,1,.78-.32,1.11,1.11,0,0,1,1.09,1.09A1.11,1.11,0,0,1,446,252Zm-.87,10.62v-8.7h1.7v8.7Z"/><path class="cls-7" d="M452.74,262.61A2.35,2.35,0,0,1,451,262a2.44,2.44,0,0,1-.63-1.79v-4.95h-1.78v-1.33h.64a1.28,1.28,0,0,0,1-.31,1.55,1.55,0,0,0,.3-1.08V251h1.55v2.89h2v1.33h-2V260a1.3,1.3,0,0,0,.32.94,1.12,1.12,0,0,0,.85.34h.8v1.32Z"/><path class="cls-7" d="M459.83,262.78a4.26,4.26,0,1,1,3.2-1.23A4.4,4.4,0,0,1,459.83,262.78Zm0-1.39a2.62,2.62,0,0,0,2-.86,3.24,3.24,0,0,0,.79-2.27,3.2,3.2,0,0,0-.79-2.27,2.59,2.59,0,0,0-2-.86,2.53,2.53,0,0,0-2,.86,3.24,3.24,0,0,0-.78,2.27,3.28,3.28,0,0,0,.78,2.27A2.57,2.57,0,0,0,459.82,261.39Z"/><path class="cls-7" d="M468.22,255.43a2.56,2.56,0,0,1,1.08-1.16,3.26,3.26,0,0,1,1.69-.45v1.56a2.89,2.89,0,0,0-2,.63,2.61,2.61,0,0,0-.69,2v4.57h-1.69v-8.7h1.64Z"/><path class="cls-7" d="M472.74,262.61v-8.7h1.69v8.7Zm.23-10.15,2.23-2.92.88.64-2,2.28Z"/><path class="cls-7" d="M479.48,262.78a3.43,3.43,0,0,1-1.33-.24,2.08,2.08,0,0,1-1-.78,2.37,2.37,0,0,1-.38-1.36,2.4,2.4,0,0,1,.25-1.14,1.89,1.89,0,0,1,.72-.79,4.83,4.83,0,0,1,1-.5,10,10,0,0,1,1.32-.31l1.37-.24c.53-.1.79-.37.79-.8a1.45,1.45,0,0,0-.53-1.23,2.15,2.15,0,0,0-1.32-.39,2.18,2.18,0,0,0-1.33.39,1.68,1.68,0,0,0-.63,1.2l-1.52-.3a2.75,2.75,0,0,1,1.12-1.9,4.22,4.22,0,0,1,2.44-.63,5.52,5.52,0,0,1,1,.08,3.44,3.44,0,0,1,.92.31,2.54,2.54,0,0,1,.76.56,2.59,2.59,0,0,1,.5.87,3.75,3.75,0,0,1,.19,1.21v3.52a1.41,1.41,0,0,0,.19.88.85.85,0,0,0,.68.24h.13v1.18h-.82a1.5,1.5,0,0,1-1.69-1.16h-.08a3,3,0,0,1-1.24,1A4.12,4.12,0,0,1,479.48,262.78Zm.38-1.34a2.35,2.35,0,0,0,1.84-.81,3.15,3.15,0,0,0,.7-2.16l-2.27.46a3.09,3.09,0,0,0-1.26.45,1.18,1.18,0,0,0,0,1.77A1.68,1.68,0,0,0,479.86,261.44Z"/><path class="cls-7" d="M489.8,262.78a4.3,4.3,0,0,1-2.38-.62,2.62,2.62,0,0,1-1.15-1.8l1.45-.41a1.86,1.86,0,0,0,.71,1.17,2.16,2.16,0,0,0,1.36.41,2.21,2.21,0,0,0,1.19-.3,1,1,0,0,0,.47-1,1.59,1.59,0,0,0-.07-.39.74.74,0,0,0-.22-.31l-.3-.23a2.08,2.08,0,0,0-.42-.2L490,259c-.13-.05-.31-.1-.56-.17l-.57-.17a6.66,6.66,0,0,1-.88-.31,3.48,3.48,0,0,1-.72-.44,1.75,1.75,0,0,1-.56-.68,2.43,2.43,0,0,1-.18-1,2.13,2.13,0,0,1,.88-1.86,3.81,3.81,0,0,1,2.25-.62,3.87,3.87,0,0,1,2.15.56,2.43,2.43,0,0,1,1.07,1.71l-1.36.34a1.63,1.63,0,0,0-.65-1.06,2.27,2.27,0,0,0-2.32-.06,1,1,0,0,0-.46.87,1,1,0,0,0,.15.54,1.12,1.12,0,0,0,.45.37,3.56,3.56,0,0,0,.61.25l.75.21.19,0c.33.09.61.16.83.24a5.4,5.4,0,0,1,.75.32,2.63,2.63,0,0,1,.68.48,2.15,2.15,0,0,1,.43.68,2.59,2.59,0,0,1,.17.95,2.76,2.76,0,0,1-.17,1,2.25,2.25,0,0,1-.48.74,2.74,2.74,0,0,1-.73.49,3.42,3.42,0,0,1-.89.28A5.34,5.34,0,0,1,489.8,262.78Z"/><path class="cls-7" d="M419.73,271.79h1.84L417,284.21h-1.82l-4.56-12.42h1.84l3.64,10.28Z"/><path class="cls-7" d="M430.39,279.7l0,.44h-6.74a3,3,0,0,0,.81,2.12,2.62,2.62,0,0,0,1.91.74,2.56,2.56,0,0,0,1.39-.39,2.72,2.72,0,0,0,.95-1.11l1.53.3a4,4,0,0,1-1.49,1.89,4.16,4.16,0,0,1-2.36.69,4.27,4.27,0,0,1-3.18-1.21,4.45,4.45,0,0,1-1.21-3.31,4.5,4.5,0,0,1,1.21-3.31,4.22,4.22,0,0,1,3.12-1.21,4,4,0,0,1,3,1.11A4.44,4.44,0,0,1,430.39,279.7Zm-4.08-3.08a2.63,2.63,0,0,0-1.73.57,2.67,2.67,0,0,0-.89,1.67h5a2.48,2.48,0,0,0-.74-1.67A2.39,2.39,0,0,0,426.31,276.62Z"/><path class="cls-7" d="M434.33,277a2.58,2.58,0,0,1,1.08-1.15,3.26,3.26,0,0,1,1.69-.45V277a2.93,2.93,0,0,0-2,.62,2.65,2.65,0,0,0-.69,2v4.57h-1.69v-8.7h1.64Z"/><path class="cls-7" d="M439.71,273.59a1.07,1.07,0,0,1-.78-.33,1.06,1.06,0,0,1,0-1.54,1.1,1.1,0,0,1,1.55,0,1.09,1.09,0,0,1,0,1.55A1.07,1.07,0,0,1,439.71,273.59Zm-.87,10.62v-8.7h1.7v8.7Z"/><path class="cls-7" d="M444,273.83a4.6,4.6,0,0,1,.18-1.37,2.55,2.55,0,0,1,.49-.9,2.11,2.11,0,0,1,.8-.53,3.89,3.89,0,0,1,1-.25,8.49,8.49,0,0,1,1.21-.07v1.4h-.42l-.39,0a1.32,1.32,0,0,0-.38.09,2.37,2.37,0,0,0-.31.19.88.88,0,0,0-.27.31,2.55,2.55,0,0,0-.16.47,3.13,3.13,0,0,0-.06.65v1.65h2v1.33h-2v7.37H444v-7.37h-1.68v-1.33H444Zm7-.56a1.09,1.09,0,0,1-1.55,0,1.06,1.06,0,0,1,0-1.54,1.1,1.1,0,0,1,.78-.32,1.07,1.07,0,0,1,.77.32,1.06,1.06,0,0,1,.32.77A1.1,1.1,0,0,1,451.06,273.27Zm-1.63,10.94v-8.7h1.69v8.7Z"/><path class="cls-7" d="M457.81,284.37a4.28,4.28,0,0,1-3.16-1.25,4.92,4.92,0,0,1,0-6.53,4.64,4.64,0,0,1,5.73-.48,3.87,3.87,0,0,1,1.47,2.16l-1.58.24a2.48,2.48,0,0,0-2.48-1.78,2.43,2.43,0,0,0-1.93.86,3.76,3.76,0,0,0,0,4.53,2.43,2.43,0,0,0,1.93.86,2.48,2.48,0,0,0,2.48-1.78l1.58.24a3.84,3.84,0,0,1-1.48,2.16A4.31,4.31,0,0,1,457.81,284.37Z"/><path class="cls-7" d="M466,284.38a3.47,3.47,0,0,1-1.33-.24,2.08,2.08,0,0,1-1-.78,2.36,2.36,0,0,1-.37-1.36,2.52,2.52,0,0,1,.24-1.14,1.89,1.89,0,0,1,.72-.79,4.68,4.68,0,0,1,1-.5,9.43,9.43,0,0,1,1.31-.31l1.37-.24c.53-.1.79-.37.79-.8a1.42,1.42,0,0,0-.53-1.23,2.14,2.14,0,0,0-1.31-.39,2.19,2.19,0,0,0-1.34.39,1.64,1.64,0,0,0-.62,1.2l-1.52-.3a2.71,2.71,0,0,1,1.12-1.9,4.2,4.2,0,0,1,2.44-.64,5.45,5.45,0,0,1,1,.09,3.33,3.33,0,0,1,.92.31,2.54,2.54,0,0,1,.76.56,2.43,2.43,0,0,1,.5.87,3.75,3.75,0,0,1,.19,1.21v3.52a1.33,1.33,0,0,0,.2.88.81.81,0,0,0,.67.24h.13v1.18h-.82a1.5,1.5,0,0,1-1.69-1.16h-.07a3.07,3.07,0,0,1-1.25,1A4.08,4.08,0,0,1,466,284.38Zm.38-1.34a2.33,2.33,0,0,0,1.84-.81,3.15,3.15,0,0,0,.7-2.16l-2.27.46a3.15,3.15,0,0,0-1.26.45,1.07,1.07,0,0,0-.41.89,1,1,0,0,0,.39.88A1.68,1.68,0,0,0,466.42,283Z"/><path class="cls-7" d="M477.05,284.37a4.28,4.28,0,0,1-3.16-1.25,4.92,4.92,0,0,1,0-6.53,4.64,4.64,0,0,1,5.73-.48,3.81,3.81,0,0,1,1.46,2.16l-1.57.24a2.48,2.48,0,0,0-2.48-1.78,2.43,2.43,0,0,0-1.93.86,3.72,3.72,0,0,0,0,4.53A2.43,2.43,0,0,0,477,283a2.48,2.48,0,0,0,2.48-1.78l1.57.24a3.77,3.77,0,0,1-1.47,2.16A4.31,4.31,0,0,1,477.05,284.37Z"/><path class="cls-7" d="M484.12,273.59a1.07,1.07,0,0,1-.78-.33,1.06,1.06,0,0,1,0-1.54,1.1,1.1,0,0,1,.78-.32,1.07,1.07,0,0,1,.77.32,1.1,1.1,0,0,1-.77,1.87Zm-.86,10.62v-8.7H485v8.7Z"/><path class="cls-7" d="M491.71,284.38a4.64,4.64,0,1,1,4.45-4.53,4.45,4.45,0,0,1-1.25,3.3A4.37,4.37,0,0,1,491.71,284.38Zm0-1.39a2.63,2.63,0,0,0,2-.86,3.29,3.29,0,0,0,.79-2.28,3.24,3.24,0,0,0-.79-2.26,2.6,2.6,0,0,0-2-.86,2.53,2.53,0,0,0-2,.86,3.19,3.19,0,0,0-.79,2.26,3.25,3.25,0,0,0,.79,2.28A2.56,2.56,0,0,0,491.69,283Z"/><path class="cls-7" d="M502.75,275.34a3.11,3.11,0,0,1,2.23.78,2.94,2.94,0,0,1,.82,2.23v5.86h-1.7v-5.48a2,2,0,0,0-.51-1.5,1.85,1.85,0,0,0-1.32-.49,2.07,2.07,0,0,0-1.52.59,2.33,2.33,0,0,0-.6,1.74v5.14h-1.69v-8.7h1.69v1.08a2.81,2.81,0,0,1,1.09-.93A3.52,3.52,0,0,1,502.75,275.34Z"/><path class="cls-7" d="M516.37,279.7l0,.44h-6.74a2.9,2.9,0,0,0,.8,2.12,2.62,2.62,0,0,0,1.91.74,2.53,2.53,0,0,0,1.39-.39,2.64,2.64,0,0,0,.95-1.11l1.53.3a3.89,3.89,0,0,1-1.49,1.89,4.16,4.16,0,0,1-2.36.69,4.3,4.3,0,0,1-3.18-1.21,5.12,5.12,0,0,1,0-6.62,4.19,4.19,0,0,1,3.12-1.21,4,4,0,0,1,3,1.11A4.43,4.43,0,0,1,516.37,279.7Zm-4.08-3.08a2.65,2.65,0,0,0-1.73.57,2.61,2.61,0,0,0-.88,1.67h5a2.45,2.45,0,0,0-.75-1.67A2.37,2.37,0,0,0,512.29,276.62Z"/><path class="cls-7" d="M521.48,284.38a4.27,4.27,0,0,1-2.38-.62A2.56,2.56,0,0,1,518,282l1.45-.41a1.85,1.85,0,0,0,.7,1.17,2.21,2.21,0,0,0,1.37.41,2.24,2.24,0,0,0,1.19-.3,1,1,0,0,0,.46-1,1.23,1.23,0,0,0-.07-.39.66.66,0,0,0-.22-.31,2,2,0,0,0-.3-.23,1.65,1.65,0,0,0-.42-.2l-.46-.16a5.57,5.57,0,0,0-.55-.17l-.58-.17a7.89,7.89,0,0,1-.88-.31,4.1,4.1,0,0,1-.72-.44,1.73,1.73,0,0,1-.55-.68,2.43,2.43,0,0,1-.19-1,2.16,2.16,0,0,1,.88-1.86,3.79,3.79,0,0,1,2.25-.63,3.85,3.85,0,0,1,2.15.57,2.48,2.48,0,0,1,1.08,1.71l-1.36.34a1.61,1.61,0,0,0-.66-1.06,2.09,2.09,0,0,0-1.2-.35,2,2,0,0,0-1.11.29,1,1,0,0,0-.46.87,1,1,0,0,0,.15.54,1.12,1.12,0,0,0,.45.37,4.47,4.47,0,0,0,.6.25l.76.21.18,0c.34.09.61.16.84.24a5.4,5.4,0,0,1,.75.32,2.57,2.57,0,0,1,.67.48,2.15,2.15,0,0,1,.43.68,2.4,2.4,0,0,1,.18.95,2.55,2.55,0,0,1-.18,1,2.11,2.11,0,0,1-.48.74,2.69,2.69,0,0,1-.72.49,3.84,3.84,0,0,1-.89.28A5.42,5.42,0,0,1,521.48,284.38Z"/></g><g class="cls-6"><path class="cls-7" d="M44.55,219.41l-.92-2.61H38.29l-.92,2.61h-2.7l4.68-12.7h3.22l4.68,12.7Zm-5.48-4.82h3.79L41,209.2Z"/><path class="cls-7" d="M52.86,219.58a4.8,4.8,0,0,1-3.49-1.3,4.92,4.92,0,0,1,0-6.78,5.35,5.35,0,0,1,6.42-.43,3.88,3.88,0,0,1,1.52,2.46l-2.34.25a2,2,0,0,0-.76-1.19,2.31,2.31,0,0,0-1.37-.39,2.07,2.07,0,0,0-1.65.74,3.32,3.32,0,0,0,0,3.89,2.05,2.05,0,0,0,1.65.75,2.25,2.25,0,0,0,1.37-.4A2.07,2.07,0,0,0,55,216l2.34.25a3.89,3.89,0,0,1-1.53,2.45A4.76,4.76,0,0,1,52.86,219.58Z"/><path class="cls-7" d="M62.46,219.41a2.74,2.74,0,0,1-2-.73,2.85,2.85,0,0,1-.72-2.09v-4.27H57.93v-1.94h.57a1.49,1.49,0,0,0,1.12-.38,1.88,1.88,0,0,0,.37-1.34v-1.2h2.28v2.92h1.86v1.94H62.27v4q0,1.17,1,1.17h.81v1.92Z"/><path class="cls-7" d="M72.08,210.38h2.53v9h-2.4l-.06-1.08a3.46,3.46,0,0,1-2.87,1.26,3.53,3.53,0,0,1-2.5-.81,3,3,0,0,1-.87-2.32v-6.08h2.54v5.54a1.58,1.58,0,0,0,.45,1.24,1.73,1.73,0,0,0,1.18.39,2,2,0,0,0,1.43-.51,2.25,2.25,0,0,0,.57-1.68Z"/><path class="cls-7" d="M84.64,217a8.34,8.34,0,0,0,.22,2.21v.24H82.49l-.2-1a2.86,2.86,0,0,1-1.26.87,4.8,4.8,0,0,1-1.64.29,4.44,4.44,0,0,1-.84-.08,2.55,2.55,0,0,1-.76-.27,2,2,0,0,1-.63-.47,1.84,1.84,0,0,1-.42-.71,2.76,2.76,0,0,1-.16-1,2.52,2.52,0,0,1,.17-1,2.17,2.17,0,0,1,.44-.74,2.53,2.53,0,0,1,.71-.53,5.35,5.35,0,0,1,.89-.39c.31-.1.67-.19,1.08-.28l1.48-.33a1.7,1.7,0,0,0,.67-.29.56.56,0,0,0,.2-.45.93.93,0,0,0-.44-.87A2.06,2.06,0,0,0,80.7,212a1.56,1.56,0,0,0-1.77,1.38l-2.24-.4A3.06,3.06,0,0,1,78,210.87a5.23,5.23,0,0,1,2.84-.67q3.8,0,3.8,3.26Zm-4.46.92a2,2,0,0,0,1.57-.66,2.77,2.77,0,0,0,.6-1.94l-2.14.61a2.54,2.54,0,0,0-.9.37.75.75,0,0,0-.31.65.86.86,0,0,0,.33.72A1.43,1.43,0,0,0,80.18,217.88Z"/><path class="cls-7" d="M89.53,211.81a2.91,2.91,0,0,1,1.18-1.08,3.65,3.65,0,0,1,1.77-.46v2.26a3.35,3.35,0,0,0-2.16.55,2.36,2.36,0,0,0-.67,1.93v4.4H87.1v-9h2.43Z"/><path class="cls-7" d="M37.8,241l-1-2.9H31.21l-1,2.9H28.35l4.58-12.42H35L39.62,241Zm-6-4.43h4.47L34,230.32Z"/><path class="cls-7" d="M45.91,232.14a3.08,3.08,0,0,1,2.22.78,3,3,0,0,1,.83,2.23V241h-1.7v-5.48a2,2,0,0,0-.52-1.5,1.85,1.85,0,0,0-1.32-.49,2.07,2.07,0,0,0-1.52.59,2.41,2.41,0,0,0-.6,1.74V241H41.62v-8.7H43.3v1.08a2.84,2.84,0,0,1,1.1-.93A3.52,3.52,0,0,1,45.91,232.14Z"/><path class="cls-7" d="M53.83,241.18a3.47,3.47,0,0,1-1.33-.24,2.08,2.08,0,0,1-1-.78,2.36,2.36,0,0,1-.37-1.36,2.52,2.52,0,0,1,.24-1.14,1.89,1.89,0,0,1,.72-.79,4.68,4.68,0,0,1,1-.5,9.79,9.79,0,0,1,1.31-.31l1.38-.24c.52-.1.79-.37.79-.8a1.45,1.45,0,0,0-.53-1.23,2.45,2.45,0,0,0-2.65,0,1.65,1.65,0,0,0-.63,1.2l-1.52-.3a2.71,2.71,0,0,1,1.12-1.9,4.22,4.22,0,0,1,2.44-.63,5.59,5.59,0,0,1,1,.08,3.57,3.57,0,0,1,.92.31,2.63,2.63,0,0,1,.75.56,2.29,2.29,0,0,1,.5.87,3.49,3.49,0,0,1,.19,1.21v3.52a1.4,1.4,0,0,0,.2.88.83.83,0,0,0,.67.24h.13V241h-.81c-1,0-1.52-.39-1.69-1.16h-.08a3,3,0,0,1-1.24,1A4.13,4.13,0,0,1,53.83,241.18Zm.39-1.34a2.31,2.31,0,0,0,1.83-.81,3.16,3.16,0,0,0,.71-2.16l-2.28.46a3,3,0,0,0-1.25.45,1.05,1.05,0,0,0-.42.89,1,1,0,0,0,.39.88A1.71,1.71,0,0,0,54.22,239.84Z"/><path class="cls-7" d="M61.36,241v-13.5h1.69V241Z"/><path class="cls-7" d="M66.94,230.39a1.07,1.07,0,0,1-.78-.33,1,1,0,0,1-.33-.77,1,1,0,0,1,.33-.77,1.1,1.1,0,0,1,.78-.32,1.09,1.09,0,0,1,.76,1.87A1.05,1.05,0,0,1,66.94,230.39ZM66.08,241v-8.7h1.69V241Z"/><path class="cls-7" d="M76.72,232.31l-4.49,7.35H76.7V241h-7l4.46-7.34H70v-1.36Z"/><path class="cls-7" d="M80.49,241.18a3.47,3.47,0,0,1-1.33-.24,2.08,2.08,0,0,1-1-.78,2.36,2.36,0,0,1-.37-1.36,2.52,2.52,0,0,1,.24-1.14,1.89,1.89,0,0,1,.72-.79,4.68,4.68,0,0,1,1-.5,9.43,9.43,0,0,1,1.31-.31l1.37-.24c.53-.1.79-.37.79-.8a1.44,1.44,0,0,0-.52-1.23,2.15,2.15,0,0,0-1.32-.39,2.19,2.19,0,0,0-1.34.39,1.64,1.64,0,0,0-.62,1.2l-1.52-.3a2.71,2.71,0,0,1,1.12-1.9,4.2,4.2,0,0,1,2.44-.63,5.59,5.59,0,0,1,1,.08,3.38,3.38,0,0,1,.91.31,2.54,2.54,0,0,1,.76.56,2.43,2.43,0,0,1,.5.87,3.49,3.49,0,0,1,.19,1.21v3.52a1.4,1.4,0,0,0,.2.88.81.81,0,0,0,.67.24h.13V241H85.1a1.49,1.49,0,0,1-1.68-1.16h-.08a3,3,0,0,1-1.25,1A4.08,4.08,0,0,1,80.49,241.18Zm.39-1.34a2.31,2.31,0,0,0,1.83-.81,3.16,3.16,0,0,0,.71-2.16l-2.28.46a3.15,3.15,0,0,0-1.26.45,1.07,1.07,0,0,0-.41.89,1,1,0,0,0,.39.88A1.69,1.69,0,0,0,80.88,239.84Z"/><path class="cls-7" d="M89.65,233.83a2.56,2.56,0,0,1,1.08-1.16,3.26,3.26,0,0,1,1.69-.45v1.56a2.89,2.89,0,0,0-2,.63,2.61,2.61,0,0,0-.69,2V241H88v-8.7h1.64Z"/><path class="cls-7" d="M26.92,262.62l-1-2.91H20.33l-1,2.91H17.47l4.58-12.43h2.11l4.58,12.43Zm-6.05-4.43h4.47l-2.23-6.27Z"/><path class="cls-7" d="M34.29,262.77a4.22,4.22,0,0,1-3.15-1.25,4.89,4.89,0,0,1,0-6.53,4.26,4.26,0,0,1,3.15-1.25,4.35,4.35,0,0,1,2.58.77,3.91,3.91,0,0,1,1.46,2.16l-1.57.24a2.51,2.51,0,0,0-2.48-1.78,2.45,2.45,0,0,0-1.94.86,3.76,3.76,0,0,0,0,4.53,2.45,2.45,0,0,0,1.94.86,2.51,2.51,0,0,0,2.48-1.78l1.57.24A3.87,3.87,0,0,1,36.86,262,4.36,4.36,0,0,1,34.29,262.77Z"/><path class="cls-7" d="M44.17,262.77A4.23,4.23,0,0,1,41,261.52,4.89,4.89,0,0,1,41,255a4.26,4.26,0,0,1,3.16-1.25,4.34,4.34,0,0,1,2.57.77,3.91,3.91,0,0,1,1.46,2.16l-1.57.24a2.51,2.51,0,0,0-2.48-1.78,2.45,2.45,0,0,0-1.94.86,3.76,3.76,0,0,0,0,4.53,2.45,2.45,0,0,0,1.94.86,2.51,2.51,0,0,0,2.48-1.78l1.57.24A3.87,3.87,0,0,1,46.73,262,4.35,4.35,0,0,1,44.17,262.77Z"/><path class="cls-7" d="M51.23,252a1.07,1.07,0,0,1-.78-.33,1,1,0,0,1-.33-.77,1,1,0,0,1,.33-.77,1.1,1.1,0,0,1,.78-.32,1.06,1.06,0,0,1,.77.32,1.1,1.1,0,0,1,0,1.55A1.09,1.09,0,0,1,51.23,252Zm-.86,10.63v-8.71h1.7v8.71Z"/><path class="cls-7" d="M58.83,262.78A4.26,4.26,0,1,1,62,261.55,4.37,4.37,0,0,1,58.83,262.78Zm0-1.39a2.58,2.58,0,0,0,2-.86,3.24,3.24,0,0,0,.79-2.27,3.2,3.2,0,0,0-.79-2.27,2.58,2.58,0,0,0-2-.86,2.53,2.53,0,0,0-2,.86,3.24,3.24,0,0,0-.78,2.27,3.28,3.28,0,0,0,.78,2.27A2.53,2.53,0,0,0,58.81,261.39Z"/><path class="cls-7" d="M69.86,253.74a3.07,3.07,0,0,1,2.23.79,2.91,2.91,0,0,1,.82,2.22v5.87H71.22v-5.49a2,2,0,0,0-.52-1.5,1.85,1.85,0,0,0-1.32-.49,2.07,2.07,0,0,0-1.52.59,2.41,2.41,0,0,0-.6,1.74v5.15H65.58v-8.71h1.68V255a2.84,2.84,0,0,1,1.1-.93A3.51,3.51,0,0,1,69.86,253.74Z"/><path class="cls-7" d="M83.49,258.1l0,.45H76.72a2.93,2.93,0,0,0,.81,2.11,2.6,2.6,0,0,0,1.91.74,2.52,2.52,0,0,0,1.38-.39,2.64,2.64,0,0,0,1-1.11l1.53.3a3.83,3.83,0,0,1-1.49,1.89,4.14,4.14,0,0,1-2.36.69,4.26,4.26,0,0,1-3.17-1.21,4.45,4.45,0,0,1-1.21-3.31A4.5,4.5,0,0,1,76.28,255a4.22,4.22,0,0,1,3.12-1.21,4,4,0,0,1,3,1.11A4.44,4.44,0,0,1,83.49,258.1ZM79.41,255a2.49,2.49,0,0,0-2.62,2.24h5a2.45,2.45,0,0,0-.75-1.67A2.35,2.35,0,0,0,79.41,255Z"/><path class="cls-7" d="M88.59,262.78a4.3,4.3,0,0,1-2.38-.62,2.62,2.62,0,0,1-1.15-1.79l1.45-.42a1.86,1.86,0,0,0,.71,1.17,2.16,2.16,0,0,0,1.36.41,2.21,2.21,0,0,0,1.19-.3,1,1,0,0,0,.47-1,1.59,1.59,0,0,0-.07-.39.74.74,0,0,0-.22-.31l-.3-.23a2.08,2.08,0,0,0-.42-.2l-.46-.16-.56-.17-.57-.17a6.66,6.66,0,0,1-.88-.31,3.91,3.91,0,0,1-.72-.43,1.78,1.78,0,0,1-.56-.69,2.43,2.43,0,0,1-.18-1,2.13,2.13,0,0,1,.88-1.86,3.81,3.81,0,0,1,2.25-.62,4,4,0,0,1,2.15.56A2.43,2.43,0,0,1,91.65,256l-1.36.34a1.63,1.63,0,0,0-.65-1.06,2.27,2.27,0,0,0-2.32-.06,1.05,1.05,0,0,0-.31,1.41,1.12,1.12,0,0,0,.45.37,3.56,3.56,0,0,0,.61.25l.75.21.19.05c.33.08.61.16.83.23a5.4,5.4,0,0,1,.75.32,2.9,2.9,0,0,1,.68.48,2.15,2.15,0,0,1,.43.68,2.59,2.59,0,0,1,.17.95,2.76,2.76,0,0,1-.17,1,2.15,2.15,0,0,1-.48.74,2.74,2.74,0,0,1-.73.49,3.42,3.42,0,0,1-.89.28A5.34,5.34,0,0,1,88.59,262.78Z"/><path class="cls-7" d="M6.21,284.38a6.48,6.48,0,0,1-3.16-.76A5.54,5.54,0,0,1,.82,281.4,6.83,6.83,0,0,1,0,278a7.4,7.4,0,0,1,.47-2.66,5.79,5.79,0,0,1,1.31-2,6,6,0,0,1,2-1.26,6.79,6.79,0,0,1,2.45-.44,6.42,6.42,0,0,1,3.37.89A5.52,5.52,0,0,1,11.77,275l-1.62.65a3.92,3.92,0,0,0-1.58-1.76,4.54,4.54,0,0,0-2.36-.62,4.81,4.81,0,0,0-1.75.32A4.49,4.49,0,0,0,3,274.5a4.19,4.19,0,0,0-1,1.49,5.92,5.92,0,0,0,0,4,4.1,4.1,0,0,0,1,1.49,4.19,4.19,0,0,0,1.42.92,4.81,4.81,0,0,0,1.75.32,4.54,4.54,0,0,0,2.36-.62,4,4,0,0,0,1.58-1.75l1.62.65a5.45,5.45,0,0,1-2.19,2.48A6.45,6.45,0,0,1,6.21,284.38Z"/><path class="cls-7" d="M17.74,284.38a4.52,4.52,0,1,1,0-9,4.24,4.24,0,0,1,4.44,4.52,4.43,4.43,0,0,1-1.24,3.29A4.38,4.38,0,0,1,17.74,284.38Zm0-1.39a2.59,2.59,0,0,0,2-.86,3.24,3.24,0,0,0,.79-2.27,3.2,3.2,0,0,0-.79-2.27,2.56,2.56,0,0,0-2-.86,2.53,2.53,0,0,0-2,.86,3.24,3.24,0,0,0-.78,2.27,3.28,3.28,0,0,0,.78,2.27A2.57,2.57,0,0,0,17.72,283Z"/><path class="cls-7" d="M26.12,277a2.56,2.56,0,0,1,1.08-1.16,3.36,3.36,0,0,1,1.69-.45V277a2.9,2.9,0,0,0-2,.63,2.61,2.61,0,0,0-.69,2v4.57H24.49v-8.7h1.63Z"/><path class="cls-7" d="M32.27,277a2.56,2.56,0,0,1,1.08-1.16,3.39,3.39,0,0,1,1.69-.45V277a2.92,2.92,0,0,0-2,.63,2.6,2.6,0,0,0-.68,2v4.57H30.64v-8.7h1.63Z"/><path class="cls-7" d="M44.4,279.7l0,.45H37.63a2.93,2.93,0,0,0,.81,2.11,2.62,2.62,0,0,0,1.91.74,2.53,2.53,0,0,0,1.39-.39,2.64,2.64,0,0,0,.95-1.11l1.53.3a3.89,3.89,0,0,1-1.49,1.89,4.16,4.16,0,0,1-2.36.69,4.3,4.3,0,0,1-3.18-1.21,5.12,5.12,0,0,1,0-6.62,4.19,4.19,0,0,1,3.12-1.21,4,4,0,0,1,3,1.11A4.43,4.43,0,0,1,44.4,279.7Zm-4.08-3.08a2.65,2.65,0,0,0-1.73.57,2.61,2.61,0,0,0-.88,1.67h5a2.45,2.45,0,0,0-.75-1.67A2.37,2.37,0,0,0,40.32,276.62Z"/><path class="cls-7" d="M50.37,284.37a4.28,4.28,0,0,1-3.16-1.25,4.92,4.92,0,0,1,0-6.53,4.64,4.64,0,0,1,5.73-.48,3.81,3.81,0,0,1,1.46,2.16l-1.57.24a2.48,2.48,0,0,0-2.48-1.78,2.47,2.47,0,0,0-1.94.86,3.76,3.76,0,0,0,0,4.53,2.47,2.47,0,0,0,1.94.86,2.48,2.48,0,0,0,2.48-1.78l1.57.24a3.77,3.77,0,0,1-1.47,2.16A4.33,4.33,0,0,1,50.37,284.37Z"/><path class="cls-7" d="M59.43,284.21a2.35,2.35,0,0,1-1.74-.63,2.44,2.44,0,0,1-.63-1.79v-5H55.28v-1.33h.64a1.28,1.28,0,0,0,1-.31,1.55,1.55,0,0,0,.3-1.08v-1.5h1.55v2.89h2v1.33h-2v4.77a1.27,1.27,0,0,0,.33.94,1.08,1.08,0,0,0,.84.34h.8v1.32Z"/><path class="cls-7" d="M63.74,273.59a1.07,1.07,0,0,1-.78-.33,1,1,0,0,1-.33-.77,1,1,0,0,1,.33-.77,1.1,1.1,0,0,1,.78-.32,1.09,1.09,0,0,1,.76,1.87A1.05,1.05,0,0,1,63.74,273.59Zm-.86,10.62v-8.7h1.69v8.7Z"/><path class="cls-7" d="M73.06,275.51h1.81l-3.57,8.7H69.85l-3.55-8.7h1.79l2.49,6.75Z"/><path class="cls-7" d="M78.27,284.38a3.43,3.43,0,0,1-1.33-.24,2.08,2.08,0,0,1-1-.78A2.37,2.37,0,0,1,75.6,282a2.4,2.4,0,0,1,.25-1.14,2,2,0,0,1,.72-.79,4.83,4.83,0,0,1,1-.5,10,10,0,0,1,1.32-.31l1.37-.24c.53-.1.79-.37.79-.8a1.45,1.45,0,0,0-.53-1.23,2.15,2.15,0,0,0-1.32-.39,2.18,2.18,0,0,0-1.33.39,1.68,1.68,0,0,0-.63,1.2l-1.52-.3a2.75,2.75,0,0,1,1.12-1.9,4.22,4.22,0,0,1,2.44-.63,5.52,5.52,0,0,1,1,.08,3.44,3.44,0,0,1,.92.31,2.54,2.54,0,0,1,.76.56,2.8,2.8,0,0,1,.5.87,3.75,3.75,0,0,1,.19,1.21v3.52a1.41,1.41,0,0,0,.19.88.85.85,0,0,0,.68.24h.13v1.18h-.82c-.95,0-1.52-.38-1.69-1.16h-.08a3,3,0,0,1-1.24,1A4.12,4.12,0,0,1,78.27,284.38Zm.38-1.34a2.35,2.35,0,0,0,1.84-.81,3.15,3.15,0,0,0,.7-2.16l-2.27.46a3.09,3.09,0,0,0-1.26.45,1.18,1.18,0,0,0,0,1.77A1.68,1.68,0,0,0,78.65,283Z"/><path class="cls-7" d="M88.59,284.38a4.3,4.3,0,0,1-2.38-.62,2.62,2.62,0,0,1-1.15-1.8l1.45-.41a1.86,1.86,0,0,0,.71,1.17,2.16,2.16,0,0,0,1.36.41,2.21,2.21,0,0,0,1.19-.3,1,1,0,0,0,.47-1,1.59,1.59,0,0,0-.07-.39.74.74,0,0,0-.22-.31l-.3-.23a2.08,2.08,0,0,0-.42-.2l-.46-.16-.56-.17-.57-.17a6.66,6.66,0,0,1-.88-.31,3.91,3.91,0,0,1-.72-.43,1.86,1.86,0,0,1-.56-.69,2.43,2.43,0,0,1-.18-1,2.13,2.13,0,0,1,.88-1.86,3.81,3.81,0,0,1,2.25-.62,3.87,3.87,0,0,1,2.15.56,2.43,2.43,0,0,1,1.07,1.71l-1.36.34a1.63,1.63,0,0,0-.65-1.06,2.27,2.27,0,0,0-2.32-.06,1,1,0,0,0-.46.87,1,1,0,0,0,.15.54,1.12,1.12,0,0,0,.45.37,3.56,3.56,0,0,0,.61.25l.75.21.19,0c.33.09.61.16.83.24a5.4,5.4,0,0,1,.75.32,2.9,2.9,0,0,1,.68.48,2.15,2.15,0,0,1,.43.68,2.59,2.59,0,0,1,.17.95,2.76,2.76,0,0,1-.17,1,2.15,2.15,0,0,1-.48.74,2.74,2.74,0,0,1-.73.49,3.42,3.42,0,0,1-.89.28A5.34,5.34,0,0,1,88.59,284.38Z"/></g><g class="cls-6"><path class="cls-7" d="M34.45,19.66a3.81,3.81,0,0,1,2.93,1.18,4.1,4.1,0,0,1,1.11,2.92,4,4,0,0,1-1.1,2.91,3.88,3.88,0,0,1-2.94,1.13H31.81v4.56H29.17V19.66ZM34,25.6a1.93,1.93,0,0,0,1.45-.5A1.85,1.85,0,0,0,36,23.73a1.9,1.9,0,0,0-.49-1.36A1.93,1.93,0,0,0,34,21.86h-2.2V25.6Z"/><path class="cls-7" d="M40.37,32.36V18.86h2.56v13.5Z"/><path class="cls-7" d="M53,29.9a8.73,8.73,0,0,0,.22,2.21v.25H50.81l-.2-1a3,3,0,0,1-1.27.87,4.52,4.52,0,0,1-1.63.29,3.89,3.89,0,0,1-.85-.08,2.77,2.77,0,0,1-.76-.27,2.43,2.43,0,0,1-.63-.46,2.28,2.28,0,0,1-.42-.72,3,3,0,0,1-.16-1,2.76,2.76,0,0,1,.17-1,2.19,2.19,0,0,1,.44-.73,2.71,2.71,0,0,1,.71-.54,5.44,5.44,0,0,1,.9-.39,10.82,10.82,0,0,1,1.07-.28l1.49-.33a1.62,1.62,0,0,0,.67-.29.56.56,0,0,0,.2-.45.92.92,0,0,0-.45-.87A2,2,0,0,0,49,24.89a1.55,1.55,0,0,0-1.77,1.38L45,25.87a3,3,0,0,1,1.31-2.06,5.21,5.21,0,0,1,2.84-.66c2.53,0,3.79,1.08,3.79,3.26Zm-4.45.92a2,2,0,0,0,1.56-.66,2.71,2.71,0,0,0,.61-1.93l-2.15.6a2.74,2.74,0,0,0-.9.37.77.77,0,0,0-.31.65.84.84,0,0,0,.34.72A1.34,1.34,0,0,0,48.5,30.82Z"/><path class="cls-7" d="M60.75,23.15a3.55,3.55,0,0,1,2.5.81,3,3,0,0,1,.87,2.31v6.09H61.58V26.82a1.59,1.59,0,0,0-.46-1.25A1.71,1.71,0,0,0,60,25.18a2.29,2.29,0,0,0-.76.11,2,2,0,0,0-.63.36,1.56,1.56,0,0,0-.45.68,2.94,2.94,0,0,0-.17,1v5H55.41v-9H58v1A3.48,3.48,0,0,1,60.75,23.15Z"/><path class="cls-7" d="M75.07,27.71l0,.6h-6.7A2.42,2.42,0,0,0,69.06,30a2.49,2.49,0,0,0,2.79.26,2,2,0,0,0,.76-.91l2.32.34a4,4,0,0,1-1.59,2.12,4.7,4.7,0,0,1-2.67.75,4.9,4.9,0,0,1-3.52-1.24,4.54,4.54,0,0,1-1.3-3.45,4.54,4.54,0,0,1,1.31-3.45,4.74,4.74,0,0,1,3.43-1.26,4.13,4.13,0,0,1,4.48,4.58Zm-4.46-2.79a2,2,0,0,0-2.2,1.74h4.15a1.89,1.89,0,0,0-.62-1.29A2,2,0,0,0,70.61,24.92Z"/><path class="cls-7" d="M84.4,29.9a8.29,8.29,0,0,0,.22,2.21v.25H82.26l-.21-1a2.86,2.86,0,0,1-1.26.87,4.53,4.53,0,0,1-1.64.29,3.74,3.74,0,0,1-.84-.08,2.66,2.66,0,0,1-.76-.27,2.43,2.43,0,0,1-.63-.46A2.11,2.11,0,0,1,76.5,31a3,3,0,0,1,0-2,2.19,2.19,0,0,1,.44-.73,2.71,2.71,0,0,1,.71-.54,5.1,5.1,0,0,1,.9-.39,10.82,10.82,0,0,1,1.07-.28l1.48-.33a1.68,1.68,0,0,0,.68-.29A.55.55,0,0,0,82,26a.91.91,0,0,0-.44-.87,2,2,0,0,0-1.08-.27,1.55,1.55,0,0,0-1.76,1.38l-2.24-.4a3,3,0,0,1,1.31-2.06,5.2,5.2,0,0,1,2.83-.66c2.54,0,3.8,1.08,3.8,3.26Zm-4.46.92a2,2,0,0,0,1.57-.66,2.76,2.76,0,0,0,.61-1.93l-2.15.6a2.74,2.74,0,0,0-.9.37.75.75,0,0,0-.31.65.86.86,0,0,0,.33.72A1.36,1.36,0,0,0,79.94,30.82Z"/><path class="cls-7" d="M89.29,24.75a2.91,2.91,0,0,1,1.18-1.08,3.64,3.64,0,0,1,1.77-.45v2.25a3.42,3.42,0,0,0-2.16.55A2.36,2.36,0,0,0,89.41,28v4.41H86.86v-9h2.43Z"/><path class="cls-7" d="M20.81,54.12a6.52,6.52,0,0,1-3.17-.76,5.58,5.58,0,0,1-2.22-2.22,6.86,6.86,0,0,1-.82-3.41,7.3,7.3,0,0,1,.47-2.65,5.74,5.74,0,0,1,1.31-2,5.8,5.8,0,0,1,2-1.25,6.89,6.89,0,0,1,4.9,0,5.55,5.55,0,0,1,3.28,3.27,7.61,7.61,0,0,1,0,5.32,5.74,5.74,0,0,1-1.31,2,5.94,5.94,0,0,1-2,1.26A6.79,6.79,0,0,1,20.81,54.12Zm0-1.64a4.85,4.85,0,0,0,1.75-.32A4.17,4.17,0,0,0,24,51.25a4.24,4.24,0,0,0,1-1.5,5.67,5.67,0,0,0,.35-2,5.6,5.6,0,0,0-.35-2,4,4,0,0,0-2.36-2.39,4.81,4.81,0,0,0-3.5,0,4.19,4.19,0,0,0-1.42.9,4.06,4.06,0,0,0-.95,1.49,5.39,5.39,0,0,0-.35,2,5.46,5.46,0,0,0,.35,2,4.1,4.1,0,0,0,.95,1.5,4.22,4.22,0,0,0,1.42.91A4.81,4.81,0,0,0,20.81,52.48Z"/><path class="cls-7" d="M34.25,45.08a3.89,3.89,0,0,1,3.52,2.14,5,5,0,0,1,.56,2.39,4.62,4.62,0,0,1-1.17,3.28,3.87,3.87,0,0,1-2.91,1.25,3.54,3.54,0,0,1-1.81-.47,3,3,0,0,1-1.21-1.3L31.18,54H29.56V40.46h1.68V46.8a3.08,3.08,0,0,1,1.22-1.26A3.48,3.48,0,0,1,34.25,45.08Zm-2.33,6.74a2.52,2.52,0,0,0,2,.88,2.59,2.59,0,0,0,2-.86,3.56,3.56,0,0,0,0-4.47,2.62,2.62,0,0,0-2-.85,2.57,2.57,0,0,0-2,.88,3.45,3.45,0,0,0,0,4.42Z"/><path class="cls-7" d="M38.68,58V56.62a1.8,1.8,0,0,0,1.58-.57,4.37,4.37,0,0,0,.39-2.25V45.26h1.7V53.8a5,5,0,0,1-.83,3.26A3.6,3.6,0,0,1,38.68,58Zm3.61-15a1.07,1.07,0,0,1-.77.32,1.1,1.1,0,0,1-.78-.32,1.07,1.07,0,0,1-.33-.78,1,1,0,0,1,.33-.77,1.1,1.1,0,0,1,.78-.32A1.1,1.1,0,0,1,42.29,43Z"/><path class="cls-7" d="M53.09,49.44l0,.45H46.33A3,3,0,0,0,47.14,52a2.63,2.63,0,0,0,1.9.73,2.53,2.53,0,0,0,1.39-.39,2.58,2.58,0,0,0,1-1.11l1.53.3a3.89,3.89,0,0,1-1.49,1.89,4.16,4.16,0,0,1-2.36.69,4.33,4.33,0,0,1-3.18-1.2,5.12,5.12,0,0,1,0-6.62A4.23,4.23,0,0,1,49,45.08a4,4,0,0,1,3,1.12A4.39,4.39,0,0,1,53.09,49.44ZM49,46.36A2.48,2.48,0,0,0,46.4,48.6h5a2.45,2.45,0,0,0-.75-1.67A2.37,2.37,0,0,0,49,46.36Z"/><path class="cls-7" d="M58.25,54a2.39,2.39,0,0,1-1.74-.64,2.44,2.44,0,0,1-.63-1.79v-5H54.1V45.26h.65a1.31,1.31,0,0,0,1-.32A1.59,1.59,0,0,0,56,43.87V42.36h1.56v2.9h2v1.32h-2v4.77a1.3,1.3,0,0,0,.32.95,1.11,1.11,0,0,0,.85.33h.8V54Z"/><path class="cls-7" d="M62.56,43.33a1.1,1.1,0,0,1-.78-.32,1.07,1.07,0,0,1-.33-.78,1,1,0,0,1,.33-.77,1.1,1.1,0,0,1,.78-.32,1.06,1.06,0,0,1,.77.32,1.07,1.07,0,0,1,.32.77,1,1,0,0,1-.33.78A1.05,1.05,0,0,1,62.56,43.33ZM61.7,54v-8.7h1.7V54Z"/><path class="cls-7" d="M71.89,45.26h1.8L70.12,54H68.67l-3.55-8.7h1.79L69.4,52Z"/><path class="cls-7" d="M78.8,54.12A4.26,4.26,0,1,1,82,52.89,4.4,4.4,0,0,1,78.8,54.12Zm0-1.39a2.6,2.6,0,0,0,2-.86,3.24,3.24,0,0,0,.79-2.27,3.2,3.2,0,0,0-.79-2.27,2.63,2.63,0,0,0-2-.86,2.56,2.56,0,0,0-2,.86A3.25,3.25,0,0,0,76,49.6a3.28,3.28,0,0,0,.79,2.27A2.53,2.53,0,0,0,78.78,52.73Z"/><path class="cls-7" d="M88.36,54.12A4.25,4.25,0,0,1,86,53.5a2.6,2.6,0,0,1-1.15-1.79l1.45-.42A1.91,1.91,0,0,0,87,52.47a2.25,2.25,0,0,0,1.37.41,2.18,2.18,0,0,0,1.18-.31,1,1,0,0,0,.47-1,1.59,1.59,0,0,0-.07-.39.81.81,0,0,0-.22-.31l-.3-.23a1.65,1.65,0,0,0-.42-.2l-.46-.16L88,50.15,87.4,50a7.22,7.22,0,0,1-.88-.31,3.91,3.91,0,0,1-.72-.43,1.71,1.71,0,0,1-.56-.69,2.4,2.4,0,0,1-.18-1,2.1,2.1,0,0,1,.88-1.85,3.74,3.74,0,0,1,2.25-.63,4,4,0,0,1,2.15.56,2.43,2.43,0,0,1,1.07,1.71l-1.36.34a1.63,1.63,0,0,0-.65-1.06,2.09,2.09,0,0,0-1.2-.35,2,2,0,0,0-1.11.29A1,1,0,0,0,86.77,48a1.14,1.14,0,0,0,.45.38,4.54,4.54,0,0,0,.61.24c.2.07.46.14.75.21l.19.05c.33.08.61.16.83.23a5,5,0,0,1,.76.32,3,3,0,0,1,.67.48,2.15,2.15,0,0,1,.43.68,2.4,2.4,0,0,1,.17.95,2.55,2.55,0,0,1-.17,1,2.15,2.15,0,0,1-.48.74,2.59,2.59,0,0,1-.73.49,3.71,3.71,0,0,1-.89.29A6.33,6.33,0,0,1,88.36,54.12Z"/><path class="cls-7" d="M26.78,75.56,23.56,70H21.82v5.59H20.07V63.13h4.19a4.62,4.62,0,0,1,1.68.28,3.09,3.09,0,0,1,1.2.76,3.47,3.47,0,0,1,.68,1.12,4.08,4.08,0,0,1,.23,1.38,3.15,3.15,0,0,1-.73,2.15,3.23,3.23,0,0,1-2,1.08l3.51,5.66Zm-5-10.92v4H24a2.57,2.57,0,0,0,1.76-.53,1.87,1.87,0,0,0,.59-1.46,1.89,1.89,0,0,0-.59-1.45A2.48,2.48,0,0,0,24,64.64Z"/><path class="cls-7" d="M38.18,71l0,.45H31.41a3,3,0,0,0,.81,2.12,2.65,2.65,0,0,0,1.91.73A2.56,2.56,0,0,0,35.52,74a2.65,2.65,0,0,0,.95-1.11l1.52.3A3.83,3.83,0,0,1,36.5,75a4.11,4.11,0,0,1-2.35.69A4.3,4.3,0,0,1,31,74.52a5.13,5.13,0,0,1,0-6.62,4.23,4.23,0,0,1,3.12-1.22,4,4,0,0,1,3,1.12A4.4,4.4,0,0,1,38.18,71ZM34.1,68a2.63,2.63,0,0,0-1.73.57,2.7,2.7,0,0,0-.89,1.67h5a2.5,2.5,0,0,0-.74-1.67A2.39,2.39,0,0,0,34.1,68Z"/><path class="cls-7" d="M44.15,75.72A4.25,4.25,0,0,1,41,74.46a4.89,4.89,0,0,1,0-6.53,4.28,4.28,0,0,1,3.16-1.25,4.34,4.34,0,0,1,2.57.77,3.85,3.85,0,0,1,1.46,2.17l-1.57.23a2.61,2.61,0,0,0-1-1.32,2.54,2.54,0,0,0-1.53-.46,2.48,2.48,0,0,0-1.94.86,3.76,3.76,0,0,0,0,4.53,2.46,2.46,0,0,0,1.94.87,2.5,2.5,0,0,0,2.48-1.79l1.57.24a3.87,3.87,0,0,1-1.47,2.16A4.27,4.27,0,0,1,44.15,75.72Z"/><path class="cls-7" d="M55.83,66.86h1.69v8.7H55.91l0-1.13a2.92,2.92,0,0,1-1.1,1,3.47,3.47,0,0,1-1.53.33A3.11,3.11,0,0,1,51,74.94a2.94,2.94,0,0,1-.82-2.23V66.86h1.69v5.48a2,2,0,0,0,.52,1.49,1.9,1.9,0,0,0,1.33.49,2.07,2.07,0,0,0,1.51-.58,2.42,2.42,0,0,0,.6-1.75Z"/><path class="cls-7" d="M62.17,68.37a2.54,2.54,0,0,1,1.08-1.15,3.4,3.4,0,0,1,1.69-.46v1.56a2.92,2.92,0,0,0-2,.63,2.6,2.6,0,0,0-.68,2v4.58H60.54v-8.7h1.63Z"/><path class="cls-7" d="M69.49,75.72a4.24,4.24,0,0,1-2.38-.62A2.6,2.6,0,0,1,66,73.31l1.45-.42a1.89,1.89,0,0,0,.71,1.18,2.25,2.25,0,0,0,1.37.41,2.12,2.12,0,0,0,1.18-.31,1,1,0,0,0,.47-1,1.59,1.59,0,0,0-.07-.39.81.81,0,0,0-.22-.31l-.3-.23a1.84,1.84,0,0,0-.42-.2l-.46-.16-.56-.17c-.25-.07-.44-.12-.57-.17a7.22,7.22,0,0,1-.88-.31,3.91,3.91,0,0,1-.72-.43,1.71,1.71,0,0,1-.56-.69,2.4,2.4,0,0,1-.18-1,2.11,2.11,0,0,1,.88-1.85,3.74,3.74,0,0,1,2.25-.63,4,4,0,0,1,2.15.56A2.43,2.43,0,0,1,72.55,69l-1.36.34a1.63,1.63,0,0,0-.65-1.06,2.27,2.27,0,0,0-2.32-.06,1,1,0,0,0-.46.87,1,1,0,0,0,.15.54,1.14,1.14,0,0,0,.45.38,3.51,3.51,0,0,0,.61.24,7.44,7.44,0,0,0,.75.21l.19,0c.33.08.61.16.83.23a3.91,3.91,0,0,1,.75.33,2.62,2.62,0,0,1,.68.47,2.15,2.15,0,0,1,.43.68,2.59,2.59,0,0,1,.17,1,2.76,2.76,0,0,1-.17,1,2.15,2.15,0,0,1-.48.74,2.53,2.53,0,0,1-.73.49,3.86,3.86,0,0,1-.89.29A6.36,6.36,0,0,1,69.49,75.72Z"/><path class="cls-7" d="M78.8,75.72A4.26,4.26,0,1,1,82,74.49,4.4,4.4,0,0,1,78.8,75.72Zm0-1.38a2.61,2.61,0,0,0,2-.87,3.66,3.66,0,0,0,0-4.54,2.63,2.63,0,0,0-2-.86,2.56,2.56,0,0,0-2,.86,3.66,3.66,0,0,0,0,4.54A2.54,2.54,0,0,0,78.78,74.34Z"/><path class="cls-7" d="M88.36,75.72A4.25,4.25,0,0,1,86,75.1a2.6,2.6,0,0,1-1.15-1.79l1.45-.42A1.89,1.89,0,0,0,87,74.07a2.25,2.25,0,0,0,1.37.41,2.1,2.1,0,0,0,1.18-.31,1,1,0,0,0,.47-1,1.59,1.59,0,0,0-.07-.39.81.81,0,0,0-.22-.31l-.3-.23a1.65,1.65,0,0,0-.42-.2l-.46-.16L88,71.75c-.25-.07-.44-.12-.57-.17a7.22,7.22,0,0,1-.88-.31,3.91,3.91,0,0,1-.72-.43,1.71,1.71,0,0,1-.56-.69,2.4,2.4,0,0,1-.18-1,2.11,2.11,0,0,1,.88-1.85,3.74,3.74,0,0,1,2.25-.63,4,4,0,0,1,2.15.56A2.43,2.43,0,0,1,91.41,69l-1.36.34a1.63,1.63,0,0,0-.65-1.06,2.09,2.09,0,0,0-1.2-.35,2,2,0,0,0-1.11.29,1,1,0,0,0-.32,1.41,1.14,1.14,0,0,0,.45.38,3.51,3.51,0,0,0,.61.24c.2.07.46.14.75.21l.19,0c.33.08.61.16.83.23a4.27,4.27,0,0,1,.76.33,2.73,2.73,0,0,1,.67.47,2.15,2.15,0,0,1,.43.68,2.4,2.4,0,0,1,.17,1,2.55,2.55,0,0,1-.17,1,2.15,2.15,0,0,1-.48.74,2.4,2.4,0,0,1-.73.49,3.71,3.71,0,0,1-.89.29A6.33,6.33,0,0,1,88.36,75.72Z"/><path class="cls-7" d="M10.13,97.32A6.54,6.54,0,0,1,7,96.56a5.58,5.58,0,0,1-2.22-2.22,6.83,6.83,0,0,1-.82-3.41,7.3,7.3,0,0,1,.47-2.65,5.74,5.74,0,0,1,1.31-2,5.8,5.8,0,0,1,2-1.25,6.59,6.59,0,0,1,2.45-.45,6.42,6.42,0,0,1,3.37.89A5.5,5.5,0,0,1,15.69,88l-1.62.64a4,4,0,0,0-1.58-1.76,4.54,4.54,0,0,0-2.36-.62,4.62,4.62,0,0,0-1.75.33A4,4,0,0,0,6,88.93a5.92,5.92,0,0,0,0,4,4,4,0,0,0,2.37,2.41,4.81,4.81,0,0,0,1.75.32,4.45,4.45,0,0,0,2.36-.62,4,4,0,0,0,1.58-1.75l1.62.65a5.45,5.45,0,0,1-2.19,2.48A6.36,6.36,0,0,1,10.13,97.32Z"/><path class="cls-7" d="M21.66,97.32A4.27,4.27,0,0,1,17.2,92.8a4.26,4.26,0,0,1,4.46-4.52,4.34,4.34,0,0,1,3.19,1.23,5,5,0,0,1,0,6.58A4.34,4.34,0,0,1,21.66,97.32Zm0-1.39a2.58,2.58,0,0,0,2-.86,3.24,3.24,0,0,0,.79-2.27,3.2,3.2,0,0,0-.79-2.27,2.61,2.61,0,0,0-2-.86,2.57,2.57,0,0,0-2,.86,3.24,3.24,0,0,0-.78,2.27,3.28,3.28,0,0,0,.78,2.27A2.53,2.53,0,0,0,21.64,95.93Z"/><path class="cls-7" d="M37.55,88.28a2.88,2.88,0,0,1,2.06.73,2.71,2.71,0,0,1,.78,2.07v6.08H38.7V91.53a1.91,1.91,0,0,0-.46-1.38,1.58,1.58,0,0,0-1.17-.46,1.71,1.71,0,0,0-1.31.54,2.34,2.34,0,0,0-.5,1.63v5.3H33.55V91.59a2,2,0,0,0-.47-1.42,1.57,1.57,0,0,0-1.18-.48,1.69,1.69,0,0,0-1.31.55,2.41,2.41,0,0,0-.51,1.68v5.24H28.41v-8.7h1.67v1.1a2.69,2.69,0,0,1,2.41-1.28,3,3,0,0,1,1.51.36,2.27,2.27,0,0,1,1,1,2.74,2.74,0,0,1,1.06-1A3.09,3.09,0,0,1,37.55,88.28Z"/><path class="cls-7" d="M48.73,88.46h1.69v8.7H48.81l0-1.13a2.81,2.81,0,0,1-1.1,1,3.38,3.38,0,0,1-1.54.34,3.08,3.08,0,0,1-2.22-.78,3,3,0,0,1-.83-2.23V88.46h1.7v5.48a1.94,1.94,0,0,0,.52,1.49,1.88,1.88,0,0,0,1.33.49,2.07,2.07,0,0,0,1.51-.58,2.37,2.37,0,0,0,.59-1.75Z"/><path class="cls-7" d="M57.73,88.28a3.05,3.05,0,0,1,2.23.79,2.91,2.91,0,0,1,.82,2.22v5.87H59.09V91.67a2,2,0,0,0-.52-1.5,1.85,1.85,0,0,0-1.32-.48,2.06,2.06,0,0,0-1.52.58,2.42,2.42,0,0,0-.6,1.75v5.14H53.45v-8.7h1.68v1.07a2.84,2.84,0,0,1,1.1-.93A3.51,3.51,0,0,1,57.73,88.28Z"/><path class="cls-7" d="M64.5,86.53a1.1,1.1,0,0,1-.78-.32,1.06,1.06,0,0,1-.32-.78,1,1,0,0,1,.32-.77,1.1,1.1,0,0,1,.78-.32,1.06,1.06,0,0,1,.77.32,1,1,0,0,1,.32.77,1.09,1.09,0,0,1-1.09,1.1Zm-.86,10.63v-8.7h1.7v8.7Z"/><path class="cls-7" d="M72,97.31a4.24,4.24,0,0,1-3.16-1.25,4.89,4.89,0,0,1,0-6.53A4.28,4.28,0,0,1,72,88.28a4.34,4.34,0,0,1,2.57.77,3.9,3.9,0,0,1,1.46,2.17l-1.57.23a2.61,2.61,0,0,0-.95-1.32A2.56,2.56,0,0,0,72,89.67a2.48,2.48,0,0,0-1.94.86,3.76,3.76,0,0,0,0,4.53,2.46,2.46,0,0,0,1.94.87,2.63,2.63,0,0,0,1.53-.46,2.59,2.59,0,0,0,.95-1.33l1.57.24a3.87,3.87,0,0,1-1.47,2.16A4.28,4.28,0,0,1,72,97.31Z"/><path class="cls-7" d="M80.25,97.32a3.67,3.67,0,0,1-1.33-.23,2.1,2.1,0,0,1-1-.79,2.36,2.36,0,0,1-.37-1.36,2.52,2.52,0,0,1,.24-1.14,2,2,0,0,1,.72-.79,4.24,4.24,0,0,1,1-.49,8.38,8.38,0,0,1,1.31-.32L82.27,92c.52-.1.79-.36.79-.8a1.43,1.43,0,0,0-.53-1.22,2.15,2.15,0,0,0-1.32-.39,2.21,2.21,0,0,0-1.34.38,1.64,1.64,0,0,0-.62,1.21l-1.52-.31a2.71,2.71,0,0,1,1.12-1.9,4.22,4.22,0,0,1,2.44-.63,5.56,5.56,0,0,1,1,.09,3.54,3.54,0,0,1,.92.3,2.83,2.83,0,0,1,.75.56,2.46,2.46,0,0,1,.5.87,3.53,3.53,0,0,1,.19,1.21v3.52a1.45,1.45,0,0,0,.2.89.86.86,0,0,0,.67.23h.13v1.19h-.81c-1,0-1.52-.39-1.69-1.17H83.1a3,3,0,0,1-1.24,1A4,4,0,0,1,80.25,97.32ZM80.64,96a2.31,2.31,0,0,0,1.83-.81A3.14,3.14,0,0,0,83.18,93l-2.28.46a2.9,2.9,0,0,0-1.25.46,1.16,1.16,0,0,0,0,1.76A1.69,1.69,0,0,0,80.64,96Z"/><path class="cls-7" d="M89.41,90a2.49,2.49,0,0,1,1.08-1.15,3.27,3.27,0,0,1,1.69-.46v1.56a2.9,2.9,0,0,0-2,.63,2.61,2.61,0,0,0-.69,2v4.58H87.78v-8.7h1.63Z"/></g><g class="cls-6"><path class="cls-7" d="M419.79,19.66h2.64v12.7h-2.64V27.14h-5.37v5.22h-2.64V19.66h2.64v5.18h5.37Z"/><path class="cls-7" d="M432.74,29.9a8.29,8.29,0,0,0,.22,2.21v.25h-2.37l-.2-1a2.84,2.84,0,0,1-1.27.87,4.48,4.48,0,0,1-1.63.29,3.74,3.74,0,0,1-.84-.08,2.55,2.55,0,0,1-.76-.27A2,2,0,0,1,424.83,31a3,3,0,0,1-.15-1,2.76,2.76,0,0,1,.16-1,2.36,2.36,0,0,1,.44-.73,2.61,2.61,0,0,1,.72-.54,5.35,5.35,0,0,1,.89-.39c.31-.1.66-.19,1.07-.28l1.49-.33a1.56,1.56,0,0,0,.67-.29.56.56,0,0,0,.2-.45.93.93,0,0,0-.44-.87,2.06,2.06,0,0,0-1.08-.27A1.55,1.55,0,0,0,427,26.27l-2.24-.4a3.06,3.06,0,0,1,1.31-2.06,5.24,5.24,0,0,1,2.84-.66c2.53,0,3.8,1.08,3.8,3.26Zm-4.46.92a2,2,0,0,0,1.56-.66,2.71,2.71,0,0,0,.61-1.93l-2.14.6a2.56,2.56,0,0,0-.9.37.76.76,0,0,0-.32.65.86.86,0,0,0,.34.72A1.34,1.34,0,0,0,428.28,30.82Z"/><path class="cls-7" d="M439.08,32.52a4.84,4.84,0,0,1-3.49-1.3,4.49,4.49,0,0,1-1.35-3.39,4.47,4.47,0,0,1,1.35-3.39A5.37,5.37,0,0,1,442,24a3.88,3.88,0,0,1,1.51,2.45l-2.34.25a2,2,0,0,0-.75-1.18,2.27,2.27,0,0,0-1.37-.4,2.11,2.11,0,0,0-1.66.74,2.89,2.89,0,0,0-.63,1.95,2.93,2.93,0,0,0,.63,2,2.11,2.11,0,0,0,1.66.74,2.21,2.21,0,0,0,1.36-.4,2,2,0,0,0,.76-1.18l2.34.25A3.88,3.88,0,0,1,442,31.64,4.79,4.79,0,0,1,439.08,32.52Z"/><path class="cls-7" d="M453.82,27.71l0,.6H447.1a2.2,2.2,0,0,0,2.31,2.23,2.29,2.29,0,0,0,1.19-.31,2,2,0,0,0,.76-.91l2.32.34a4,4,0,0,1-1.58,2.12,4.75,4.75,0,0,1-2.67.75,4.88,4.88,0,0,1-3.52-1.24,4.54,4.54,0,0,1-1.31-3.45,4.57,4.57,0,0,1,1.31-3.45,4.75,4.75,0,0,1,3.44-1.26,4.13,4.13,0,0,1,4.47,4.58Zm-4.45-2.79a2,2,0,0,0-2.2,1.74h4.15a1.84,1.84,0,0,0-1.95-1.74Z"/><path class="cls-7" d="M458.17,24.75a2.94,2.94,0,0,1,1.19-1.08,3.63,3.63,0,0,1,1.76-.45v2.25A3.46,3.46,0,0,0,459,26a2.39,2.39,0,0,0-.67,1.93v4.41h-2.54v-9h2.42Z"/><path class="cls-7" d="M416.82,41.53a3.56,3.56,0,0,1,2.71,1.11,4.15,4.15,0,0,1,0,5.47,3.58,3.58,0,0,1-2.71,1.08h-3V54H412V41.53Zm-.26,6.15a2.2,2.2,0,0,0,1.67-.63,2.67,2.67,0,0,0,0-3.37,2.18,2.18,0,0,0-1.67-.65h-2.78v4.65Z"/><path class="cls-7" d="M424.48,46.77a2.49,2.49,0,0,1,1.08-1.15,3.3,3.3,0,0,1,1.69-.46v1.56a2.92,2.92,0,0,0-2,.63,2.6,2.6,0,0,0-.68,2V54h-1.69v-8.7h1.63Z"/><path class="cls-7" d="M432.63,54.12a4.26,4.26,0,1,1,3.2-1.23A4.4,4.4,0,0,1,432.63,54.12Zm0-1.39a2.6,2.6,0,0,0,2-.86,3.28,3.28,0,0,0,.79-2.27,3.25,3.25,0,0,0-.79-2.27,2.63,2.63,0,0,0-2-.86,2.56,2.56,0,0,0-2,.86,3.2,3.2,0,0,0-.79,2.27,3.24,3.24,0,0,0,.79,2.27A2.53,2.53,0,0,0,432.61,52.73Z"/><path class="cls-7" d="M443.05,54.11a4.24,4.24,0,0,1-3.16-1.25,4.89,4.89,0,0,1,0-6.53,4.28,4.28,0,0,1,3.16-1.25,4.34,4.34,0,0,1,2.57.77A3.9,3.9,0,0,1,447.08,48l-1.57.23a2.61,2.61,0,0,0-.95-1.32,2.56,2.56,0,0,0-1.53-.46,2.48,2.48,0,0,0-1.94.86,3.76,3.76,0,0,0,0,4.53,2.46,2.46,0,0,0,1.94.87,2.63,2.63,0,0,0,1.53-.46,2.59,2.59,0,0,0,.95-1.33l1.57.24a3.87,3.87,0,0,1-1.47,2.16A4.35,4.35,0,0,1,443.05,54.11Z"/><path class="cls-7" d="M457,49.44l0,.45H450.2A3,3,0,0,0,451,52a2.63,2.63,0,0,0,1.91.73,2.52,2.52,0,0,0,1.38-.39,2.58,2.58,0,0,0,.95-1.11l1.53.3a3.83,3.83,0,0,1-1.49,1.89,4.14,4.14,0,0,1-2.36.69,4.29,4.29,0,0,1-3.17-1.2,5.13,5.13,0,0,1,0-6.62,4.23,4.23,0,0,1,3.12-1.22,4,4,0,0,1,3,1.12A4.4,4.4,0,0,1,457,49.44Zm-4.08-3.08a2.63,2.63,0,0,0-1.73.57,2.7,2.7,0,0,0-.89,1.67h5a2.45,2.45,0,0,0-.75-1.67A2.35,2.35,0,0,0,452.89,46.36Z"/><path class="cls-7" d="M462.07,54.12a4.24,4.24,0,0,1-2.38-.62,2.6,2.6,0,0,1-1.15-1.79l1.45-.42a1.91,1.91,0,0,0,.71,1.18,2.23,2.23,0,0,0,1.37.41,2.2,2.2,0,0,0,1.18-.31,1,1,0,0,0,.47-1,1.59,1.59,0,0,0-.07-.39.81.81,0,0,0-.22-.31l-.3-.23a1.84,1.84,0,0,0-.42-.2l-.46-.16-.56-.17-.57-.17a6.66,6.66,0,0,1-.88-.31,3.91,3.91,0,0,1-.72-.43,1.71,1.71,0,0,1-.56-.69,2.4,2.4,0,0,1-.18-1,2.1,2.1,0,0,1,.88-1.85,3.74,3.74,0,0,1,2.25-.63,4,4,0,0,1,2.15.56,2.43,2.43,0,0,1,1.07,1.71l-1.36.34a1.63,1.63,0,0,0-.65-1.06,2.27,2.27,0,0,0-2.32-.06,1,1,0,0,0-.46.87,1,1,0,0,0,.15.54,1.14,1.14,0,0,0,.45.38,4.54,4.54,0,0,0,.61.24,7.44,7.44,0,0,0,.75.21l.19.05c.33.08.61.16.83.23a4.94,4.94,0,0,1,.75.32,2.9,2.9,0,0,1,.68.48,2.15,2.15,0,0,1,.43.68,2.59,2.59,0,0,1,.17.95,2.76,2.76,0,0,1-.17,1,2.15,2.15,0,0,1-.48.74,2.74,2.74,0,0,1-.73.49,3.86,3.86,0,0,1-.89.29A6.36,6.36,0,0,1,462.07,54.12Z"/><path class="cls-7" d="M471.38,54.12a4.26,4.26,0,1,1,3.2-1.23A4.4,4.4,0,0,1,471.38,54.12Zm0-1.39a2.6,2.6,0,0,0,2-.86,3.24,3.24,0,0,0,.79-2.27,3.2,3.2,0,0,0-.79-2.27,2.63,2.63,0,0,0-2-.86,2.56,2.56,0,0,0-2,.86,3.25,3.25,0,0,0-.79,2.27,3.28,3.28,0,0,0,.79,2.27A2.53,2.53,0,0,0,471.36,52.73Z"/><path class="cls-7" d="M480.94,54.12a4.25,4.25,0,0,1-2.39-.62,2.6,2.6,0,0,1-1.15-1.79l1.45-.42a1.91,1.91,0,0,0,.71,1.18,2.25,2.25,0,0,0,1.37.41,2.18,2.18,0,0,0,1.18-.31,1,1,0,0,0,.47-1,1.59,1.59,0,0,0-.07-.39.81.81,0,0,0-.22-.31l-.3-.23a1.65,1.65,0,0,0-.42-.2l-.46-.16-.56-.17L480,50a7.22,7.22,0,0,1-.88-.31,3.91,3.91,0,0,1-.72-.43,1.71,1.71,0,0,1-.56-.69,2.4,2.4,0,0,1-.18-1,2.1,2.1,0,0,1,.88-1.85,3.74,3.74,0,0,1,2.25-.63,4,4,0,0,1,2.15.56A2.43,2.43,0,0,1,484,47.37l-1.36.34a1.63,1.63,0,0,0-.65-1.06,2.09,2.09,0,0,0-1.2-.35,2,2,0,0,0-1.11.29,1,1,0,0,0-.32,1.41,1.14,1.14,0,0,0,.45.38,4.54,4.54,0,0,0,.61.24c.2.07.46.14.75.21l.19.05c.33.08.61.16.83.23a5,5,0,0,1,.76.32,3,3,0,0,1,.67.48,2.15,2.15,0,0,1,.43.68,2.4,2.4,0,0,1,.17.95,2.55,2.55,0,0,1-.17,1,2.15,2.15,0,0,1-.48.74,2.59,2.59,0,0,1-.73.49,3.71,3.71,0,0,1-.89.29A6.33,6.33,0,0,1,480.94,54.12Z"/><path class="cls-7" d="M489.61,57.27l8.73-16.81H500l-8.73,16.81Z"/><path class="cls-7" d="M508.09,54.12a3.71,3.71,0,0,1-1.33-.23,2.1,2.1,0,0,1-1-.79,2.44,2.44,0,0,1-.37-1.36,2.52,2.52,0,0,1,.24-1.14,2,2,0,0,1,.72-.79,4.42,4.42,0,0,1,1-.49,8.53,8.53,0,0,1,1.32-.32l1.37-.24c.52-.1.79-.36.79-.8a1.43,1.43,0,0,0-.53-1.22,2.47,2.47,0,0,0-2.65,0,1.65,1.65,0,0,0-.63,1.21l-1.52-.31a2.75,2.75,0,0,1,1.12-1.9,4.22,4.22,0,0,1,2.44-.63,6.63,6.63,0,0,1,1,.08,3.84,3.84,0,0,1,.92.31,2.68,2.68,0,0,1,.75.56,2.46,2.46,0,0,1,.5.87,3.53,3.53,0,0,1,.19,1.21v3.52a1.45,1.45,0,0,0,.2.89.86.86,0,0,0,.67.23h.14V54h-.82c-1,0-1.52-.39-1.69-1.17h-.08a3,3,0,0,1-1.24,1A4,4,0,0,1,508.09,54.12Zm.39-1.34a2.31,2.31,0,0,0,1.83-.81,3.14,3.14,0,0,0,.71-2.16l-2.28.46a2.9,2.9,0,0,0-1.25.46,1,1,0,0,0-.42.88,1,1,0,0,0,.4.88A1.66,1.66,0,0,0,508.48,52.78Z"/><path class="cls-7" d="M519.11,54.11A4.24,4.24,0,0,1,516,52.86a4.89,4.89,0,0,1,0-6.53,4.28,4.28,0,0,1,3.16-1.25,4.34,4.34,0,0,1,2.57.77A3.85,3.85,0,0,1,523.14,48l-1.57.23a2.61,2.61,0,0,0-1-1.32,2.56,2.56,0,0,0-1.53-.46,2.48,2.48,0,0,0-1.94.86,3.76,3.76,0,0,0,0,4.53,2.46,2.46,0,0,0,1.94.87,2.63,2.63,0,0,0,1.53-.46,2.59,2.59,0,0,0,1-1.33l1.57.24a3.87,3.87,0,0,1-1.47,2.16A4.35,4.35,0,0,1,519.11,54.11Z"/><path class="cls-7" d="M528.17,54a2.36,2.36,0,0,1-1.74-.64,2.45,2.45,0,0,1-.64-1.79v-5H524V45.26h.64a1.3,1.3,0,0,0,1-.32,1.54,1.54,0,0,0,.3-1.07V42.36h1.55v2.9h2v1.32h-2v4.77a1.35,1.35,0,0,0,.32.95,1.15,1.15,0,0,0,.85.33h.8V54Z"/><path class="cls-7" d="M532.47,43.33a1.09,1.09,0,0,1-.77-.32,1.07,1.07,0,0,1-.33-.78,1,1,0,0,1,.33-.77,1.09,1.09,0,0,1,.77-.32,1.06,1.06,0,0,1,.77.32,1.1,1.1,0,0,1,0,1.55A1.07,1.07,0,0,1,532.47,43.33ZM531.61,54v-8.7h1.7V54Z"/><path class="cls-7" d="M541.8,45.26h1.8L540,54h-1.45L535,45.26h1.8L539.31,52Z"/><path class="cls-7" d="M546.19,43.33a1.1,1.1,0,0,1-.78-.32,1.07,1.07,0,0,1-.33-.78,1,1,0,0,1,.33-.77,1.1,1.1,0,0,1,.78-.32,1.11,1.11,0,0,1,1.09,1.09A1,1,0,0,1,547,43,1.07,1.07,0,0,1,546.19,43.33ZM545.32,54v-8.7H547V54Z"/><path class="cls-7" d="M556.42,40.46h1.69V54h-1.62l0-1.59a3,3,0,0,1-1.21,1.3,3.55,3.55,0,0,1-1.8.47,4,4,0,0,1-1.58-.32,3.83,3.83,0,0,1-1.31-.9,4.16,4.16,0,0,1-.88-1.44,5.14,5.14,0,0,1-.33-1.87,5,5,0,0,1,.56-2.39,4,4,0,0,1,1.49-1.59,3.91,3.91,0,0,1,2-.55,3.47,3.47,0,0,1,1.78.46,3,3,0,0,1,1.21,1.26ZM553.79,52.7a2.52,2.52,0,0,0,2-.88,3.47,3.47,0,0,0,0-4.42,2.52,2.52,0,0,0-2-.88,2.64,2.64,0,0,0-2,.85,3.56,3.56,0,0,0,0,4.47A2.61,2.61,0,0,0,553.79,52.7Z"/><path class="cls-7" d="M563.16,54.12a3.67,3.67,0,0,1-1.33-.23,2.1,2.1,0,0,1-1-.79,2.37,2.37,0,0,1-.38-1.36,2.4,2.4,0,0,1,.25-1.14,2,2,0,0,1,.72-.79,4.35,4.35,0,0,1,1-.49A8.53,8.53,0,0,1,563.8,49l1.37-.24c.53-.1.79-.36.79-.8a1.4,1.4,0,0,0-.53-1.22,2.14,2.14,0,0,0-1.31-.39,2.19,2.19,0,0,0-1.34.38,1.64,1.64,0,0,0-.62,1.21l-1.53-.31a2.76,2.76,0,0,1,1.13-1.9,4.17,4.17,0,0,1,2.43-.63,6.53,6.53,0,0,1,1,.08,3.7,3.7,0,0,1,.92.31,2.73,2.73,0,0,1,.76.56,2.8,2.8,0,0,1,.5.87,3.79,3.79,0,0,1,.19,1.21v3.52a1.46,1.46,0,0,0,.19.89.88.88,0,0,0,.68.23h.13V54h-.82a1.5,1.5,0,0,1-1.69-1.17H566a3,3,0,0,1-1.24,1A3.91,3.91,0,0,1,563.16,54.12Zm.38-1.34a2.35,2.35,0,0,0,1.84-.81,3.14,3.14,0,0,0,.7-2.16l-2.27.46a3,3,0,0,0-1.26.46,1,1,0,0,0-.41.88,1,1,0,0,0,.39.88A1.68,1.68,0,0,0,563.54,52.78Z"/><path class="cls-7" d="M576.89,40.46h1.68V54H577l-.05-1.59a3,3,0,0,1-1.21,1.3,3.55,3.55,0,0,1-1.8.47,4,4,0,0,1-1.58-.32,3.83,3.83,0,0,1-1.31-.9,4.16,4.16,0,0,1-.88-1.44,5.14,5.14,0,0,1-.33-1.87,5,5,0,0,1,.56-2.39,4,4,0,0,1,1.49-1.59,3.91,3.91,0,0,1,2-.55,3.47,3.47,0,0,1,1.78.46,3.08,3.08,0,0,1,1.22,1.26ZM574.25,52.7a2.52,2.52,0,0,0,2-.88,3.47,3.47,0,0,0,0-4.42,2.52,2.52,0,0,0-2-.88,2.6,2.6,0,0,0-2,.85,3.52,3.52,0,0,0,0,4.47A2.58,2.58,0,0,0,574.25,52.7Z"/><path class="cls-7" d="M589.31,49.44l0,.45h-6.74a3,3,0,0,0,.8,2.12,2.65,2.65,0,0,0,1.91.73,2.53,2.53,0,0,0,1.39-.39,2.58,2.58,0,0,0,1-1.11l1.53.3a3.89,3.89,0,0,1-1.49,1.89,4.16,4.16,0,0,1-2.36.69,4.33,4.33,0,0,1-3.18-1.2,5.12,5.12,0,0,1,0-6.62,4.23,4.23,0,0,1,3.12-1.22,4,4,0,0,1,3,1.12A4.39,4.39,0,0,1,589.31,49.44Zm-4.07-3.08a2.48,2.48,0,0,0-2.62,2.24h5a2.45,2.45,0,0,0-.75-1.67A2.37,2.37,0,0,0,585.24,46.36Z"/><path class="cls-7" d="M594.42,54.12A4.19,4.19,0,0,1,592,53.5a2.57,2.57,0,0,1-1.15-1.79l1.45-.42a1.9,1.9,0,0,0,.7,1.18,2.27,2.27,0,0,0,1.37.41,2.22,2.22,0,0,0,1.19-.31,1,1,0,0,0,.46-1,1.23,1.23,0,0,0-.07-.39.71.71,0,0,0-.22-.31,2,2,0,0,0-.3-.23,1.65,1.65,0,0,0-.42-.2l-.46-.16-.55-.17-.58-.17a7.89,7.89,0,0,1-.88-.31,4.7,4.7,0,0,1-.72-.43,1.69,1.69,0,0,1-.55-.69,2.4,2.4,0,0,1-.19-1,2.13,2.13,0,0,1,.88-1.85,3.79,3.79,0,0,1,2.25-.63,3.93,3.93,0,0,1,2.15.56,2.48,2.48,0,0,1,1.08,1.71l-1.36.34a1.61,1.61,0,0,0-.66-1.06,2.25,2.25,0,0,0-2.31-.06,1.05,1.05,0,0,0-.31,1.41,1.14,1.14,0,0,0,.45.38,5,5,0,0,0,.6.24c.21.07.46.14.76.21l.18.05c.34.08.62.16.84.23a5.4,5.4,0,0,1,.75.32,2.82,2.82,0,0,1,.67.48,2,2,0,0,1,.43.68,2.4,2.4,0,0,1,.18.95,2.55,2.55,0,0,1-.18,1,1.9,1.9,0,0,1-.48.74,2.69,2.69,0,0,1-.72.49,3.86,3.86,0,0,1-.89.29A6.46,6.46,0,0,1,594.42,54.12Z"/><path class="cls-7" d="M416.82,63.13a3.56,3.56,0,0,1,2.71,1.11,4.15,4.15,0,0,1,0,5.47,3.58,3.58,0,0,1-2.71,1.08h-3v4.77H412V63.13Zm-.26,6.15a2.2,2.2,0,0,0,1.67-.63,2.67,2.67,0,0,0,0-3.37,2.18,2.18,0,0,0-1.67-.65h-2.78v4.65Z"/><path class="cls-7" d="M424.48,68.37a2.54,2.54,0,0,1,1.08-1.15,3.4,3.4,0,0,1,1.69-.46v1.56a2.92,2.92,0,0,0-2,.63,2.6,2.6,0,0,0-.68,2v4.58h-1.69v-8.7h1.63Z"/><path class="cls-7" d="M432.63,75.72a4.26,4.26,0,1,1,3.2-1.23A4.4,4.4,0,0,1,432.63,75.72Zm0-1.38a2.61,2.61,0,0,0,2-.87,3.66,3.66,0,0,0,0-4.54,2.63,2.63,0,0,0-2-.86,2.56,2.56,0,0,0-2,.86,3.66,3.66,0,0,0,0,4.54A2.54,2.54,0,0,0,432.61,74.34Z"/><path class="cls-7" d="M445.76,62.06h1.69v13.5h-1.63l0-1.59a3,3,0,0,1-1.21,1.3,3.56,3.56,0,0,1-1.81.47,4.06,4.06,0,0,1-1.58-.32,3.8,3.8,0,0,1-1.3-.9,4.34,4.34,0,0,1-.89-1.44,5.36,5.36,0,0,1-.32-1.87,4.88,4.88,0,0,1,.56-2.39,4,4,0,0,1,1.49-1.59,3.9,3.9,0,0,1,2-.55,3.48,3.48,0,0,1,1.79.46,3.06,3.06,0,0,1,1.21,1.26ZM443.12,74.3a2.51,2.51,0,0,0,2-.88,3.45,3.45,0,0,0,0-4.42,2.52,2.52,0,0,0-2-.88,2.62,2.62,0,0,0-2,.85,3.56,3.56,0,0,0,0,4.47A2.59,2.59,0,0,0,443.12,74.3Z"/><path class="cls-7" d="M456,66.86h1.69v8.7H456l0-1.13a2.92,2.92,0,0,1-1.1,1,3.44,3.44,0,0,1-1.53.33,3.11,3.11,0,0,1-2.23-.78,2.94,2.94,0,0,1-.82-2.23V66.86H452v5.48a2,2,0,0,0,.52,1.49,1.9,1.9,0,0,0,1.33.49,2.06,2.06,0,0,0,1.51-.58A2.42,2.42,0,0,0,456,72Z"/><path class="cls-7" d="M464.32,75.72a4.27,4.27,0,0,1-3.16-1.26,4.92,4.92,0,0,1,0-6.53,4.3,4.3,0,0,1,3.16-1.25,4.35,4.35,0,0,1,2.58.77,3.9,3.9,0,0,1,1.46,2.17l-1.57.23a2.51,2.51,0,0,0-2.48-1.78,2.48,2.48,0,0,0-1.94.86,3.76,3.76,0,0,0,0,4.53,2.46,2.46,0,0,0,1.94.87,2.66,2.66,0,0,0,1.53-.46,2.59,2.59,0,0,0,1-1.33l1.57.24a3.87,3.87,0,0,1-1.47,2.16A4.3,4.3,0,0,1,464.32,75.72Z"/><path class="cls-7" d="M473.39,75.56a2.32,2.32,0,0,1-1.74-.64,2.39,2.39,0,0,1-.64-1.79V68.18h-1.77V66.86h.64a1.3,1.3,0,0,0,1-.32,1.54,1.54,0,0,0,.29-1.07V64h1.56v2.9h2v1.32h-2V73a1.34,1.34,0,0,0,.32.94,1.13,1.13,0,0,0,.85.33h.8v1.33Z"/><path class="cls-7" d="M480.48,75.72a4.26,4.26,0,1,1,3.2-1.23A4.38,4.38,0,0,1,480.48,75.72Zm0-1.38a2.57,2.57,0,0,0,2-.87,3.62,3.62,0,0,0,0-4.54,2.59,2.59,0,0,0-2-.86,2.57,2.57,0,0,0-2,.86,3.69,3.69,0,0,0,0,4.54A2.54,2.54,0,0,0,480.46,74.34Z"/><path class="cls-7" d="M490,75.72a4.22,4.22,0,0,1-2.38-.62,2.57,2.57,0,0,1-1.15-1.79l1.45-.42a1.84,1.84,0,0,0,.71,1.18,2.22,2.22,0,0,0,1.36.41,2.13,2.13,0,0,0,1.19-.31,1,1,0,0,0,.47-1,1.59,1.59,0,0,0-.07-.39.93.93,0,0,0-.22-.31l-.3-.23a2.08,2.08,0,0,0-.42-.2l-.47-.16-.55-.17-.58-.17a7,7,0,0,1-.87-.31,4.34,4.34,0,0,1-.73-.43,1.69,1.69,0,0,1-.55-.69,2.4,2.4,0,0,1-.18-1,2.11,2.11,0,0,1,.88-1.85,3.74,3.74,0,0,1,2.25-.63,3.92,3.92,0,0,1,2.14.56A2.41,2.41,0,0,1,493.09,69l-1.36.34a1.61,1.61,0,0,0-.66-1.06,2,2,0,0,0-1.2-.35,2.08,2.08,0,0,0-1.11.29,1.05,1.05,0,0,0-.31,1.41,1.14,1.14,0,0,0,.45.38,3.75,3.75,0,0,0,.6.24c.21.07.46.14.76.21l.19,0c.33.08.61.16.83.23A4.54,4.54,0,0,1,492,71a2.55,2.55,0,0,1,.67.47,2,2,0,0,1,.43.68,2.4,2.4,0,0,1,.18,1,2.55,2.55,0,0,1-.18,1,2,2,0,0,1-.47.74,2.67,2.67,0,0,1-.73.49,3.86,3.86,0,0,1-.89.29A6.36,6.36,0,0,1,490,75.72Z"/><path class="cls-7" d="M498.71,78.87l8.72-16.81h1.62l-8.73,16.81Z"/><path class="cls-7" d="M518,75.72a4.22,4.22,0,0,1-2.38-.62,2.57,2.57,0,0,1-1.15-1.79l1.45-.42a1.89,1.89,0,0,0,.71,1.18,2.22,2.22,0,0,0,1.36.41,2.13,2.13,0,0,0,1.19-.31,1,1,0,0,0,.47-1,1.59,1.59,0,0,0-.07-.39.93.93,0,0,0-.22-.31l-.3-.23a2.08,2.08,0,0,0-.42-.2l-.47-.16-.55-.17-.58-.17a7,7,0,0,1-.87-.31,3.91,3.91,0,0,1-.72-.43,1.64,1.64,0,0,1-.56-.69,2.4,2.4,0,0,1-.18-1,2.11,2.11,0,0,1,.88-1.85,3.74,3.74,0,0,1,2.25-.63,3.89,3.89,0,0,1,2.14.56A2.41,2.41,0,0,1,521,69l-1.36.34a1.61,1.61,0,0,0-.66-1.06,2,2,0,0,0-1.2-.35,2.08,2.08,0,0,0-1.11.29,1,1,0,0,0-.46.87,1,1,0,0,0,.15.54,1.14,1.14,0,0,0,.45.38,3.51,3.51,0,0,0,.61.24,7.44,7.44,0,0,0,.75.21l.19,0c.33.08.61.16.83.23A4.54,4.54,0,0,1,520,71a2.55,2.55,0,0,1,.67.47,2.16,2.16,0,0,1,.44.68,2.59,2.59,0,0,1,.17,1,2.76,2.76,0,0,1-.17,1,2.15,2.15,0,0,1-.48.74,2.67,2.67,0,0,1-.73.49,3.86,3.86,0,0,1-.89.29A6.36,6.36,0,0,1,518,75.72Z"/><path class="cls-7" d="M531.26,71l0,.45h-6.75a3,3,0,0,0,.81,2.12,2.65,2.65,0,0,0,1.91.73A2.53,2.53,0,0,0,528.6,74a2.58,2.58,0,0,0,.95-1.11l1.53.3A3.89,3.89,0,0,1,529.59,75a4.16,4.16,0,0,1-2.36.69,4.33,4.33,0,0,1-3.18-1.2,5.13,5.13,0,0,1,0-6.62,4.23,4.23,0,0,1,3.12-1.22,4,4,0,0,1,3,1.12A4.39,4.39,0,0,1,531.26,71ZM527.18,68a2.65,2.65,0,0,0-1.73.57,2.7,2.7,0,0,0-.89,1.67h5a2.47,2.47,0,0,0-.75-1.67A2.37,2.37,0,0,0,527.18,68Z"/><path class="cls-7" d="M535.2,68.37a2.54,2.54,0,0,1,1.08-1.15,3.37,3.37,0,0,1,1.69-.46v1.56a2.89,2.89,0,0,0-2,.63,2.61,2.61,0,0,0-.69,2v4.58h-1.69v-8.7h1.64Z"/><path class="cls-7" d="M545.39,66.86h1.8l-3.57,8.7h-1.45l-3.55-8.7h1.79l2.49,6.75Z"/><path class="cls-7" d="M549.77,64.93a1.1,1.1,0,0,1-.78-.32,1.07,1.07,0,0,1-.33-.78,1,1,0,0,1,.33-.77,1.1,1.1,0,0,1,.78-.32,1.06,1.06,0,0,1,.77.32,1.1,1.1,0,0,1,0,1.55A1.09,1.09,0,0,1,549.77,64.93Zm-.86,10.63v-8.7h1.7v8.7Z"/><path class="cls-7" d="M557.29,75.72a4.23,4.23,0,0,1-3.15-1.26,4.89,4.89,0,0,1,0-6.53,4.26,4.26,0,0,1,3.15-1.25,4.35,4.35,0,0,1,2.58.77,3.9,3.9,0,0,1,1.46,2.17l-1.57.23a2.51,2.51,0,0,0-2.48-1.78,2.48,2.48,0,0,0-1.94.86,3.76,3.76,0,0,0,0,4.53,2.46,2.46,0,0,0,1.94.87,2.66,2.66,0,0,0,1.53-.46,2.59,2.59,0,0,0,1-1.33l1.57.24a3.87,3.87,0,0,1-1.47,2.16A4.3,4.3,0,0,1,557.29,75.72Z"/><path class="cls-7" d="M564.36,64.93a1.1,1.1,0,0,1-.78-.32,1.07,1.07,0,0,1-.33-.78,1,1,0,0,1,.33-.77,1.1,1.1,0,0,1,.78-.32,1.06,1.06,0,0,1,.77.32,1.1,1.1,0,0,1,0,1.55A1.09,1.09,0,0,1,564.36,64.93Zm-.86,10.63v-8.7h1.7v8.7Z"/><path class="cls-7" d="M572,75.72a4.27,4.27,0,0,1-4.46-4.52A4.26,4.26,0,0,1,572,66.68a4.34,4.34,0,0,1,3.19,1.23,5,5,0,0,1,0,6.58A4.34,4.34,0,0,1,572,75.72Zm0-1.38a2.58,2.58,0,0,0,2-.87,3.66,3.66,0,0,0,0-4.54,2.61,2.61,0,0,0-2-.86,2.57,2.57,0,0,0-2,.86,3.69,3.69,0,0,0,0,4.54A2.54,2.54,0,0,0,571.94,74.34Z"/><path class="cls-7" d="M581.51,75.72a4.19,4.19,0,0,1-2.38-.62A2.54,2.54,0,0,1,578,73.31l1.45-.42a1.88,1.88,0,0,0,.7,1.18,2.27,2.27,0,0,0,1.37.41,2.15,2.15,0,0,0,1.19-.31,1,1,0,0,0,.46-1,1.23,1.23,0,0,0-.07-.39.71.71,0,0,0-.22-.31,2,2,0,0,0-.3-.23,1.65,1.65,0,0,0-.42-.2l-.46-.16-.55-.17-.58-.17a7.89,7.89,0,0,1-.88-.31,4.7,4.7,0,0,1-.72-.43,1.69,1.69,0,0,1-.55-.69,2.24,2.24,0,0,1-.19-1,2.14,2.14,0,0,1,.88-1.85,3.79,3.79,0,0,1,2.25-.63,3.93,3.93,0,0,1,2.15.56A2.48,2.48,0,0,1,584.57,69l-1.36.34a1.61,1.61,0,0,0-.66-1.06,2.25,2.25,0,0,0-2.31-.06,1.05,1.05,0,0,0-.31,1.41,1.14,1.14,0,0,0,.45.38,3.41,3.41,0,0,0,.6.24c.21.07.46.14.76.21l.18,0c.34.08.61.16.84.23a4.54,4.54,0,0,1,.75.33,2.55,2.55,0,0,1,.67.47,2.15,2.15,0,0,1,.43.68,2.4,2.4,0,0,1,.18,1,2.55,2.55,0,0,1-.18,1,2.15,2.15,0,0,1-.48.74,2.48,2.48,0,0,1-.72.49,3.86,3.86,0,0,1-.89.29A6.46,6.46,0,0,1,581.51,75.72Z"/></g></g></g></svg>