<svg xmlns="http://www.w3.org/2000/svg" xmlns:xlink="http://www.w3.org/1999/xlink" width="88.853" height="692.405" viewBox="0 0 88.853 692.405">
  <defs>
    <filter id="Trazado_1178" x="1.98" y="77" width="86.873" height="90.663" filterUnits="userSpaceOnUse">
      <feOffset dy="10" input="SourceAlpha"/>
      <feGaussianBlur stdDeviation="3" result="blur"/>
      <feFlood flood-opacity="0.161"/>
      <feComposite operator="in" in2="blur"/>
      <feComposite in="SourceGraphic"/>
    </filter>
    <filter id="Trazado_1178-2" x="1.98" y="213.697" width="86.873" height="90.663" filterUnits="userSpaceOnUse">
      <feOffset dy="10" input="SourceAlpha"/>
      <feGaussianBlur stdDeviation="3" result="blur-2"/>
      <feFlood flood-opacity="0.161"/>
      <feComposite operator="in" in2="blur-2"/>
      <feComposite in="SourceGraphic"/>
    </filter>
    <filter id="Trazado_1178-3" x="0" y="350.661" width="86.873" height="90.663" filterUnits="userSpaceOnUse">
      <feOffset dy="10" input="SourceAlpha"/>
      <feGaussianBlur stdDeviation="3" result="blur-3"/>
      <feFlood flood-opacity="0.161"/>
      <feComposite operator="in" in2="blur-3"/>
      <feComposite in="SourceGraphic"/>
    </filter>
    <filter id="Trazado_1178-4" x="0" y="449.123" width="86.873" height="90.663" filterUnits="userSpaceOnUse">
      <feOffset dy="10" input="SourceAlpha"/>
      <feGaussianBlur stdDeviation="3" result="blur-4"/>
      <feFlood flood-opacity="0.161"/>
      <feComposite operator="in" in2="blur-4"/>
      <feComposite in="SourceGraphic"/>
    </filter>
    <filter id="Trazado_1178-5" x="1.98" y="559.596" width="86.873" height="90.663" filterUnits="userSpaceOnUse">
      <feOffset dy="10" input="SourceAlpha"/>
      <feGaussianBlur stdDeviation="3" result="blur-5"/>
      <feFlood flood-opacity="0.161"/>
      <feComposite operator="in" in2="blur-5"/>
      <feComposite in="SourceGraphic"/>
    </filter>
  </defs>
  <g id="Grupo_37543" data-name="Grupo 37543" transform="translate(-323.375 -3081.5)">
    <g id="Grupo_37529" data-name="Grupo 37529">
      <g id="Grupo_36349" data-name="Grupo 36349" transform="translate(1568.849 6888)">
        <g id="Grupo_36343" data-name="Grupo 36343" transform="translate(5340 -4144.5) rotate(90)">
          <g id="Grupo_28173" data-name="Grupo 28173" transform="translate(345 6536)">
            <line id="Línea_368" data-name="Línea 368" y1="2" x2="685.4" fill="none" stroke="#15579f" stroke-width="3"/>
          </g>
          <g id="Elipse_968" data-name="Elipse 968" transform="translate(338 6528)" fill="#15579f" stroke="#707070" stroke-width="1">
            <ellipse cx="9" cy="10" rx="9" ry="10" stroke="none"/>
            <ellipse cx="9" cy="10" rx="8.5" ry="9.5" fill="none"/>
          </g>
        </g>
        <g id="Grupo_36344" data-name="Grupo 36344" transform="translate(-1238.849 -3733.349)">
          <g id="Grupo_27001" data-name="Grupo 27001" transform="translate(0 0)">
            <g id="Grupo_14735" data-name="Grupo 14735">
              <ellipse id="Elipse_497" data-name="Elipse 497" cx="38.49" cy="40.049" rx="38.49" ry="40.049" fill="#8acc59"/>
              <g transform="matrix(1, 0, 0, 1, -6.62, -73.15)" filter="url(#Trazado_1178)">
                <path id="Trazado_1178-6" data-name="Trazado 1178" d="M34.436,0C53.455,0,68.873,16.042,68.873,35.832A36.662,36.662,0,0,1,59.951,59.9,33.661,33.661,0,0,1,34.436,71.663C15.418,71.663,0,55.621,0,35.832S15.418,0,34.436,0Z" transform="translate(10.98 77)" fill="#8acc59"/>
              </g>
            </g>
          </g>
          <path id="Trazado_100893" data-name="Trazado 100893" d="M3.744,15.633V10.518a33.309,33.309,0,0,0,4.983-.475,7.029,7.029,0,0,0,3.691-2A6.6,6.6,0,0,0,13.9,5.3a6.3,6.3,0,0,0,.29-1.529h6.249V42h-7.7V15.633Z" transform="translate(22.849 8.349)" fill="#fff"/>
        </g>
        <g id="Grupo_36345" data-name="Grupo 36345" transform="translate(-1238.849 -3596.651)">
          <g id="Grupo_27001-2" data-name="Grupo 27001" transform="translate(0 0)">
            <g id="Grupo_14735-2" data-name="Grupo 14735">
              <ellipse id="Elipse_497-2" data-name="Elipse 497" cx="38.49" cy="40.049" rx="38.49" ry="40.049" fill="#c3cc59"/>
              <g transform="matrix(1, 0, 0, 1, -6.62, -209.85)" filter="url(#Trazado_1178-2)">
                <path id="Trazado_1178-7" data-name="Trazado 1178" d="M34.436,0C53.455,0,68.873,16.042,68.873,35.832A36.662,36.662,0,0,1,59.951,59.9,33.661,33.661,0,0,1,34.436,71.663C15.418,71.663,0,55.621,0,35.832S15.418,0,34.436,0Z" transform="translate(10.98 213.7)" fill="#c3cc59"/>
              </g>
            </g>
          </g>
          <path id="Trazado_100894" data-name="Trazado 100894" d="M1.688,42a17.965,17.965,0,0,1,1.767-7.515q1.608-3.823,7.594-8.095a55.688,55.688,0,0,0,6.724-5.326,7.871,7.871,0,0,0,2.347-5.484,6.076,6.076,0,0,0-1.345-4.034,4.736,4.736,0,0,0-3.85-1.608q-3.428,0-4.667,2.558a12.685,12.685,0,0,0-.844,4.693h-7.3A18.471,18.471,0,0,1,3.876,9.3Q6.882,3.583,14.555,3.583q6.064,0,9.65,3.362a11.624,11.624,0,0,1,3.586,8.9,12.047,12.047,0,0,1-2.531,7.541A25.218,25.218,0,0,1,19.8,28.263L16.8,30.4q-2.821,2-3.863,2.9a8.5,8.5,0,0,0-1.753,2.083H27.87V42Z" transform="translate(23.849 7.651)" fill="#fff"/>
        </g>
        <g id="Grupo_36346" data-name="Grupo 36346" transform="translate(-1240.829 -3459.688)">
          <g id="Grupo_27001-3" data-name="Grupo 27001" transform="translate(0 0)">
            <g id="Grupo_14735-3" data-name="Grupo 14735">
              <ellipse id="Elipse_497-3" data-name="Elipse 497" cx="38.49" cy="40.049" rx="38.49" ry="40.049" fill="#cccc59"/>
              <g transform="matrix(1, 0, 0, 1, -4.64, -346.81)" filter="url(#Trazado_1178-3)">
                <path id="Trazado_1178-8" data-name="Trazado 1178" d="M34.436,0C53.455,0,68.873,16.042,68.873,35.832A36.662,36.662,0,0,1,59.951,59.9,33.661,33.661,0,0,1,34.436,71.663C15.418,71.663,0,55.621,0,35.832S15.418,0,34.436,0Z" transform="translate(9 350.66)" fill="#cccc59"/>
              </g>
            </g>
          </g>
          <path id="Trazado_100895" data-name="Trazado 100895" d="M8.807,30.267a8.6,8.6,0,0,0,.738,3.8q1.371,2.769,4.983,2.769a5.522,5.522,0,0,0,3.863-1.516,5.633,5.633,0,0,0,1.648-4.364q0-3.771-3.059-5.036A15.526,15.526,0,0,0,11.5,25.2V19.825a14.229,14.229,0,0,0,5.115-.712q2.5-1.107,2.5-4.482a5.01,5.01,0,0,0-1.279-3.56,4.68,4.68,0,0,0-3.6-1.371,4.555,4.555,0,0,0-3.916,1.688,7.159,7.159,0,0,0-1.2,4.509H2.109a18.859,18.859,0,0,1,.976-5.405,12.167,12.167,0,0,1,2.9-4.14A10.1,10.1,0,0,1,9.492,4.295a15.176,15.176,0,0,1,4.983-.712,13.262,13.262,0,0,1,8.846,2.834,9.441,9.441,0,0,1,3.362,7.607,8.41,8.41,0,0,1-2,5.7A6.843,6.843,0,0,1,22.043,21.7q1.028,0,2.953,1.767a9.434,9.434,0,0,1,2.874,7.277,12.257,12.257,0,0,1-3.362,8.53q-3.362,3.678-9.954,3.678-8.121,0-11.285-5.3a15.73,15.73,0,0,1-1.846-7.383Z" transform="translate(23.849 7.688)" fill="#fff"/>
        </g>
        <g id="Grupo_36347" data-name="Grupo 36347" transform="translate(-1240.829 -3361.226)">
          <g id="Grupo_27001-4" data-name="Grupo 27001" transform="translate(0 0)">
            <g id="Grupo_14735-4" data-name="Grupo 14735">
              <ellipse id="Elipse_497-4" data-name="Elipse 497" cx="38.49" cy="40.049" rx="38.49" ry="40.049" fill="#e2c944"/>
              <g transform="matrix(1, 0, 0, 1, -4.64, -445.27)" filter="url(#Trazado_1178-4)">
                <path id="Trazado_1178-9" data-name="Trazado 1178" d="M34.436,0C53.455,0,68.873,16.042,68.873,35.832A36.662,36.662,0,0,1,59.951,59.9,33.661,33.661,0,0,1,34.436,71.663C15.418,71.663,0,55.621,0,35.832S15.418,0,34.436,0Z" transform="translate(9 449.12)" fill="#e2c944"/>
              </g>
            </g>
          </g>
          <path id="Trazado_100896" data-name="Trazado 100896" d="M28.239,33.773H23.915V42H16.559V33.773H1.424V27.208L15.478,4h8.438V27.894h4.324Zm-11.681-5.88V11.388L6.987,27.894Z" transform="translate(20.849 8.226)" fill="#fff"/>
        </g>
        <g id="Grupo_36348" data-name="Grupo 36348" transform="translate(-1238.849 -3250.752)">
          <g id="Grupo_27001-5" data-name="Grupo 27001" transform="translate(0 0)">
            <g id="Grupo_14735-5" data-name="Grupo 14735">
              <ellipse id="Elipse_497-5" data-name="Elipse 497" cx="38.49" cy="40.049" rx="38.49" ry="40.049" fill="#ffc74a"/>
              <g transform="matrix(1, 0, 0, 1, -6.62, -555.75)" filter="url(#Trazado_1178-5)">
                <path id="Trazado_1178-10" data-name="Trazado 1178" d="M34.436,0C53.455,0,68.873,16.042,68.873,35.832A36.662,36.662,0,0,1,59.951,59.9,33.661,33.661,0,0,1,34.436,71.663C15.418,71.663,0,55.621,0,35.832S15.418,0,34.436,0Z" transform="translate(10.98 559.6)" fill="#ffc74a"/>
              </g>
            </g>
          </g>
          <path id="Trazado_100897" data-name="Trazado 100897" d="M8.912,31.77a7.252,7.252,0,0,0,1.714,3.784,4.855,4.855,0,0,0,3.691,1.332,4.982,4.982,0,0,0,4.258-1.964,8.048,8.048,0,0,0,1.463-4.944,8.589,8.589,0,0,0-1.371-4.944A4.8,4.8,0,0,0,14.4,23.016a7.35,7.35,0,0,0-2.373.343A4.717,4.717,0,0,0,9.36,25.705l-6.75-.316L5.3,4.269H26.367v6.381H10.731L9.36,19.008a15.71,15.71,0,0,1,2.716-1.5,11.5,11.5,0,0,1,3.981-.606,11.959,11.959,0,0,1,8.279,3.19q3.533,3.19,3.533,9.281a14.561,14.561,0,0,1-3.4,9.466Q21.067,43,14.291,43a13.518,13.518,0,0,1-8.965-2.927,11.37,11.37,0,0,1-3.9-8.306Z" transform="translate(23.245 8.627)" fill="#fff"/>
        </g>
      </g>
    </g>
  </g>
</svg>
