<svg xmlns="http://www.w3.org/2000/svg" width="178" height="90" viewBox="0 0 178 90">
  <g id="Grupo_36358" data-name="Grupo 36358" transform="translate(-627 -4704)">
    <g id="Rectángulo_31688" data-name="Rectángulo 31688" transform="translate(627 4704)" fill="#15579f" stroke="#15579f" stroke-width="3">
      <rect width="178" height="90" rx="15" stroke="none"/>
      <rect x="1.5" y="1.5" width="175" height="87" rx="13.5" fill="none"/>
    </g>
    <path id="Trazado_100899" data-name="Trazado 100899" d="M20.225,3.785H11.084V7.453h8.391v3H11.084v4.441h9.563V18H7.557V.727H20.225ZM21.936,18l4.359-6.469L22.123,5.25h4.09l2.133,3.7,2.086-3.7H34.4l-4.2,6.223L34.568,18h-4.16l-2.2-3.832L25.99,18Zm23.4-6.387A5.027,5.027,0,0,0,44.664,9a2.346,2.346,0,0,0-2.186-1.137,2.487,2.487,0,0,0-2.5,1.723,6.534,6.534,0,0,0-.352,2.32,3.7,3.7,0,0,0,1.184,3.129,2.7,2.7,0,0,0,1.664.527,2.411,2.411,0,0,0,2.127-1.078A5.028,5.028,0,0,0,45.338,11.613Zm-1.9-6.668A5,5,0,0,1,47.23,6.6a6.837,6.837,0,0,1,1.553,4.852,7.7,7.7,0,0,1-1.518,5.145,4.913,4.913,0,0,1-3.908,1.77,4.079,4.079,0,0,1-2.531-.762,4.911,4.911,0,0,1-1.078-1.23v6.656h-3.3V5.227h3.2V7.113A5.362,5.362,0,0,1,40.791,5.8,4.22,4.22,0,0,1,43.439,4.945Zm12.8,2.7a2.268,2.268,0,0,0-1.8.727,3.627,3.627,0,0,0-.8,1.969h5.191a2.907,2.907,0,0,0-.8-2.01A2.493,2.493,0,0,0,56.236,7.641Zm0-2.754a6.694,6.694,0,0,1,2.871.6,5.03,5.03,0,0,1,2.109,1.887,6.437,6.437,0,0,1,.973,2.637,17.028,17.028,0,0,1,.105,2.531H53.553a3.174,3.174,0,0,0,1.207,2.7,2.843,2.843,0,0,0,1.664.48,2.4,2.4,0,0,0,1.676-.586,2.783,2.783,0,0,0,.621-.879h3.41a4.237,4.237,0,0,1-1.184,2.309,5.8,5.8,0,0,1-4.594,1.863,6.478,6.478,0,0,1-4.3-1.57q-1.863-1.57-1.863-5.109a7.1,7.1,0,0,1,1.682-5.086A5.75,5.75,0,0,1,56.236,4.887ZM72.174,9.809a2.964,2.964,0,0,0-.48-1.289,2.014,2.014,0,0,0-1.746-.773,2.3,2.3,0,0,0-2.309,1.676,7.006,7.006,0,0,0-.328,2.367,6.442,6.442,0,0,0,.328,2.262,2.229,2.229,0,0,0,2.25,1.594,1.984,1.984,0,0,0,1.664-.633,3.15,3.15,0,0,0,.6-1.641h3.41a5.587,5.587,0,0,1-1.1,2.883,5.355,5.355,0,0,1-4.652,2.191,5.442,5.442,0,0,1-4.535-1.828,7.4,7.4,0,0,1-1.453-4.746A7.506,7.506,0,0,1,65.424,6.75a5.588,5.588,0,0,1,4.43-1.828A6.67,6.67,0,0,1,73.785,6,5.014,5.014,0,0,1,75.6,9.809ZM76.58,7.723V5.344h1.781V1.781h3.3V5.344H83.74V7.723H81.666v6.75a1.52,1.52,0,0,0,.2.979,2.194,2.194,0,0,0,1.219.193q.152,0,.322-.006t.334-.018v2.5l-1.582.059q-2.367.082-3.234-.82a2.442,2.442,0,0,1-.562-1.77V7.723Zm16.348,4.066a3.629,3.629,0,0,1-.639.322,5.341,5.341,0,0,1-.885.229l-.75.141a4.843,4.843,0,0,0-1.512.457,1.532,1.532,0,0,0-.773,1.418,1.493,1.493,0,0,0,.475,1.236A1.786,1.786,0,0,0,90,15.973a3.4,3.4,0,0,0,1.986-.633,2.7,2.7,0,0,0,.943-2.309ZM90.9,10.23a5.213,5.213,0,0,0,1.324-.293,1,1,0,0,0,.715-.949A1.126,1.126,0,0,0,92.395,7.9a3.4,3.4,0,0,0-1.6-.3,2.084,2.084,0,0,0-1.676.586,2.435,2.435,0,0,0-.469,1.172H85.428a4.9,4.9,0,0,1,.938-2.754q1.324-1.687,4.547-1.687a8.078,8.078,0,0,1,3.727.832,3.194,3.194,0,0,1,1.629,3.141v5.859q0,.609.023,1.477a1.857,1.857,0,0,0,.2.891,1.2,1.2,0,0,0,.492.387V18H93.35a3.72,3.72,0,0,1-.211-.727q-.059-.34-.094-.773a6.862,6.862,0,0,1-1.594,1.277,4.794,4.794,0,0,1-2.437.621,4.191,4.191,0,0,1-2.865-.99A3.532,3.532,0,0,1,85.018,14.6a3.643,3.643,0,0,1,1.816-3.41,8.065,8.065,0,0,1,2.93-.82Zm7.02-2.508V5.344H99.7V1.781h3.3V5.344h2.074V7.723h-2.074v6.75a1.52,1.52,0,0,0,.2.979,2.194,2.194,0,0,0,1.219.193q.152,0,.322-.006t.334-.018v2.5l-1.582.059q-2.367.082-3.234-.82a2.442,2.442,0,0,1-.562-1.77V7.723ZM110.658,3.7h-3.387V.621h3.387Zm-3.387,1.523h3.387V18h-3.387Zm14.5,0h3.586L120.748,18h-3.527L112.639,5.227h3.75l2.66,9.422Zm12.516,6.563a3.629,3.629,0,0,1-.639.322,5.341,5.341,0,0,1-.885.229l-.75.141a4.843,4.843,0,0,0-1.512.457,1.532,1.532,0,0,0-.773,1.418,1.493,1.493,0,0,0,.475,1.236,1.786,1.786,0,0,0,1.154.381,3.4,3.4,0,0,0,1.986-.633,2.7,2.7,0,0,0,.943-2.309Zm-2.027-1.559a5.213,5.213,0,0,0,1.324-.293,1,1,0,0,0,.715-.949A1.126,1.126,0,0,0,133.75,7.9a3.4,3.4,0,0,0-1.6-.3,2.084,2.084,0,0,0-1.676.586,2.435,2.435,0,0,0-.469,1.172h-3.223a4.9,4.9,0,0,1,.938-2.754q1.324-1.687,4.547-1.687a8.078,8.078,0,0,1,3.727.832,3.194,3.194,0,0,1,1.629,3.141v5.859q0,.609.023,1.477a1.857,1.857,0,0,0,.2.891,1.2,1.2,0,0,0,.492.387V18h-3.633a3.72,3.72,0,0,1-.211-.727q-.059-.34-.094-.773a6.862,6.862,0,0,1-1.594,1.277,4.794,4.794,0,0,1-2.437.621,4.191,4.191,0,0,1-2.865-.99,3.532,3.532,0,0,1-1.131-2.807,3.643,3.643,0,0,1,1.816-3.41,8.065,8.065,0,0,1,2.93-.82Zm10.934,3.691a2.23,2.23,0,0,0,.457,1.266,3.09,3.09,0,0,0,2.3.668,3.5,3.5,0,0,0,1.564-.293.983.983,0,0,0,.111-1.734,19.069,19.069,0,0,0-3.48-1.008,7.249,7.249,0,0,1-3.059-1.348,2.922,2.922,0,0,1-.891-2.3,3.984,3.984,0,0,1,1.389-3.041,5.577,5.577,0,0,1,3.908-1.271,7.17,7.17,0,0,1,3.9.955,4.091,4.091,0,0,1,1.729,3.3h-3.34a1.976,1.976,0,0,0-.363-1.02,2.286,2.286,0,0,0-1.875-.68,2.694,2.694,0,0,0-1.553.34.978.978,0,0,0-.463.8.872.872,0,0,0,.492.832,21.307,21.307,0,0,0,3.48.926,6.393,6.393,0,0,1,2.988,1.418,3.219,3.219,0,0,1,.984,2.4,3.882,3.882,0,0,1-1.412,3.1,8.472,8.472,0,0,1-8.812-.07,4.137,4.137,0,0,1-1.436-3.24Z" transform="translate(637 4730.5)" fill="#fff"/>
  </g>
</svg>
