<svg id="Grupo_36360" data-name="Grupo 36360" xmlns="http://www.w3.org/2000/svg" xmlns:xlink="http://www.w3.org/1999/xlink" width="41.145" height="41.143" viewBox="0 0 41.145 41.143">
  <defs>
    <clipPath id="clip-path">
      <rect id="Rectángulo_28232" data-name="Rectángulo 28232" width="41.145" height="41.143" fill="none"/>
    </clipPath>
  </defs>
  <g id="Grupo_26253" data-name="Grupo 26253" transform="translate(0 0)" clip-path="url(#clip-path)">
    <path id="Trazado_67547" data-name="Trazado 67547" d="M41.145,20.572A20.572,20.572,0,1,1,20.571,0,20.572,20.572,0,0,1,41.145,20.572" transform="translate(0 0)" fill="#8acc59"/>
    <path id="Trazado_67548" data-name="Trazado 67548" d="M23.007,24.588l-5.77,5.77a3.615,3.615,0,1,1-5.114-5.111L17.9,19.474a1.72,1.72,0,0,0,0-2.432l-5.016-5.014a3.616,3.616,0,0,1,5.114-5.114l5.014,5.014a8.962,8.962,0,0,1,0,12.66" transform="translate(4.191 2.218)" fill="#fcfcfc"/>
  </g>
</svg>
