<svg xmlns="http://www.w3.org/2000/svg" xmlns:xlink="http://www.w3.org/1999/xlink" width="1447.671" height="366.084" viewBox="0 0 1447.671 366.084">
  <defs>
    <linearGradient id="linear-gradient" x1="0.619" y1="0.388" x2="0.062" y2="0.386" gradientUnits="objectBoundingBox">
      <stop offset="0" stop-color="#6fd8d8"/>
      <stop offset="0.227" stop-color="#86ce6d"/>
      <stop offset="0.547" stop-color="#89cd5f" stop-opacity="0.345"/>
      <stop offset="1" stop-color="#8acc59" stop-opacity="0.039"/>
    </linearGradient>
  </defs>
  <g id="Grupo_37541" data-name="Grupo 37541" transform="translate(1108.671 7915.547)">
    <path id="Trazado_85166" data-name="Trazado 85166" d="M0,0H1447.671V366H0Z" transform="translate(339 -7549.491) rotate(180)" fill="url(#linear-gradient)"/>
    <g id="Grupo_36340" data-name="Grupo 36340" transform="translate(-606.847 -7915.547) rotate(90)" opacity="0.102">
      <g id="Grupo_36322" data-name="Grupo 36322" transform="translate(0 197.724)">
        <g id="Grupo_36321" data-name="Grupo 36321">
          <path id="Trazado_85159" data-name="Trazado 85159" d="M143.581,227.694c-.043-10.525,5.174-18.854,7.521-28.768,3.22-13.586,3.172-28.552.894-42.287a91.085,91.085,0,0,0-4.482-16.189,33.318,33.318,0,0,0-6.1-9.987,29.715,29.715,0,0,0-7.512-4.9c-6.411-2.437-13.536-2.9-20.291-3.66-15.819-1.778-31.448-3.542-46.293-9.578A147.732,147.732,0,0,1,27.136,87.476c-11.722-9.927-19.438-22.4-25-36.525C-.931,43.168-.116,33.287,1.023,25.216,2.1,17.617,7.34,11.937,11.3,5.66c5.07-8.033,19.808-7.891,21.776,2.85,1.108,6.027,5.121,10.873,7.19,16.705,1.833,5.169,5.813,10.753,8.845,15.319,5.779,8.694,15.228,15.78,24.6,21.36,26.589,15.836,59.622,7.971,86.079,23.484,26.409,15.485,34.73,46.908,33.288,75.554A119.836,119.836,0,0,1,180.55,207.6c-5.5,11.116-14.211,18.008-23.458,25.685-5.123,4.253-13.483,1.778-13.512-5.6Z" transform="translate(0 0)" fill="#f2f2f2"/>
        </g>
      </g>
      <g id="Grupo_36324" data-name="Grupo 36324" transform="translate(14.659 323.013)">
        <g id="Grupo_36323" data-name="Grupo 36323" transform="translate(0 0)">
          <path id="Trazado_85160" data-name="Trazado 85160" d="M2.678,5.43C15.659-2.62,34.217-.349,48.211,3.484,63.85,7.773,77.667,16.861,88.735,28.568c24.32,25.728,28.845,63.186,9.761,93.2-5.178,8.146-15.088,15.288-24.8,9.6-9.247-5.416-6.947-17.864-1.492-24.969,9.946-12.957,11.825-27.918,7.033-43.256-4.429-14.168-15.845-25.392-27.74-33.6a72,72,0,0,0-21.588-9.859c-8.574-2.415-17.268-2.172-25.889-4.008C-.931,14.621-1.225,7.85,2.678,5.43Z" transform="translate(0 0)" fill="#f2f2f2"/>
        </g>
      </g>
      <g id="Grupo_36326" data-name="Grupo 36326" transform="translate(17.98 132.714)">
        <g id="Grupo_36325" data-name="Grupo 36325" transform="translate(0)">
          <path id="Trazado_85161" data-name="Trazado 85161" d="M8.325,6.949c.636-2.348-.952-4.027.688-1.632.862,1.259,1.583,2.458,2.354,3.854,1.921,3.475,4.009,6.772,6.082,10.061,4.1,6.5,7.983,13.262,12.173,19.651A94.717,94.717,0,0,0,77.364,76.81c31.147,11.565,64.16,22.187,84.461,60.663,11.976,22.7,12.928,52.4,14.672,79.471.853,13.236,2.307,26.889,6.769,38.748,3.451,9.174,9.868,12.918,16.7,14.908,11.7,3.407,28.993-1.379,35.092-17.013,6-15.386,2.664-38.889,2-55.614-1.348-33.886,6.832-61.033,27.458-79.694,9.992-9.038,23.388-12.589,35-9.107,12.257,3.674,21.668,13.622,30.4,25.945,7.072,9.982-1.862,24.885-10.3,18.87-7.793-5.551-16.753-10.1-25.467-11.565-9.853-1.653-18.033,4.664-24.944,14.108-11.67,15.953-7.587,41.067-6.888,61.506.75,21.84-.641,44.493-10.506,62.244-10.593,19.058-29.28,25.233-45.644,25.661-17.936.466-34.759-10.84-44.225-32.632-11.273-25.957-9.125-58.572-12.607-87.408-5.867-48.6-38.613-60.386-67.484-73.048C56.392,101.68,33.41,88.02,17.1,56.738a226.3,226.3,0,0,1-13-31.676C2.081,19.107-3.117,5.831,2.6.73,5.337-1.707,9.566,2.366,8.325,6.949Z" transform="translate(0 0)" fill="#f2f2f2"/>
        </g>
      </g>
      <g id="Grupo_36328" data-name="Grupo 36328" transform="translate(12.474 46.35)">
        <g id="Grupo_36327" data-name="Grupo 36327" transform="translate(0)">
          <path id="Trazado_85162" data-name="Trazado 85162" d="M14.863,13.056c.221-.637-.009-.286.111.694a13.957,13.957,0,0,0,1.434,4.071,81.16,81.16,0,0,0,7.126,11.652C30.944,40.15,39.723,49.1,48.377,57.715c7.838,7.8,15.981,15.134,24.257,22,11.709,9.722,25.419,14.514,38.478,19.4,32.539,12.164,67.382,24.356,91.775,58.966,23.956,33.99,24.3,81.734,23.278,126.259-.474,20.632-23.451,20.726-23.1,0,.438-25.745-2.024-50.738.834-76.438,2.971-26.731,14.314-49.635,31.071-63.243,19.5-15.833,42.3-21.684,64.471-24.412,6.589-.807,14.525-1.641,19.383-4.775,6.057-3.9,11.384-13.714,14.943-22.8,4.957-12.661,19.478-6.885,19.336,7.276-.147,14.622-2.072,27.5-9.187,38.664-5.538,8.689-13.795,13.973-21.66,17.119-7.932,3.172-16.444,3.7-24.635,4.489a110.472,110.472,0,0,0-30.675,7.425c-17.788,7.077-32.47,18.781-37.738,44.479-4.661,22.725-3.561,48.831-3.044,72.219h-23.1c-.991-39.591-2.43-85.367-27.345-111.038-30.1-31.015-69.093-34.732-102.715-55.069C54.035,106.755,37,87.4,22.329,67.382,12.315,53.731-11.488,19.9,6.58,1.551,11.952-3.9,17.213,6.258,14.863,13.056Z" transform="translate(0 0)" fill="#f2f2f2"/>
        </g>
      </g>
      <g id="Grupo_36330" data-name="Grupo 36330" transform="translate(52.942 32.237)">
        <g id="Grupo_36329" data-name="Grupo 36329" transform="translate(0)">
          <path id="Trazado_85163" data-name="Trazado 85163" d="M3.389.939c7.038,11.445,17.738,20.094,26.69,28.194A162.072,162.072,0,0,0,61.728,51.518a235.1,235.1,0,0,0,69.266,24c29.028,5.33,59.264,9.573,88.466,5.947,16.025-1.99,30.457-9.927,45.18-18.661a128.689,128.689,0,0,1,20.782-10.3c7.123-2.631,15.225-.6,22.317,1.288,7.18,1.913,7.22,18.988,0,20.853-14.345,3.708-28.7,11.491-42.229,19.183-15.972,9.083-31.638,14.855-48.79,16.955-17.583,2.153-35.2.147-52.732-1.973-13.161-1.593-26.271-3.006-39.339-5.818A209.86,209.86,0,0,1,51.289,72.184,149.76,149.76,0,0,1,19.761,43.942C10.429,32.864,5.55,19.67.22,4.456-.767,1.64,1.8-1.649,3.389.939Z" transform="translate(0 0)" fill="#f2f2f2"/>
        </g>
      </g>
      <g id="Grupo_36332" data-name="Grupo 36332" transform="translate(55.772 0)">
        <g id="Grupo_36331" data-name="Grupo 36331" transform="translate(0)">
          <path id="Trazado_85164" data-name="Trazado 85164" d="M4.785,1.07c4.784,6.5,11.556,10.845,17.445,14.9A143.968,143.968,0,0,0,48.508,29.91c25.34,10.669,52.572,13.07,78.83,11.844,29.611-1.387,58.531,7.689,88.052,7.858a124.093,124.093,0,0,0,40.235-6.82c14.575-4.878,28.2-15.456,42.93-18.69,7.968-1.752,16.374,12.257,8.779,21.752-11.465,14.334-26.356,20.533-40.818,26.072a144.123,144.123,0,0,1-45.927,9.122c-16.4.649-32.615-2.766-48.837-5.7-16.724-3.023-33.09-3.773-49.918-3.532-27.709.4-55.722-5.323-81.794-19.123C23.666,44.03,5.935,30.23.144,4.965-.766,1,2.854-1.554,4.785,1.07Z" transform="translate(0 0)" fill="#f2f2f2"/>
        </g>
      </g>
    </g>
  </g>
</svg>
